<?xml version="1.0" encoding="utf-8" standalone="no"?>
<!DOCTYPE svg PUBLIC "-//W3C//DTD SVG 1.1//EN"
  "http://www.w3.org/Graphics/SVG/1.1/DTD/svg11.dtd">
<!-- Created with matplotlib (https://matplotlib.org/) -->
<svg height="288pt" version="1.1" viewBox="0 0 288 288" width="288pt" xmlns="http://www.w3.org/2000/svg" xmlns:xlink="http://www.w3.org/1999/xlink">
 <defs>
  <style type="text/css">
*{stroke-linecap:butt;stroke-linejoin:round;}
  </style>
 </defs>
 <g id="figure_1">
  <g id="patch_1">
   <path d="M 0 288 
L 288 288 
L 288 0 
L 0 0 
z
" style="fill:#ffffff;"/>
  </g>
  <g id="axes_1">
   <g id="patch_2">
    <path d="M 53.060385 243.422692 
L 268.929808 243.422692 
L 268.929808 27.553269 
L 53.060385 27.553269 
z
" style="fill:#fafafa;"/>
   </g>
   <g id="matplotlib.axis_1">
    <g id="xtick_1">
     <g id="line2d_1">
      <path clip-path="url(#pead86bea3d)" d="M 60.690002 243.422692 
L 60.690002 27.553269 
" style="fill:none;stroke:#b0b0b0;stroke-linecap:square;stroke-opacity:0.3;"/>
     </g>
     <g id="line2d_2"/>
     <g id="text_1">
      <!-- -10 -->
      <defs>
       <path d="M 1.125 18.5 
L 1.125 24.703125 
L 27.59375 24.703125 
L 27.59375 18.5 
z
" id="Cmr10-45"/>
       <path d="M 9.28125 0 
L 9.28125 3.515625 
Q 21.78125 3.515625 21.78125 6.6875 
L 21.78125 59.1875 
Q 16.609375 56.6875 8.6875 56.6875 
L 8.6875 60.203125 
Q 20.953125 60.203125 27.203125 66.609375 
L 28.609375 66.609375 
Q 28.953125 66.609375 29.265625 66.328125 
Q 29.59375 66.0625 29.59375 65.71875 
L 29.59375 6.6875 
Q 29.59375 3.515625 42.09375 3.515625 
L 42.09375 0 
z
" id="Cmr10-49"/>
       <path d="M 25 -2.203125 
Q 12.75 -2.203125 8.328125 7.875 
Q 3.90625 17.96875 3.90625 31.890625 
Q 3.90625 40.578125 5.484375 48.234375 
Q 7.078125 55.90625 11.78125 61.25 
Q 16.5 66.609375 25 66.609375 
Q 31.59375 66.609375 35.78125 63.375 
Q 39.984375 60.15625 42.1875 55.046875 
Q 44.390625 49.953125 45.1875 44.109375 
Q 46 38.28125 46 31.890625 
Q 46 23.296875 44.40625 15.796875 
Q 42.828125 8.296875 38.1875 3.046875 
Q 33.546875 -2.203125 25 -2.203125 
z
M 25 0.390625 
Q 30.5625 0.390625 33.296875 6.09375 
Q 36.03125 11.8125 36.671875 18.75 
Q 37.3125 25.6875 37.3125 33.5 
Q 37.3125 41.015625 36.671875 47.359375 
Q 36.03125 53.71875 33.3125 58.859375 
Q 30.609375 64.015625 25 64.015625 
Q 19.34375 64.015625 16.609375 58.828125 
Q 13.875 53.65625 13.234375 47.328125 
Q 12.59375 41.015625 12.59375 33.5 
Q 12.59375 27.9375 12.859375 23 
Q 13.140625 18.0625 14.3125 12.8125 
Q 15.484375 7.5625 18.09375 3.96875 
Q 20.703125 0.390625 25 0.390625 
z
" id="Cmr10-48"/>
      </defs>
      <g style="fill:#333333;" transform="translate(52.69219 257.749567)scale(0.12 -0.12)">
       <use xlink:href="#Cmr10-45"/>
       <use x="33.300781" xlink:href="#Cmr10-49"/>
       <use x="83.300781" xlink:href="#Cmr10-48"/>
      </g>
     </g>
    </g>
    <g id="xtick_2">
     <g id="line2d_3">
      <path clip-path="url(#pead86bea3d)" d="M 110.939054 243.422692 
L 110.939054 27.553269 
" style="fill:none;stroke:#b0b0b0;stroke-linecap:square;stroke-opacity:0.3;"/>
     </g>
     <g id="line2d_4"/>
     <g id="text_2">
      <!-- -5 -->
      <defs>
       <path d="M 8.6875 11.375 
Q 9.71875 8.453125 11.84375 6.046875 
Q 13.96875 3.65625 16.875 2.3125 
Q 19.78125 0.984375 22.90625 0.984375 
Q 30.125 0.984375 32.859375 6.59375 
Q 35.59375 12.203125 35.59375 20.21875 
Q 35.59375 23.6875 35.46875 26.046875 
Q 35.359375 28.421875 34.8125 30.609375 
Q 33.890625 34.125 31.5625 36.765625 
Q 29.25 39.40625 25.875 39.40625 
Q 22.515625 39.40625 20.09375 38.375 
Q 17.671875 37.359375 16.15625 35.984375 
Q 14.65625 34.625 13.484375 33.109375 
Q 12.3125 31.59375 12.015625 31.5 
L 10.890625 31.5 
Q 10.640625 31.5 10.265625 31.8125 
Q 9.90625 32.125 9.90625 32.421875 
L 9.90625 65.828125 
Q 9.90625 66.0625 10.21875 66.328125 
Q 10.546875 66.609375 10.890625 66.609375 
L 11.1875 66.609375 
Q 17.921875 63.375 25.484375 63.375 
Q 32.90625 63.375 39.796875 66.609375 
L 40.09375 66.609375 
Q 40.4375 66.609375 40.71875 66.359375 
Q 41.015625 66.109375 41.015625 65.828125 
L 41.015625 64.890625 
Q 41.015625 64.40625 40.828125 64.40625 
Q 37.40625 59.859375 32.25 57.3125 
Q 27.09375 54.78125 21.578125 54.78125 
Q 17.578125 54.78125 13.375 55.90625 
L 13.375 37.015625 
Q 16.703125 39.703125 19.3125 40.84375 
Q 21.921875 42 25.984375 42 
Q 31.5 42 35.859375 38.8125 
Q 40.234375 35.640625 42.578125 30.53125 
Q 44.921875 25.4375 44.921875 20.125 
Q 44.921875 14.109375 41.96875 8.984375 
Q 39.015625 3.859375 33.9375 0.828125 
Q 28.859375 -2.203125 22.90625 -2.203125 
Q 17.96875 -2.203125 13.84375 0.328125 
Q 9.71875 2.875 7.34375 7.171875 
Q 4.984375 11.46875 4.984375 16.3125 
Q 4.984375 18.5625 6.4375 19.96875 
Q 7.90625 21.390625 10.109375 21.390625 
Q 12.3125 21.390625 13.796875 19.9375 
Q 15.28125 18.5 15.28125 16.3125 
Q 15.28125 14.15625 13.796875 12.671875 
Q 12.3125 11.1875 10.109375 11.1875 
Q 9.765625 11.1875 9.328125 11.25 
Q 8.890625 11.328125 8.6875 11.375 
z
" id="Cmr10-53"/>
      </defs>
      <g style="fill:#333333;" transform="translate(105.941241 257.749567)scale(0.12 -0.12)">
       <use xlink:href="#Cmr10-45"/>
       <use x="33.300781" xlink:href="#Cmr10-53"/>
      </g>
     </g>
    </g>
    <g id="xtick_3">
     <g id="line2d_5">
      <path clip-path="url(#pead86bea3d)" d="M 161.188106 243.422692 
L 161.188106 27.553269 
" style="fill:none;stroke:#b0b0b0;stroke-linecap:square;stroke-opacity:0.3;"/>
     </g>
     <g id="line2d_6"/>
     <g id="text_3">
      <!-- 0 -->
      <g style="fill:#333333;" transform="translate(158.188106 257.749567)scale(0.12 -0.12)">
       <use xlink:href="#Cmr10-48"/>
      </g>
     </g>
    </g>
    <g id="xtick_4">
     <g id="line2d_7">
      <path clip-path="url(#pead86bea3d)" d="M 211.437158 243.422692 
L 211.437158 27.553269 
" style="fill:none;stroke:#b0b0b0;stroke-linecap:square;stroke-opacity:0.3;"/>
     </g>
     <g id="line2d_8"/>
     <g id="text_4">
      <!-- 5 -->
      <g style="fill:#333333;" transform="translate(208.437158 257.749567)scale(0.12 -0.12)">
       <use xlink:href="#Cmr10-53"/>
      </g>
     </g>
    </g>
    <g id="xtick_5">
     <g id="line2d_9">
      <path clip-path="url(#pead86bea3d)" d="M 261.686209 243.422692 
L 261.686209 27.553269 
" style="fill:none;stroke:#b0b0b0;stroke-linecap:square;stroke-opacity:0.3;"/>
     </g>
     <g id="line2d_10"/>
     <g id="text_5">
      <!-- 10 -->
      <g style="fill:#333333;" transform="translate(255.686209 257.749567)scale(0.12 -0.12)">
       <use xlink:href="#Cmr10-49"/>
       <use x="50" xlink:href="#Cmr10-48"/>
      </g>
     </g>
    </g>
    <g id="text_6">
     <!-- $x$ -->
     <defs>
      <path d="M 7.8125 2.875 
Q 9.578125 1.515625 12.796875 1.515625 
Q 15.921875 1.515625 18.3125 4.515625 
Q 20.703125 7.515625 21.578125 11.078125 
L 26.125 28.8125 
Q 27.203125 33.640625 27.203125 35.40625 
Q 27.203125 37.890625 25.8125 39.75 
Q 24.421875 41.609375 21.921875 41.609375 
Q 18.75 41.609375 15.96875 39.625 
Q 13.1875 37.640625 11.28125 34.59375 
Q 9.375 31.546875 8.59375 28.421875 
Q 8.40625 27.78125 7.8125 27.78125 
L 6.59375 27.78125 
Q 5.8125 27.78125 5.8125 28.71875 
L 5.8125 29 
Q 6.78125 32.71875 9.125 36.25 
Q 11.46875 39.796875 14.859375 41.984375 
Q 18.265625 44.1875 22.125 44.1875 
Q 25.78125 44.1875 28.734375 42.234375 
Q 31.6875 40.28125 32.90625 36.921875 
Q 34.625 39.984375 37.28125 42.078125 
Q 39.9375 44.1875 43.109375 44.1875 
Q 45.265625 44.1875 47.5 43.421875 
Q 49.75 42.671875 51.171875 41.109375 
Q 52.59375 39.546875 52.59375 37.203125 
Q 52.59375 34.671875 50.953125 32.828125 
Q 49.3125 31 46.78125 31 
Q 45.171875 31 44.09375 32.03125 
Q 43.015625 33.0625 43.015625 34.625 
Q 43.015625 36.71875 44.453125 38.296875 
Q 45.90625 39.890625 47.90625 40.1875 
Q 46.09375 41.609375 42.921875 41.609375 
Q 39.703125 41.609375 37.328125 38.625 
Q 34.96875 35.640625 33.984375 31.984375 
L 29.59375 14.3125 
Q 28.515625 10.296875 28.515625 7.71875 
Q 28.515625 5.171875 29.953125 3.34375 
Q 31.390625 1.515625 33.796875 1.515625 
Q 38.484375 1.515625 42.15625 5.640625 
Q 45.84375 9.765625 47.015625 14.703125 
Q 47.21875 15.28125 47.796875 15.28125 
L 49.03125 15.28125 
Q 49.421875 15.28125 49.65625 15.015625 
Q 49.90625 14.75 49.90625 14.40625 
Q 49.90625 14.3125 49.8125 14.109375 
Q 48.390625 8.15625 43.84375 3.515625 
Q 39.3125 -1.125 33.59375 -1.125 
Q 29.9375 -1.125 26.984375 0.84375 
Q 24.03125 2.828125 22.796875 6.203125 
Q 21.234375 3.265625 18.46875 1.0625 
Q 15.71875 -1.125 12.59375 -1.125 
Q 10.453125 -1.125 8.171875 -0.359375 
Q 5.90625 0.390625 4.484375 1.953125 
Q 3.078125 3.515625 3.078125 5.90625 
Q 3.078125 8.25 4.703125 10.171875 
Q 6.34375 12.109375 8.796875 12.109375 
Q 10.453125 12.109375 11.578125 11.109375 
Q 12.703125 10.109375 12.703125 8.5 
Q 12.703125 6.390625 11.296875 4.828125 
Q 9.90625 3.265625 7.8125 2.875 
z
" id="Cmmi10-120"/>
     </defs>
     <g transform="translate(157.515096 272.403317)scale(0.12 -0.12)">
      <use transform="translate(0 0.8125)" xlink:href="#Cmmi10-120"/>
     </g>
    </g>
   </g>
   <g id="matplotlib.axis_2">
    <g id="ytick_1">
     <g id="line2d_11">
      <path clip-path="url(#pead86bea3d)" d="M 53.060385 242.92166 
L 268.929808 242.92166 
" style="fill:none;stroke:#b0b0b0;stroke-linecap:square;stroke-opacity:0.3;"/>
     </g>
     <g id="line2d_12"/>
     <g id="text_7">
      <!-- -30 -->
      <defs>
       <path d="M 9.515625 7.71875 
Q 11.859375 4.296875 15.8125 2.640625 
Q 19.78125 0.984375 24.3125 0.984375 
Q 30.125 0.984375 32.5625 5.9375 
Q 35.015625 10.890625 35.015625 17.1875 
Q 35.015625 20.015625 34.5 22.84375 
Q 33.984375 25.6875 32.765625 28.125 
Q 31.546875 30.5625 29.421875 32.03125 
Q 27.296875 33.5 24.21875 33.5 
L 17.578125 33.5 
Q 16.703125 33.5 16.703125 34.421875 
L 16.703125 35.296875 
Q 16.703125 36.078125 17.578125 36.078125 
L 23.09375 36.53125 
Q 26.609375 36.53125 28.921875 39.15625 
Q 31.25 41.796875 32.328125 45.578125 
Q 33.40625 49.359375 33.40625 52.78125 
Q 33.40625 57.5625 31.15625 60.640625 
Q 28.90625 63.71875 24.3125 63.71875 
Q 20.515625 63.71875 17.046875 62.28125 
Q 13.578125 60.84375 11.53125 57.90625 
Q 11.71875 57.953125 11.859375 57.984375 
Q 12.015625 58.015625 12.203125 58.015625 
Q 14.453125 58.015625 15.96875 56.453125 
Q 17.484375 54.890625 17.484375 52.6875 
Q 17.484375 50.53125 15.96875 48.96875 
Q 14.453125 47.40625 12.203125 47.40625 
Q 10.015625 47.40625 8.453125 48.96875 
Q 6.890625 50.53125 6.890625 52.6875 
Q 6.890625 56.984375 9.46875 60.15625 
Q 12.0625 63.328125 16.140625 64.96875 
Q 20.21875 66.609375 24.3125 66.609375 
Q 27.34375 66.609375 30.703125 65.703125 
Q 34.078125 64.796875 36.8125 63.109375 
Q 39.546875 61.421875 41.28125 58.78125 
Q 43.015625 56.15625 43.015625 52.78125 
Q 43.015625 48.578125 41.140625 45.015625 
Q 39.265625 41.453125 35.984375 38.859375 
Q 32.71875 36.28125 28.8125 35.015625 
Q 33.15625 34.1875 37.0625 31.734375 
Q 40.96875 29.296875 43.328125 25.484375 
Q 45.703125 21.6875 45.703125 17.28125 
Q 45.703125 11.765625 42.671875 7.296875 
Q 39.65625 2.828125 34.71875 0.3125 
Q 29.78125 -2.203125 24.3125 -2.203125 
Q 19.625 -2.203125 14.90625 -0.40625 
Q 10.203125 1.375 7.203125 4.9375 
Q 4.203125 8.5 4.203125 13.484375 
Q 4.203125 15.96875 5.859375 17.625 
Q 7.515625 19.28125 10.015625 19.28125 
Q 11.625 19.28125 12.96875 18.53125 
Q 14.3125 17.78125 15.0625 16.40625 
Q 15.828125 15.046875 15.828125 13.484375 
Q 15.828125 11.03125 14.109375 9.375 
Q 12.40625 7.71875 10.015625 7.71875 
z
" id="Cmr10-51"/>
      </defs>
      <g style="fill:#333333;" transform="translate(31.06476 247.085098)scale(0.12 -0.12)">
       <use xlink:href="#Cmr10-45"/>
       <use x="33.300781" xlink:href="#Cmr10-51"/>
       <use x="83.300781" xlink:href="#Cmr10-48"/>
      </g>
     </g>
    </g>
    <g id="ytick_2">
     <g id="line2d_13">
      <path clip-path="url(#pead86bea3d)" d="M 53.060385 190.139335 
L 268.929808 190.139335 
" style="fill:none;stroke:#b0b0b0;stroke-linecap:square;stroke-opacity:0.3;"/>
     </g>
     <g id="line2d_14"/>
     <g id="text_8">
      <!-- -20 -->
      <defs>
       <path d="M 4.984375 0 
L 4.984375 2.6875 
Q 4.984375 2.9375 5.171875 3.21875 
L 20.703125 20.40625 
Q 24.21875 24.21875 26.40625 26.796875 
Q 28.609375 29.390625 30.75 32.765625 
Q 32.90625 36.140625 34.15625 39.625 
Q 35.40625 43.109375 35.40625 47.015625 
Q 35.40625 51.125 33.890625 54.859375 
Q 32.375 58.59375 29.375 60.84375 
Q 26.375 63.09375 22.125 63.09375 
Q 17.78125 63.09375 14.3125 60.46875 
Q 10.84375 57.859375 9.421875 53.71875 
Q 9.8125 53.8125 10.5 53.8125 
Q 12.75 53.8125 14.328125 52.296875 
Q 15.921875 50.78125 15.921875 48.390625 
Q 15.921875 46.09375 14.328125 44.5 
Q 12.75 42.921875 10.5 42.921875 
Q 8.15625 42.921875 6.5625 44.546875 
Q 4.984375 46.1875 4.984375 48.390625 
Q 4.984375 52.15625 6.390625 55.4375 
Q 7.8125 58.734375 10.46875 61.296875 
Q 13.140625 63.875 16.484375 65.234375 
Q 19.828125 66.609375 23.578125 66.609375 
Q 29.296875 66.609375 34.21875 64.1875 
Q 39.15625 61.765625 42.03125 57.34375 
Q 44.921875 52.9375 44.921875 47.015625 
Q 44.921875 42.671875 43.015625 38.765625 
Q 41.109375 34.859375 38.125 31.65625 
Q 35.15625 28.46875 30.515625 24.40625 
Q 25.875 20.359375 24.421875 19 
L 13.09375 8.109375 
L 22.703125 8.109375 
Q 29.78125 8.109375 34.546875 8.21875 
Q 39.3125 8.34375 39.59375 8.59375 
Q 40.765625 9.859375 42 17.828125 
L 44.921875 17.828125 
L 42.09375 0 
z
" id="Cmr10-50"/>
      </defs>
      <g style="fill:#333333;" transform="translate(31.06476 194.302772)scale(0.12 -0.12)">
       <use xlink:href="#Cmr10-45"/>
       <use x="33.300781" xlink:href="#Cmr10-50"/>
       <use x="83.300781" xlink:href="#Cmr10-48"/>
      </g>
     </g>
    </g>
    <g id="ytick_3">
     <g id="line2d_15">
      <path clip-path="url(#pead86bea3d)" d="M 53.060385 137.357009 
L 268.929808 137.357009 
" style="fill:none;stroke:#b0b0b0;stroke-linecap:square;stroke-opacity:0.3;"/>
     </g>
     <g id="line2d_16"/>
     <g id="text_9">
      <!-- -10 -->
      <g style="fill:#333333;" transform="translate(31.06476 141.520447)scale(0.12 -0.12)">
       <use xlink:href="#Cmr10-45"/>
       <use x="33.300781" xlink:href="#Cmr10-49"/>
       <use x="83.300781" xlink:href="#Cmr10-48"/>
      </g>
     </g>
    </g>
    <g id="ytick_4">
     <g id="line2d_17">
      <path clip-path="url(#pead86bea3d)" d="M 53.060385 84.574683 
L 268.929808 84.574683 
" style="fill:none;stroke:#b0b0b0;stroke-linecap:square;stroke-opacity:0.3;"/>
     </g>
     <g id="line2d_18"/>
     <g id="text_10">
      <!-- 0 -->
      <g style="fill:#333333;" transform="translate(41.060385 88.738121)scale(0.12 -0.12)">
       <use xlink:href="#Cmr10-48"/>
      </g>
     </g>
    </g>
    <g id="ytick_5">
     <g id="line2d_19">
      <path clip-path="url(#pead86bea3d)" d="M 53.060385 31.792358 
L 268.929808 31.792358 
" style="fill:none;stroke:#b0b0b0;stroke-linecap:square;stroke-opacity:0.3;"/>
     </g>
     <g id="line2d_20"/>
     <g id="text_11">
      <!-- 10 -->
      <g style="fill:#333333;" transform="translate(35.060385 35.955795)scale(0.12 -0.12)">
       <use xlink:href="#Cmr10-49"/>
       <use x="50" xlink:href="#Cmr10-48"/>
      </g>
     </g>
    </g>
    <g id="text_12">
     <!-- $y$ -->
     <defs>
      <path d="M 8.40625 -14.3125 
Q 10.5 -17.921875 15.71875 -17.921875 
Q 20.453125 -17.921875 23.921875 -14.59375 
Q 27.390625 -11.28125 29.515625 -6.5625 
Q 31.640625 -1.859375 32.8125 3.078125 
Q 28.375 -1.125 23.1875 -1.125 
Q 19.234375 -1.125 16.453125 0.234375 
Q 13.671875 1.609375 12.125 4.3125 
Q 10.59375 7.03125 10.59375 10.890625 
Q 10.59375 14.15625 11.46875 17.59375 
Q 12.359375 21.046875 13.9375 25.265625 
Q 15.53125 29.5 16.703125 32.625 
Q 18.015625 36.28125 18.015625 38.625 
Q 18.015625 41.609375 15.828125 41.609375 
Q 11.859375 41.609375 9.296875 37.53125 
Q 6.734375 33.453125 5.515625 28.421875 
Q 5.328125 27.78125 4.6875 27.78125 
L 3.515625 27.78125 
Q 2.6875 27.78125 2.6875 28.71875 
L 2.6875 29 
Q 4.296875 34.96875 7.609375 39.578125 
Q 10.9375 44.1875 16.015625 44.1875 
Q 19.578125 44.1875 22.046875 41.84375 
Q 24.515625 39.5 24.515625 35.890625 
Q 24.515625 34.03125 23.6875 31.984375 
Q 23.25 30.765625 21.6875 26.65625 
Q 20.125 22.5625 19.28125 19.875 
Q 18.453125 17.1875 17.921875 14.59375 
Q 17.390625 12.015625 17.390625 9.421875 
Q 17.390625 6.109375 18.796875 3.8125 
Q 20.21875 1.515625 23.296875 1.515625 
Q 29.5 1.515625 34.421875 9.078125 
L 42 39.890625 
Q 42.328125 41.21875 43.546875 42.15625 
Q 44.78125 43.109375 46.1875 43.109375 
Q 47.40625 43.109375 48.3125 42.328125 
Q 49.21875 41.546875 49.21875 40.28125 
Q 49.21875 39.703125 49.125 39.5 
L 39.203125 -0.296875 
Q 37.890625 -5.421875 34.375 -10.109375 
Q 30.859375 -14.796875 25.90625 -17.65625 
Q 20.953125 -20.515625 15.578125 -20.515625 
Q 12.984375 -20.515625 10.4375 -19.5 
Q 7.90625 -18.5 6.34375 -16.5 
Q 4.78125 -14.5 4.78125 -11.8125 
Q 4.78125 -9.078125 6.390625 -7.078125 
Q 8.015625 -5.078125 10.6875 -5.078125 
Q 12.3125 -5.078125 13.40625 -6.078125 
Q 14.5 -7.078125 14.5 -8.6875 
Q 14.5 -10.984375 12.78125 -12.6875 
Q 11.078125 -14.40625 8.796875 -14.40625 
Q 8.6875 -14.359375 8.59375 -14.328125 
Q 8.5 -14.3125 8.40625 -14.3125 
z
" id="Cmmi10-121"/>
     </defs>
     <g transform="translate(24.54476 138.487981)rotate(-90)scale(0.12 -0.12)">
      <use transform="translate(0 0.8125)" xlink:href="#Cmmi10-121"/>
     </g>
    </g>
   </g>
   <g id="PolyCollection_1">
    <defs>
     <path d="M 62.872631 -250.634484 
L 62.872631 -54.389554 
L 63.986002 -63.675771 
L 64.257652 -65.833061 
L 65.302087 -73.756319 
L 65.510344 -75.268427 
L 66.279847 -80.671073 
L 67.316178 -87.510321 
L 67.916964 -91.259915 
L 68.059836 -92.129489 
L 68.095956 -92.348002 
L 68.335997 -93.786678 
L 69.662451 -101.333647 
L 70.516992 -105.856439 
L 74.255184 -122.96208 
L 76.260505 -130.62587 
L 76.369429 -131.016265 
L 77.461107 -134.794768 
L 78.006919 -136.595967 
L 79.010911 -139.766543 
L 81.483485 -146.865017 
L 85.699753 -157.060363 
L 85.932771 -157.565174 
L 86.905611 -159.615447 
L 87.570105 -160.965826 
L 88.108251 -162.031297 
L 89.28086 -164.270989 
L 89.421629 -164.532689 
L 90.129634 -165.826648 
L 90.147384 -165.858617 
L 91.632313 -169.295024 
L 91.810887 -169.718253 
L 92.82579 -172.122353 
L 93.23849 -173.099389 
L 93.983224 -174.861653 
L 94.699556 -176.555727 
L 99.896693 -188.817927 
L 101.476518 -192.553035 
L 101.765384 -193.256143 
L 102.875118 -195.95311 
L 103.469663 -197.395351 
L 104.234487 -199.247963 
L 108.005876 -209.513854 
L 109.966302 -213.994702 
L 116.687391 -220.599118 
L 118.161592 -220.408095 
L 120.433372 -219.774024 
L 121.37834 -219.333615 
L 123.186578 -218.0482 
L 123.377915 -217.90041 
L 124.61559 -216.889184 
L 125.874008 -215.660396 
L 126.031855 -215.506228 
L 126.269015 -215.274581 
L 129.429643 -211.670494 
L 130.662329 -210.181123 
L 131.210494 -209.517052 
L 132.207909 -208.308653 
L 132.639111 -207.786203 
L 133.040133 -207.316711 
L 134.171262 -205.936953 
L 134.485408 -205.583065 
L 134.998743 -205.004783 
L 136.471603 -203.34618 
L 137.079715 -202.737934 
L 137.311427 -202.505225 
L 139.429073 -200.542262 
L 140.722245 -199.537089 
L 141.03206 -199.321425 
L 141.536377 -198.977284 
L 141.56036 -198.961029 
L 142.859934 -198.154056 
L 143.220783 -197.933753 
L 143.545234 -197.751602 
L 143.917276 -197.616957 
L 145.344527 -197.100181 
L 146.123882 -196.918401 
L 146.211804 -196.903916 
L 147.50974 -196.79965 
L 148.388096 -196.740499 
L 150.301384 -196.989533 
L 150.51174 -197.043032 
L 150.841804 -197.126964 
L 151.286424 -197.240003 
L 151.898592 -197.418065 
L 152.550724 -197.637821 
L 154.466683 -198.54929 
L 154.908198 -198.793753 
L 155.479502 -199.109598 
L 156.098702 -199.5058 
L 159.101553 -201.843678 
L 161.119789 -200.672856 
L 161.165663 -200.562477 
L 161.253494 -200.326148 
L 161.262988 -200.298829 
L 161.360518 -199.999073 
L 163.19631 -193.380372 
L 163.500433 -193.007297 
L 163.954562 -192.369565 
L 164.617855 -191.247618 
L 165.145215 -190.425287 
L 166.918226 -189.939023 
L 167.234771 -190.039284 
L 167.557606 -190.13989 
L 168.217827 -190.598354 
L 168.524273 -190.851099 
L 171.320683 -193.2308 
L 171.845092 -193.695387 
L 171.961935 -193.773963 
L 172.176016 -193.900161 
L 172.938399 -194.30464 
L 173.696121 -194.884981 
L 173.810045 -194.987091 
L 173.863036 -195.034487 
L 174.77798 -195.842313 
L 175.610692 -195.984835 
L 176.393868 -194.037126 
L 176.697511 -193.281899 
L 177.205639 -193.155001 
L 177.328586 -193.135743 
L 178.864528 -192.93752 
L 178.923779 -192.93496 
L 179.214625 -192.921931 
L 179.99388 -192.883095 
L 180.995347 -192.580749 
L 182.154558 -192.079549 
L 182.632287 -191.871046 
L 182.866763 -191.768308 
L 183.371339 -191.546327 
L 184.992752 -190.54048 
L 186.245545 -189.497449 
L 187.199298 -188.777719 
L 187.334976 -188.678777 
L 190.593082 -184.944448 
L 193.562923 -180.672447 
L 193.930658 -180.112197 
L 196.54825 -176.114675 
L 196.775108 -175.767414 
L 198.552547 -173.042174 
L 199.543463 -171.519359 
L 199.82617 -171.150964 
L 204.460876 -171.377013 
L 206.031886 -172.34698 
L 206.471314 -172.614605 
L 207.242195 -173.080307 
L 209.266353 -174.280671 
L 209.831726 -174.610299 
L 210.312075 -174.888467 
L 211.041203 -175.558812 
L 214.302686 -185.026447 
L 216.213613 -189.993188 
L 216.444546 -190.55758 
L 217.907774 -193.873205 
L 218.816206 -195.788052 
L 219.435632 -197.280105 
L 220.109367 -198.901852 
L 220.144356 -198.986038 
L 220.80783 -200.58191 
L 221.208268 -201.544564 
L 221.944852 -203.314282 
L 222.706719 -205.143362 
L 223.298706 -206.563653 
L 223.353462 -206.694977 
L 223.768773 -207.69082 
L 223.905708 -208.019098 
L 224.944851 -210.428831 
L 225.952393 -212.746606 
L 226.135182 -213.167086 
L 227.110688 -215.41086 
L 228.404371 -218.386116 
L 228.80753 -219.313233 
L 233.814611 -230.82431 
L 235.159202 -232.241245 
L 235.670258 -232.775375 
L 236.922067 -234.083668 
L 239.251994 -236.518669 
L 239.708002 -236.995211 
L 239.86184 -237.156006 
L 240.665308 -237.995674 
L 241.906347 -239.292614 
L 242.290233 -239.693793 
L 243.189431 -240.633469 
L 244.203456 -240.219844 
L 246.045062 -236.523829 
L 246.414606 -235.781957 
L 248.919566 -229.659999 
L 251.194493 -222.790986 
L 251.2328 -222.672848 
L 251.625958 -221.455124 
L 252.018983 -220.228201 
L 253.530498 -215.412462 
L 254.655238 -211.718565 
L 255.212465 -209.849806 
L 256.197421 -206.478248 
L 256.509915 -205.389155 
L 256.574042 -205.16447 
L 256.915261 -203.961804 
L 257.953365 -200.226096 
L 258.384294 -198.639411 
L 258.842038 -196.929336 
L 259.117561 -195.887318 
L 259.117561 -223.23305 
L 259.117561 -223.23305 
L 258.842038 -223.550624 
L 258.384294 -224.099357 
L 257.953365 -224.63906 
L 256.915261 -226.025996 
L 256.574042 -226.507109 
L 256.509915 -226.598808 
L 256.197421 -227.051784 
L 255.212465 -228.540513 
L 254.655238 -229.421451 
L 253.530498 -231.277659 
L 252.018983 -233.92056 
L 251.625958 -234.633022 
L 251.2328 -235.355418 
L 251.194493 -235.4263 
L 248.919566 -239.783056 
L 246.414606 -244.935592 
L 246.045062 -245.714184 
L 244.203456 -249.59539 
L 243.189431 -250.04926 
L 242.290233 -249.09449 
L 241.906347 -248.68688 
L 240.665308 -247.369149 
L 239.86184 -246.51605 
L 239.708002 -246.352701 
L 239.251994 -245.868533 
L 236.922067 -243.394746 
L 235.670258 -242.065675 
L 235.159202 -241.523088 
L 233.814611 -240.084669 
L 228.80753 -228.914264 
L 228.404371 -228.015119 
L 227.110688 -225.130164 
L 226.135182 -222.955031 
L 225.952393 -222.547475 
L 224.944851 -220.301207 
L 223.905708 -217.99411 
L 223.768773 -217.695375 
L 223.353462 -216.789641 
L 223.298706 -216.67026 
L 222.706719 -215.379984 
L 221.944852 -213.720695 
L 221.208268 -212.117815 
L 220.80783 -211.246969 
L 220.144356 -209.804983 
L 220.109367 -209.728974 
L 219.435632 -208.265887 
L 218.816206 -206.921755 
L 217.907774 -205.296057 
L 216.444546 -203.55017 
L 216.213613 -203.309613 
L 214.302686 -201.607518 
L 211.041203 -199.692495 
L 210.312075 -199.67762 
L 209.831726 -199.692787 
L 209.266353 -199.712855 
L 207.242195 -199.804928 
L 206.471314 -199.848542 
L 206.031886 -199.875577 
L 204.460876 -199.985365 
L 199.82617 -202.013688 
L 199.543463 -202.33849 
L 198.552547 -203.466857 
L 196.775108 -205.497155 
L 196.54825 -205.756864 
L 193.930658 -208.762696 
L 193.562923 -209.186324 
L 190.593082 -212.851136 
L 187.334976 -216.398385 
L 187.199298 -216.513943 
L 186.245545 -217.380502 
L 184.992752 -218.739343 
L 183.371339 -220.394381 
L 182.866763 -220.883568 
L 182.632287 -221.111321 
L 182.154558 -221.576166 
L 180.995347 -222.708819 
L 179.99388 -223.633079 
L 179.214625 -224.266542 
L 178.923779 -224.504442 
L 178.864528 -224.553006 
L 177.328586 -225.842983 
L 177.205639 -225.947609 
L 176.697511 -226.368727 
L 176.393868 -227.070661 
L 175.610692 -228.881341 
L 174.77798 -229.703845 
L 173.863036 -230.058787 
L 173.810045 -230.079952 
L 173.696121 -230.125668 
L 172.938399 -230.276677 
L 172.176016 -230.155699 
L 171.961935 -230.111707 
L 171.845092 -230.097247 
L 171.320683 -230.142558 
L 168.524273 -228.893002 
L 168.217827 -228.717184 
L 167.557606 -228.166166 
L 167.234771 -227.713345 
L 166.918226 -227.270955 
L 165.145215 -223.488211 
L 164.617855 -221.539019 
L 163.954562 -218.983907 
L 163.500433 -217.364955 
L 163.19631 -216.334769 
L 161.360518 -207.395162 
L 161.262988 -206.98719 
L 161.253494 -206.949335 
L 161.165663 -206.611697 
L 161.119789 -206.441677 
L 159.101553 -202.555301 
L 156.098702 -199.870586 
L 155.479502 -199.450579 
L 154.908198 -199.115515 
L 154.466683 -198.856945 
L 152.550724 -197.898549 
L 151.898592 -197.671249 
L 151.286424 -197.487532 
L 150.841804 -197.37099 
L 150.51174 -197.284489 
L 150.301384 -197.229367 
L 148.388096 -196.973193 
L 147.50974 -197.030583 
L 146.211804 -197.132117 
L 146.123882 -197.146353 
L 145.344527 -197.329497 
L 143.917276 -197.859684 
L 143.545234 -197.997952 
L 143.220783 -198.181154 
L 142.859934 -198.402042 
L 141.56036 -199.212032 
L 141.536377 -199.228434 
L 141.03206 -199.575683 
L 140.722245 -199.793286 
L 139.429073 -200.806882 
L 137.311427 -202.78621 
L 137.079715 -203.021579 
L 136.471603 -203.636638 
L 134.998743 -205.301789 
L 134.485408 -205.882374 
L 134.171262 -206.237681 
L 133.040133 -207.618336 
L 132.639111 -208.088439 
L 132.207909 -208.614422 
L 131.210494 -209.831154 
L 130.662329 -210.499902 
L 129.429643 -211.999928 
L 126.269015 -215.630419 
L 126.031855 -215.865658 
L 125.874008 -216.022237 
L 124.61559 -217.270832 
L 123.377915 -218.310004 
L 123.186578 -218.461977 
L 121.37834 -219.791406 
L 120.433372 -220.263382 
L 118.161592 -221.061554 
L 116.687391 -221.431005 
L 109.966302 -221.145751 
L 108.005876 -222.656259 
L 104.234487 -217.274144 
L 103.469663 -215.751578 
L 102.875118 -214.570081 
L 101.765384 -212.369756 
L 101.476518 -211.798091 
L 99.896693 -208.516907 
L 94.699556 -197.675407 
L 93.983224 -196.185046 
L 93.23849 -194.636625 
L 92.82579 -193.779005 
L 91.810887 -191.67142 
L 91.632313 -191.300793 
L 90.147384 -188.525173 
L 90.129634 -188.524998 
L 89.421629 -188.536285 
L 89.28086 -188.542946 
L 88.108251 -188.658261 
L 87.570105 -188.748771 
L 86.905611 -188.895299 
L 85.932771 -189.183118 
L 85.699753 -189.265888 
L 81.483485 -191.832548 
L 79.010911 -194.457273 
L 78.006919 -195.811287 
L 77.461107 -196.624934 
L 76.369429 -198.428164 
L 76.260505 -198.621519 
L 74.255184 -202.65696 
L 70.516992 -212.998893 
L 69.662451 -215.97553 
L 68.335997 -221.122489 
L 68.095956 -222.126856 
L 68.059836 -222.279991 
L 67.916964 -222.891079 
L 67.316178 -225.553643 
L 66.279847 -230.517802 
L 65.510344 -234.528137 
L 65.302087 -235.663446 
L 64.257652 -241.696942 
L 63.986002 -243.36276 
L 62.872631 -250.634484 
z
" id="m405c35703a" style="stroke:#b0c4de;stroke-opacity:0.4;"/>
    </defs>
    <g clip-path="url(#pead86bea3d)">
     <use style="fill:#b0c4de;fill-opacity:0.4;stroke:#b0c4de;stroke-opacity:0.4;" x="0" xlink:href="#m405c35703a" y="288"/>
    </g>
   </g>
   <g id="line2d_21">
    <defs>
     <path d="M 0 1.5 
C 0.397805 1.5 0.77937 1.341951 1.06066 1.06066 
C 1.341951 0.77937 1.5 0.397805 1.5 0 
C 1.5 -0.397805 1.341951 -0.77937 1.06066 -1.06066 
C 0.77937 -1.341951 0.397805 -1.5 0 -1.5 
C -0.397805 -1.5 -0.77937 -1.341951 -1.06066 -1.06066 
C -1.341951 -0.77937 -1.5 -0.397805 -1.5 0 
C -1.5 0.397805 -1.341951 0.77937 -1.06066 1.06066 
C -0.77937 1.341951 -0.397805 1.5 0 1.5 
z
" id="m0944004f83" style="stroke:#ff7f0e;"/>
    </defs>
    <g clip-path="url(#pead86bea3d)">
     <use style="fill-opacity:0;stroke:#ff7f0e;" x="62.872631" xlink:href="#m0944004f83" y="84.237286"/>
     <use style="fill-opacity:0;stroke:#ff7f0e;" x="63.986002" xlink:href="#m0944004f83" y="90.526415"/>
     <use style="fill-opacity:0;stroke:#ff7f0e;" x="64.257652" xlink:href="#m0944004f83" y="86.814075"/>
     <use style="fill-opacity:0;stroke:#ff7f0e;" x="65.302087" xlink:href="#m0944004f83" y="86.560795"/>
     <use style="fill-opacity:0;stroke:#ff7f0e;" x="65.510344" xlink:href="#m0944004f83" y="91.455856"/>
     <use style="fill-opacity:0;stroke:#ff7f0e;" x="66.279847" xlink:href="#m0944004f83" y="93.245753"/>
     <use style="fill-opacity:0;stroke:#ff7f0e;" x="67.316178" xlink:href="#m0944004f83" y="99.688801"/>
     <use style="fill-opacity:0;stroke:#ff7f0e;" x="67.916964" xlink:href="#m0944004f83" y="91.543759"/>
     <use style="fill-opacity:0;stroke:#ff7f0e;" x="68.059836" xlink:href="#m0944004f83" y="105.651366"/>
     <use style="fill-opacity:0;stroke:#ff7f0e;" x="68.095956" xlink:href="#m0944004f83" y="97.516099"/>
     <use style="fill-opacity:0;stroke:#ff7f0e;" x="68.335997" xlink:href="#m0944004f83" y="97.106567"/>
     <use style="fill-opacity:0;stroke:#ff7f0e;" x="69.662451" xlink:href="#m0944004f83" y="105.384843"/>
     <use style="fill-opacity:0;stroke:#ff7f0e;" x="70.516992" xlink:href="#m0944004f83" y="114.547129"/>
     <use style="fill-opacity:0;stroke:#ff7f0e;" x="74.255184" xlink:href="#m0944004f83" y="119.294791"/>
     <use style="fill-opacity:0;stroke:#ff7f0e;" x="76.260505" xlink:href="#m0944004f83" y="127.938046"/>
     <use style="fill-opacity:0;stroke:#ff7f0e;" x="76.369429" xlink:href="#m0944004f83" y="125.647926"/>
     <use style="fill-opacity:0;stroke:#ff7f0e;" x="77.461107" xlink:href="#m0944004f83" y="114.972585"/>
     <use style="fill-opacity:0;stroke:#ff7f0e;" x="78.006919" xlink:href="#m0944004f83" y="116.509931"/>
     <use style="fill-opacity:0;stroke:#ff7f0e;" x="79.010911" xlink:href="#m0944004f83" y="127.904155"/>
     <use style="fill-opacity:0;stroke:#ff7f0e;" x="81.483485" xlink:href="#m0944004f83" y="127.22273"/>
     <use style="fill-opacity:0;stroke:#ff7f0e;" x="85.699753" xlink:href="#m0944004f83" y="120.330728"/>
     <use style="fill-opacity:0;stroke:#ff7f0e;" x="85.932771" xlink:href="#m0944004f83" y="123.302479"/>
     <use style="fill-opacity:0;stroke:#ff7f0e;" x="86.905611" xlink:href="#m0944004f83" y="116.880846"/>
     <use style="fill-opacity:0;stroke:#ff7f0e;" x="87.570105" xlink:href="#m0944004f83" y="120.995282"/>
     <use style="fill-opacity:0;stroke:#ff7f0e;" x="88.108251" xlink:href="#m0944004f83" y="119.525678"/>
     <use style="fill-opacity:0;stroke:#ff7f0e;" x="89.28086" xlink:href="#m0944004f83" y="105.365255"/>
     <use style="fill-opacity:0;stroke:#ff7f0e;" x="89.421629" xlink:href="#m0944004f83" y="110.218896"/>
     <use style="fill-opacity:0;stroke:#ff7f0e;" x="90.129634" xlink:href="#m0944004f83" y="120.360398"/>
     <use style="fill-opacity:0;stroke:#ff7f0e;" x="90.147384" xlink:href="#m0944004f83" y="114.464272"/>
     <use style="fill-opacity:0;stroke:#ff7f0e;" x="91.632313" xlink:href="#m0944004f83" y="106.087784"/>
     <use style="fill-opacity:0;stroke:#ff7f0e;" x="91.810887" xlink:href="#m0944004f83" y="116.066537"/>
     <use style="fill-opacity:0;stroke:#ff7f0e;" x="92.82579" xlink:href="#m0944004f83" y="98.022806"/>
     <use style="fill-opacity:0;stroke:#ff7f0e;" x="93.23849" xlink:href="#m0944004f83" y="106.713721"/>
     <use style="fill-opacity:0;stroke:#ff7f0e;" x="93.983224" xlink:href="#m0944004f83" y="97.002193"/>
     <use style="fill-opacity:0;stroke:#ff7f0e;" x="94.699556" xlink:href="#m0944004f83" y="97.123132"/>
     <use style="fill-opacity:0;stroke:#ff7f0e;" x="99.896693" xlink:href="#m0944004f83" y="82.841144"/>
     <use style="fill-opacity:0;stroke:#ff7f0e;" x="101.476518" xlink:href="#m0944004f83" y="94.37136"/>
     <use style="fill-opacity:0;stroke:#ff7f0e;" x="101.765384" xlink:href="#m0944004f83" y="88.525842"/>
     <use style="fill-opacity:0;stroke:#ff7f0e;" x="102.875118" xlink:href="#m0944004f83" y="91.540516"/>
     <use style="fill-opacity:0;stroke:#ff7f0e;" x="103.469663" xlink:href="#m0944004f83" y="87.227323"/>
     <use style="fill-opacity:0;stroke:#ff7f0e;" x="104.234487" xlink:href="#m0944004f83" y="83.128269"/>
     <use style="fill-opacity:0;stroke:#ff7f0e;" x="108.005876" xlink:href="#m0944004f83" y="77.687218"/>
     <use style="fill-opacity:0;stroke:#ff7f0e;" x="109.966302" xlink:href="#m0944004f83" y="63.824424"/>
     <use style="fill-opacity:0;stroke:#ff7f0e;" x="116.687391" xlink:href="#m0944004f83" y="67.358997"/>
     <use style="fill-opacity:0;stroke:#ff7f0e;" x="118.161592" xlink:href="#m0944004f83" y="67.28197"/>
     <use style="fill-opacity:0;stroke:#ff7f0e;" x="120.433372" xlink:href="#m0944004f83" y="67.98485"/>
     <use style="fill-opacity:0;stroke:#ff7f0e;" x="121.37834" xlink:href="#m0944004f83" y="68.584211"/>
     <use style="fill-opacity:0;stroke:#ff7f0e;" x="123.186578" xlink:href="#m0944004f83" y="69.695337"/>
     <use style="fill-opacity:0;stroke:#ff7f0e;" x="123.377915" xlink:href="#m0944004f83" y="69.994098"/>
     <use style="fill-opacity:0;stroke:#ff7f0e;" x="124.61559" xlink:href="#m0944004f83" y="71.041468"/>
     <use style="fill-opacity:0;stroke:#ff7f0e;" x="125.874008" xlink:href="#m0944004f83" y="72.246623"/>
     <use style="fill-opacity:0;stroke:#ff7f0e;" x="126.031855" xlink:href="#m0944004f83" y="72.437449"/>
     <use style="fill-opacity:0;stroke:#ff7f0e;" x="126.269015" xlink:href="#m0944004f83" y="72.588188"/>
     <use style="fill-opacity:0;stroke:#ff7f0e;" x="129.429643" xlink:href="#m0944004f83" y="76.127173"/>
     <use style="fill-opacity:0;stroke:#ff7f0e;" x="130.662329" xlink:href="#m0944004f83" y="77.701104"/>
     <use style="fill-opacity:0;stroke:#ff7f0e;" x="131.210494" xlink:href="#m0944004f83" y="78.295861"/>
     <use style="fill-opacity:0;stroke:#ff7f0e;" x="132.207909" xlink:href="#m0944004f83" y="79.507726"/>
     <use style="fill-opacity:0;stroke:#ff7f0e;" x="132.639111" xlink:href="#m0944004f83" y="80.087068"/>
     <use style="fill-opacity:0;stroke:#ff7f0e;" x="133.040133" xlink:href="#m0944004f83" y="80.521493"/>
     <use style="fill-opacity:0;stroke:#ff7f0e;" x="134.171262" xlink:href="#m0944004f83" y="81.985046"/>
     <use style="fill-opacity:0;stroke:#ff7f0e;" x="134.485408" xlink:href="#m0944004f83" y="82.382372"/>
     <use style="fill-opacity:0;stroke:#ff7f0e;" x="134.998743" xlink:href="#m0944004f83" y="82.97523"/>
     <use style="fill-opacity:0;stroke:#ff7f0e;" x="136.471603" xlink:href="#m0944004f83" y="84.477149"/>
     <use style="fill-opacity:0;stroke:#ff7f0e;" x="137.079715" xlink:href="#m0944004f83" y="85.109602"/>
     <use style="fill-opacity:0;stroke:#ff7f0e;" x="137.311427" xlink:href="#m0944004f83" y="85.36309"/>
     <use style="fill-opacity:0;stroke:#ff7f0e;" x="139.429073" xlink:href="#m0944004f83" y="87.37849"/>
     <use style="fill-opacity:0;stroke:#ff7f0e;" x="140.722245" xlink:href="#m0944004f83" y="88.522052"/>
     <use style="fill-opacity:0;stroke:#ff7f0e;" x="141.03206" xlink:href="#m0944004f83" y="88.744502"/>
     <use style="fill-opacity:0;stroke:#ff7f0e;" x="141.536377" xlink:href="#m0944004f83" y="89.097566"/>
     <use style="fill-opacity:0;stroke:#ff7f0e;" x="141.56036" xlink:href="#m0944004f83" y="89.01052"/>
     <use style="fill-opacity:0;stroke:#ff7f0e;" x="142.859934" xlink:href="#m0944004f83" y="89.801085"/>
     <use style="fill-opacity:0;stroke:#ff7f0e;" x="143.220783" xlink:href="#m0944004f83" y="90.09197"/>
     <use style="fill-opacity:0;stroke:#ff7f0e;" x="143.545234" xlink:href="#m0944004f83" y="90.214076"/>
     <use style="fill-opacity:0;stroke:#ff7f0e;" x="143.917276" xlink:href="#m0944004f83" y="90.31777"/>
     <use style="fill-opacity:0;stroke:#ff7f0e;" x="145.344527" xlink:href="#m0944004f83" y="90.823837"/>
     <use style="fill-opacity:0;stroke:#ff7f0e;" x="146.123882" xlink:href="#m0944004f83" y="91.005654"/>
     <use style="fill-opacity:0;stroke:#ff7f0e;" x="146.211804" xlink:href="#m0944004f83" y="91.099691"/>
     <use style="fill-opacity:0;stroke:#ff7f0e;" x="147.50974" xlink:href="#m0944004f83" y="91.298082"/>
     <use style="fill-opacity:0;stroke:#ff7f0e;" x="148.388096" xlink:href="#m0944004f83" y="91.239533"/>
     <use style="fill-opacity:0;stroke:#ff7f0e;" x="150.301384" xlink:href="#m0944004f83" y="91.08616"/>
     <use style="fill-opacity:0;stroke:#ff7f0e;" x="150.51174" xlink:href="#m0944004f83" y="90.881689"/>
     <use style="fill-opacity:0;stroke:#ff7f0e;" x="150.841804" xlink:href="#m0944004f83" y="90.921024"/>
     <use style="fill-opacity:0;stroke:#ff7f0e;" x="151.286424" xlink:href="#m0944004f83" y="90.674274"/>
     <use style="fill-opacity:0;stroke:#ff7f0e;" x="151.898592" xlink:href="#m0944004f83" y="90.596172"/>
     <use style="fill-opacity:0;stroke:#ff7f0e;" x="152.550724" xlink:href="#m0944004f83" y="90.290391"/>
     <use style="fill-opacity:0;stroke:#ff7f0e;" x="154.466683" xlink:href="#m0944004f83" y="89.320284"/>
     <use style="fill-opacity:0;stroke:#ff7f0e;" x="154.908198" xlink:href="#m0944004f83" y="89.014827"/>
     <use style="fill-opacity:0;stroke:#ff7f0e;" x="155.479502" xlink:href="#m0944004f83" y="88.687524"/>
     <use style="fill-opacity:0;stroke:#ff7f0e;" x="156.098702" xlink:href="#m0944004f83" y="88.32472"/>
     <use style="fill-opacity:0;stroke:#ff7f0e;" x="159.101553" xlink:href="#m0944004f83" y="86.212911"/>
     <use style="fill-opacity:0;stroke:#ff7f0e;" x="161.119789" xlink:href="#m0944004f83" y="84.606309"/>
     <use style="fill-opacity:0;stroke:#ff7f0e;" x="161.165663" xlink:href="#m0944004f83" y="84.663703"/>
     <use style="fill-opacity:0;stroke:#ff7f0e;" x="161.253494" xlink:href="#m0944004f83" y="93.005256"/>
     <use style="fill-opacity:0;stroke:#ff7f0e;" x="161.262988" xlink:href="#m0944004f83" y="78.958469"/>
     <use style="fill-opacity:0;stroke:#ff7f0e;" x="161.360518" xlink:href="#m0944004f83" y="71.894101"/>
     <use style="fill-opacity:0;stroke:#ff7f0e;" x="163.19631" xlink:href="#m0944004f83" y="77.180687"/>
     <use style="fill-opacity:0;stroke:#ff7f0e;" x="163.500433" xlink:href="#m0944004f83" y="84.913219"/>
     <use style="fill-opacity:0;stroke:#ff7f0e;" x="163.954562" xlink:href="#m0944004f83" y="88.312797"/>
     <use style="fill-opacity:0;stroke:#ff7f0e;" x="164.617855" xlink:href="#m0944004f83" y="71.971113"/>
     <use style="fill-opacity:0;stroke:#ff7f0e;" x="165.145215" xlink:href="#m0944004f83" y="74.292023"/>
     <use style="fill-opacity:0;stroke:#ff7f0e;" x="166.918226" xlink:href="#m0944004f83" y="88.20968"/>
     <use style="fill-opacity:0;stroke:#ff7f0e;" x="167.234771" xlink:href="#m0944004f83" y="84.316279"/>
     <use style="fill-opacity:0;stroke:#ff7f0e;" x="167.557606" xlink:href="#m0944004f83" y="68.80311"/>
     <use style="fill-opacity:0;stroke:#ff7f0e;" x="168.217827" xlink:href="#m0944004f83" y="78.506174"/>
     <use style="fill-opacity:0;stroke:#ff7f0e;" x="168.524273" xlink:href="#m0944004f83" y="89.097054"/>
     <use style="fill-opacity:0;stroke:#ff7f0e;" x="171.320683" xlink:href="#m0944004f83" y="91.004707"/>
     <use style="fill-opacity:0;stroke:#ff7f0e;" x="171.845092" xlink:href="#m0944004f83" y="76.90898"/>
     <use style="fill-opacity:0;stroke:#ff7f0e;" x="171.961935" xlink:href="#m0944004f83" y="67.234906"/>
     <use style="fill-opacity:0;stroke:#ff7f0e;" x="172.176016" xlink:href="#m0944004f83" y="78.537435"/>
     <use style="fill-opacity:0;stroke:#ff7f0e;" x="172.938399" xlink:href="#m0944004f83" y="86.782158"/>
     <use style="fill-opacity:0;stroke:#ff7f0e;" x="173.696121" xlink:href="#m0944004f83" y="80.097333"/>
     <use style="fill-opacity:0;stroke:#ff7f0e;" x="173.810045" xlink:href="#m0944004f83" y="84.199456"/>
     <use style="fill-opacity:0;stroke:#ff7f0e;" x="173.863036" xlink:href="#m0944004f83" y="86.947927"/>
     <use style="fill-opacity:0;stroke:#ff7f0e;" x="174.77798" xlink:href="#m0944004f83" y="89.330106"/>
     <use style="fill-opacity:0;stroke:#ff7f0e;" x="175.610692" xlink:href="#m0944004f83" y="88.947984"/>
     <use style="fill-opacity:0;stroke:#ff7f0e;" x="176.393868" xlink:href="#m0944004f83" y="72.001105"/>
     <use style="fill-opacity:0;stroke:#ff7f0e;" x="176.697511" xlink:href="#m0944004f83" y="75.279613"/>
     <use style="fill-opacity:0;stroke:#ff7f0e;" x="177.205639" xlink:href="#m0944004f83" y="72.324002"/>
     <use style="fill-opacity:0;stroke:#ff7f0e;" x="177.328586" xlink:href="#m0944004f83" y="66.109425"/>
     <use style="fill-opacity:0;stroke:#ff7f0e;" x="178.864528" xlink:href="#m0944004f83" y="84.070026"/>
     <use style="fill-opacity:0;stroke:#ff7f0e;" x="178.923779" xlink:href="#m0944004f83" y="78.645311"/>
     <use style="fill-opacity:0;stroke:#ff7f0e;" x="179.214625" xlink:href="#m0944004f83" y="90.820224"/>
     <use style="fill-opacity:0;stroke:#ff7f0e;" x="179.99388" xlink:href="#m0944004f83" y="77.269095"/>
     <use style="fill-opacity:0;stroke:#ff7f0e;" x="180.995347" xlink:href="#m0944004f83" y="78.601618"/>
     <use style="fill-opacity:0;stroke:#ff7f0e;" x="182.154558" xlink:href="#m0944004f83" y="77.203457"/>
     <use style="fill-opacity:0;stroke:#ff7f0e;" x="182.632287" xlink:href="#m0944004f83" y="90.044126"/>
     <use style="fill-opacity:0;stroke:#ff7f0e;" x="182.866763" xlink:href="#m0944004f83" y="88.279483"/>
     <use style="fill-opacity:0;stroke:#ff7f0e;" x="183.371339" xlink:href="#m0944004f83" y="87.252812"/>
     <use style="fill-opacity:0;stroke:#ff7f0e;" x="184.992752" xlink:href="#m0944004f83" y="88.101259"/>
     <use style="fill-opacity:0;stroke:#ff7f0e;" x="186.245545" xlink:href="#m0944004f83" y="71.948116"/>
     <use style="fill-opacity:0;stroke:#ff7f0e;" x="187.199298" xlink:href="#m0944004f83" y="90.534884"/>
     <use style="fill-opacity:0;stroke:#ff7f0e;" x="187.334976" xlink:href="#m0944004f83" y="79.724487"/>
     <use style="fill-opacity:0;stroke:#ff7f0e;" x="190.593082" xlink:href="#m0944004f83" y="98.323728"/>
     <use style="fill-opacity:0;stroke:#ff7f0e;" x="193.562923" xlink:href="#m0944004f83" y="100.927407"/>
     <use style="fill-opacity:0;stroke:#ff7f0e;" x="193.930658" xlink:href="#m0944004f83" y="99.766119"/>
     <use style="fill-opacity:0;stroke:#ff7f0e;" x="196.54825" xlink:href="#m0944004f83" y="87.363836"/>
     <use style="fill-opacity:0;stroke:#ff7f0e;" x="196.775108" xlink:href="#m0944004f83" y="91.869919"/>
     <use style="fill-opacity:0;stroke:#ff7f0e;" x="198.552547" xlink:href="#m0944004f83" y="102.785419"/>
     <use style="fill-opacity:0;stroke:#ff7f0e;" x="199.543463" xlink:href="#m0944004f83" y="93.149008"/>
     <use style="fill-opacity:0;stroke:#ff7f0e;" x="199.82617" xlink:href="#m0944004f83" y="104.016625"/>
     <use style="fill-opacity:0;stroke:#ff7f0e;" x="204.460876" xlink:href="#m0944004f83" y="93.409425"/>
     <use style="fill-opacity:0;stroke:#ff7f0e;" x="206.031886" xlink:href="#m0944004f83" y="106.669246"/>
     <use style="fill-opacity:0;stroke:#ff7f0e;" x="206.471314" xlink:href="#m0944004f83" y="104.832421"/>
     <use style="fill-opacity:0;stroke:#ff7f0e;" x="207.242195" xlink:href="#m0944004f83" y="106.269676"/>
     <use style="fill-opacity:0;stroke:#ff7f0e;" x="209.266353" xlink:href="#m0944004f83" y="95.44397"/>
     <use style="fill-opacity:0;stroke:#ff7f0e;" x="209.831726" xlink:href="#m0944004f83" y="112.73313"/>
     <use style="fill-opacity:0;stroke:#ff7f0e;" x="210.312075" xlink:href="#m0944004f83" y="108.942357"/>
     <use style="fill-opacity:0;stroke:#ff7f0e;" x="211.041203" xlink:href="#m0944004f83" y="86.814957"/>
     <use style="fill-opacity:0;stroke:#ff7f0e;" x="214.302686" xlink:href="#m0944004f83" y="95.688989"/>
     <use style="fill-opacity:0;stroke:#ff7f0e;" x="216.213613" xlink:href="#m0944004f83" y="94.941034"/>
     <use style="fill-opacity:0;stroke:#ff7f0e;" x="216.444546" xlink:href="#m0944004f83" y="92.144316"/>
     <use style="fill-opacity:0;stroke:#ff7f0e;" x="217.907774" xlink:href="#m0944004f83" y="91.809136"/>
     <use style="fill-opacity:0;stroke:#ff7f0e;" x="218.816206" xlink:href="#m0944004f83" y="87.787389"/>
     <use style="fill-opacity:0;stroke:#ff7f0e;" x="219.435632" xlink:href="#m0944004f83" y="83.146002"/>
     <use style="fill-opacity:0;stroke:#ff7f0e;" x="220.109367" xlink:href="#m0944004f83" y="88.070613"/>
     <use style="fill-opacity:0;stroke:#ff7f0e;" x="220.144356" xlink:href="#m0944004f83" y="80.533108"/>
     <use style="fill-opacity:0;stroke:#ff7f0e;" x="220.80783" xlink:href="#m0944004f83" y="84.023799"/>
     <use style="fill-opacity:0;stroke:#ff7f0e;" x="221.208268" xlink:href="#m0944004f83" y="79.015244"/>
     <use style="fill-opacity:0;stroke:#ff7f0e;" x="221.944852" xlink:href="#m0944004f83" y="76.394636"/>
     <use style="fill-opacity:0;stroke:#ff7f0e;" x="222.706719" xlink:href="#m0944004f83" y="80.479727"/>
     <use style="fill-opacity:0;stroke:#ff7f0e;" x="223.298706" xlink:href="#m0944004f83" y="76.820032"/>
     <use style="fill-opacity:0;stroke:#ff7f0e;" x="223.353462" xlink:href="#m0944004f83" y="79.38735"/>
     <use style="fill-opacity:0;stroke:#ff7f0e;" x="223.768773" xlink:href="#m0944004f83" y="77.412039"/>
     <use style="fill-opacity:0;stroke:#ff7f0e;" x="223.905708" xlink:href="#m0944004f83" y="78.936826"/>
     <use style="fill-opacity:0;stroke:#ff7f0e;" x="224.944851" xlink:href="#m0944004f83" y="71.567976"/>
     <use style="fill-opacity:0;stroke:#ff7f0e;" x="225.952393" xlink:href="#m0944004f83" y="68.808173"/>
     <use style="fill-opacity:0;stroke:#ff7f0e;" x="226.135182" xlink:href="#m0944004f83" y="74.471185"/>
     <use style="fill-opacity:0;stroke:#ff7f0e;" x="227.110688" xlink:href="#m0944004f83" y="65.702337"/>
     <use style="fill-opacity:0;stroke:#ff7f0e;" x="228.404371" xlink:href="#m0944004f83" y="61.444943"/>
     <use style="fill-opacity:0;stroke:#ff7f0e;" x="228.80753" xlink:href="#m0944004f83" y="61.735781"/>
     <use style="fill-opacity:0;stroke:#ff7f0e;" x="233.814611" xlink:href="#m0944004f83" y="53.438557"/>
     <use style="fill-opacity:0;stroke:#ff7f0e;" x="235.159202" xlink:href="#m0944004f83" y="52.372922"/>
     <use style="fill-opacity:0;stroke:#ff7f0e;" x="235.670258" xlink:href="#m0944004f83" y="46.342851"/>
     <use style="fill-opacity:0;stroke:#ff7f0e;" x="236.922067" xlink:href="#m0944004f83" y="44.647692"/>
     <use style="fill-opacity:0;stroke:#ff7f0e;" x="239.251994" xlink:href="#m0944004f83" y="50.576217"/>
     <use style="fill-opacity:0;stroke:#ff7f0e;" x="239.708002" xlink:href="#m0944004f83" y="47.962069"/>
     <use style="fill-opacity:0;stroke:#ff7f0e;" x="239.86184" xlink:href="#m0944004f83" y="46.002925"/>
     <use style="fill-opacity:0;stroke:#ff7f0e;" x="240.665308" xlink:href="#m0944004f83" y="43.876954"/>
     <use style="fill-opacity:0;stroke:#ff7f0e;" x="241.906347" xlink:href="#m0944004f83" y="42.940993"/>
     <use style="fill-opacity:0;stroke:#ff7f0e;" x="242.290233" xlink:href="#m0944004f83" y="45.694752"/>
     <use style="fill-opacity:0;stroke:#ff7f0e;" x="243.189431" xlink:href="#m0944004f83" y="43.280295"/>
     <use style="fill-opacity:0;stroke:#ff7f0e;" x="244.203456" xlink:href="#m0944004f83" y="51.112679"/>
     <use style="fill-opacity:0;stroke:#ff7f0e;" x="246.045062" xlink:href="#m0944004f83" y="51.564687"/>
     <use style="fill-opacity:0;stroke:#ff7f0e;" x="246.414606" xlink:href="#m0944004f83" y="53.657704"/>
     <use style="fill-opacity:0;stroke:#ff7f0e;" x="248.919566" xlink:href="#m0944004f83" y="53.514574"/>
     <use style="fill-opacity:0;stroke:#ff7f0e;" x="251.194493" xlink:href="#m0944004f83" y="63.979127"/>
     <use style="fill-opacity:0;stroke:#ff7f0e;" x="251.2328" xlink:href="#m0944004f83" y="56.471016"/>
     <use style="fill-opacity:0;stroke:#ff7f0e;" x="251.625958" xlink:href="#m0944004f83" y="56.799738"/>
     <use style="fill-opacity:0;stroke:#ff7f0e;" x="252.018983" xlink:href="#m0944004f83" y="63.660347"/>
     <use style="fill-opacity:0;stroke:#ff7f0e;" x="253.530498" xlink:href="#m0944004f83" y="67.811741"/>
     <use style="fill-opacity:0;stroke:#ff7f0e;" x="254.655238" xlink:href="#m0944004f83" y="68.396354"/>
     <use style="fill-opacity:0;stroke:#ff7f0e;" x="255.212465" xlink:href="#m0944004f83" y="69.030738"/>
     <use style="fill-opacity:0;stroke:#ff7f0e;" x="256.197421" xlink:href="#m0944004f83" y="74.551366"/>
     <use style="fill-opacity:0;stroke:#ff7f0e;" x="256.509915" xlink:href="#m0944004f83" y="80.846716"/>
     <use style="fill-opacity:0;stroke:#ff7f0e;" x="256.574042" xlink:href="#m0944004f83" y="79.956037"/>
     <use style="fill-opacity:0;stroke:#ff7f0e;" x="256.915261" xlink:href="#m0944004f83" y="78.020902"/>
     <use style="fill-opacity:0;stroke:#ff7f0e;" x="257.953365" xlink:href="#m0944004f83" y="78.903539"/>
     <use style="fill-opacity:0;stroke:#ff7f0e;" x="258.384294" xlink:href="#m0944004f83" y="81.74651"/>
     <use style="fill-opacity:0;stroke:#ff7f0e;" x="258.842038" xlink:href="#m0944004f83" y="90.042807"/>
     <use style="fill-opacity:0;stroke:#ff7f0e;" x="259.117561" xlink:href="#m0944004f83" y="84.285136"/>
    </g>
   </g>
   <g id="line2d_22">
    <path clip-path="url(#pead86bea3d)" d="M 62.872631 135.487981 
L 90.147384 110.808105 
L 93.23849 104.131992 
L 104.234487 79.738946 
L 108.005876 71.914944 
L 109.966302 70.429774 
L 116.687391 66.984938 
L 118.161592 67.265175 
L 120.433372 67.981297 
L 121.37834 68.43749 
L 123.377915 69.894793 
L 124.61559 70.919992 
L 126.269015 72.5475 
L 131.210494 78.325897 
L 134.998743 82.846714 
L 137.311427 85.354283 
L 139.429073 87.325428 
L 141.56036 88.913469 
L 143.917276 90.261679 
L 146.123882 90.967623 
L 147.50974 91.084883 
L 148.388096 91.143154 
L 150.841804 90.751023 
L 152.550724 90.231815 
L 155.479502 88.719912 
L 156.098702 88.311807 
L 159.101553 85.80051 
L 163.500433 82.813874 
L 165.145215 81.04325 
L 167.557606 78.846972 
L 168.524273 78.12795 
L 171.845092 76.103683 
L 172.938399 75.709342 
L 174.77798 75.22692 
L 175.610692 75.566912 
L 176.697511 78.174688 
L 178.923779 79.280299 
L 179.99388 79.741913 
L 182.154558 81.172143 
L 183.371339 82.029646 
L 184.992752 83.360088 
L 187.334976 85.46142 
L 190.593082 89.102209 
L 199.82617 101.417675 
L 204.460876 102.31881 
L 210.312075 100.716956 
L 211.041203 100.374347 
L 218.816206 86.645096 
L 233.814611 52.545511 
L 243.189431 42.658636 
L 244.203456 43.092383 
L 246.414606 47.641225 
L 248.919566 53.278473 
L 259.117561 78.439816 
L 259.117561 78.439816 
" style="fill:none;stroke:#1f77b4;stroke-linecap:square;stroke-width:2;"/>
   </g>
   <g id="patch_3">
    <path d="M 53.060385 243.422692 
L 53.060385 27.553269 
" style="fill:none;stroke:#777777;stroke-linecap:square;stroke-linejoin:miter;"/>
   </g>
   <g id="patch_4">
    <path d="M 268.929808 243.422692 
L 268.929808 27.553269 
" style="fill:none;stroke:#777777;stroke-linecap:square;stroke-linejoin:miter;"/>
   </g>
   <g id="patch_5">
    <path d="M 53.060385 243.422692 
L 268.929808 243.422692 
" style="fill:none;stroke:#777777;stroke-linecap:square;stroke-linejoin:miter;"/>
   </g>
   <g id="patch_6">
    <path d="M 53.060385 27.553269 
L 268.929808 27.553269 
" style="fill:none;stroke:#777777;stroke-linecap:square;stroke-linejoin:miter;"/>
   </g>
   <g id="text_13">
    <!-- Confidence Band -->
    <defs>
     <path d="M 22.796875 10.6875 
Q 26.21875 6.34375 31.34375 3.828125 
Q 36.46875 1.3125 42 1.3125 
Q 46.625 1.3125 50.578125 3.140625 
Q 54.546875 4.984375 57.5 8.25 
Q 60.453125 11.53125 62.03125 15.671875 
Q 63.625 19.828125 63.625 24.421875 
Q 63.625 25.203125 64.5 25.203125 
L 65.71875 25.203125 
Q 66.5 25.203125 66.5 24.21875 
Q 66.5 19 64.5 14.140625 
Q 62.5 9.28125 58.828125 5.59375 
Q 55.171875 1.90625 50.40625 -0.140625 
Q 45.65625 -2.203125 40.484375 -2.203125 
Q 33.296875 -2.203125 26.875 0.703125 
Q 20.453125 3.609375 15.6875 8.65625 
Q 10.9375 13.71875 8.265625 20.359375 
Q 5.609375 27 5.609375 34.1875 
Q 5.609375 41.359375 8.265625 48 
Q 10.9375 54.640625 15.6875 59.71875 
Q 20.453125 64.796875 26.875 67.65625 
Q 33.296875 70.515625 40.484375 70.515625 
Q 45.609375 70.515625 50.296875 68.28125 
Q 54.984375 66.0625 58.5 62.015625 
L 64.3125 70.21875 
Q 64.890625 70.515625 64.984375 70.515625 
L 65.71875 70.515625 
Q 66.015625 70.515625 66.25 70.265625 
Q 66.5 70.015625 66.5 69.671875 
L 66.5 42.671875 
Q 66.5 41.796875 65.71875 41.796875 
L 63.921875 41.796875 
Q 62.984375 41.796875 62.984375 42.671875 
Q 62.984375 45.5625 61.828125 49.125 
Q 60.6875 52.6875 58.90625 55.875 
Q 57.125 59.078125 54.78125 61.53125 
Q 49.171875 67 41.890625 67 
Q 36.375 67 31.3125 64.5 
Q 26.265625 62.015625 22.796875 57.625 
Q 19.140625 52.9375 17.71875 46.953125 
Q 16.3125 40.96875 16.3125 34.1875 
Q 16.3125 27.390625 17.71875 21.375 
Q 19.140625 15.375 22.796875 10.6875 
z
" id="Cmr10-67"/>
     <path d="M 25 -1.125 
Q 19 -1.125 13.859375 1.921875 
Q 8.734375 4.984375 5.75 10.109375 
Q 2.78125 15.234375 2.78125 21.296875 
Q 2.78125 25.875 4.421875 30.125 
Q 6.0625 34.375 9.109375 37.71875 
Q 12.15625 41.0625 16.203125 42.9375 
Q 20.265625 44.828125 25 44.828125 
Q 31.15625 44.828125 36.203125 41.578125 
Q 41.265625 38.328125 44.1875 32.875 
Q 47.125 27.4375 47.125 21.296875 
Q 47.125 15.28125 44.140625 10.125 
Q 41.15625 4.984375 36.046875 1.921875 
Q 30.953125 -1.125 25 -1.125 
z
M 25 1.8125 
Q 33.015625 1.8125 35.6875 7.609375 
Q 38.375 13.421875 38.375 22.40625 
Q 38.375 27.4375 37.84375 30.734375 
Q 37.3125 34.03125 35.5 36.71875 
Q 34.375 38.375 32.640625 39.625 
Q 30.90625 40.875 28.96875 41.53125 
Q 27.046875 42.1875 25 42.1875 
Q 21.875 42.1875 19.0625 40.765625 
Q 16.265625 39.359375 14.40625 36.71875 
Q 12.546875 33.890625 12.03125 30.484375 
Q 11.53125 27.09375 11.53125 22.40625 
Q 11.53125 16.796875 12.5 12.328125 
Q 13.484375 7.859375 16.4375 4.828125 
Q 19.390625 1.8125 25 1.8125 
z
" id="Cmr10-111"/>
     <path d="M 2.984375 0 
L 2.984375 3.515625 
Q 6.390625 3.515625 8.59375 4.046875 
Q 10.796875 4.59375 10.796875 6.6875 
L 10.796875 33.984375 
Q 10.796875 36.671875 9.984375 37.859375 
Q 9.1875 39.0625 7.671875 39.328125 
Q 6.15625 39.59375 2.984375 39.59375 
L 2.984375 43.109375 
L 17.484375 44.1875 
L 17.484375 34.421875 
Q 19.484375 38.71875 23.40625 41.453125 
Q 27.34375 44.1875 31.984375 44.1875 
Q 38.921875 44.1875 42.40625 40.859375 
Q 45.90625 37.546875 45.90625 30.71875 
L 45.90625 6.6875 
Q 45.90625 4.59375 48.09375 4.046875 
Q 50.296875 3.515625 53.71875 3.515625 
L 53.71875 0 
L 30.8125 0 
L 30.8125 3.515625 
Q 34.234375 3.515625 36.421875 4.046875 
Q 38.625 4.59375 38.625 6.6875 
L 38.625 30.421875 
Q 38.625 35.296875 37.203125 38.453125 
Q 35.796875 41.609375 31.390625 41.609375 
Q 25.59375 41.609375 21.84375 36.96875 
Q 18.109375 32.328125 18.109375 26.421875 
L 18.109375 6.6875 
Q 18.109375 4.59375 20.3125 4.046875 
Q 22.515625 3.515625 25.875 3.515625 
L 25.875 0 
z
" id="Cmr10-110"/>
     <path d="M 3.21875 0 
L 3.21875 3.515625 
Q 6.59375 3.515625 8.78125 4.046875 
Q 10.984375 4.59375 10.984375 6.6875 
L 10.984375 39.59375 
L 3.328125 39.59375 
L 3.328125 43.109375 
L 10.984375 43.109375 
L 10.984375 55.078125 
Q 10.984375 58.296875 12.328125 61.109375 
Q 13.671875 63.921875 15.9375 66.015625 
Q 18.21875 68.109375 21.171875 69.3125 
Q 24.125 70.515625 27.296875 70.515625 
Q 30.671875 70.515625 33.375 68.5 
Q 36.078125 66.5 36.078125 63.1875 
Q 36.078125 61.28125 34.78125 59.984375 
Q 33.5 58.6875 31.59375 58.6875 
Q 29.6875 58.6875 28.34375 59.984375 
Q 27 61.28125 27 63.1875 
Q 27 66.3125 29.6875 67.390625 
Q 28.078125 67.921875 26.8125 67.921875 
Q 23.875 67.921875 21.796875 65.84375 
Q 19.734375 63.765625 18.703125 60.78125 
Q 17.671875 57.8125 17.671875 54.890625 
L 17.671875 43.109375 
L 29.203125 43.109375 
L 29.203125 39.59375 
L 18.015625 39.59375 
L 18.015625 6.6875 
Q 18.015625 4.640625 20.9375 4.078125 
Q 23.875 3.515625 27.6875 3.515625 
L 27.6875 0 
z
" id="Cmr10-102"/>
     <path d="M 3.078125 0 
L 3.078125 3.515625 
Q 6.5 3.515625 8.6875 4.046875 
Q 10.890625 4.59375 10.890625 6.6875 
L 10.890625 33.984375 
Q 10.890625 37.84375 9.390625 38.71875 
Q 7.90625 39.59375 3.515625 39.59375 
L 3.515625 43.109375 
L 17.921875 44.1875 
L 17.921875 6.6875 
Q 17.921875 4.59375 19.828125 4.046875 
Q 21.734375 3.515625 24.90625 3.515625 
L 24.90625 0 
z
M 7.328125 61.375 
Q 7.328125 63.578125 8.984375 65.234375 
Q 10.640625 66.890625 12.796875 66.890625 
Q 14.203125 66.890625 15.515625 66.15625 
Q 16.84375 65.4375 17.578125 64.109375 
Q 18.3125 62.796875 18.3125 61.375 
Q 18.3125 59.234375 16.640625 57.5625 
Q 14.984375 55.90625 12.796875 55.90625 
Q 10.640625 55.90625 8.984375 57.5625 
Q 7.328125 59.234375 7.328125 61.375 
z
" id="Cmr10-105"/>
     <path d="M 24.421875 -1.125 
Q 18.5 -1.125 13.609375 2.078125 
Q 8.734375 5.28125 6.03125 10.5 
Q 3.328125 15.71875 3.328125 21.578125 
Q 3.328125 27.640625 6.28125 32.828125 
Q 9.234375 38.03125 14.3125 41.109375 
Q 19.390625 44.1875 25.484375 44.1875 
Q 29.15625 44.1875 32.421875 42.640625 
Q 35.6875 41.109375 38.09375 38.375 
L 38.09375 59.1875 
Q 38.09375 61.859375 37.28125 63.0625 
Q 36.46875 64.265625 34.984375 64.53125 
Q 33.5 64.796875 30.328125 64.796875 
L 30.328125 68.3125 
L 45.125 69.390625 
L 45.125 9.078125 
Q 45.125 6.453125 45.921875 5.25 
Q 46.734375 4.046875 48.21875 3.78125 
Q 49.703125 3.515625 52.875 3.515625 
L 52.875 0 
L 37.796875 -1.125 
L 37.796875 5.171875 
Q 35.203125 2.203125 31.640625 0.53125 
Q 28.078125 -1.125 24.421875 -1.125 
z
M 14.203125 8.6875 
Q 15.921875 5.421875 18.765625 3.46875 
Q 21.625 1.515625 25 1.515625 
Q 29.15625 1.515625 32.609375 3.90625 
Q 36.078125 6.296875 37.796875 10.109375 
L 37.796875 34.078125 
Q 36.625 36.28125 34.84375 38.015625 
Q 33.0625 39.75 30.828125 40.671875 
Q 28.609375 41.609375 26.125 41.609375 
Q 20.90625 41.609375 17.71875 38.640625 
Q 14.546875 35.6875 13.28125 31.09375 
Q 12.015625 26.515625 12.015625 21.484375 
Q 12.015625 17.484375 12.421875 14.5 
Q 12.84375 11.53125 14.203125 8.6875 
z
" id="Cmr10-100"/>
     <path d="M 24.90625 -1.125 
Q 18.796875 -1.125 13.6875 2.078125 
Q 8.59375 5.28125 5.6875 10.625 
Q 2.78125 15.96875 2.78125 21.921875 
Q 2.78125 27.78125 5.4375 33.046875 
Q 8.109375 38.328125 12.859375 41.578125 
Q 17.625 44.828125 23.484375 44.828125 
Q 28.078125 44.828125 31.46875 43.28125 
Q 34.859375 41.75 37.0625 39.015625 
Q 39.265625 36.28125 40.375 32.5625 
Q 41.5 28.859375 41.5 24.421875 
Q 41.5 23.09375 40.484375 23.09375 
L 11.53125 23.09375 
L 11.53125 22.015625 
Q 11.53125 13.71875 14.875 7.765625 
Q 18.21875 1.8125 25.78125 1.8125 
Q 28.859375 1.8125 31.46875 3.171875 
Q 34.078125 4.546875 36 6.984375 
Q 37.9375 9.421875 38.625 12.203125 
Q 38.71875 12.546875 38.984375 12.8125 
Q 39.265625 13.09375 39.59375 13.09375 
L 40.484375 13.09375 
Q 41.5 13.09375 41.5 11.8125 
Q 40.09375 6.15625 35.40625 2.515625 
Q 30.71875 -1.125 24.90625 -1.125 
z
M 11.625 25.59375 
L 34.421875 25.59375 
Q 34.421875 29.34375 33.375 33.203125 
Q 32.328125 37.0625 29.875 39.625 
Q 27.4375 42.1875 23.484375 42.1875 
Q 17.828125 42.1875 14.71875 36.890625 
Q 11.625 31.59375 11.625 25.59375 
z
" id="Cmr10-101"/>
     <path d="M 24.90625 -1.125 
Q 18.84375 -1.125 13.90625 2.015625 
Q 8.984375 5.171875 6.15625 10.421875 
Q 3.328125 15.671875 3.328125 21.578125 
Q 3.328125 27.484375 6.125 32.90625 
Q 8.9375 38.328125 13.890625 41.578125 
Q 18.84375 44.828125 24.90625 44.828125 
Q 30.765625 44.828125 35.5625 42.53125 
Q 40.375 40.234375 40.375 35.015625 
Q 40.375 33.0625 38.984375 31.609375 
Q 37.59375 30.171875 35.59375 30.171875 
Q 33.59375 30.171875 32.203125 31.609375 
Q 30.8125 33.0625 30.8125 35.015625 
Q 30.8125 36.765625 31.9375 38.0625 
Q 33.0625 39.359375 34.71875 39.703125 
Q 31.25 41.890625 25 41.890625 
Q 20.21875 41.890625 17.28125 38.71875 
Q 14.359375 35.546875 13.1875 30.859375 
Q 12.015625 26.171875 12.015625 21.578125 
Q 12.015625 16.75 13.453125 12.234375 
Q 14.890625 7.71875 18.09375 4.765625 
Q 21.296875 1.8125 26.125 1.8125 
Q 30.859375 1.8125 34.171875 4.71875 
Q 37.5 7.625 38.71875 12.3125 
Q 38.71875 12.890625 39.5 12.890625 
L 40.71875 12.890625 
Q 41.015625 12.890625 41.25 12.625 
Q 41.5 12.359375 41.5 12.015625 
L 41.5 11.71875 
Q 39.984375 5.8125 35.484375 2.34375 
Q 31 -1.125 24.90625 -1.125 
z
" id="Cmr10-99"/>
     <path id="Cmr10-32"/>
     <path d="M 3.421875 0 
L 3.421875 3.515625 
Q 13.71875 3.515625 13.71875 6.6875 
L 13.71875 61.625 
Q 13.71875 64.796875 3.421875 64.796875 
L 3.421875 68.3125 
L 40.1875 68.3125 
Q 45.265625 68.3125 50.4375 66.328125 
Q 55.609375 64.359375 59 60.46875 
Q 62.40625 56.59375 62.40625 51.3125 
Q 62.40625 45.21875 57.390625 41.09375 
Q 52.390625 36.96875 45.703125 35.6875 
Q 50.046875 35.6875 54.640625 33.296875 
Q 59.234375 30.90625 62.15625 26.90625 
Q 65.09375 22.90625 65.09375 18.40625 
Q 65.09375 12.9375 61.84375 8.734375 
Q 58.59375 4.546875 53.421875 2.265625 
Q 48.25 0 43.015625 0 
z
M 22.40625 6.6875 
Q 22.40625 4.546875 23.625 4.03125 
Q 24.859375 3.515625 27.484375 3.515625 
L 40.1875 3.515625 
Q 44.09375 3.515625 47.4375 5.5625 
Q 50.78125 7.625 52.734375 11.0625 
Q 54.6875 14.5 54.6875 18.40625 
Q 54.6875 22.21875 53.078125 25.859375 
Q 51.46875 29.5 48.453125 31.84375 
Q 45.453125 34.1875 41.609375 34.1875 
L 22.40625 34.1875 
z
M 22.40625 36.8125 
L 37.40625 36.8125 
Q 40.4375 36.8125 43.09375 37.90625 
Q 45.75 39.015625 47.875 41.09375 
Q 50 43.171875 51.140625 45.78125 
Q 52.296875 48.390625 52.296875 51.3125 
Q 52.296875 53.90625 51.4375 56.296875 
Q 50.59375 58.6875 48.921875 60.640625 
Q 47.265625 62.59375 45.015625 63.6875 
Q 42.78125 64.796875 40.1875 64.796875 
L 27.484375 64.796875 
Q 25.6875 64.796875 24.6875 64.640625 
Q 23.6875 64.5 23.046875 63.796875 
Q 22.40625 63.09375 22.40625 61.625 
z
" id="Cmr10-66"/>
     <path d="M 4 9.8125 
Q 4 15.765625 8.6875 19.5 
Q 13.375 23.25 19.9375 24.78125 
Q 26.515625 26.3125 32.421875 26.3125 
L 32.421875 30.421875 
Q 32.421875 33.296875 31.15625 36 
Q 29.890625 38.71875 27.484375 40.453125 
Q 25.09375 42.1875 22.21875 42.1875 
Q 15.578125 42.1875 12.109375 39.203125 
Q 14.015625 39.203125 15.25 37.765625 
Q 16.5 36.328125 16.5 34.421875 
Q 16.5 32.421875 15.078125 31 
Q 13.671875 29.59375 11.71875 29.59375 
Q 9.71875 29.59375 8.296875 31 
Q 6.890625 32.421875 6.890625 34.421875 
Q 6.890625 39.703125 11.671875 42.265625 
Q 16.453125 44.828125 22.21875 44.828125 
Q 26.265625 44.828125 30.359375 43.09375 
Q 34.46875 41.359375 37.078125 38.125 
Q 39.703125 34.90625 39.703125 30.609375 
L 39.703125 8.109375 
Q 39.703125 6.15625 40.53125 4.515625 
Q 41.359375 2.875 43.109375 2.875 
Q 44.78125 2.875 45.578125 4.53125 
Q 46.390625 6.203125 46.390625 8.109375 
L 46.390625 14.5 
L 49.3125 14.5 
L 49.3125 8.109375 
Q 49.3125 5.859375 48.140625 3.828125 
Q 46.96875 1.8125 44.984375 0.609375 
Q 43.015625 -0.59375 40.71875 -0.59375 
Q 37.796875 -0.59375 35.671875 1.671875 
Q 33.546875 3.953125 33.296875 7.078125 
Q 31.453125 3.328125 27.828125 1.09375 
Q 24.21875 -1.125 20.125 -1.125 
Q 16.3125 -1.125 12.625 0 
Q 8.9375 1.125 6.46875 3.53125 
Q 4 5.953125 4 9.8125 
z
M 12.109375 9.8125 
Q 12.109375 6.296875 14.6875 3.90625 
Q 17.28125 1.515625 20.796875 1.515625 
Q 24.03125 1.515625 26.65625 3.125 
Q 29.296875 4.734375 30.859375 7.515625 
Q 32.421875 10.296875 32.421875 13.375 
L 32.421875 23.78125 
Q 27.875 23.78125 23.109375 22.28125 
Q 18.359375 20.796875 15.234375 17.625 
Q 12.109375 14.453125 12.109375 9.8125 
z
" id="Cmr10-97"/>
    </defs>
    <g transform="translate(116.279159 21.553269)scale(0.12 -0.12)">
     <use xlink:href="#Cmr10-67"/>
     <use x="72.216797" xlink:href="#Cmr10-111"/>
     <use x="122.216797" xlink:href="#Cmr10-110"/>
     <use x="177.734375" xlink:href="#Cmr10-102"/>
     <use x="208.251953" xlink:href="#Cmr10-105"/>
     <use x="235.9375" xlink:href="#Cmr10-100"/>
     <use x="291.455078" xlink:href="#Cmr10-101"/>
     <use x="335.839844" xlink:href="#Cmr10-110"/>
     <use x="391.357422" xlink:href="#Cmr10-99"/>
     <use x="435.742188" xlink:href="#Cmr10-101"/>
     <use x="480.126953" xlink:href="#Cmr10-32"/>
     <use x="513.427734" xlink:href="#Cmr10-66"/>
     <use x="584.228516" xlink:href="#Cmr10-97"/>
     <use x="634.228516" xlink:href="#Cmr10-110"/>
     <use x="689.746094" xlink:href="#Cmr10-100"/>
    </g>
   </g>
   <g id="legend_1">
    <g id="patch_7">
     <path d="M 60.057585 238.424692 
L 149.043851 238.424692 
Q 151.043051 238.424692 151.043051 236.425492 
L 151.043051 195.624632 
Q 151.043051 193.625432 149.043851 193.625432 
L 60.057585 193.625432 
Q 58.058385 193.625432 58.058385 195.624632 
L 58.058385 236.425492 
Q 58.058385 238.424692 60.057585 238.424692 
z
" style="fill:#fdfdfd;opacity:0.8;stroke:#cccccc;stroke-linejoin:miter;"/>
    </g>
    <g id="line2d_23"/>
    <g id="line2d_24">
     <g>
      <use style="fill-opacity:0;stroke:#ff7f0e;" x="72.052785" xlink:href="#m0944004f83" y="201.122432"/>
     </g>
    </g>
    <g id="text_14">
     <!-- Observations -->
     <defs>
      <path d="M 38.921875 -2.203125 
Q 29.390625 -2.203125 21.796875 2.84375 
Q 14.203125 7.90625 9.90625 16.28125 
Q 5.609375 24.65625 5.609375 33.890625 
Q 5.609375 40.71875 8.078125 47.40625 
Q 10.546875 54.109375 14.96875 59.28125 
Q 19.390625 64.453125 25.578125 67.484375 
Q 31.78125 70.515625 38.921875 70.515625 
Q 46 70.515625 52.21875 67.453125 
Q 58.453125 64.40625 62.890625 59.171875 
Q 67.328125 53.953125 69.71875 47.453125 
Q 72.125 40.96875 72.125 33.890625 
Q 72.125 24.65625 67.828125 16.28125 
Q 63.53125 7.90625 55.90625 2.84375 
Q 48.296875 -2.203125 38.921875 -2.203125 
z
M 22.3125 10.796875 
Q 25.25 6.203125 29.546875 3.484375 
Q 33.84375 0.78125 38.921875 0.78125 
Q 42.1875 0.78125 45.328125 2.09375 
Q 48.484375 3.421875 51.046875 5.71875 
Q 53.609375 8.015625 55.421875 10.796875 
Q 61.375 19.78125 61.375 35.5 
Q 61.375 49.90625 55.421875 58.296875 
Q 52.484375 62.5 48.109375 65.03125 
Q 43.75 67.578125 38.921875 67.578125 
Q 34.03125 67.578125 29.640625 65.03125 
Q 25.25 62.5 22.3125 58.296875 
Q 19.96875 55.03125 18.671875 51.34375 
Q 17.390625 47.65625 16.84375 43.703125 
Q 16.3125 39.75 16.3125 35.5 
Q 16.3125 30.953125 16.8125 26.625 
Q 17.328125 22.3125 18.71875 18.15625 
Q 20.125 14.015625 22.3125 10.796875 
z
" id="Cmr10-79"/>
      <path d="M 10.40625 0 
L 10.40625 59.1875 
Q 10.40625 61.859375 9.59375 63.0625 
Q 8.796875 64.265625 7.28125 64.53125 
Q 5.765625 64.796875 2.59375 64.796875 
L 2.59375 68.3125 
L 17.390625 69.390625 
L 17.390625 38.09375 
Q 19.046875 39.9375 21.265625 41.328125 
Q 23.484375 42.71875 26.015625 43.453125 
Q 28.5625 44.1875 31.203125 44.1875 
Q 35.6875 44.1875 39.515625 42.375 
Q 43.359375 40.578125 46.1875 37.40625 
Q 49.03125 34.234375 50.609375 30.109375 
Q 52.203125 25.984375 52.203125 21.578125 
Q 52.203125 15.53125 49.25 10.296875 
Q 46.296875 5.078125 41.1875 1.96875 
Q 36.078125 -1.125 29.984375 -1.125 
Q 26.171875 -1.125 22.609375 0.828125 
Q 19.046875 2.78125 16.703125 6 
L 13.28125 0 
z
M 17.671875 9.8125 
Q 19.34375 6.15625 22.46875 3.828125 
Q 25.59375 1.515625 29.390625 1.515625 
Q 34.578125 1.515625 37.765625 4.484375 
Q 40.96875 7.46875 42.234375 12 
Q 43.5 16.546875 43.5 21.578125 
Q 43.5 30.03125 41.3125 34.421875 
Q 40.328125 36.375 38.640625 38.03125 
Q 36.96875 39.703125 34.890625 40.65625 
Q 32.8125 41.609375 30.515625 41.609375 
Q 26.515625 41.609375 23.09375 39.484375 
Q 19.671875 37.359375 17.671875 33.796875 
z
" id="Cmr10-98"/>
      <path d="M 3.328125 -0.296875 
L 3.328125 16.015625 
Q 3.328125 16.796875 4.203125 16.796875 
L 5.421875 16.796875 
Q 6 16.796875 6.203125 16.015625 
Q 8.984375 1.515625 19.671875 1.515625 
Q 24.421875 1.515625 27.609375 3.65625 
Q 30.8125 5.8125 30.8125 10.296875 
Q 30.8125 13.53125 28.3125 15.796875 
Q 25.828125 18.0625 22.40625 18.890625 
L 15.71875 20.21875 
Q 12.359375 20.953125 9.59375 22.453125 
Q 6.84375 23.96875 5.078125 26.484375 
Q 3.328125 29 3.328125 32.328125 
Q 3.328125 36.71875 5.640625 39.515625 
Q 7.953125 42.328125 11.65625 43.578125 
Q 15.375 44.828125 19.671875 44.828125 
Q 24.8125 44.828125 28.609375 42.09375 
L 31.5 44.578125 
Q 31.5 44.828125 31.984375 44.828125 
L 32.71875 44.828125 
Q 33.015625 44.828125 33.25 44.546875 
Q 33.5 44.28125 33.5 44 
L 33.5 30.90625 
Q 33.5 29.984375 32.71875 29.984375 
L 31.5 29.984375 
Q 30.609375 29.984375 30.609375 30.90625 
Q 30.609375 36.140625 27.703125 39.3125 
Q 24.8125 42.484375 19.578125 42.484375 
Q 15.09375 42.484375 11.796875 40.8125 
Q 8.5 39.15625 8.5 35.109375 
Q 8.5 32.328125 10.859375 30.546875 
Q 13.234375 28.765625 16.40625 27.984375 
L 23.1875 26.703125 
Q 26.609375 25.921875 29.5625 24.0625 
Q 32.515625 22.21875 34.25 19.375 
Q 35.984375 16.546875 35.984375 12.984375 
Q 35.984375 9.375 34.734375 6.703125 
Q 33.5 4.046875 31.265625 2.28125 
Q 29.046875 0.53125 26.015625 -0.296875 
Q 23 -1.125 19.671875 -1.125 
Q 13.421875 -1.125 8.984375 3.078125 
L 5.328125 -0.875 
Q 5.328125 -1.125 4.78125 -1.125 
L 4.203125 -1.125 
Q 3.328125 -1.125 3.328125 -0.296875 
z
" id="Cmr10-115"/>
      <path d="M 2.59375 0 
L 2.59375 3.515625 
Q 6 3.515625 8.203125 4.046875 
Q 10.40625 4.59375 10.40625 6.6875 
L 10.40625 33.984375 
Q 10.40625 36.671875 9.59375 37.859375 
Q 8.796875 39.0625 7.28125 39.328125 
Q 5.765625 39.59375 2.59375 39.59375 
L 2.59375 43.109375 
L 16.890625 44.1875 
L 16.890625 34.421875 
Q 18.5 38.765625 21.484375 41.46875 
Q 24.46875 44.1875 28.71875 44.1875 
Q 31.6875 44.1875 34.03125 42.421875 
Q 36.375 40.671875 36.375 37.796875 
Q 36.375 35.984375 35.078125 34.640625 
Q 33.796875 33.296875 31.890625 33.296875 
Q 30.03125 33.296875 28.703125 34.609375 
Q 27.390625 35.9375 27.390625 37.796875 
Q 27.390625 40.484375 29.296875 41.609375 
L 28.71875 41.609375 
Q 24.65625 41.609375 22.09375 38.671875 
Q 19.53125 35.75 18.453125 31.390625 
Q 17.390625 27.046875 17.390625 23.09375 
L 17.390625 6.6875 
Q 17.390625 3.515625 27.09375 3.515625 
L 27.09375 0 
z
" id="Cmr10-114"/>
      <path d="M 24.421875 0 
L 9.8125 36.71875 
Q 8.890625 38.578125 6.953125 39.078125 
Q 5.03125 39.59375 1.90625 39.59375 
L 1.90625 43.109375 
L 22.90625 43.109375 
L 22.90625 39.59375 
Q 17.28125 39.59375 17.28125 37.203125 
Q 17.28125 36.8125 17.390625 36.625 
L 28.609375 8.40625 
L 38.71875 33.890625 
Q 39.015625 34.671875 39.015625 35.5 
Q 39.015625 37.40625 37.578125 38.5 
Q 36.140625 39.59375 34.1875 39.59375 
L 34.1875 43.109375 
L 50.78125 43.109375 
L 50.78125 39.59375 
Q 47.703125 39.59375 45.375 38.171875 
Q 43.0625 36.765625 41.796875 33.984375 
L 28.328125 0 
Q 27.9375 -1.125 26.703125 -1.125 
L 25.984375 -1.125 
Q 24.75 -1.125 24.421875 0 
z
" id="Cmr10-118"/>
      <path d="M 10.203125 12.015625 
L 10.203125 39.59375 
L 1.90625 39.59375 
L 1.90625 42.1875 
Q 8.453125 42.1875 11.515625 48.28125 
Q 14.59375 54.390625 14.59375 61.53125 
L 17.484375 61.53125 
L 17.484375 43.109375 
L 31.59375 43.109375 
L 31.59375 39.59375 
L 17.484375 39.59375 
L 17.484375 12.203125 
Q 17.484375 8.0625 18.875 4.9375 
Q 20.265625 1.8125 23.875 1.8125 
Q 27.296875 1.8125 28.8125 5.109375 
Q 30.328125 8.40625 30.328125 12.203125 
L 30.328125 18.109375 
L 33.203125 18.109375 
L 33.203125 12.015625 
Q 33.203125 8.890625 32.046875 5.828125 
Q 30.90625 2.78125 28.65625 0.828125 
Q 26.421875 -1.125 23.1875 -1.125 
Q 17.1875 -1.125 13.6875 2.46875 
Q 10.203125 6.0625 10.203125 12.015625 
z
" id="Cmr10-116"/>
     </defs>
     <g transform="translate(90.045585 204.621032)scale(0.09996 -0.09996)">
      <use xlink:href="#Cmr10-79"/>
      <use x="77.685547" xlink:href="#Cmr10-98"/>
      <use x="133.203125" xlink:href="#Cmr10-115"/>
      <use x="172.607422" xlink:href="#Cmr10-101"/>
      <use x="216.992188" xlink:href="#Cmr10-114"/>
      <use x="256.103516" xlink:href="#Cmr10-118"/>
      <use x="308.789062" xlink:href="#Cmr10-97"/>
      <use x="358.789062" xlink:href="#Cmr10-116"/>
      <use x="397.607422" xlink:href="#Cmr10-105"/>
      <use x="425.292969" xlink:href="#Cmr10-111"/>
      <use x="475.292969" xlink:href="#Cmr10-110"/>
      <use x="530.810547" xlink:href="#Cmr10-115"/>
     </g>
    </g>
    <g id="line2d_25">
     <path d="M 62.056785 215.055919 
L 82.048785 215.055919 
" style="fill:none;stroke:#1f77b4;stroke-linecap:square;stroke-width:2;"/>
    </g>
    <g id="line2d_26"/>
    <g id="text_15">
     <!-- Predictions -->
     <defs>
      <path d="M 3.328125 0 
L 3.328125 3.515625 
Q 13.625 3.515625 13.625 6.6875 
L 13.625 61.625 
Q 13.625 64.796875 3.328125 64.796875 
L 3.328125 68.3125 
L 38.921875 68.3125 
Q 44.390625 68.3125 49.859375 66.0625 
Q 55.328125 63.8125 58.859375 59.515625 
Q 62.40625 55.21875 62.40625 49.515625 
Q 62.40625 43.953125 58.84375 39.75 
Q 55.28125 35.546875 49.859375 33.375 
Q 44.4375 31.203125 38.921875 31.203125 
L 22.90625 31.203125 
L 22.90625 6.6875 
Q 22.90625 3.515625 33.203125 3.515625 
L 33.203125 0 
z
M 22.609375 34.1875 
L 36.1875 34.1875 
Q 41.703125 34.1875 45.109375 35.765625 
Q 48.53125 37.359375 50.109375 40.703125 
Q 51.703125 44.046875 51.703125 49.515625 
Q 51.703125 57.671875 48.109375 61.234375 
Q 44.53125 64.796875 36.1875 64.796875 
L 27.6875 64.796875 
Q 25.875 64.796875 24.875 64.640625 
Q 23.875 64.5 23.234375 63.796875 
Q 22.609375 63.09375 22.609375 61.625 
z
" id="Cmr10-80"/>
     </defs>
     <g transform="translate(90.045585 218.554519)scale(0.09996 -0.09996)">
      <use xlink:href="#Cmr10-80"/>
      <use x="68.017578" xlink:href="#Cmr10-114"/>
      <use x="107.128906" xlink:href="#Cmr10-101"/>
      <use x="151.513672" xlink:href="#Cmr10-100"/>
      <use x="207.03125" xlink:href="#Cmr10-105"/>
      <use x="234.716797" xlink:href="#Cmr10-99"/>
      <use x="279.101562" xlink:href="#Cmr10-116"/>
      <use x="317.919922" xlink:href="#Cmr10-105"/>
      <use x="345.605469" xlink:href="#Cmr10-111"/>
      <use x="395.605469" xlink:href="#Cmr10-110"/>
      <use x="451.123047" xlink:href="#Cmr10-115"/>
     </g>
    </g>
    <g id="patch_8">
     <path d="M 62.056785 232.488005 
L 82.048785 232.488005 
L 82.048785 225.490805 
L 62.056785 225.490805 
z
" style="fill:#b0c4de;opacity:0.4;stroke:#b0c4de;stroke-linejoin:miter;"/>
    </g>
    <g id="text_16">
     <!-- $95\%$ Interval -->
     <defs>
      <path d="M 11.28125 4.203125 
Q 14.015625 0.984375 20.796875 0.984375 
Q 24.609375 0.984375 27.90625 3.5625 
Q 31.203125 6.15625 33.015625 9.90625 
Q 35.109375 14.15625 35.6875 18.96875 
Q 36.28125 23.78125 36.28125 30.90625 
Q 34.578125 26.859375 31.375 24.265625 
Q 28.171875 21.6875 24.03125 21.6875 
Q 18.21875 21.6875 13.640625 24.828125 
Q 9.078125 27.984375 6.640625 33.125 
Q 4.203125 38.28125 4.203125 44.09375 
Q 4.203125 50.09375 6.9375 55.296875 
Q 9.671875 60.5 14.5 63.546875 
Q 19.34375 66.609375 25.484375 66.609375 
Q 31.546875 66.609375 35.625 63.3125 
Q 39.703125 60.015625 41.84375 54.8125 
Q 44 49.609375 44.84375 43.796875 
Q 45.703125 37.984375 45.703125 32.328125 
Q 45.703125 24.609375 42.875 16.578125 
Q 40.046875 8.546875 34.40625 3.171875 
Q 28.765625 -2.203125 20.796875 -2.203125 
Q 14.890625 -2.203125 10.78125 0.578125 
Q 6.6875 3.375 6.6875 8.984375 
Q 6.6875 11.03125 8.078125 12.421875 
Q 9.46875 13.8125 11.53125 13.8125 
Q 13.53125 13.8125 14.921875 12.421875 
Q 16.3125 11.03125 16.3125 8.984375 
Q 16.3125 7.03125 14.890625 5.609375 
Q 13.484375 4.203125 11.53125 4.203125 
z
M 24.421875 24.3125 
Q 28.515625 24.3125 31.125 27.0625 
Q 33.734375 29.828125 34.90625 33.921875 
Q 36.078125 38.03125 36.078125 42.09375 
L 36.078125 44 
L 36.078125 44.390625 
Q 36.078125 51.90625 33.875 57.8125 
Q 31.6875 63.71875 25.484375 63.71875 
Q 21.53125 63.71875 19.0625 61.984375 
Q 16.609375 60.25 15.4375 57.375 
Q 14.265625 54.5 13.9375 51.21875 
Q 13.625 47.953125 13.625 44.09375 
Q 13.625 38.421875 14.15625 34.421875 
Q 14.703125 30.421875 17.09375 27.359375 
Q 19.484375 24.3125 24.421875 24.3125 
z
" id="Cmr10-57"/>
      <path d="M 13.921875 -3.609375 
Q 13.921875 -3.03125 14.203125 -2.59375 
L 59.515625 64.890625 
Q 53.515625 61.53125 46.296875 61.53125 
Q 38.484375 61.53125 31.296875 65.578125 
Q 33.296875 60.796875 33.296875 54.890625 
Q 33.296875 51.65625 32.53125 48.21875 
Q 31.78125 44.78125 30.21875 41.71875 
Q 28.65625 38.671875 26.1875 36.6875 
Q 23.734375 34.71875 20.40625 34.71875 
Q 15.71875 34.71875 12.34375 37.84375 
Q 8.984375 40.96875 7.296875 45.65625 
Q 5.609375 50.34375 5.609375 54.890625 
Q 5.609375 59.328125 7.296875 64.03125 
Q 8.984375 68.75 12.34375 71.875 
Q 15.71875 75 20.40625 75 
Q 24.125 75 27.203125 72.015625 
Q 35.25 64.109375 46.296875 64.109375 
Q 52.203125 64.109375 57.328125 66.71875 
Q 62.453125 69.34375 65.71875 74.21875 
Q 66.21875 75 67.28125 75 
Q 68.171875 75 68.71875 74.453125 
Q 69.28125 73.921875 69.28125 73 
Q 69.28125 72.46875 69 72.015625 
L 17.390625 -4.984375 
Q 16.9375 -5.609375 15.921875 -5.609375 
Q 15.09375 -5.609375 14.5 -4.96875 
Q 13.921875 -4.34375 13.921875 -3.609375 
z
M 20.40625 37.3125 
Q 25.34375 37.3125 27.875 43.1875 
Q 30.421875 49.078125 30.421875 54.890625 
Q 30.421875 58.15625 29.375 62.328125 
Q 28.328125 66.5 26.078125 69.453125 
Q 23.828125 72.40625 20.40625 72.40625 
Q 15.4375 72.40625 13.8125 66.859375 
Q 12.203125 61.328125 12.203125 54.78125 
Q 12.203125 48.484375 13.859375 42.890625 
Q 15.53125 37.3125 20.40625 37.3125 
z
M 64.703125 -5.609375 
Q 60.015625 -5.609375 56.640625 -2.484375 
Q 53.265625 0.640625 51.578125 5.34375 
Q 49.90625 10.0625 49.90625 14.59375 
Q 49.90625 19.046875 51.578125 23.75 
Q 53.265625 28.46875 56.640625 31.59375 
Q 60.015625 34.71875 64.703125 34.71875 
Q 69.046875 34.71875 71.96875 31.421875 
Q 74.90625 28.125 76.25 23.484375 
Q 77.59375 18.84375 77.59375 14.59375 
Q 77.59375 11.375 76.828125 7.953125 
Q 76.078125 4.546875 74.53125 1.4375 
Q 73 -1.65625 70.53125 -3.625 
Q 68.0625 -5.609375 64.703125 -5.609375 
z
M 64.703125 -2.984375 
Q 68.0625 -2.984375 70.359375 0.015625 
Q 72.65625 3.03125 73.671875 7.171875 
Q 74.703125 11.328125 74.703125 14.59375 
Q 74.703125 20.359375 72.15625 26.21875 
Q 69.625 32.078125 64.703125 32.078125 
Q 59.71875 32.078125 58.109375 26.53125 
Q 56.5 21 56.5 14.5 
Q 56.5 8.15625 58.15625 2.578125 
Q 59.8125 -2.984375 64.703125 -2.984375 
z
" id="Cmr10-37"/>
      <path d="M 2.59375 0 
L 2.59375 3.515625 
Q 13.375 3.515625 13.375 6.6875 
L 13.375 61.625 
Q 13.375 64.796875 2.59375 64.796875 
L 2.59375 68.3125 
L 33.5 68.3125 
L 33.5 64.796875 
Q 22.703125 64.796875 22.703125 61.625 
L 22.703125 6.6875 
Q 22.703125 3.515625 33.5 3.515625 
L 33.5 0 
z
" id="Cmr10-73"/>
      <path d="M 3.078125 0 
L 3.078125 3.515625 
Q 6.5 3.515625 8.6875 4.046875 
Q 10.890625 4.59375 10.890625 6.6875 
L 10.890625 59.1875 
Q 10.890625 61.859375 10.078125 63.0625 
Q 9.28125 64.265625 7.765625 64.53125 
Q 6.25 64.796875 3.078125 64.796875 
L 3.078125 68.3125 
L 17.921875 69.390625 
L 17.921875 6.6875 
Q 17.921875 4.59375 20.109375 4.046875 
Q 22.3125 3.515625 25.6875 3.515625 
L 25.6875 0 
z
" id="Cmr10-108"/>
     </defs>
     <g transform="translate(90.045585 232.488005)scale(0.09996 -0.09996)">
      <use xlink:href="#Cmr10-57"/>
      <use transform="translate(50 0)" xlink:href="#Cmr10-53"/>
      <use transform="translate(100 0)" xlink:href="#Cmr10-37"/>
      <use transform="translate(183.300781 0)" xlink:href="#Cmr10-32"/>
      <use transform="translate(216.601562 0)" xlink:href="#Cmr10-73"/>
      <use transform="translate(252.685547 0)" xlink:href="#Cmr10-110"/>
      <use transform="translate(308.203125 0)" xlink:href="#Cmr10-116"/>
      <use transform="translate(347.021484 0)" xlink:href="#Cmr10-101"/>
      <use transform="translate(391.40625 0)" xlink:href="#Cmr10-114"/>
      <use transform="translate(430.517578 0)" xlink:href="#Cmr10-118"/>
      <use transform="translate(483.203125 0)" xlink:href="#Cmr10-97"/>
      <use transform="translate(533.203125 0)" xlink:href="#Cmr10-108"/>
     </g>
    </g>
   </g>
  </g>
 </g>
 <defs>
  <clipPath id="pead86bea3d">
   <rect height="215.869423" width="215.869423" x="53.060385" y="27.553269"/>
  </clipPath>
 </defs>
</svg>
