<?xml version="1.0" encoding="utf-8" standalone="no"?>
<!DOCTYPE svg PUBLIC "-//W3C//DTD SVG 1.1//EN"
  "http://www.w3.org/Graphics/SVG/1.1/DTD/svg11.dtd">
<!-- Created with matplotlib (https://matplotlib.org/) -->
<svg height="288pt" version="1.1" viewBox="0 0 288 288" width="288pt" xmlns="http://www.w3.org/2000/svg" xmlns:xlink="http://www.w3.org/1999/xlink">
 <defs>
  <style type="text/css">
*{stroke-linecap:butt;stroke-linejoin:round;}
  </style>
 </defs>
 <g id="figure_1">
  <g id="patch_1">
   <path d="M 0 288 
L 288 288 
L 288 0 
L 0 0 
z
" style="fill:#ffffff;"/>
  </g>
  <g id="axes_1">
   <g id="patch_2">
    <path d="M 54.025288 241.492885 
L 267.964904 241.492885 
L 267.964904 27.553269 
L 54.025288 27.553269 
z
" style="fill:#fafafa;"/>
   </g>
   <g id="matplotlib.axis_1">
    <g id="xtick_1">
     <g id="line2d_1">
      <path clip-path="url(#p98f5ed0eed)" d="M 63.749816 241.492885 
L 63.749816 27.553269 
" style="fill:none;stroke:#b0b0b0;stroke-linecap:square;stroke-opacity:0.3;"/>
     </g>
     <g id="line2d_2"/>
     <g id="text_1">
      <!-- 0 -->
      <defs>
       <path d="M 25 -2.203125 
Q 12.75 -2.203125 8.328125 7.875 
Q 3.90625 17.96875 3.90625 31.890625 
Q 3.90625 40.578125 5.484375 48.234375 
Q 7.078125 55.90625 11.78125 61.25 
Q 16.5 66.609375 25 66.609375 
Q 31.59375 66.609375 35.78125 63.375 
Q 39.984375 60.15625 42.1875 55.046875 
Q 44.390625 49.953125 45.1875 44.109375 
Q 46 38.28125 46 31.890625 
Q 46 23.296875 44.40625 15.796875 
Q 42.828125 8.296875 38.1875 3.046875 
Q 33.546875 -2.203125 25 -2.203125 
z
M 25 0.390625 
Q 30.5625 0.390625 33.296875 6.09375 
Q 36.03125 11.8125 36.671875 18.75 
Q 37.3125 25.6875 37.3125 33.5 
Q 37.3125 41.015625 36.671875 47.359375 
Q 36.03125 53.71875 33.3125 58.859375 
Q 30.609375 64.015625 25 64.015625 
Q 19.34375 64.015625 16.609375 58.828125 
Q 13.875 53.65625 13.234375 47.328125 
Q 12.59375 41.015625 12.59375 33.5 
Q 12.59375 27.9375 12.859375 23 
Q 13.140625 18.0625 14.3125 12.8125 
Q 15.484375 7.5625 18.09375 3.96875 
Q 20.703125 0.390625 25 0.390625 
z
" id="Cmr10-48"/>
      </defs>
      <g style="fill:#333333;" transform="translate(60.749816 255.81976)scale(0.12 -0.12)">
       <use xlink:href="#Cmr10-48"/>
      </g>
     </g>
    </g>
    <g id="xtick_2">
     <g id="line2d_3">
      <path clip-path="url(#p98f5ed0eed)" d="M 122.68635 241.492885 
L 122.68635 27.553269 
" style="fill:none;stroke:#b0b0b0;stroke-linecap:square;stroke-opacity:0.3;"/>
     </g>
     <g id="line2d_4"/>
     <g id="text_2">
      <!-- 20 -->
      <defs>
       <path d="M 4.984375 0 
L 4.984375 2.6875 
Q 4.984375 2.9375 5.171875 3.21875 
L 20.703125 20.40625 
Q 24.21875 24.21875 26.40625 26.796875 
Q 28.609375 29.390625 30.75 32.765625 
Q 32.90625 36.140625 34.15625 39.625 
Q 35.40625 43.109375 35.40625 47.015625 
Q 35.40625 51.125 33.890625 54.859375 
Q 32.375 58.59375 29.375 60.84375 
Q 26.375 63.09375 22.125 63.09375 
Q 17.78125 63.09375 14.3125 60.46875 
Q 10.84375 57.859375 9.421875 53.71875 
Q 9.8125 53.8125 10.5 53.8125 
Q 12.75 53.8125 14.328125 52.296875 
Q 15.921875 50.78125 15.921875 48.390625 
Q 15.921875 46.09375 14.328125 44.5 
Q 12.75 42.921875 10.5 42.921875 
Q 8.15625 42.921875 6.5625 44.546875 
Q 4.984375 46.1875 4.984375 48.390625 
Q 4.984375 52.15625 6.390625 55.4375 
Q 7.8125 58.734375 10.46875 61.296875 
Q 13.140625 63.875 16.484375 65.234375 
Q 19.828125 66.609375 23.578125 66.609375 
Q 29.296875 66.609375 34.21875 64.1875 
Q 39.15625 61.765625 42.03125 57.34375 
Q 44.921875 52.9375 44.921875 47.015625 
Q 44.921875 42.671875 43.015625 38.765625 
Q 41.109375 34.859375 38.125 31.65625 
Q 35.15625 28.46875 30.515625 24.40625 
Q 25.875 20.359375 24.421875 19 
L 13.09375 8.109375 
L 22.703125 8.109375 
Q 29.78125 8.109375 34.546875 8.21875 
Q 39.3125 8.34375 39.59375 8.59375 
Q 40.765625 9.859375 42 17.828125 
L 44.921875 17.828125 
L 42.09375 0 
z
" id="Cmr10-50"/>
      </defs>
      <g style="fill:#333333;" transform="translate(116.68635 255.81976)scale(0.12 -0.12)">
       <use xlink:href="#Cmr10-50"/>
       <use x="50" xlink:href="#Cmr10-48"/>
      </g>
     </g>
    </g>
    <g id="xtick_3">
     <g id="line2d_5">
      <path clip-path="url(#p98f5ed0eed)" d="M 181.622883 241.492885 
L 181.622883 27.553269 
" style="fill:none;stroke:#b0b0b0;stroke-linecap:square;stroke-opacity:0.3;"/>
     </g>
     <g id="line2d_6"/>
     <g id="text_3">
      <!-- 40 -->
      <defs>
       <path d="M 2.78125 16.5 
L 2.78125 20.015625 
L 33.6875 66.109375 
Q 34.03125 66.609375 34.71875 66.609375 
L 36.1875 66.609375 
Q 37.3125 66.609375 37.3125 65.484375 
L 37.3125 20.015625 
L 47.125 20.015625 
L 47.125 16.5 
L 37.3125 16.5 
L 37.3125 6.6875 
Q 37.3125 4.640625 40.234375 4.078125 
Q 43.171875 3.515625 47.015625 3.515625 
L 47.015625 0 
L 19.484375 0 
L 19.484375 3.515625 
Q 23.34375 3.515625 26.265625 4.078125 
Q 29.203125 4.640625 29.203125 6.6875 
L 29.203125 16.5 
z
M 6.109375 20.015625 
L 29.78125 20.015625 
L 29.78125 55.421875 
z
" id="Cmr10-52"/>
      </defs>
      <g style="fill:#333333;" transform="translate(175.622883 255.81976)scale(0.12 -0.12)">
       <use xlink:href="#Cmr10-52"/>
       <use x="50" xlink:href="#Cmr10-48"/>
      </g>
     </g>
    </g>
    <g id="xtick_4">
     <g id="line2d_7">
      <path clip-path="url(#p98f5ed0eed)" d="M 240.559416 241.492885 
L 240.559416 27.553269 
" style="fill:none;stroke:#b0b0b0;stroke-linecap:square;stroke-opacity:0.3;"/>
     </g>
     <g id="line2d_8"/>
     <g id="text_4">
      <!-- 60 -->
      <defs>
       <path d="M 25 -2.203125 
Q 18.796875 -2.203125 14.640625 1.09375 
Q 10.5 4.390625 8.21875 9.640625 
Q 5.953125 14.890625 5.078125 20.65625 
Q 4.203125 26.421875 4.203125 32.328125 
Q 4.203125 40.234375 7.28125 48.1875 
Q 10.359375 56.15625 16.328125 61.375 
Q 22.3125 66.609375 30.515625 66.609375 
Q 33.9375 66.609375 36.890625 65.3125 
Q 39.84375 64.015625 41.53125 61.5 
Q 43.21875 58.984375 43.21875 55.421875 
Q 43.21875 53.375 41.828125 51.984375 
Q 40.4375 50.59375 38.375 50.59375 
Q 36.421875 50.59375 35 52 
Q 33.59375 53.421875 33.59375 55.421875 
Q 33.59375 57.375 35 58.78125 
Q 36.421875 60.203125 38.375 60.203125 
L 38.921875 60.203125 
Q 37.640625 62.015625 35.328125 62.859375 
Q 33.015625 63.71875 30.515625 63.71875 
Q 27.484375 63.71875 24.921875 62.390625 
Q 22.359375 61.078125 20.3125 58.828125 
Q 18.265625 56.59375 16.890625 53.875 
Q 15.53125 51.171875 14.765625 47.703125 
Q 14.015625 44.234375 13.8125 41.203125 
Q 13.625 38.1875 13.625 33.59375 
Q 15.375 37.703125 18.59375 40.3125 
Q 21.828125 42.921875 25.875 42.921875 
Q 30.328125 42.921875 33.984375 41.109375 
Q 37.640625 39.3125 40.28125 36.109375 
Q 42.921875 32.90625 44.3125 28.796875 
Q 45.703125 24.703125 45.703125 20.515625 
Q 45.703125 14.65625 43.09375 9.34375 
Q 40.484375 4.046875 35.734375 0.921875 
Q 31 -2.203125 25 -2.203125 
z
M 25 0.984375 
Q 28.859375 0.984375 31.203125 2.734375 
Q 33.546875 4.5 34.640625 7.390625 
Q 35.75 10.296875 36.015625 13.25 
Q 36.28125 16.21875 36.28125 20.515625 
Q 36.28125 26.171875 35.734375 30.171875 
Q 35.203125 34.1875 32.8125 37.234375 
Q 30.421875 40.28125 25.484375 40.28125 
Q 21.4375 40.28125 18.828125 37.546875 
Q 16.21875 34.8125 15.015625 30.640625 
Q 13.8125 26.46875 13.8125 22.609375 
Q 13.8125 21.296875 13.921875 20.609375 
Q 13.921875 20.453125 13.890625 20.359375 
Q 13.875 20.265625 13.8125 20.125 
Q 13.8125 15.828125 14.6875 11.421875 
Q 15.578125 7.03125 18.0625 4 
Q 20.5625 0.984375 25 0.984375 
z
" id="Cmr10-54"/>
      </defs>
      <g style="fill:#333333;" transform="translate(234.559416 255.81976)scale(0.12 -0.12)">
       <use xlink:href="#Cmr10-54"/>
       <use x="50" xlink:href="#Cmr10-48"/>
      </g>
     </g>
    </g>
    <g id="text_5">
     <!-- Index (Ordered by Observed Value) -->
     <defs>
      <path d="M 2.59375 0 
L 2.59375 3.515625 
Q 13.375 3.515625 13.375 6.6875 
L 13.375 61.625 
Q 13.375 64.796875 2.59375 64.796875 
L 2.59375 68.3125 
L 33.5 68.3125 
L 33.5 64.796875 
Q 22.703125 64.796875 22.703125 61.625 
L 22.703125 6.6875 
Q 22.703125 3.515625 33.5 3.515625 
L 33.5 0 
z
" id="Cmr10-73"/>
      <path d="M 2.984375 0 
L 2.984375 3.515625 
Q 6.390625 3.515625 8.59375 4.046875 
Q 10.796875 4.59375 10.796875 6.6875 
L 10.796875 33.984375 
Q 10.796875 36.671875 9.984375 37.859375 
Q 9.1875 39.0625 7.671875 39.328125 
Q 6.15625 39.59375 2.984375 39.59375 
L 2.984375 43.109375 
L 17.484375 44.1875 
L 17.484375 34.421875 
Q 19.484375 38.71875 23.40625 41.453125 
Q 27.34375 44.1875 31.984375 44.1875 
Q 38.921875 44.1875 42.40625 40.859375 
Q 45.90625 37.546875 45.90625 30.71875 
L 45.90625 6.6875 
Q 45.90625 4.59375 48.09375 4.046875 
Q 50.296875 3.515625 53.71875 3.515625 
L 53.71875 0 
L 30.8125 0 
L 30.8125 3.515625 
Q 34.234375 3.515625 36.421875 4.046875 
Q 38.625 4.59375 38.625 6.6875 
L 38.625 30.421875 
Q 38.625 35.296875 37.203125 38.453125 
Q 35.796875 41.609375 31.390625 41.609375 
Q 25.59375 41.609375 21.84375 36.96875 
Q 18.109375 32.328125 18.109375 26.421875 
L 18.109375 6.6875 
Q 18.109375 4.59375 20.3125 4.046875 
Q 22.515625 3.515625 25.875 3.515625 
L 25.875 0 
z
" id="Cmr10-110"/>
      <path d="M 24.421875 -1.125 
Q 18.5 -1.125 13.609375 2.078125 
Q 8.734375 5.28125 6.03125 10.5 
Q 3.328125 15.71875 3.328125 21.578125 
Q 3.328125 27.640625 6.28125 32.828125 
Q 9.234375 38.03125 14.3125 41.109375 
Q 19.390625 44.1875 25.484375 44.1875 
Q 29.15625 44.1875 32.421875 42.640625 
Q 35.6875 41.109375 38.09375 38.375 
L 38.09375 59.1875 
Q 38.09375 61.859375 37.28125 63.0625 
Q 36.46875 64.265625 34.984375 64.53125 
Q 33.5 64.796875 30.328125 64.796875 
L 30.328125 68.3125 
L 45.125 69.390625 
L 45.125 9.078125 
Q 45.125 6.453125 45.921875 5.25 
Q 46.734375 4.046875 48.21875 3.78125 
Q 49.703125 3.515625 52.875 3.515625 
L 52.875 0 
L 37.796875 -1.125 
L 37.796875 5.171875 
Q 35.203125 2.203125 31.640625 0.53125 
Q 28.078125 -1.125 24.421875 -1.125 
z
M 14.203125 8.6875 
Q 15.921875 5.421875 18.765625 3.46875 
Q 21.625 1.515625 25 1.515625 
Q 29.15625 1.515625 32.609375 3.90625 
Q 36.078125 6.296875 37.796875 10.109375 
L 37.796875 34.078125 
Q 36.625 36.28125 34.84375 38.015625 
Q 33.0625 39.75 30.828125 40.671875 
Q 28.609375 41.609375 26.125 41.609375 
Q 20.90625 41.609375 17.71875 38.640625 
Q 14.546875 35.6875 13.28125 31.09375 
Q 12.015625 26.515625 12.015625 21.484375 
Q 12.015625 17.484375 12.421875 14.5 
Q 12.84375 11.53125 14.203125 8.6875 
z
" id="Cmr10-100"/>
      <path d="M 24.90625 -1.125 
Q 18.796875 -1.125 13.6875 2.078125 
Q 8.59375 5.28125 5.6875 10.625 
Q 2.78125 15.96875 2.78125 21.921875 
Q 2.78125 27.78125 5.4375 33.046875 
Q 8.109375 38.328125 12.859375 41.578125 
Q 17.625 44.828125 23.484375 44.828125 
Q 28.078125 44.828125 31.46875 43.28125 
Q 34.859375 41.75 37.0625 39.015625 
Q 39.265625 36.28125 40.375 32.5625 
Q 41.5 28.859375 41.5 24.421875 
Q 41.5 23.09375 40.484375 23.09375 
L 11.53125 23.09375 
L 11.53125 22.015625 
Q 11.53125 13.71875 14.875 7.765625 
Q 18.21875 1.8125 25.78125 1.8125 
Q 28.859375 1.8125 31.46875 3.171875 
Q 34.078125 4.546875 36 6.984375 
Q 37.9375 9.421875 38.625 12.203125 
Q 38.71875 12.546875 38.984375 12.8125 
Q 39.265625 13.09375 39.59375 13.09375 
L 40.484375 13.09375 
Q 41.5 13.09375 41.5 11.8125 
Q 40.09375 6.15625 35.40625 2.515625 
Q 30.71875 -1.125 24.90625 -1.125 
z
M 11.625 25.59375 
L 34.421875 25.59375 
Q 34.421875 29.34375 33.375 33.203125 
Q 32.328125 37.0625 29.875 39.625 
Q 27.4375 42.1875 23.484375 42.1875 
Q 17.828125 42.1875 14.71875 36.890625 
Q 11.625 31.59375 11.625 25.59375 
z
" id="Cmr10-101"/>
      <path d="M 1.21875 0 
L 1.21875 3.515625 
Q 5.03125 3.515625 8.390625 5 
Q 11.765625 6.5 14.109375 9.421875 
L 23.1875 21 
L 11.375 36.375 
Q 9.625 38.578125 7.546875 39.078125 
Q 5.46875 39.59375 1.703125 39.59375 
L 1.703125 43.109375 
L 22.515625 43.109375 
L 22.515625 39.59375 
Q 21.1875 39.59375 20.03125 39 
Q 18.890625 38.421875 18.890625 37.3125 
Q 18.890625 36.921875 19.1875 36.375 
L 27.203125 25.984375 
L 33.203125 33.6875 
Q 34.421875 35.15625 34.421875 36.625 
Q 34.421875 37.84375 33.609375 38.71875 
Q 32.8125 39.59375 31.5 39.59375 
L 31.5 43.109375 
L 49.90625 43.109375 
L 49.90625 39.59375 
Q 46.046875 39.59375 42.65625 38.109375 
Q 39.265625 36.625 36.921875 33.6875 
L 29 23.578125 
L 41.796875 6.6875 
Q 43.703125 4.5 45.75 4 
Q 47.796875 3.515625 51.609375 3.515625 
L 51.609375 0 
L 30.8125 0 
L 30.8125 3.515625 
Q 32.03125 3.515625 33.15625 4.09375 
Q 34.28125 4.6875 34.28125 5.8125 
Q 34.28125 6.25 33.984375 6.6875 
L 25 18.609375 
L 17.828125 9.421875 
Q 16.703125 8.15625 16.703125 6.5 
Q 16.703125 5.28125 17.53125 4.390625 
Q 18.359375 3.515625 19.484375 3.515625 
L 19.484375 0 
z
" id="Cmr10-120"/>
      <path id="Cmr10-32"/>
      <path d="M 31 -24.8125 
Q 25.4375 -20.40625 21.40625 -14.71875 
Q 17.390625 -9.03125 14.8125 -2.578125 
Q 12.25 3.859375 10.984375 10.890625 
Q 9.71875 17.921875 9.71875 25 
Q 9.71875 32.171875 10.984375 39.203125 
Q 12.25 46.234375 14.859375 52.734375 
Q 17.484375 59.234375 21.53125 64.890625 
Q 25.59375 70.5625 31 74.8125 
Q 31 75 31.5 75 
L 32.421875 75 
Q 32.71875 75 32.953125 74.734375 
Q 33.203125 74.46875 33.203125 74.125 
Q 33.203125 73.6875 33.015625 73.484375 
Q 28.125 68.703125 24.875 63.234375 
Q 21.625 57.765625 19.640625 51.578125 
Q 17.671875 45.40625 16.796875 38.78125 
Q 15.921875 32.171875 15.921875 25 
Q 15.921875 -6.78125 32.90625 -23.296875 
Q 33.203125 -23.578125 33.203125 -24.125 
Q 33.203125 -24.359375 32.9375 -24.671875 
Q 32.671875 -25 32.421875 -25 
L 31.5 -25 
Q 31 -25 31 -24.8125 
z
" id="Cmr10-40"/>
      <path d="M 38.921875 -2.203125 
Q 29.390625 -2.203125 21.796875 2.84375 
Q 14.203125 7.90625 9.90625 16.28125 
Q 5.609375 24.65625 5.609375 33.890625 
Q 5.609375 40.71875 8.078125 47.40625 
Q 10.546875 54.109375 14.96875 59.28125 
Q 19.390625 64.453125 25.578125 67.484375 
Q 31.78125 70.515625 38.921875 70.515625 
Q 46 70.515625 52.21875 67.453125 
Q 58.453125 64.40625 62.890625 59.171875 
Q 67.328125 53.953125 69.71875 47.453125 
Q 72.125 40.96875 72.125 33.890625 
Q 72.125 24.65625 67.828125 16.28125 
Q 63.53125 7.90625 55.90625 2.84375 
Q 48.296875 -2.203125 38.921875 -2.203125 
z
M 22.3125 10.796875 
Q 25.25 6.203125 29.546875 3.484375 
Q 33.84375 0.78125 38.921875 0.78125 
Q 42.1875 0.78125 45.328125 2.09375 
Q 48.484375 3.421875 51.046875 5.71875 
Q 53.609375 8.015625 55.421875 10.796875 
Q 61.375 19.78125 61.375 35.5 
Q 61.375 49.90625 55.421875 58.296875 
Q 52.484375 62.5 48.109375 65.03125 
Q 43.75 67.578125 38.921875 67.578125 
Q 34.03125 67.578125 29.640625 65.03125 
Q 25.25 62.5 22.3125 58.296875 
Q 19.96875 55.03125 18.671875 51.34375 
Q 17.390625 47.65625 16.84375 43.703125 
Q 16.3125 39.75 16.3125 35.5 
Q 16.3125 30.953125 16.8125 26.625 
Q 17.328125 22.3125 18.71875 18.15625 
Q 20.125 14.015625 22.3125 10.796875 
z
" id="Cmr10-79"/>
      <path d="M 2.59375 0 
L 2.59375 3.515625 
Q 6 3.515625 8.203125 4.046875 
Q 10.40625 4.59375 10.40625 6.6875 
L 10.40625 33.984375 
Q 10.40625 36.671875 9.59375 37.859375 
Q 8.796875 39.0625 7.28125 39.328125 
Q 5.765625 39.59375 2.59375 39.59375 
L 2.59375 43.109375 
L 16.890625 44.1875 
L 16.890625 34.421875 
Q 18.5 38.765625 21.484375 41.46875 
Q 24.46875 44.1875 28.71875 44.1875 
Q 31.6875 44.1875 34.03125 42.421875 
Q 36.375 40.671875 36.375 37.796875 
Q 36.375 35.984375 35.078125 34.640625 
Q 33.796875 33.296875 31.890625 33.296875 
Q 30.03125 33.296875 28.703125 34.609375 
Q 27.390625 35.9375 27.390625 37.796875 
Q 27.390625 40.484375 29.296875 41.609375 
L 28.71875 41.609375 
Q 24.65625 41.609375 22.09375 38.671875 
Q 19.53125 35.75 18.453125 31.390625 
Q 17.390625 27.046875 17.390625 23.09375 
L 17.390625 6.6875 
Q 17.390625 3.515625 27.09375 3.515625 
L 27.09375 0 
z
" id="Cmr10-114"/>
      <path d="M 10.40625 0 
L 10.40625 59.1875 
Q 10.40625 61.859375 9.59375 63.0625 
Q 8.796875 64.265625 7.28125 64.53125 
Q 5.765625 64.796875 2.59375 64.796875 
L 2.59375 68.3125 
L 17.390625 69.390625 
L 17.390625 38.09375 
Q 19.046875 39.9375 21.265625 41.328125 
Q 23.484375 42.71875 26.015625 43.453125 
Q 28.5625 44.1875 31.203125 44.1875 
Q 35.6875 44.1875 39.515625 42.375 
Q 43.359375 40.578125 46.1875 37.40625 
Q 49.03125 34.234375 50.609375 30.109375 
Q 52.203125 25.984375 52.203125 21.578125 
Q 52.203125 15.53125 49.25 10.296875 
Q 46.296875 5.078125 41.1875 1.96875 
Q 36.078125 -1.125 29.984375 -1.125 
Q 26.171875 -1.125 22.609375 0.828125 
Q 19.046875 2.78125 16.703125 6 
L 13.28125 0 
z
M 17.671875 9.8125 
Q 19.34375 6.15625 22.46875 3.828125 
Q 25.59375 1.515625 29.390625 1.515625 
Q 34.578125 1.515625 37.765625 4.484375 
Q 40.96875 7.46875 42.234375 12 
Q 43.5 16.546875 43.5 21.578125 
Q 43.5 30.03125 41.3125 34.421875 
Q 40.328125 36.375 38.640625 38.03125 
Q 36.96875 39.703125 34.890625 40.65625 
Q 32.8125 41.609375 30.515625 41.609375 
Q 26.515625 41.609375 23.09375 39.484375 
Q 19.671875 37.359375 17.671875 33.796875 
z
" id="Cmr10-98"/>
      <path d="M 6.890625 -16.40625 
Q 8.796875 -17.921875 11.078125 -17.921875 
Q 17.390625 -17.921875 21.390625 -8.40625 
L 24.8125 0 
L 9.8125 36.71875 
Q 8.890625 38.578125 6.984375 39.078125 
Q 5.078125 39.59375 1.90625 39.59375 
L 1.90625 43.109375 
L 22.90625 43.109375 
L 22.90625 39.59375 
Q 17.390625 39.59375 17.390625 37.203125 
Q 17.390625 36.8125 17.484375 36.625 
L 28.609375 9.28125 
L 38.625 33.890625 
Q 38.921875 34.671875 38.921875 35.59375 
Q 38.921875 36.8125 38.25 37.71875 
Q 37.59375 38.625 36.546875 39.109375 
Q 35.5 39.59375 34.1875 39.59375 
L 34.1875 43.109375 
L 50.78125 43.109375 
L 50.78125 39.59375 
Q 47.703125 39.59375 45.375 38.171875 
Q 43.0625 36.765625 41.796875 33.984375 
L 24.515625 -8.40625 
Q 23.140625 -11.625 21.3125 -14.328125 
Q 19.484375 -17.046875 16.84375 -18.78125 
Q 14.203125 -20.515625 11.078125 -20.515625 
Q 7.421875 -20.515625 4.65625 -18.09375 
Q 1.90625 -15.671875 1.90625 -12.109375 
Q 1.90625 -10.25 3.171875 -8.984375 
Q 4.4375 -7.71875 6.296875 -7.71875 
Q 7.5625 -7.71875 8.5625 -8.28125 
Q 9.578125 -8.84375 10.125 -9.8125 
Q 10.6875 -10.796875 10.6875 -12.109375 
Q 10.6875 -13.71875 9.609375 -14.984375 
Q 8.546875 -16.265625 6.890625 -16.40625 
z
" id="Cmr10-121"/>
      <path d="M 3.328125 -0.296875 
L 3.328125 16.015625 
Q 3.328125 16.796875 4.203125 16.796875 
L 5.421875 16.796875 
Q 6 16.796875 6.203125 16.015625 
Q 8.984375 1.515625 19.671875 1.515625 
Q 24.421875 1.515625 27.609375 3.65625 
Q 30.8125 5.8125 30.8125 10.296875 
Q 30.8125 13.53125 28.3125 15.796875 
Q 25.828125 18.0625 22.40625 18.890625 
L 15.71875 20.21875 
Q 12.359375 20.953125 9.59375 22.453125 
Q 6.84375 23.96875 5.078125 26.484375 
Q 3.328125 29 3.328125 32.328125 
Q 3.328125 36.71875 5.640625 39.515625 
Q 7.953125 42.328125 11.65625 43.578125 
Q 15.375 44.828125 19.671875 44.828125 
Q 24.8125 44.828125 28.609375 42.09375 
L 31.5 44.578125 
Q 31.5 44.828125 31.984375 44.828125 
L 32.71875 44.828125 
Q 33.015625 44.828125 33.25 44.546875 
Q 33.5 44.28125 33.5 44 
L 33.5 30.90625 
Q 33.5 29.984375 32.71875 29.984375 
L 31.5 29.984375 
Q 30.609375 29.984375 30.609375 30.90625 
Q 30.609375 36.140625 27.703125 39.3125 
Q 24.8125 42.484375 19.578125 42.484375 
Q 15.09375 42.484375 11.796875 40.8125 
Q 8.5 39.15625 8.5 35.109375 
Q 8.5 32.328125 10.859375 30.546875 
Q 13.234375 28.765625 16.40625 27.984375 
L 23.1875 26.703125 
Q 26.609375 25.921875 29.5625 24.0625 
Q 32.515625 22.21875 34.25 19.375 
Q 35.984375 16.546875 35.984375 12.984375 
Q 35.984375 9.375 34.734375 6.703125 
Q 33.5 4.046875 31.265625 2.28125 
Q 29.046875 0.53125 26.015625 -0.296875 
Q 23 -1.125 19.671875 -1.125 
Q 13.421875 -1.125 8.984375 3.078125 
L 5.328125 -0.875 
Q 5.328125 -1.125 4.78125 -1.125 
L 4.203125 -1.125 
Q 3.328125 -1.125 3.328125 -0.296875 
z
" id="Cmr10-115"/>
      <path d="M 24.421875 0 
L 9.8125 36.71875 
Q 8.890625 38.578125 6.953125 39.078125 
Q 5.03125 39.59375 1.90625 39.59375 
L 1.90625 43.109375 
L 22.90625 43.109375 
L 22.90625 39.59375 
Q 17.28125 39.59375 17.28125 37.203125 
Q 17.28125 36.8125 17.390625 36.625 
L 28.609375 8.40625 
L 38.71875 33.890625 
Q 39.015625 34.671875 39.015625 35.5 
Q 39.015625 37.40625 37.578125 38.5 
Q 36.140625 39.59375 34.1875 39.59375 
L 34.1875 43.109375 
L 50.78125 43.109375 
L 50.78125 39.59375 
Q 47.703125 39.59375 45.375 38.171875 
Q 43.0625 36.765625 41.796875 33.984375 
L 28.328125 0 
Q 27.9375 -1.125 26.703125 -1.125 
L 25.984375 -1.125 
Q 24.75 -1.125 24.421875 0 
z
" id="Cmr10-118"/>
      <path d="M 35.203125 -1.125 
L 11.625 61.625 
Q 10.75 63.71875 8.25 64.25 
Q 5.765625 64.796875 1.90625 64.796875 
L 1.90625 68.3125 
L 29.390625 68.3125 
L 29.390625 64.796875 
Q 21.09375 64.796875 21.09375 62.203125 
Q 21.140625 62.0625 21.15625 61.9375 
Q 21.1875 61.8125 21.1875 61.625 
L 40.375 10.59375 
L 58.5 58.890625 
Q 58.6875 59.28125 58.6875 60.109375 
Q 58.6875 62.546875 56.4375 63.671875 
Q 54.203125 64.796875 51.421875 64.796875 
L 51.421875 68.3125 
L 73 68.3125 
L 73 64.796875 
Q 69.234375 64.796875 66.375 63.40625 
Q 63.53125 62.015625 62.3125 58.890625 
L 39.703125 -1.125 
Q 39.40625 -2.203125 38.09375 -2.203125 
L 36.8125 -2.203125 
Q 35.5 -2.203125 35.203125 -1.125 
z
" id="Cmr10-86"/>
      <path d="M 4 9.8125 
Q 4 15.765625 8.6875 19.5 
Q 13.375 23.25 19.9375 24.78125 
Q 26.515625 26.3125 32.421875 26.3125 
L 32.421875 30.421875 
Q 32.421875 33.296875 31.15625 36 
Q 29.890625 38.71875 27.484375 40.453125 
Q 25.09375 42.1875 22.21875 42.1875 
Q 15.578125 42.1875 12.109375 39.203125 
Q 14.015625 39.203125 15.25 37.765625 
Q 16.5 36.328125 16.5 34.421875 
Q 16.5 32.421875 15.078125 31 
Q 13.671875 29.59375 11.71875 29.59375 
Q 9.71875 29.59375 8.296875 31 
Q 6.890625 32.421875 6.890625 34.421875 
Q 6.890625 39.703125 11.671875 42.265625 
Q 16.453125 44.828125 22.21875 44.828125 
Q 26.265625 44.828125 30.359375 43.09375 
Q 34.46875 41.359375 37.078125 38.125 
Q 39.703125 34.90625 39.703125 30.609375 
L 39.703125 8.109375 
Q 39.703125 6.15625 40.53125 4.515625 
Q 41.359375 2.875 43.109375 2.875 
Q 44.78125 2.875 45.578125 4.53125 
Q 46.390625 6.203125 46.390625 8.109375 
L 46.390625 14.5 
L 49.3125 14.5 
L 49.3125 8.109375 
Q 49.3125 5.859375 48.140625 3.828125 
Q 46.96875 1.8125 44.984375 0.609375 
Q 43.015625 -0.59375 40.71875 -0.59375 
Q 37.796875 -0.59375 35.671875 1.671875 
Q 33.546875 3.953125 33.296875 7.078125 
Q 31.453125 3.328125 27.828125 1.09375 
Q 24.21875 -1.125 20.125 -1.125 
Q 16.3125 -1.125 12.625 0 
Q 8.9375 1.125 6.46875 3.53125 
Q 4 5.953125 4 9.8125 
z
M 12.109375 9.8125 
Q 12.109375 6.296875 14.6875 3.90625 
Q 17.28125 1.515625 20.796875 1.515625 
Q 24.03125 1.515625 26.65625 3.125 
Q 29.296875 4.734375 30.859375 7.515625 
Q 32.421875 10.296875 32.421875 13.375 
L 32.421875 23.78125 
Q 27.875 23.78125 23.109375 22.28125 
Q 18.359375 20.796875 15.234375 17.625 
Q 12.109375 14.453125 12.109375 9.8125 
z
" id="Cmr10-97"/>
      <path d="M 3.078125 0 
L 3.078125 3.515625 
Q 6.5 3.515625 8.6875 4.046875 
Q 10.890625 4.59375 10.890625 6.6875 
L 10.890625 59.1875 
Q 10.890625 61.859375 10.078125 63.0625 
Q 9.28125 64.265625 7.765625 64.53125 
Q 6.25 64.796875 3.078125 64.796875 
L 3.078125 68.3125 
L 17.921875 69.390625 
L 17.921875 6.6875 
Q 17.921875 4.59375 20.109375 4.046875 
Q 22.3125 3.515625 25.6875 3.515625 
L 25.6875 0 
z
" id="Cmr10-108"/>
      <path d="M 10.796875 11.921875 
L 10.796875 33.984375 
Q 10.796875 36.671875 9.984375 37.859375 
Q 9.1875 39.0625 7.671875 39.328125 
Q 6.15625 39.59375 2.984375 39.59375 
L 2.984375 43.109375 
L 18.109375 44.1875 
L 18.109375 11.921875 
Q 18.109375 8.015625 18.671875 5.828125 
Q 19.234375 3.65625 21.0625 2.578125 
Q 22.90625 1.515625 26.90625 1.515625 
Q 32.28125 1.515625 35.453125 6 
Q 38.625 10.5 38.625 16.21875 
L 38.625 33.984375 
Q 38.625 36.671875 37.796875 37.859375 
Q 36.96875 39.0625 35.46875 39.328125 
Q 33.984375 39.59375 30.8125 39.59375 
L 30.8125 43.109375 
L 45.90625 44.1875 
L 45.90625 9.078125 
Q 45.90625 6.453125 46.703125 5.25 
Q 47.515625 4.046875 49.015625 3.78125 
Q 50.53125 3.515625 53.71875 3.515625 
L 53.71875 0 
L 38.921875 -1.125 
L 38.921875 7.328125 
Q 37.0625 3.5625 33.734375 1.21875 
Q 30.421875 -1.125 26.421875 -1.125 
Q 19.234375 -1.125 15.015625 1.921875 
Q 10.796875 4.984375 10.796875 11.921875 
z
" id="Cmr10-117"/>
      <path d="M 6.5 -25 
Q 5.609375 -25 5.609375 -24.125 
Q 5.609375 -23.6875 5.8125 -23.484375 
Q 22.90625 -6.78125 22.90625 25 
Q 22.90625 56.78125 6 73.296875 
Q 5.609375 73.53125 5.609375 74.125 
Q 5.609375 74.46875 5.875 74.734375 
Q 6.15625 75 6.5 75 
L 7.421875 75 
Q 7.71875 75 7.90625 74.8125 
Q 15.09375 69.140625 19.875 61.03125 
Q 24.65625 52.9375 26.875 43.75 
Q 29.109375 34.578125 29.109375 25 
Q 29.109375 17.921875 27.90625 11.0625 
Q 26.703125 4.203125 24.09375 -2.453125 
Q 21.484375 -9.125 17.484375 -14.765625 
Q 13.484375 -20.40625 7.90625 -24.8125 
Q 7.71875 -25 7.421875 -25 
z
" id="Cmr10-41"/>
     </defs>
     <g transform="translate(66.181971 271.146635)scale(0.12 -0.12)">
      <use xlink:href="#Cmr10-73"/>
      <use x="36.083984" xlink:href="#Cmr10-110"/>
      <use x="91.601562" xlink:href="#Cmr10-100"/>
      <use x="147.119141" xlink:href="#Cmr10-101"/>
      <use x="191.503906" xlink:href="#Cmr10-120"/>
      <use x="244.189453" xlink:href="#Cmr10-32"/>
      <use x="277.490234" xlink:href="#Cmr10-40"/>
      <use x="316.308594" xlink:href="#Cmr10-79"/>
      <use x="393.994141" xlink:href="#Cmr10-114"/>
      <use x="433.105469" xlink:href="#Cmr10-100"/>
      <use x="488.623047" xlink:href="#Cmr10-101"/>
      <use x="533.007812" xlink:href="#Cmr10-114"/>
      <use x="572.119141" xlink:href="#Cmr10-101"/>
      <use x="616.503906" xlink:href="#Cmr10-100"/>
      <use x="672.021484" xlink:href="#Cmr10-32"/>
      <use x="705.322266" xlink:href="#Cmr10-98"/>
      <use x="760.839844" xlink:href="#Cmr10-121"/>
      <use x="813.525391" xlink:href="#Cmr10-32"/>
      <use x="846.826172" xlink:href="#Cmr10-79"/>
      <use x="924.511719" xlink:href="#Cmr10-98"/>
      <use x="980.029297" xlink:href="#Cmr10-115"/>
      <use x="1019.433594" xlink:href="#Cmr10-101"/>
      <use x="1063.818359" xlink:href="#Cmr10-114"/>
      <use x="1102.929688" xlink:href="#Cmr10-118"/>
      <use x="1155.615234" xlink:href="#Cmr10-101"/>
      <use x="1200" xlink:href="#Cmr10-100"/>
      <use x="1255.517578" xlink:href="#Cmr10-32"/>
      <use x="1288.818359" xlink:href="#Cmr10-86"/>
      <use x="1363.818359" xlink:href="#Cmr10-97"/>
      <use x="1413.818359" xlink:href="#Cmr10-108"/>
      <use x="1441.503906" xlink:href="#Cmr10-117"/>
      <use x="1497.021484" xlink:href="#Cmr10-101"/>
      <use x="1541.40625" xlink:href="#Cmr10-41"/>
     </g>
    </g>
   </g>
   <g id="matplotlib.axis_2">
    <g id="ytick_1">
     <g id="line2d_9">
      <path clip-path="url(#p98f5ed0eed)" d="M 54.025288 218.972925 
L 267.964904 218.972925 
" style="fill:none;stroke:#b0b0b0;stroke-linecap:square;stroke-opacity:0.3;"/>
     </g>
     <g id="line2d_10"/>
     <g id="text_6">
      <!-- -25 -->
      <defs>
       <path d="M 1.125 18.5 
L 1.125 24.703125 
L 27.59375 24.703125 
L 27.59375 18.5 
z
" id="Cmr10-45"/>
       <path d="M 8.6875 11.375 
Q 9.71875 8.453125 11.84375 6.046875 
Q 13.96875 3.65625 16.875 2.3125 
Q 19.78125 0.984375 22.90625 0.984375 
Q 30.125 0.984375 32.859375 6.59375 
Q 35.59375 12.203125 35.59375 20.21875 
Q 35.59375 23.6875 35.46875 26.046875 
Q 35.359375 28.421875 34.8125 30.609375 
Q 33.890625 34.125 31.5625 36.765625 
Q 29.25 39.40625 25.875 39.40625 
Q 22.515625 39.40625 20.09375 38.375 
Q 17.671875 37.359375 16.15625 35.984375 
Q 14.65625 34.625 13.484375 33.109375 
Q 12.3125 31.59375 12.015625 31.5 
L 10.890625 31.5 
Q 10.640625 31.5 10.265625 31.8125 
Q 9.90625 32.125 9.90625 32.421875 
L 9.90625 65.828125 
Q 9.90625 66.0625 10.21875 66.328125 
Q 10.546875 66.609375 10.890625 66.609375 
L 11.1875 66.609375 
Q 17.921875 63.375 25.484375 63.375 
Q 32.90625 63.375 39.796875 66.609375 
L 40.09375 66.609375 
Q 40.4375 66.609375 40.71875 66.359375 
Q 41.015625 66.109375 41.015625 65.828125 
L 41.015625 64.890625 
Q 41.015625 64.40625 40.828125 64.40625 
Q 37.40625 59.859375 32.25 57.3125 
Q 27.09375 54.78125 21.578125 54.78125 
Q 17.578125 54.78125 13.375 55.90625 
L 13.375 37.015625 
Q 16.703125 39.703125 19.3125 40.84375 
Q 21.921875 42 25.984375 42 
Q 31.5 42 35.859375 38.8125 
Q 40.234375 35.640625 42.578125 30.53125 
Q 44.921875 25.4375 44.921875 20.125 
Q 44.921875 14.109375 41.96875 8.984375 
Q 39.015625 3.859375 33.9375 0.828125 
Q 28.859375 -2.203125 22.90625 -2.203125 
Q 17.96875 -2.203125 13.84375 0.328125 
Q 9.71875 2.875 7.34375 7.171875 
Q 4.984375 11.46875 4.984375 16.3125 
Q 4.984375 18.5625 6.4375 19.96875 
Q 7.90625 21.390625 10.109375 21.390625 
Q 12.3125 21.390625 13.796875 19.9375 
Q 15.28125 18.5 15.28125 16.3125 
Q 15.28125 14.15625 13.796875 12.671875 
Q 12.3125 11.1875 10.109375 11.1875 
Q 9.765625 11.1875 9.328125 11.25 
Q 8.890625 11.328125 8.6875 11.375 
z
" id="Cmr10-53"/>
      </defs>
      <g style="fill:#333333;" transform="translate(32.029663 223.136363)scale(0.12 -0.12)">
       <use xlink:href="#Cmr10-45"/>
       <use x="33.300781" xlink:href="#Cmr10-50"/>
       <use x="83.300781" xlink:href="#Cmr10-53"/>
      </g>
     </g>
    </g>
    <g id="ytick_2">
     <g id="line2d_11">
      <path clip-path="url(#p98f5ed0eed)" d="M 54.025288 190.822976 
L 267.964904 190.822976 
" style="fill:none;stroke:#b0b0b0;stroke-linecap:square;stroke-opacity:0.3;"/>
     </g>
     <g id="line2d_12"/>
     <g id="text_7">
      <!-- -20 -->
      <g style="fill:#333333;" transform="translate(32.029663 194.986413)scale(0.12 -0.12)">
       <use xlink:href="#Cmr10-45"/>
       <use x="33.300781" xlink:href="#Cmr10-50"/>
       <use x="83.300781" xlink:href="#Cmr10-48"/>
      </g>
     </g>
    </g>
    <g id="ytick_3">
     <g id="line2d_13">
      <path clip-path="url(#p98f5ed0eed)" d="M 54.025288 162.673026 
L 267.964904 162.673026 
" style="fill:none;stroke:#b0b0b0;stroke-linecap:square;stroke-opacity:0.3;"/>
     </g>
     <g id="line2d_14"/>
     <g id="text_8">
      <!-- -15 -->
      <defs>
       <path d="M 9.28125 0 
L 9.28125 3.515625 
Q 21.78125 3.515625 21.78125 6.6875 
L 21.78125 59.1875 
Q 16.609375 56.6875 8.6875 56.6875 
L 8.6875 60.203125 
Q 20.953125 60.203125 27.203125 66.609375 
L 28.609375 66.609375 
Q 28.953125 66.609375 29.265625 66.328125 
Q 29.59375 66.0625 29.59375 65.71875 
L 29.59375 6.6875 
Q 29.59375 3.515625 42.09375 3.515625 
L 42.09375 0 
z
" id="Cmr10-49"/>
      </defs>
      <g style="fill:#333333;" transform="translate(32.029663 166.836464)scale(0.12 -0.12)">
       <use xlink:href="#Cmr10-45"/>
       <use x="33.300781" xlink:href="#Cmr10-49"/>
       <use x="83.300781" xlink:href="#Cmr10-53"/>
      </g>
     </g>
    </g>
    <g id="ytick_4">
     <g id="line2d_15">
      <path clip-path="url(#p98f5ed0eed)" d="M 54.025288 134.523077 
L 267.964904 134.523077 
" style="fill:none;stroke:#b0b0b0;stroke-linecap:square;stroke-opacity:0.3;"/>
     </g>
     <g id="line2d_16"/>
     <g id="text_9">
      <!-- -10 -->
      <g style="fill:#333333;" transform="translate(32.029663 138.686514)scale(0.12 -0.12)">
       <use xlink:href="#Cmr10-45"/>
       <use x="33.300781" xlink:href="#Cmr10-49"/>
       <use x="83.300781" xlink:href="#Cmr10-48"/>
      </g>
     </g>
    </g>
    <g id="ytick_5">
     <g id="line2d_17">
      <path clip-path="url(#p98f5ed0eed)" d="M 54.025288 106.373128 
L 267.964904 106.373128 
" style="fill:none;stroke:#b0b0b0;stroke-linecap:square;stroke-opacity:0.3;"/>
     </g>
     <g id="line2d_18"/>
     <g id="text_10">
      <!-- -5 -->
      <g style="fill:#333333;" transform="translate(38.029663 110.536565)scale(0.12 -0.12)">
       <use xlink:href="#Cmr10-45"/>
       <use x="33.300781" xlink:href="#Cmr10-53"/>
      </g>
     </g>
    </g>
    <g id="ytick_6">
     <g id="line2d_19">
      <path clip-path="url(#p98f5ed0eed)" d="M 54.025288 78.223178 
L 267.964904 78.223178 
" style="fill:none;stroke:#b0b0b0;stroke-linecap:square;stroke-opacity:0.3;"/>
     </g>
     <g id="line2d_20"/>
     <g id="text_11">
      <!-- 0 -->
      <g style="fill:#333333;" transform="translate(42.025288 82.386616)scale(0.12 -0.12)">
       <use xlink:href="#Cmr10-48"/>
      </g>
     </g>
    </g>
    <g id="ytick_7">
     <g id="line2d_21">
      <path clip-path="url(#p98f5ed0eed)" d="M 54.025288 50.073229 
L 267.964904 50.073229 
" style="fill:none;stroke:#b0b0b0;stroke-linecap:square;stroke-opacity:0.3;"/>
     </g>
     <g id="line2d_22"/>
     <g id="text_12">
      <!-- 5 -->
      <g style="fill:#333333;" transform="translate(42.025288 54.236666)scale(0.12 -0.12)">
       <use xlink:href="#Cmr10-53"/>
      </g>
     </g>
    </g>
    <g id="text_13">
     <!-- Predicted Values and Intervals -->
     <defs>
      <path d="M 3.328125 0 
L 3.328125 3.515625 
Q 13.625 3.515625 13.625 6.6875 
L 13.625 61.625 
Q 13.625 64.796875 3.328125 64.796875 
L 3.328125 68.3125 
L 38.921875 68.3125 
Q 44.390625 68.3125 49.859375 66.0625 
Q 55.328125 63.8125 58.859375 59.515625 
Q 62.40625 55.21875 62.40625 49.515625 
Q 62.40625 43.953125 58.84375 39.75 
Q 55.28125 35.546875 49.859375 33.375 
Q 44.4375 31.203125 38.921875 31.203125 
L 22.90625 31.203125 
L 22.90625 6.6875 
Q 22.90625 3.515625 33.203125 3.515625 
L 33.203125 0 
z
M 22.609375 34.1875 
L 36.1875 34.1875 
Q 41.703125 34.1875 45.109375 35.765625 
Q 48.53125 37.359375 50.109375 40.703125 
Q 51.703125 44.046875 51.703125 49.515625 
Q 51.703125 57.671875 48.109375 61.234375 
Q 44.53125 64.796875 36.1875 64.796875 
L 27.6875 64.796875 
Q 25.875 64.796875 24.875 64.640625 
Q 23.875 64.5 23.234375 63.796875 
Q 22.609375 63.09375 22.609375 61.625 
z
" id="Cmr10-80"/>
      <path d="M 3.078125 0 
L 3.078125 3.515625 
Q 6.5 3.515625 8.6875 4.046875 
Q 10.890625 4.59375 10.890625 6.6875 
L 10.890625 33.984375 
Q 10.890625 37.84375 9.390625 38.71875 
Q 7.90625 39.59375 3.515625 39.59375 
L 3.515625 43.109375 
L 17.921875 44.1875 
L 17.921875 6.6875 
Q 17.921875 4.59375 19.828125 4.046875 
Q 21.734375 3.515625 24.90625 3.515625 
L 24.90625 0 
z
M 7.328125 61.375 
Q 7.328125 63.578125 8.984375 65.234375 
Q 10.640625 66.890625 12.796875 66.890625 
Q 14.203125 66.890625 15.515625 66.15625 
Q 16.84375 65.4375 17.578125 64.109375 
Q 18.3125 62.796875 18.3125 61.375 
Q 18.3125 59.234375 16.640625 57.5625 
Q 14.984375 55.90625 12.796875 55.90625 
Q 10.640625 55.90625 8.984375 57.5625 
Q 7.328125 59.234375 7.328125 61.375 
z
" id="Cmr10-105"/>
      <path d="M 24.90625 -1.125 
Q 18.84375 -1.125 13.90625 2.015625 
Q 8.984375 5.171875 6.15625 10.421875 
Q 3.328125 15.671875 3.328125 21.578125 
Q 3.328125 27.484375 6.125 32.90625 
Q 8.9375 38.328125 13.890625 41.578125 
Q 18.84375 44.828125 24.90625 44.828125 
Q 30.765625 44.828125 35.5625 42.53125 
Q 40.375 40.234375 40.375 35.015625 
Q 40.375 33.0625 38.984375 31.609375 
Q 37.59375 30.171875 35.59375 30.171875 
Q 33.59375 30.171875 32.203125 31.609375 
Q 30.8125 33.0625 30.8125 35.015625 
Q 30.8125 36.765625 31.9375 38.0625 
Q 33.0625 39.359375 34.71875 39.703125 
Q 31.25 41.890625 25 41.890625 
Q 20.21875 41.890625 17.28125 38.71875 
Q 14.359375 35.546875 13.1875 30.859375 
Q 12.015625 26.171875 12.015625 21.578125 
Q 12.015625 16.75 13.453125 12.234375 
Q 14.890625 7.71875 18.09375 4.765625 
Q 21.296875 1.8125 26.125 1.8125 
Q 30.859375 1.8125 34.171875 4.71875 
Q 37.5 7.625 38.71875 12.3125 
Q 38.71875 12.890625 39.5 12.890625 
L 40.71875 12.890625 
Q 41.015625 12.890625 41.25 12.625 
Q 41.5 12.359375 41.5 12.015625 
L 41.5 11.71875 
Q 39.984375 5.8125 35.484375 2.34375 
Q 31 -1.125 24.90625 -1.125 
z
" id="Cmr10-99"/>
      <path d="M 10.203125 12.015625 
L 10.203125 39.59375 
L 1.90625 39.59375 
L 1.90625 42.1875 
Q 8.453125 42.1875 11.515625 48.28125 
Q 14.59375 54.390625 14.59375 61.53125 
L 17.484375 61.53125 
L 17.484375 43.109375 
L 31.59375 43.109375 
L 31.59375 39.59375 
L 17.484375 39.59375 
L 17.484375 12.203125 
Q 17.484375 8.0625 18.875 4.9375 
Q 20.265625 1.8125 23.875 1.8125 
Q 27.296875 1.8125 28.8125 5.109375 
Q 30.328125 8.40625 30.328125 12.203125 
L 30.328125 18.109375 
L 33.203125 18.109375 
L 33.203125 12.015625 
Q 33.203125 8.890625 32.046875 5.828125 
Q 30.90625 2.78125 28.65625 0.828125 
Q 26.421875 -1.125 23.1875 -1.125 
Q 17.1875 -1.125 13.6875 2.46875 
Q 10.203125 6.0625 10.203125 12.015625 
z
" id="Cmr10-116"/>
     </defs>
     <g transform="translate(25.702788 215.789327)rotate(-90)scale(0.12 -0.12)">
      <use xlink:href="#Cmr10-80"/>
      <use x="68.017578" xlink:href="#Cmr10-114"/>
      <use x="107.128906" xlink:href="#Cmr10-101"/>
      <use x="151.513672" xlink:href="#Cmr10-100"/>
      <use x="207.03125" xlink:href="#Cmr10-105"/>
      <use x="234.716797" xlink:href="#Cmr10-99"/>
      <use x="279.101562" xlink:href="#Cmr10-116"/>
      <use x="317.919922" xlink:href="#Cmr10-101"/>
      <use x="362.304688" xlink:href="#Cmr10-100"/>
      <use x="417.822266" xlink:href="#Cmr10-32"/>
      <use x="451.123047" xlink:href="#Cmr10-86"/>
      <use x="526.123047" xlink:href="#Cmr10-97"/>
      <use x="576.123047" xlink:href="#Cmr10-108"/>
      <use x="603.808594" xlink:href="#Cmr10-117"/>
      <use x="659.326172" xlink:href="#Cmr10-101"/>
      <use x="703.710938" xlink:href="#Cmr10-115"/>
      <use x="743.115234" xlink:href="#Cmr10-32"/>
      <use x="776.416016" xlink:href="#Cmr10-97"/>
      <use x="826.416016" xlink:href="#Cmr10-110"/>
      <use x="881.933594" xlink:href="#Cmr10-100"/>
      <use x="937.451172" xlink:href="#Cmr10-32"/>
      <use x="970.751953" xlink:href="#Cmr10-73"/>
      <use x="1006.835938" xlink:href="#Cmr10-110"/>
      <use x="1062.353516" xlink:href="#Cmr10-116"/>
      <use x="1101.171875" xlink:href="#Cmr10-101"/>
      <use x="1145.556641" xlink:href="#Cmr10-114"/>
      <use x="1184.667969" xlink:href="#Cmr10-118"/>
      <use x="1237.353516" xlink:href="#Cmr10-97"/>
      <use x="1287.353516" xlink:href="#Cmr10-108"/>
      <use x="1315.039062" xlink:href="#Cmr10-115"/>
     </g>
    </g>
   </g>
   <g id="LineCollection_1">
    <path clip-path="url(#p98f5ed0eed)" d="M 63.749816 146.124365 
L 63.749816 87.788879 
" style="fill:none;stroke:#1f77b4;stroke-opacity:0.5;stroke-width:1.5;"/>
    <path clip-path="url(#p98f5ed0eed)" d="M 66.696643 155.457787 
L 66.696643 83.553356 
" style="fill:none;stroke:#1f77b4;stroke-opacity:0.5;stroke-width:1.5;"/>
    <path clip-path="url(#p98f5ed0eed)" d="M 69.64347 127.139578 
L 69.64347 93.41452 
" style="fill:none;stroke:#1f77b4;stroke-opacity:0.5;stroke-width:1.5;"/>
    <path clip-path="url(#p98f5ed0eed)" d="M 72.590296 118.327535 
L 72.590296 94.116498 
" style="fill:none;stroke:#1f77b4;stroke-opacity:0.5;stroke-width:1.5;"/>
    <path clip-path="url(#p98f5ed0eed)" d="M 75.537123 122.375819 
L 75.537123 93.974355 
" style="fill:none;stroke:#1f77b4;stroke-opacity:0.5;stroke-width:1.5;"/>
    <path clip-path="url(#p98f5ed0eed)" d="M 78.48395 114.176582 
L 78.48395 90.76039 
" style="fill:none;stroke:#1f77b4;stroke-opacity:0.5;stroke-width:1.5;"/>
    <path clip-path="url(#p98f5ed0eed)" d="M 81.430776 182.294339 
L 81.430776 68.011589 
" style="fill:none;stroke:#1f77b4;stroke-opacity:0.5;stroke-width:1.5;"/>
    <path clip-path="url(#p98f5ed0eed)" d="M 84.377603 111.372669 
L 84.377603 82.009483 
" style="fill:none;stroke:#1f77b4;stroke-opacity:0.5;stroke-width:1.5;"/>
    <path clip-path="url(#p98f5ed0eed)" d="M 87.32443 201.863098 
L 87.32443 54.620154 
" style="fill:none;stroke:#1f77b4;stroke-opacity:0.5;stroke-width:1.5;"/>
    <path clip-path="url(#p98f5ed0eed)" d="M 90.271256 97.935668 
L 90.271256 68.169194 
" style="fill:none;stroke:#1f77b4;stroke-opacity:0.5;stroke-width:1.5;"/>
    <path clip-path="url(#p98f5ed0eed)" d="M 93.218083 196.703019 
L 93.218083 58.275312 
" style="fill:none;stroke:#1f77b4;stroke-opacity:0.5;stroke-width:1.5;"/>
    <path clip-path="url(#p98f5ed0eed)" d="M 96.16491 108.690411 
L 96.16491 85.945962 
" style="fill:none;stroke:#1f77b4;stroke-opacity:0.5;stroke-width:1.5;"/>
    <path clip-path="url(#p98f5ed0eed)" d="M 99.111736 109.31011 
L 99.111736 82.183049 
" style="fill:none;stroke:#1f77b4;stroke-opacity:0.5;stroke-width:1.5;"/>
    <path clip-path="url(#p98f5ed0eed)" d="M 102.058563 89.820021 
L 102.058563 69.292417 
" style="fill:none;stroke:#1f77b4;stroke-opacity:0.5;stroke-width:1.5;"/>
    <path clip-path="url(#p98f5ed0eed)" d="M 105.00539 112.255445 
L 105.00539 79.382434 
" style="fill:none;stroke:#1f77b4;stroke-opacity:0.5;stroke-width:1.5;"/>
    <path clip-path="url(#p98f5ed0eed)" d="M 107.952216 91.94846 
L 107.952216 78.090004 
" style="fill:none;stroke:#1f77b4;stroke-opacity:0.5;stroke-width:1.5;"/>
    <path clip-path="url(#p98f5ed0eed)" d="M 110.899043 85.353493 
L 110.899043 85.10529 
" style="fill:none;stroke:#1f77b4;stroke-opacity:0.5;stroke-width:1.5;"/>
    <path clip-path="url(#p98f5ed0eed)" d="M 113.84587 85.163734 
L 113.84587 84.920591 
" style="fill:none;stroke:#1f77b4;stroke-opacity:0.5;stroke-width:1.5;"/>
    <path clip-path="url(#p98f5ed0eed)" d="M 116.792696 89.097088 
L 116.792696 49.725419 
" style="fill:none;stroke:#1f77b4;stroke-opacity:0.5;stroke-width:1.5;"/>
    <path clip-path="url(#p98f5ed0eed)" d="M 119.739523 84.941272 
L 119.739523 84.680984 
" style="fill:none;stroke:#1f77b4;stroke-opacity:0.5;stroke-width:1.5;"/>
    <path clip-path="url(#p98f5ed0eed)" d="M 122.68635 84.39637 
L 122.68635 84.118266 
" style="fill:none;stroke:#1f77b4;stroke-opacity:0.5;stroke-width:1.5;"/>
    <path clip-path="url(#p98f5ed0eed)" d="M 125.633176 84.275006 
L 125.633176 84.012239 
" style="fill:none;stroke:#1f77b4;stroke-opacity:0.5;stroke-width:1.5;"/>
    <path clip-path="url(#p98f5ed0eed)" d="M 128.580003 85.152071 
L 128.580003 56.756659 
" style="fill:none;stroke:#1f77b4;stroke-opacity:0.5;stroke-width:1.5;"/>
    <path clip-path="url(#p98f5ed0eed)" d="M 131.52683 82.98498 
L 131.52683 82.717248 
" style="fill:none;stroke:#1f77b4;stroke-opacity:0.5;stroke-width:1.5;"/>
    <path clip-path="url(#p98f5ed0eed)" d="M 134.473656 86.159516 
L 134.473656 51.070688 
" style="fill:none;stroke:#1f77b4;stroke-opacity:0.5;stroke-width:1.5;"/>
    <path clip-path="url(#p98f5ed0eed)" d="M 137.420483 82.82651 
L 137.420483 82.462804 
" style="fill:none;stroke:#1f77b4;stroke-opacity:0.5;stroke-width:1.5;"/>
    <path clip-path="url(#p98f5ed0eed)" d="M 140.36731 82.370529 
L 140.36731 82.097258 
" style="fill:none;stroke:#1f77b4;stroke-opacity:0.5;stroke-width:1.5;"/>
    <path clip-path="url(#p98f5ed0eed)" d="M 143.314136 90.657045 
L 143.314136 59.601456 
" style="fill:none;stroke:#1f77b4;stroke-opacity:0.5;stroke-width:1.5;"/>
    <path clip-path="url(#p98f5ed0eed)" d="M 146.260963 107.353883 
L 146.260963 75.736249 
" style="fill:none;stroke:#1f77b4;stroke-opacity:0.5;stroke-width:1.5;"/>
    <path clip-path="url(#p98f5ed0eed)" d="M 149.20779 84.654999 
L 149.20779 65.075458 
" style="fill:none;stroke:#1f77b4;stroke-opacity:0.5;stroke-width:1.5;"/>
    <path clip-path="url(#p98f5ed0eed)" d="M 152.154616 107.94679 
L 152.154616 82.204766 
" style="fill:none;stroke:#1f77b4;stroke-opacity:0.5;stroke-width:1.5;"/>
    <path clip-path="url(#p98f5ed0eed)" d="M 155.101443 216.533708 
L 155.101443 43.836602 
" style="fill:none;stroke:#1f77b4;stroke-opacity:0.5;stroke-width:1.5;"/>
    <path clip-path="url(#p98f5ed0eed)" d="M 158.048269 78.95637 
L 158.048269 78.653822 
" style="fill:none;stroke:#1f77b4;stroke-opacity:0.5;stroke-width:1.5;"/>
    <path clip-path="url(#p98f5ed0eed)" d="M 160.995096 89.335485 
L 160.995096 63.35456 
" style="fill:none;stroke:#1f77b4;stroke-opacity:0.5;stroke-width:1.5;"/>
    <path clip-path="url(#p98f5ed0eed)" d="M 163.941923 81.159071 
L 163.941923 75.005798 
" style="fill:none;stroke:#1f77b4;stroke-opacity:0.5;stroke-width:1.5;"/>
    <path clip-path="url(#p98f5ed0eed)" d="M 166.888749 237.191132 
L 166.888749 27.867849 
" style="fill:none;stroke:#1f77b4;stroke-opacity:0.5;stroke-width:1.5;"/>
    <path clip-path="url(#p98f5ed0eed)" d="M 169.835576 87.223752 
L 169.835576 49.792198 
" style="fill:none;stroke:#1f77b4;stroke-opacity:0.5;stroke-width:1.5;"/>
    <path clip-path="url(#p98f5ed0eed)" d="M 172.782403 81.256077 
L 172.782403 69.880267 
" style="fill:none;stroke:#1f77b4;stroke-opacity:0.5;stroke-width:1.5;"/>
    <path clip-path="url(#p98f5ed0eed)" d="M 175.729229 84.777925 
L 175.729229 73.060017 
" style="fill:none;stroke:#1f77b4;stroke-opacity:0.5;stroke-width:1.5;"/>
    <path clip-path="url(#p98f5ed0eed)" d="M 178.676056 75.921631 
L 178.676056 75.602375 
" style="fill:none;stroke:#1f77b4;stroke-opacity:0.5;stroke-width:1.5;"/>
    <path clip-path="url(#p98f5ed0eed)" d="M 181.622883 76.390637 
L 181.622883 65.471816 
" style="fill:none;stroke:#1f77b4;stroke-opacity:0.5;stroke-width:1.5;"/>
    <path clip-path="url(#p98f5ed0eed)" d="M 184.569709 73.571669 
L 184.569709 73.249291 
" style="fill:none;stroke:#1f77b4;stroke-opacity:0.5;stroke-width:1.5;"/>
    <path clip-path="url(#p98f5ed0eed)" d="M 187.516536 81.558024 
L 187.516536 74.423931 
" style="fill:none;stroke:#1f77b4;stroke-opacity:0.5;stroke-width:1.5;"/>
    <path clip-path="url(#p98f5ed0eed)" d="M 190.463363 89.412643 
L 190.463363 55.739277 
" style="fill:none;stroke:#1f77b4;stroke-opacity:0.5;stroke-width:1.5;"/>
    <path clip-path="url(#p98f5ed0eed)" d="M 193.410189 89.79046 
L 193.410189 57.654565 
" style="fill:none;stroke:#1f77b4;stroke-opacity:0.5;stroke-width:1.5;"/>
    <path clip-path="url(#p98f5ed0eed)" d="M 196.357016 88.383119 
L 196.357016 49.711403 
" style="fill:none;stroke:#1f77b4;stroke-opacity:0.5;stroke-width:1.5;"/>
    <path clip-path="url(#p98f5ed0eed)" d="M 199.303843 77.650938 
L 199.303843 54.116321 
" style="fill:none;stroke:#1f77b4;stroke-opacity:0.5;stroke-width:1.5;"/>
    <path clip-path="url(#p98f5ed0eed)" d="M 202.250669 71.017144 
L 202.250669 70.677121 
" style="fill:none;stroke:#1f77b4;stroke-opacity:0.5;stroke-width:1.5;"/>
    <path clip-path="url(#p98f5ed0eed)" d="M 205.197496 73.673408 
L 205.197496 63.00212 
" style="fill:none;stroke:#1f77b4;stroke-opacity:0.5;stroke-width:1.5;"/>
    <path clip-path="url(#p98f5ed0eed)" d="M 208.144323 74.966791 
L 208.144323 53.022171 
" style="fill:none;stroke:#1f77b4;stroke-opacity:0.5;stroke-width:1.5;"/>
    <path clip-path="url(#p98f5ed0eed)" d="M 211.091149 92.089568 
L 211.091149 56.823232 
" style="fill:none;stroke:#1f77b4;stroke-opacity:0.5;stroke-width:1.5;"/>
    <path clip-path="url(#p98f5ed0eed)" d="M 214.037976 65.337158 
L 214.037976 64.953775 
" style="fill:none;stroke:#1f77b4;stroke-opacity:0.5;stroke-width:1.5;"/>
    <path clip-path="url(#p98f5ed0eed)" d="M 216.984803 89.177938 
L 216.984803 54.199932 
" style="fill:none;stroke:#1f77b4;stroke-opacity:0.5;stroke-width:1.5;"/>
    <path clip-path="url(#p98f5ed0eed)" d="M 219.931629 93.079241 
L 219.931629 63.337977 
" style="fill:none;stroke:#1f77b4;stroke-opacity:0.5;stroke-width:1.5;"/>
    <path clip-path="url(#p98f5ed0eed)" d="M 222.878456 62.78342 
L 222.878456 62.346531 
" style="fill:none;stroke:#1f77b4;stroke-opacity:0.5;stroke-width:1.5;"/>
    <path clip-path="url(#p98f5ed0eed)" d="M 225.825283 68.28069 
L 225.825283 57.826661 
" style="fill:none;stroke:#1f77b4;stroke-opacity:0.5;stroke-width:1.5;"/>
    <path clip-path="url(#p98f5ed0eed)" d="M 228.772109 92.393986 
L 228.772109 51.833524 
" style="fill:none;stroke:#1f77b4;stroke-opacity:0.5;stroke-width:1.5;"/>
    <path clip-path="url(#p98f5ed0eed)" d="M 231.718936 60.784943 
L 231.718936 60.262973 
" style="fill:none;stroke:#1f77b4;stroke-opacity:0.5;stroke-width:1.5;"/>
    <path clip-path="url(#p98f5ed0eed)" d="M 234.665763 65.437174 
L 234.665763 48.514672 
" style="fill:none;stroke:#1f77b4;stroke-opacity:0.5;stroke-width:1.5;"/>
    <path clip-path="url(#p98f5ed0eed)" d="M 237.612589 66.949417 
L 237.612589 59.321801 
" style="fill:none;stroke:#1f77b4;stroke-opacity:0.5;stroke-width:1.5;"/>
    <path clip-path="url(#p98f5ed0eed)" d="M 240.559416 62.265346 
L 240.559416 51.994637 
" style="fill:none;stroke:#1f77b4;stroke-opacity:0.5;stroke-width:1.5;"/>
    <path clip-path="url(#p98f5ed0eed)" d="M 243.506243 57.692934 
L 243.506243 44.165158 
" style="fill:none;stroke:#1f77b4;stroke-opacity:0.5;stroke-width:1.5;"/>
    <path clip-path="url(#p98f5ed0eed)" d="M 246.453069 43.710193 
L 246.453069 33.946533 
" style="fill:none;stroke:#1f77b4;stroke-opacity:0.5;stroke-width:1.5;"/>
    <path clip-path="url(#p98f5ed0eed)" d="M 249.399896 47.486869 
L 249.399896 37.586457 
" style="fill:none;stroke:#1f77b4;stroke-opacity:0.5;stroke-width:1.5;"/>
    <path clip-path="url(#p98f5ed0eed)" d="M 252.346723 42.924385 
L 252.346723 32.951418 
" style="fill:none;stroke:#1f77b4;stroke-opacity:0.5;stroke-width:1.5;"/>
    <path clip-path="url(#p98f5ed0eed)" d="M 255.293549 41.348947 
L 255.293549 31.350797 
" style="fill:none;stroke:#1f77b4;stroke-opacity:0.5;stroke-width:1.5;"/>
    <path clip-path="url(#p98f5ed0eed)" d="M 258.240376 38.535362 
L 258.240376 28.492075 
" style="fill:none;stroke:#1f77b4;stroke-opacity:0.5;stroke-width:1.5;"/>
   </g>
   <g id="line2d_23">
    <defs>
     <path d="M 0 3 
C 0.795609 3 1.55874 2.683901 2.12132 2.12132 
C 2.683901 1.55874 3 0.795609 3 0 
C 3 -0.795609 2.683901 -1.55874 2.12132 -2.12132 
C 1.55874 -2.683901 0.795609 -3 0 -3 
C -0.795609 -3 -1.55874 -2.683901 -2.12132 -2.12132 
C -2.683901 -1.55874 -3 -0.795609 -3 0 
C -3 0.795609 -2.683901 1.55874 -2.12132 2.12132 
C -1.55874 2.683901 -0.795609 3 0 3 
z
" id="mf635bb903f" style="stroke:#1f77b4;"/>
    </defs>
    <g clip-path="url(#p98f5ed0eed)">
     <use style="fill:#1f77b4;stroke:#1f77b4;" x="63.749816" xlink:href="#mf635bb903f" y="116.956623"/>
     <use style="fill:#1f77b4;stroke:#1f77b4;" x="66.696643" xlink:href="#mf635bb903f" y="119.50557"/>
     <use style="fill:#1f77b4;stroke:#1f77b4;" x="69.64347" xlink:href="#mf635bb903f" y="110.277048"/>
     <use style="fill:#1f77b4;stroke:#1f77b4;" x="72.590296" xlink:href="#mf635bb903f" y="106.222017"/>
     <use style="fill:#1f77b4;stroke:#1f77b4;" x="75.537123" xlink:href="#mf635bb903f" y="108.175088"/>
     <use style="fill:#1f77b4;stroke:#1f77b4;" x="78.48395" xlink:href="#mf635bb903f" y="102.468485"/>
     <use style="fill:#1f77b4;stroke:#1f77b4;" x="81.430776" xlink:href="#mf635bb903f" y="125.152961"/>
     <use style="fill:#1f77b4;stroke:#1f77b4;" x="84.377603" xlink:href="#mf635bb903f" y="96.691076"/>
     <use style="fill:#1f77b4;stroke:#1f77b4;" x="87.32443" xlink:href="#mf635bb903f" y="128.241629"/>
     <use style="fill:#1f77b4;stroke:#1f77b4;" x="90.271256" xlink:href="#mf635bb903f" y="83.052431"/>
     <use style="fill:#1f77b4;stroke:#1f77b4;" x="93.218083" xlink:href="#mf635bb903f" y="127.489165"/>
     <use style="fill:#1f77b4;stroke:#1f77b4;" x="96.16491" xlink:href="#mf635bb903f" y="97.318185"/>
     <use style="fill:#1f77b4;stroke:#1f77b4;" x="99.111736" xlink:href="#mf635bb903f" y="95.746579"/>
     <use style="fill:#1f77b4;stroke:#1f77b4;" x="102.058563" xlink:href="#mf635bb903f" y="79.556219"/>
     <use style="fill:#1f77b4;stroke:#1f77b4;" x="105.00539" xlink:href="#mf635bb903f" y="95.818939"/>
     <use style="fill:#1f77b4;stroke:#1f77b4;" x="107.952216" xlink:href="#mf635bb903f" y="85.019232"/>
     <use style="fill:#1f77b4;stroke:#1f77b4;" x="110.899043" xlink:href="#mf635bb903f" y="85.229391"/>
     <use style="fill:#1f77b4;stroke:#1f77b4;" x="113.84587" xlink:href="#mf635bb903f" y="85.042162"/>
     <use style="fill:#1f77b4;stroke:#1f77b4;" x="116.792696" xlink:href="#mf635bb903f" y="69.411254"/>
     <use style="fill:#1f77b4;stroke:#1f77b4;" x="119.739523" xlink:href="#mf635bb903f" y="84.811128"/>
     <use style="fill:#1f77b4;stroke:#1f77b4;" x="122.68635" xlink:href="#mf635bb903f" y="84.257318"/>
     <use style="fill:#1f77b4;stroke:#1f77b4;" x="125.633176" xlink:href="#mf635bb903f" y="84.143622"/>
     <use style="fill:#1f77b4;stroke:#1f77b4;" x="128.580003" xlink:href="#mf635bb903f" y="70.954365"/>
     <use style="fill:#1f77b4;stroke:#1f77b4;" x="131.52683" xlink:href="#mf635bb903f" y="82.851114"/>
     <use style="fill:#1f77b4;stroke:#1f77b4;" x="134.473656" xlink:href="#mf635bb903f" y="68.615101"/>
     <use style="fill:#1f77b4;stroke:#1f77b4;" x="137.420483" xlink:href="#mf635bb903f" y="82.644657"/>
     <use style="fill:#1f77b4;stroke:#1f77b4;" x="140.36731" xlink:href="#mf635bb903f" y="82.233893"/>
     <use style="fill:#1f77b4;stroke:#1f77b4;" x="143.314136" xlink:href="#mf635bb903f" y="75.12925"/>
     <use style="fill:#1f77b4;stroke:#1f77b4;" x="146.260963" xlink:href="#mf635bb903f" y="91.545067"/>
     <use style="fill:#1f77b4;stroke:#1f77b4;" x="149.20779" xlink:href="#mf635bb903f" y="74.865228"/>
     <use style="fill:#1f77b4;stroke:#1f77b4;" x="152.154616" xlink:href="#mf635bb903f" y="95.075778"/>
     <use style="fill:#1f77b4;stroke:#1f77b4;" x="155.101443" xlink:href="#mf635bb903f" y="130.185158"/>
     <use style="fill:#1f77b4;stroke:#1f77b4;" x="158.048269" xlink:href="#mf635bb903f" y="78.805096"/>
     <use style="fill:#1f77b4;stroke:#1f77b4;" x="160.995096" xlink:href="#mf635bb903f" y="76.345023"/>
     <use style="fill:#1f77b4;stroke:#1f77b4;" x="163.941923" xlink:href="#mf635bb903f" y="78.082434"/>
     <use style="fill:#1f77b4;stroke:#1f77b4;" x="166.888749" xlink:href="#mf635bb903f" y="132.529491"/>
     <use style="fill:#1f77b4;stroke:#1f77b4;" x="169.835576" xlink:href="#mf635bb903f" y="68.507975"/>
     <use style="fill:#1f77b4;stroke:#1f77b4;" x="172.782403" xlink:href="#mf635bb903f" y="75.568172"/>
     <use style="fill:#1f77b4;stroke:#1f77b4;" x="175.729229" xlink:href="#mf635bb903f" y="78.918971"/>
     <use style="fill:#1f77b4;stroke:#1f77b4;" x="178.676056" xlink:href="#mf635bb903f" y="75.762003"/>
     <use style="fill:#1f77b4;stroke:#1f77b4;" x="181.622883" xlink:href="#mf635bb903f" y="70.931226"/>
     <use style="fill:#1f77b4;stroke:#1f77b4;" x="184.569709" xlink:href="#mf635bb903f" y="73.41048"/>
     <use style="fill:#1f77b4;stroke:#1f77b4;" x="187.516536" xlink:href="#mf635bb903f" y="77.990978"/>
     <use style="fill:#1f77b4;stroke:#1f77b4;" x="190.463363" xlink:href="#mf635bb903f" y="72.57596"/>
     <use style="fill:#1f77b4;stroke:#1f77b4;" x="193.410189" xlink:href="#mf635bb903f" y="73.722513"/>
     <use style="fill:#1f77b4;stroke:#1f77b4;" x="196.357016" xlink:href="#mf635bb903f" y="69.047261"/>
     <use style="fill:#1f77b4;stroke:#1f77b4;" x="199.303843" xlink:href="#mf635bb903f" y="65.883629"/>
     <use style="fill:#1f77b4;stroke:#1f77b4;" x="202.250669" xlink:href="#mf635bb903f" y="70.847133"/>
     <use style="fill:#1f77b4;stroke:#1f77b4;" x="205.197496" xlink:href="#mf635bb903f" y="68.337765"/>
     <use style="fill:#1f77b4;stroke:#1f77b4;" x="208.144323" xlink:href="#mf635bb903f" y="63.994481"/>
     <use style="fill:#1f77b4;stroke:#1f77b4;" x="211.091149" xlink:href="#mf635bb903f" y="74.456399"/>
     <use style="fill:#1f77b4;stroke:#1f77b4;" x="214.037976" xlink:href="#mf635bb903f" y="65.145466"/>
     <use style="fill:#1f77b4;stroke:#1f77b4;" x="216.984803" xlink:href="#mf635bb903f" y="71.688935"/>
     <use style="fill:#1f77b4;stroke:#1f77b4;" x="219.931629" xlink:href="#mf635bb903f" y="78.208608"/>
     <use style="fill:#1f77b4;stroke:#1f77b4;" x="222.878456" xlink:href="#mf635bb903f" y="62.564976"/>
     <use style="fill:#1f77b4;stroke:#1f77b4;" x="225.825283" xlink:href="#mf635bb903f" y="63.053675"/>
     <use style="fill:#1f77b4;stroke:#1f77b4;" x="228.772109" xlink:href="#mf635bb903f" y="72.113754"/>
     <use style="fill:#1f77b4;stroke:#1f77b4;" x="231.718936" xlink:href="#mf635bb903f" y="60.523958"/>
     <use style="fill:#1f77b4;stroke:#1f77b4;" x="234.665763" xlink:href="#mf635bb903f" y="56.975923"/>
     <use style="fill:#1f77b4;stroke:#1f77b4;" x="237.612589" xlink:href="#mf635bb903f" y="63.135609"/>
     <use style="fill:#1f77b4;stroke:#1f77b4;" x="240.559416" xlink:href="#mf635bb903f" y="57.129991"/>
     <use style="fill:#1f77b4;stroke:#1f77b4;" x="243.506243" xlink:href="#mf635bb903f" y="50.929046"/>
     <use style="fill:#1f77b4;stroke:#1f77b4;" x="246.453069" xlink:href="#mf635bb903f" y="38.828363"/>
     <use style="fill:#1f77b4;stroke:#1f77b4;" x="249.399896" xlink:href="#mf635bb903f" y="42.536663"/>
     <use style="fill:#1f77b4;stroke:#1f77b4;" x="252.346723" xlink:href="#mf635bb903f" y="37.937901"/>
     <use style="fill:#1f77b4;stroke:#1f77b4;" x="255.293549" xlink:href="#mf635bb903f" y="36.349871"/>
     <use style="fill:#1f77b4;stroke:#1f77b4;" x="258.240376" xlink:href="#mf635bb903f" y="33.513719"/>
    </g>
   </g>
   <g id="line2d_24">
    <path clip-path="url(#p98f5ed0eed)" d="M 63.749816 124.440256 
L 66.696643 122.033665 
L 69.64347 119.531911 
L 72.590296 116.39376 
L 75.537123 115.503413 
L 78.48395 111.813743 
L 81.430776 110.193077 
L 84.377603 101.790189 
L 87.32443 94.344546 
L 90.271256 92.8885 
L 93.218083 92.027048 
L 96.16491 91.478895 
L 99.111736 89.816827 
L 102.058563 88.672735 
L 105.00539 87.368921 
L 107.952216 86.297274 
L 110.899043 85.332193 
L 113.84587 85.082727 
L 116.792696 85.081717 
L 119.739523 84.992458 
L 122.68635 84.319798 
L 125.633176 84.238396 
L 128.580003 84.055714 
L 131.52683 82.954632 
L 134.473656 82.887929 
L 137.420483 82.61011 
L 140.36731 82.433611 
L 143.314136 82.174877 
L 146.260963 81.198208 
L 149.20779 81.052597 
L 152.154616 80.61275 
L 155.101443 80.341651 
L 158.048269 78.793745 
L 160.995096 78.584275 
L 163.941923 78.256912 
L 166.888749 77.863295 
L 169.835576 77.822944 
L 172.782403 77.635581 
L 175.729229 76.699285 
L 178.676056 75.884764 
L 181.622883 73.855322 
L 184.569709 73.436495 
L 187.516536 72.232683 
L 190.463363 71.898654 
L 193.410189 71.852049 
L 196.357016 71.783589 
L 199.303843 71.232633 
L 202.250669 70.891523 
L 205.197496 70.583193 
L 208.144323 67.531877 
L 211.091149 67.25525 
L 214.037976 65.277082 
L 216.984803 65.156075 
L 219.931629 64.755138 
L 222.878456 62.670898 
L 225.825283 61.40594 
L 228.772109 61.400539 
L 231.718936 60.527748 
L 234.665763 60.343103 
L 237.612589 56.090059 
L 240.559416 53.552002 
L 243.506243 48.246598 
L 246.453069 45.245798 
L 249.399896 43.875394 
L 252.346723 41.958951 
L 255.293549 34.813229 
L 258.240376 34.176807 
" style="fill:none;stroke:#ff7f0e;stroke-dasharray:7.4,3.2;stroke-dashoffset:0;stroke-width:2;"/>
   </g>
   <g id="line2d_25">
    <defs>
     <path d="M 0 3 
C 0.795609 3 1.55874 2.683901 2.12132 2.12132 
C 2.683901 1.55874 3 0.795609 3 0 
C 3 -0.795609 2.683901 -1.55874 2.12132 -2.12132 
C 1.55874 -2.683901 0.795609 -3 0 -3 
C -0.795609 -3 -1.55874 -2.683901 -2.12132 -2.12132 
C -2.683901 -1.55874 -3 -0.795609 -3 0 
C -3 0.795609 -2.683901 1.55874 -2.12132 2.12132 
C -1.55874 2.683901 -0.795609 3 0 3 
z
" id="mf2180bda0d" style="stroke:#1f77b4;stroke-opacity:0.5;"/>
    </defs>
    <g clip-path="url(#p98f5ed0eed)">
     <use style="fill:#1f77b4;fill-opacity:0.5;stroke:#1f77b4;stroke-opacity:0.5;" x="63.749816" xlink:href="#mf2180bda0d" y="116.956623"/>
     <use style="fill:#1f77b4;fill-opacity:0.5;stroke:#1f77b4;stroke-opacity:0.5;" x="66.696643" xlink:href="#mf2180bda0d" y="119.50557"/>
     <use style="fill:#1f77b4;fill-opacity:0.5;stroke:#1f77b4;stroke-opacity:0.5;" x="69.64347" xlink:href="#mf2180bda0d" y="110.277048"/>
     <use style="fill:#1f77b4;fill-opacity:0.5;stroke:#1f77b4;stroke-opacity:0.5;" x="72.590296" xlink:href="#mf2180bda0d" y="106.222017"/>
     <use style="fill:#1f77b4;fill-opacity:0.5;stroke:#1f77b4;stroke-opacity:0.5;" x="75.537123" xlink:href="#mf2180bda0d" y="108.175088"/>
     <use style="fill:#1f77b4;fill-opacity:0.5;stroke:#1f77b4;stroke-opacity:0.5;" x="78.48395" xlink:href="#mf2180bda0d" y="102.468485"/>
     <use style="fill:#1f77b4;fill-opacity:0.5;stroke:#1f77b4;stroke-opacity:0.5;" x="81.430776" xlink:href="#mf2180bda0d" y="125.152961"/>
     <use style="fill:#1f77b4;fill-opacity:0.5;stroke:#1f77b4;stroke-opacity:0.5;" x="84.377603" xlink:href="#mf2180bda0d" y="96.691076"/>
     <use style="fill:#1f77b4;fill-opacity:0.5;stroke:#1f77b4;stroke-opacity:0.5;" x="87.32443" xlink:href="#mf2180bda0d" y="128.241629"/>
     <use style="fill:#1f77b4;fill-opacity:0.5;stroke:#1f77b4;stroke-opacity:0.5;" x="90.271256" xlink:href="#mf2180bda0d" y="83.052431"/>
     <use style="fill:#1f77b4;fill-opacity:0.5;stroke:#1f77b4;stroke-opacity:0.5;" x="93.218083" xlink:href="#mf2180bda0d" y="127.489165"/>
     <use style="fill:#1f77b4;fill-opacity:0.5;stroke:#1f77b4;stroke-opacity:0.5;" x="96.16491" xlink:href="#mf2180bda0d" y="97.318185"/>
     <use style="fill:#1f77b4;fill-opacity:0.5;stroke:#1f77b4;stroke-opacity:0.5;" x="99.111736" xlink:href="#mf2180bda0d" y="95.746579"/>
     <use style="fill:#1f77b4;fill-opacity:0.5;stroke:#1f77b4;stroke-opacity:0.5;" x="102.058563" xlink:href="#mf2180bda0d" y="79.556219"/>
     <use style="fill:#1f77b4;fill-opacity:0.5;stroke:#1f77b4;stroke-opacity:0.5;" x="105.00539" xlink:href="#mf2180bda0d" y="95.818939"/>
     <use style="fill:#1f77b4;fill-opacity:0.5;stroke:#1f77b4;stroke-opacity:0.5;" x="107.952216" xlink:href="#mf2180bda0d" y="85.019232"/>
     <use style="fill:#1f77b4;fill-opacity:0.5;stroke:#1f77b4;stroke-opacity:0.5;" x="110.899043" xlink:href="#mf2180bda0d" y="85.229391"/>
     <use style="fill:#1f77b4;fill-opacity:0.5;stroke:#1f77b4;stroke-opacity:0.5;" x="113.84587" xlink:href="#mf2180bda0d" y="85.042162"/>
     <use style="fill:#1f77b4;fill-opacity:0.5;stroke:#1f77b4;stroke-opacity:0.5;" x="116.792696" xlink:href="#mf2180bda0d" y="69.411254"/>
     <use style="fill:#1f77b4;fill-opacity:0.5;stroke:#1f77b4;stroke-opacity:0.5;" x="119.739523" xlink:href="#mf2180bda0d" y="84.811128"/>
     <use style="fill:#1f77b4;fill-opacity:0.5;stroke:#1f77b4;stroke-opacity:0.5;" x="122.68635" xlink:href="#mf2180bda0d" y="84.257318"/>
     <use style="fill:#1f77b4;fill-opacity:0.5;stroke:#1f77b4;stroke-opacity:0.5;" x="125.633176" xlink:href="#mf2180bda0d" y="84.143622"/>
     <use style="fill:#1f77b4;fill-opacity:0.5;stroke:#1f77b4;stroke-opacity:0.5;" x="128.580003" xlink:href="#mf2180bda0d" y="70.954365"/>
     <use style="fill:#1f77b4;fill-opacity:0.5;stroke:#1f77b4;stroke-opacity:0.5;" x="131.52683" xlink:href="#mf2180bda0d" y="82.851114"/>
     <use style="fill:#1f77b4;fill-opacity:0.5;stroke:#1f77b4;stroke-opacity:0.5;" x="134.473656" xlink:href="#mf2180bda0d" y="68.615101"/>
     <use style="fill:#1f77b4;fill-opacity:0.5;stroke:#1f77b4;stroke-opacity:0.5;" x="137.420483" xlink:href="#mf2180bda0d" y="82.644657"/>
     <use style="fill:#1f77b4;fill-opacity:0.5;stroke:#1f77b4;stroke-opacity:0.5;" x="140.36731" xlink:href="#mf2180bda0d" y="82.233893"/>
     <use style="fill:#1f77b4;fill-opacity:0.5;stroke:#1f77b4;stroke-opacity:0.5;" x="143.314136" xlink:href="#mf2180bda0d" y="75.12925"/>
     <use style="fill:#1f77b4;fill-opacity:0.5;stroke:#1f77b4;stroke-opacity:0.5;" x="146.260963" xlink:href="#mf2180bda0d" y="91.545067"/>
     <use style="fill:#1f77b4;fill-opacity:0.5;stroke:#1f77b4;stroke-opacity:0.5;" x="149.20779" xlink:href="#mf2180bda0d" y="74.865228"/>
     <use style="fill:#1f77b4;fill-opacity:0.5;stroke:#1f77b4;stroke-opacity:0.5;" x="152.154616" xlink:href="#mf2180bda0d" y="95.075778"/>
     <use style="fill:#1f77b4;fill-opacity:0.5;stroke:#1f77b4;stroke-opacity:0.5;" x="155.101443" xlink:href="#mf2180bda0d" y="130.185158"/>
     <use style="fill:#1f77b4;fill-opacity:0.5;stroke:#1f77b4;stroke-opacity:0.5;" x="158.048269" xlink:href="#mf2180bda0d" y="78.805096"/>
     <use style="fill:#1f77b4;fill-opacity:0.5;stroke:#1f77b4;stroke-opacity:0.5;" x="160.995096" xlink:href="#mf2180bda0d" y="76.345023"/>
     <use style="fill:#1f77b4;fill-opacity:0.5;stroke:#1f77b4;stroke-opacity:0.5;" x="163.941923" xlink:href="#mf2180bda0d" y="78.082434"/>
     <use style="fill:#1f77b4;fill-opacity:0.5;stroke:#1f77b4;stroke-opacity:0.5;" x="166.888749" xlink:href="#mf2180bda0d" y="132.529491"/>
     <use style="fill:#1f77b4;fill-opacity:0.5;stroke:#1f77b4;stroke-opacity:0.5;" x="169.835576" xlink:href="#mf2180bda0d" y="68.507975"/>
     <use style="fill:#1f77b4;fill-opacity:0.5;stroke:#1f77b4;stroke-opacity:0.5;" x="172.782403" xlink:href="#mf2180bda0d" y="75.568172"/>
     <use style="fill:#1f77b4;fill-opacity:0.5;stroke:#1f77b4;stroke-opacity:0.5;" x="175.729229" xlink:href="#mf2180bda0d" y="78.918971"/>
     <use style="fill:#1f77b4;fill-opacity:0.5;stroke:#1f77b4;stroke-opacity:0.5;" x="178.676056" xlink:href="#mf2180bda0d" y="75.762003"/>
     <use style="fill:#1f77b4;fill-opacity:0.5;stroke:#1f77b4;stroke-opacity:0.5;" x="181.622883" xlink:href="#mf2180bda0d" y="70.931226"/>
     <use style="fill:#1f77b4;fill-opacity:0.5;stroke:#1f77b4;stroke-opacity:0.5;" x="184.569709" xlink:href="#mf2180bda0d" y="73.41048"/>
     <use style="fill:#1f77b4;fill-opacity:0.5;stroke:#1f77b4;stroke-opacity:0.5;" x="187.516536" xlink:href="#mf2180bda0d" y="77.990978"/>
     <use style="fill:#1f77b4;fill-opacity:0.5;stroke:#1f77b4;stroke-opacity:0.5;" x="190.463363" xlink:href="#mf2180bda0d" y="72.57596"/>
     <use style="fill:#1f77b4;fill-opacity:0.5;stroke:#1f77b4;stroke-opacity:0.5;" x="193.410189" xlink:href="#mf2180bda0d" y="73.722513"/>
     <use style="fill:#1f77b4;fill-opacity:0.5;stroke:#1f77b4;stroke-opacity:0.5;" x="196.357016" xlink:href="#mf2180bda0d" y="69.047261"/>
     <use style="fill:#1f77b4;fill-opacity:0.5;stroke:#1f77b4;stroke-opacity:0.5;" x="199.303843" xlink:href="#mf2180bda0d" y="65.883629"/>
     <use style="fill:#1f77b4;fill-opacity:0.5;stroke:#1f77b4;stroke-opacity:0.5;" x="202.250669" xlink:href="#mf2180bda0d" y="70.847133"/>
     <use style="fill:#1f77b4;fill-opacity:0.5;stroke:#1f77b4;stroke-opacity:0.5;" x="205.197496" xlink:href="#mf2180bda0d" y="68.337765"/>
     <use style="fill:#1f77b4;fill-opacity:0.5;stroke:#1f77b4;stroke-opacity:0.5;" x="208.144323" xlink:href="#mf2180bda0d" y="63.994481"/>
     <use style="fill:#1f77b4;fill-opacity:0.5;stroke:#1f77b4;stroke-opacity:0.5;" x="211.091149" xlink:href="#mf2180bda0d" y="74.456399"/>
     <use style="fill:#1f77b4;fill-opacity:0.5;stroke:#1f77b4;stroke-opacity:0.5;" x="214.037976" xlink:href="#mf2180bda0d" y="65.145466"/>
     <use style="fill:#1f77b4;fill-opacity:0.5;stroke:#1f77b4;stroke-opacity:0.5;" x="216.984803" xlink:href="#mf2180bda0d" y="71.688935"/>
     <use style="fill:#1f77b4;fill-opacity:0.5;stroke:#1f77b4;stroke-opacity:0.5;" x="219.931629" xlink:href="#mf2180bda0d" y="78.208608"/>
     <use style="fill:#1f77b4;fill-opacity:0.5;stroke:#1f77b4;stroke-opacity:0.5;" x="222.878456" xlink:href="#mf2180bda0d" y="62.564976"/>
     <use style="fill:#1f77b4;fill-opacity:0.5;stroke:#1f77b4;stroke-opacity:0.5;" x="225.825283" xlink:href="#mf2180bda0d" y="63.053675"/>
     <use style="fill:#1f77b4;fill-opacity:0.5;stroke:#1f77b4;stroke-opacity:0.5;" x="228.772109" xlink:href="#mf2180bda0d" y="72.113754"/>
     <use style="fill:#1f77b4;fill-opacity:0.5;stroke:#1f77b4;stroke-opacity:0.5;" x="231.718936" xlink:href="#mf2180bda0d" y="60.523958"/>
     <use style="fill:#1f77b4;fill-opacity:0.5;stroke:#1f77b4;stroke-opacity:0.5;" x="234.665763" xlink:href="#mf2180bda0d" y="56.975923"/>
     <use style="fill:#1f77b4;fill-opacity:0.5;stroke:#1f77b4;stroke-opacity:0.5;" x="237.612589" xlink:href="#mf2180bda0d" y="63.135609"/>
     <use style="fill:#1f77b4;fill-opacity:0.5;stroke:#1f77b4;stroke-opacity:0.5;" x="240.559416" xlink:href="#mf2180bda0d" y="57.129991"/>
     <use style="fill:#1f77b4;fill-opacity:0.5;stroke:#1f77b4;stroke-opacity:0.5;" x="243.506243" xlink:href="#mf2180bda0d" y="50.929046"/>
     <use style="fill:#1f77b4;fill-opacity:0.5;stroke:#1f77b4;stroke-opacity:0.5;" x="246.453069" xlink:href="#mf2180bda0d" y="38.828363"/>
     <use style="fill:#1f77b4;fill-opacity:0.5;stroke:#1f77b4;stroke-opacity:0.5;" x="249.399896" xlink:href="#mf2180bda0d" y="42.536663"/>
     <use style="fill:#1f77b4;fill-opacity:0.5;stroke:#1f77b4;stroke-opacity:0.5;" x="252.346723" xlink:href="#mf2180bda0d" y="37.937901"/>
     <use style="fill:#1f77b4;fill-opacity:0.5;stroke:#1f77b4;stroke-opacity:0.5;" x="255.293549" xlink:href="#mf2180bda0d" y="36.349871"/>
     <use style="fill:#1f77b4;fill-opacity:0.5;stroke:#1f77b4;stroke-opacity:0.5;" x="258.240376" xlink:href="#mf2180bda0d" y="33.513719"/>
    </g>
   </g>
   <g id="patch_3">
    <path d="M 54.025288 241.492885 
L 54.025288 27.553269 
" style="fill:none;stroke:#777777;stroke-linecap:square;stroke-linejoin:miter;"/>
   </g>
   <g id="patch_4">
    <path d="M 267.964904 241.492885 
L 267.964904 27.553269 
" style="fill:none;stroke:#777777;stroke-linecap:square;stroke-linejoin:miter;"/>
   </g>
   <g id="patch_5">
    <path d="M 54.025288 241.492885 
L 267.964904 241.492885 
" style="fill:none;stroke:#777777;stroke-linecap:square;stroke-linejoin:miter;"/>
   </g>
   <g id="patch_6">
    <path d="M 54.025288 27.553269 
L 267.964904 27.553269 
" style="fill:none;stroke:#777777;stroke-linecap:square;stroke-linejoin:miter;"/>
   </g>
   <g id="text_14">
    <!-- Ordered Prediction Intervals -->
    <defs>
     <path d="M 25 -1.125 
Q 19 -1.125 13.859375 1.921875 
Q 8.734375 4.984375 5.75 10.109375 
Q 2.78125 15.234375 2.78125 21.296875 
Q 2.78125 25.875 4.421875 30.125 
Q 6.0625 34.375 9.109375 37.71875 
Q 12.15625 41.0625 16.203125 42.9375 
Q 20.265625 44.828125 25 44.828125 
Q 31.15625 44.828125 36.203125 41.578125 
Q 41.265625 38.328125 44.1875 32.875 
Q 47.125 27.4375 47.125 21.296875 
Q 47.125 15.28125 44.140625 10.125 
Q 41.15625 4.984375 36.046875 1.921875 
Q 30.953125 -1.125 25 -1.125 
z
M 25 1.8125 
Q 33.015625 1.8125 35.6875 7.609375 
Q 38.375 13.421875 38.375 22.40625 
Q 38.375 27.4375 37.84375 30.734375 
Q 37.3125 34.03125 35.5 36.71875 
Q 34.375 38.375 32.640625 39.625 
Q 30.90625 40.875 28.96875 41.53125 
Q 27.046875 42.1875 25 42.1875 
Q 21.875 42.1875 19.0625 40.765625 
Q 16.265625 39.359375 14.40625 36.71875 
Q 12.546875 33.890625 12.03125 30.484375 
Q 11.53125 27.09375 11.53125 22.40625 
Q 11.53125 16.796875 12.5 12.328125 
Q 13.484375 7.859375 16.4375 4.828125 
Q 19.390625 1.8125 25 1.8125 
z
" id="Cmr10-111"/>
    </defs>
    <g transform="translate(85.567596 21.553269)scale(0.12 -0.12)">
     <use xlink:href="#Cmr10-79"/>
     <use x="77.685547" xlink:href="#Cmr10-114"/>
     <use x="116.796875" xlink:href="#Cmr10-100"/>
     <use x="172.314453" xlink:href="#Cmr10-101"/>
     <use x="216.699219" xlink:href="#Cmr10-114"/>
     <use x="255.810547" xlink:href="#Cmr10-101"/>
     <use x="300.195312" xlink:href="#Cmr10-100"/>
     <use x="355.712891" xlink:href="#Cmr10-32"/>
     <use x="389.013672" xlink:href="#Cmr10-80"/>
     <use x="457.03125" xlink:href="#Cmr10-114"/>
     <use x="496.142578" xlink:href="#Cmr10-101"/>
     <use x="540.527344" xlink:href="#Cmr10-100"/>
     <use x="596.044922" xlink:href="#Cmr10-105"/>
     <use x="623.730469" xlink:href="#Cmr10-99"/>
     <use x="668.115234" xlink:href="#Cmr10-116"/>
     <use x="706.933594" xlink:href="#Cmr10-105"/>
     <use x="734.619141" xlink:href="#Cmr10-111"/>
     <use x="784.619141" xlink:href="#Cmr10-110"/>
     <use x="840.136719" xlink:href="#Cmr10-32"/>
     <use x="873.4375" xlink:href="#Cmr10-73"/>
     <use x="909.521484" xlink:href="#Cmr10-110"/>
     <use x="965.039062" xlink:href="#Cmr10-116"/>
     <use x="1003.857422" xlink:href="#Cmr10-101"/>
     <use x="1048.242188" xlink:href="#Cmr10-114"/>
     <use x="1087.353516" xlink:href="#Cmr10-118"/>
     <use x="1140.039062" xlink:href="#Cmr10-97"/>
     <use x="1190.039062" xlink:href="#Cmr10-108"/>
     <use x="1217.724609" xlink:href="#Cmr10-115"/>
    </g>
   </g>
   <g id="legend_1">
    <g id="patch_7">
     <path d="M 154.697729 236.494885 
L 260.967704 236.494885 
Q 262.966904 236.494885 262.966904 234.495685 
L 262.966904 207.628311 
Q 262.966904 205.629111 260.967704 205.629111 
L 154.697729 205.629111 
Q 152.698529 205.629111 152.698529 207.628311 
L 152.698529 234.495685 
Q 152.698529 236.494885 154.697729 236.494885 
z
" style="fill:#fdfdfd;opacity:0.8;stroke:#cccccc;stroke-linejoin:miter;"/>
    </g>
    <g id="line2d_26"/>
    <g id="line2d_27">
     <g>
      <use style="fill:#1f77b4;stroke:#1f77b4;" x="166.692929" xlink:href="#mf635bb903f" y="213.126111"/>
     </g>
    </g>
    <g id="text_15">
     <!-- Predicted Values -->
     <g transform="translate(184.685729 216.624711)scale(0.09996 -0.09996)">
      <use xlink:href="#Cmr10-80"/>
      <use x="68.017578" xlink:href="#Cmr10-114"/>
      <use x="107.128906" xlink:href="#Cmr10-101"/>
      <use x="151.513672" xlink:href="#Cmr10-100"/>
      <use x="207.03125" xlink:href="#Cmr10-105"/>
      <use x="234.716797" xlink:href="#Cmr10-99"/>
      <use x="279.101562" xlink:href="#Cmr10-116"/>
      <use x="317.919922" xlink:href="#Cmr10-101"/>
      <use x="362.304688" xlink:href="#Cmr10-100"/>
      <use x="417.822266" xlink:href="#Cmr10-32"/>
      <use x="451.123047" xlink:href="#Cmr10-86"/>
      <use x="526.123047" xlink:href="#Cmr10-97"/>
      <use x="576.123047" xlink:href="#Cmr10-108"/>
      <use x="603.808594" xlink:href="#Cmr10-117"/>
      <use x="659.326172" xlink:href="#Cmr10-101"/>
      <use x="703.710938" xlink:href="#Cmr10-115"/>
     </g>
    </g>
    <g id="line2d_28">
     <path d="M 156.696929 227.059598 
L 176.688929 227.059598 
" style="fill:none;stroke:#ff7f0e;stroke-dasharray:7.4,3.2;stroke-dashoffset:0;stroke-width:2;"/>
    </g>
    <g id="line2d_29"/>
    <g id="text_16">
     <!-- Observed Values -->
     <g transform="translate(184.685729 230.558198)scale(0.09996 -0.09996)">
      <use xlink:href="#Cmr10-79"/>
      <use x="77.685547" xlink:href="#Cmr10-98"/>
      <use x="133.203125" xlink:href="#Cmr10-115"/>
      <use x="172.607422" xlink:href="#Cmr10-101"/>
      <use x="216.992188" xlink:href="#Cmr10-114"/>
      <use x="256.103516" xlink:href="#Cmr10-118"/>
      <use x="308.789062" xlink:href="#Cmr10-101"/>
      <use x="353.173828" xlink:href="#Cmr10-100"/>
      <use x="408.691406" xlink:href="#Cmr10-32"/>
      <use x="441.992188" xlink:href="#Cmr10-86"/>
      <use x="516.992188" xlink:href="#Cmr10-97"/>
      <use x="566.992188" xlink:href="#Cmr10-108"/>
      <use x="594.677734" xlink:href="#Cmr10-117"/>
      <use x="650.195312" xlink:href="#Cmr10-101"/>
      <use x="694.580078" xlink:href="#Cmr10-115"/>
     </g>
    </g>
   </g>
  </g>
 </g>
 <defs>
  <clipPath id="p98f5ed0eed">
   <rect height="213.939615" width="213.939615" x="54.025288" y="27.553269"/>
  </clipPath>
 </defs>
</svg>
