<?xml version="1.0" encoding="utf-8" standalone="no"?>
<!DOCTYPE svg PUBLIC "-//W3C//DTD SVG 1.1//EN"
  "http://www.w3.org/Graphics/SVG/1.1/DTD/svg11.dtd">
<!-- Created with matplotlib (https://matplotlib.org/) -->
<svg height="288pt" version="1.1" viewBox="0 0 288 288" width="288pt" xmlns="http://www.w3.org/2000/svg" xmlns:xlink="http://www.w3.org/1999/xlink">
 <defs>
  <style type="text/css">
*{stroke-linecap:butt;stroke-linejoin:round;}
  </style>
 </defs>
 <g id="figure_1">
  <g id="patch_1">
   <path d="M 0 288 
L 288 288 
L 288 0 
L 0 0 
z
" style="fill:#ffffff;"/>
  </g>
  <g id="axes_1">
   <g id="patch_2">
    <path d="M 49.830192 243.422692 
L 275.04 243.422692 
L 275.04 27.553269 
L 49.830192 27.553269 
z
" style="fill:#fafafa;"/>
   </g>
   <g id="matplotlib.axis_1">
    <g id="xtick_1">
     <g id="line2d_1">
      <path clip-path="url(#pdf7a47d37e)" d="M 57.789933 243.422692 
L 57.789933 27.553269 
" style="fill:none;stroke:#b0b0b0;stroke-linecap:square;stroke-opacity:0.3;"/>
     </g>
     <g id="line2d_2"/>
     <g id="text_1">
      <!-- -10 -->
      <defs>
       <path d="M 1.125 18.5 
L 1.125 24.703125 
L 27.59375 24.703125 
L 27.59375 18.5 
z
" id="Cmr10-45"/>
       <path d="M 9.28125 0 
L 9.28125 3.515625 
Q 21.78125 3.515625 21.78125 6.6875 
L 21.78125 59.1875 
Q 16.609375 56.6875 8.6875 56.6875 
L 8.6875 60.203125 
Q 20.953125 60.203125 27.203125 66.609375 
L 28.609375 66.609375 
Q 28.953125 66.609375 29.265625 66.328125 
Q 29.59375 66.0625 29.59375 65.71875 
L 29.59375 6.6875 
Q 29.59375 3.515625 42.09375 3.515625 
L 42.09375 0 
z
" id="Cmr10-49"/>
       <path d="M 25 -2.203125 
Q 12.75 -2.203125 8.328125 7.875 
Q 3.90625 17.96875 3.90625 31.890625 
Q 3.90625 40.578125 5.484375 48.234375 
Q 7.078125 55.90625 11.78125 61.25 
Q 16.5 66.609375 25 66.609375 
Q 31.59375 66.609375 35.78125 63.375 
Q 39.984375 60.15625 42.1875 55.046875 
Q 44.390625 49.953125 45.1875 44.109375 
Q 46 38.28125 46 31.890625 
Q 46 23.296875 44.40625 15.796875 
Q 42.828125 8.296875 38.1875 3.046875 
Q 33.546875 -2.203125 25 -2.203125 
z
M 25 0.390625 
Q 30.5625 0.390625 33.296875 6.09375 
Q 36.03125 11.8125 36.671875 18.75 
Q 37.3125 25.6875 37.3125 33.5 
Q 37.3125 41.015625 36.671875 47.359375 
Q 36.03125 53.71875 33.3125 58.859375 
Q 30.609375 64.015625 25 64.015625 
Q 19.34375 64.015625 16.609375 58.828125 
Q 13.875 53.65625 13.234375 47.328125 
Q 12.59375 41.015625 12.59375 33.5 
Q 12.59375 27.9375 12.859375 23 
Q 13.140625 18.0625 14.3125 12.8125 
Q 15.484375 7.5625 18.09375 3.96875 
Q 20.703125 0.390625 25 0.390625 
z
" id="Cmr10-48"/>
      </defs>
      <g style="fill:#333333;" transform="translate(49.792121 257.749567)scale(0.12 -0.12)">
       <use xlink:href="#Cmr10-45"/>
       <use x="33.300781" xlink:href="#Cmr10-49"/>
       <use x="83.300781" xlink:href="#Cmr10-48"/>
      </g>
     </g>
    </g>
    <g id="xtick_2">
     <g id="line2d_3">
      <path clip-path="url(#pdf7a47d37e)" d="M 110.213195 243.422692 
L 110.213195 27.553269 
" style="fill:none;stroke:#b0b0b0;stroke-linecap:square;stroke-opacity:0.3;"/>
     </g>
     <g id="line2d_4"/>
     <g id="text_2">
      <!-- -5 -->
      <defs>
       <path d="M 8.6875 11.375 
Q 9.71875 8.453125 11.84375 6.046875 
Q 13.96875 3.65625 16.875 2.3125 
Q 19.78125 0.984375 22.90625 0.984375 
Q 30.125 0.984375 32.859375 6.59375 
Q 35.59375 12.203125 35.59375 20.21875 
Q 35.59375 23.6875 35.46875 26.046875 
Q 35.359375 28.421875 34.8125 30.609375 
Q 33.890625 34.125 31.5625 36.765625 
Q 29.25 39.40625 25.875 39.40625 
Q 22.515625 39.40625 20.09375 38.375 
Q 17.671875 37.359375 16.15625 35.984375 
Q 14.65625 34.625 13.484375 33.109375 
Q 12.3125 31.59375 12.015625 31.5 
L 10.890625 31.5 
Q 10.640625 31.5 10.265625 31.8125 
Q 9.90625 32.125 9.90625 32.421875 
L 9.90625 65.828125 
Q 9.90625 66.0625 10.21875 66.328125 
Q 10.546875 66.609375 10.890625 66.609375 
L 11.1875 66.609375 
Q 17.921875 63.375 25.484375 63.375 
Q 32.90625 63.375 39.796875 66.609375 
L 40.09375 66.609375 
Q 40.4375 66.609375 40.71875 66.359375 
Q 41.015625 66.109375 41.015625 65.828125 
L 41.015625 64.890625 
Q 41.015625 64.40625 40.828125 64.40625 
Q 37.40625 59.859375 32.25 57.3125 
Q 27.09375 54.78125 21.578125 54.78125 
Q 17.578125 54.78125 13.375 55.90625 
L 13.375 37.015625 
Q 16.703125 39.703125 19.3125 40.84375 
Q 21.921875 42 25.984375 42 
Q 31.5 42 35.859375 38.8125 
Q 40.234375 35.640625 42.578125 30.53125 
Q 44.921875 25.4375 44.921875 20.125 
Q 44.921875 14.109375 41.96875 8.984375 
Q 39.015625 3.859375 33.9375 0.828125 
Q 28.859375 -2.203125 22.90625 -2.203125 
Q 17.96875 -2.203125 13.84375 0.328125 
Q 9.71875 2.875 7.34375 7.171875 
Q 4.984375 11.46875 4.984375 16.3125 
Q 4.984375 18.5625 6.4375 19.96875 
Q 7.90625 21.390625 10.109375 21.390625 
Q 12.3125 21.390625 13.796875 19.9375 
Q 15.28125 18.5 15.28125 16.3125 
Q 15.28125 14.15625 13.796875 12.671875 
Q 12.3125 11.1875 10.109375 11.1875 
Q 9.765625 11.1875 9.328125 11.25 
Q 8.890625 11.328125 8.6875 11.375 
z
" id="Cmr10-53"/>
      </defs>
      <g style="fill:#333333;" transform="translate(105.215383 257.749567)scale(0.12 -0.12)">
       <use xlink:href="#Cmr10-45"/>
       <use x="33.300781" xlink:href="#Cmr10-53"/>
      </g>
     </g>
    </g>
    <g id="xtick_3">
     <g id="line2d_5">
      <path clip-path="url(#pdf7a47d37e)" d="M 162.636457 243.422692 
L 162.636457 27.553269 
" style="fill:none;stroke:#b0b0b0;stroke-linecap:square;stroke-opacity:0.3;"/>
     </g>
     <g id="line2d_6"/>
     <g id="text_3">
      <!-- 0 -->
      <g style="fill:#333333;" transform="translate(159.636457 257.749567)scale(0.12 -0.12)">
       <use xlink:href="#Cmr10-48"/>
      </g>
     </g>
    </g>
    <g id="xtick_4">
     <g id="line2d_7">
      <path clip-path="url(#pdf7a47d37e)" d="M 215.059719 243.422692 
L 215.059719 27.553269 
" style="fill:none;stroke:#b0b0b0;stroke-linecap:square;stroke-opacity:0.3;"/>
     </g>
     <g id="line2d_8"/>
     <g id="text_4">
      <!-- 5 -->
      <g style="fill:#333333;" transform="translate(212.059719 257.749567)scale(0.12 -0.12)">
       <use xlink:href="#Cmr10-53"/>
      </g>
     </g>
    </g>
    <g id="xtick_5">
     <g id="line2d_9">
      <path clip-path="url(#pdf7a47d37e)" d="M 267.482981 243.422692 
L 267.482981 27.553269 
" style="fill:none;stroke:#b0b0b0;stroke-linecap:square;stroke-opacity:0.3;"/>
     </g>
     <g id="line2d_10"/>
     <g id="text_5">
      <!-- 10 -->
      <g style="fill:#333333;" transform="translate(261.482981 257.749567)scale(0.12 -0.12)">
       <use xlink:href="#Cmr10-49"/>
       <use x="50" xlink:href="#Cmr10-48"/>
      </g>
     </g>
    </g>
    <g id="text_6">
     <!-- $x$ -->
     <defs>
      <path d="M 7.8125 2.875 
Q 9.578125 1.515625 12.796875 1.515625 
Q 15.921875 1.515625 18.3125 4.515625 
Q 20.703125 7.515625 21.578125 11.078125 
L 26.125 28.8125 
Q 27.203125 33.640625 27.203125 35.40625 
Q 27.203125 37.890625 25.8125 39.75 
Q 24.421875 41.609375 21.921875 41.609375 
Q 18.75 41.609375 15.96875 39.625 
Q 13.1875 37.640625 11.28125 34.59375 
Q 9.375 31.546875 8.59375 28.421875 
Q 8.40625 27.78125 7.8125 27.78125 
L 6.59375 27.78125 
Q 5.8125 27.78125 5.8125 28.71875 
L 5.8125 29 
Q 6.78125 32.71875 9.125 36.25 
Q 11.46875 39.796875 14.859375 41.984375 
Q 18.265625 44.1875 22.125 44.1875 
Q 25.78125 44.1875 28.734375 42.234375 
Q 31.6875 40.28125 32.90625 36.921875 
Q 34.625 39.984375 37.28125 42.078125 
Q 39.9375 44.1875 43.109375 44.1875 
Q 45.265625 44.1875 47.5 43.421875 
Q 49.75 42.671875 51.171875 41.109375 
Q 52.59375 39.546875 52.59375 37.203125 
Q 52.59375 34.671875 50.953125 32.828125 
Q 49.3125 31 46.78125 31 
Q 45.171875 31 44.09375 32.03125 
Q 43.015625 33.0625 43.015625 34.625 
Q 43.015625 36.71875 44.453125 38.296875 
Q 45.90625 39.890625 47.90625 40.1875 
Q 46.09375 41.609375 42.921875 41.609375 
Q 39.703125 41.609375 37.328125 38.625 
Q 34.96875 35.640625 33.984375 31.984375 
L 29.59375 14.3125 
Q 28.515625 10.296875 28.515625 7.71875 
Q 28.515625 5.171875 29.953125 3.34375 
Q 31.390625 1.515625 33.796875 1.515625 
Q 38.484375 1.515625 42.15625 5.640625 
Q 45.84375 9.765625 47.015625 14.703125 
Q 47.21875 15.28125 47.796875 15.28125 
L 49.03125 15.28125 
Q 49.421875 15.28125 49.65625 15.015625 
Q 49.90625 14.75 49.90625 14.40625 
Q 49.90625 14.3125 49.8125 14.109375 
Q 48.390625 8.15625 43.84375 3.515625 
Q 39.3125 -1.125 33.59375 -1.125 
Q 29.9375 -1.125 26.984375 0.84375 
Q 24.03125 2.828125 22.796875 6.203125 
Q 21.234375 3.265625 18.46875 1.0625 
Q 15.71875 -1.125 12.59375 -1.125 
Q 10.453125 -1.125 8.171875 -0.359375 
Q 5.90625 0.390625 4.484375 1.953125 
Q 3.078125 3.515625 3.078125 5.90625 
Q 3.078125 8.25 4.703125 10.171875 
Q 6.34375 12.109375 8.796875 12.109375 
Q 10.453125 12.109375 11.578125 11.109375 
Q 12.703125 10.109375 12.703125 8.5 
Q 12.703125 6.390625 11.296875 4.828125 
Q 9.90625 3.265625 7.8125 2.875 
z
" id="Cmmi10-120"/>
     </defs>
     <g transform="translate(158.955096 272.403317)scale(0.12 -0.12)">
      <use transform="translate(0 0.8125)" xlink:href="#Cmmi10-120"/>
     </g>
    </g>
   </g>
   <g id="matplotlib.axis_2">
    <g id="ytick_1">
     <g id="line2d_11">
      <path clip-path="url(#pdf7a47d37e)" d="M 49.830192 231.039416 
L 275.04 231.039416 
" style="fill:none;stroke:#b0b0b0;stroke-linecap:square;stroke-opacity:0.3;"/>
     </g>
     <g id="line2d_12"/>
     <g id="text_7">
      <!-- -30 -->
      <defs>
       <path d="M 9.515625 7.71875 
Q 11.859375 4.296875 15.8125 2.640625 
Q 19.78125 0.984375 24.3125 0.984375 
Q 30.125 0.984375 32.5625 5.9375 
Q 35.015625 10.890625 35.015625 17.1875 
Q 35.015625 20.015625 34.5 22.84375 
Q 33.984375 25.6875 32.765625 28.125 
Q 31.546875 30.5625 29.421875 32.03125 
Q 27.296875 33.5 24.21875 33.5 
L 17.578125 33.5 
Q 16.703125 33.5 16.703125 34.421875 
L 16.703125 35.296875 
Q 16.703125 36.078125 17.578125 36.078125 
L 23.09375 36.53125 
Q 26.609375 36.53125 28.921875 39.15625 
Q 31.25 41.796875 32.328125 45.578125 
Q 33.40625 49.359375 33.40625 52.78125 
Q 33.40625 57.5625 31.15625 60.640625 
Q 28.90625 63.71875 24.3125 63.71875 
Q 20.515625 63.71875 17.046875 62.28125 
Q 13.578125 60.84375 11.53125 57.90625 
Q 11.71875 57.953125 11.859375 57.984375 
Q 12.015625 58.015625 12.203125 58.015625 
Q 14.453125 58.015625 15.96875 56.453125 
Q 17.484375 54.890625 17.484375 52.6875 
Q 17.484375 50.53125 15.96875 48.96875 
Q 14.453125 47.40625 12.203125 47.40625 
Q 10.015625 47.40625 8.453125 48.96875 
Q 6.890625 50.53125 6.890625 52.6875 
Q 6.890625 56.984375 9.46875 60.15625 
Q 12.0625 63.328125 16.140625 64.96875 
Q 20.21875 66.609375 24.3125 66.609375 
Q 27.34375 66.609375 30.703125 65.703125 
Q 34.078125 64.796875 36.8125 63.109375 
Q 39.546875 61.421875 41.28125 58.78125 
Q 43.015625 56.15625 43.015625 52.78125 
Q 43.015625 48.578125 41.140625 45.015625 
Q 39.265625 41.453125 35.984375 38.859375 
Q 32.71875 36.28125 28.8125 35.015625 
Q 33.15625 34.1875 37.0625 31.734375 
Q 40.96875 29.296875 43.328125 25.484375 
Q 45.703125 21.6875 45.703125 17.28125 
Q 45.703125 11.765625 42.671875 7.296875 
Q 39.65625 2.828125 34.71875 0.3125 
Q 29.78125 -2.203125 24.3125 -2.203125 
Q 19.625 -2.203125 14.90625 -0.40625 
Q 10.203125 1.375 7.203125 4.9375 
Q 4.203125 8.5 4.203125 13.484375 
Q 4.203125 15.96875 5.859375 17.625 
Q 7.515625 19.28125 10.015625 19.28125 
Q 11.625 19.28125 12.96875 18.53125 
Q 14.3125 17.78125 15.0625 16.40625 
Q 15.828125 15.046875 15.828125 13.484375 
Q 15.828125 11.03125 14.109375 9.375 
Q 12.40625 7.71875 10.015625 7.71875 
z
" id="Cmr10-51"/>
      </defs>
      <g style="fill:#333333;" transform="translate(27.834567 235.202853)scale(0.12 -0.12)">
       <use xlink:href="#Cmr10-45"/>
       <use x="33.300781" xlink:href="#Cmr10-51"/>
       <use x="83.300781" xlink:href="#Cmr10-48"/>
      </g>
     </g>
    </g>
    <g id="ytick_2">
     <g id="line2d_13">
      <path clip-path="url(#pdf7a47d37e)" d="M 49.830192 184.094855 
L 275.04 184.094855 
" style="fill:none;stroke:#b0b0b0;stroke-linecap:square;stroke-opacity:0.3;"/>
     </g>
     <g id="line2d_14"/>
     <g id="text_8">
      <!-- -20 -->
      <defs>
       <path d="M 4.984375 0 
L 4.984375 2.6875 
Q 4.984375 2.9375 5.171875 3.21875 
L 20.703125 20.40625 
Q 24.21875 24.21875 26.40625 26.796875 
Q 28.609375 29.390625 30.75 32.765625 
Q 32.90625 36.140625 34.15625 39.625 
Q 35.40625 43.109375 35.40625 47.015625 
Q 35.40625 51.125 33.890625 54.859375 
Q 32.375 58.59375 29.375 60.84375 
Q 26.375 63.09375 22.125 63.09375 
Q 17.78125 63.09375 14.3125 60.46875 
Q 10.84375 57.859375 9.421875 53.71875 
Q 9.8125 53.8125 10.5 53.8125 
Q 12.75 53.8125 14.328125 52.296875 
Q 15.921875 50.78125 15.921875 48.390625 
Q 15.921875 46.09375 14.328125 44.5 
Q 12.75 42.921875 10.5 42.921875 
Q 8.15625 42.921875 6.5625 44.546875 
Q 4.984375 46.1875 4.984375 48.390625 
Q 4.984375 52.15625 6.390625 55.4375 
Q 7.8125 58.734375 10.46875 61.296875 
Q 13.140625 63.875 16.484375 65.234375 
Q 19.828125 66.609375 23.578125 66.609375 
Q 29.296875 66.609375 34.21875 64.1875 
Q 39.15625 61.765625 42.03125 57.34375 
Q 44.921875 52.9375 44.921875 47.015625 
Q 44.921875 42.671875 43.015625 38.765625 
Q 41.109375 34.859375 38.125 31.65625 
Q 35.15625 28.46875 30.515625 24.40625 
Q 25.875 20.359375 24.421875 19 
L 13.09375 8.109375 
L 22.703125 8.109375 
Q 29.78125 8.109375 34.546875 8.21875 
Q 39.3125 8.34375 39.59375 8.59375 
Q 40.765625 9.859375 42 17.828125 
L 44.921875 17.828125 
L 42.09375 0 
z
" id="Cmr10-50"/>
      </defs>
      <g style="fill:#333333;" transform="translate(27.834567 188.258292)scale(0.12 -0.12)">
       <use xlink:href="#Cmr10-45"/>
       <use x="33.300781" xlink:href="#Cmr10-50"/>
       <use x="83.300781" xlink:href="#Cmr10-48"/>
      </g>
     </g>
    </g>
    <g id="ytick_3">
     <g id="line2d_15">
      <path clip-path="url(#pdf7a47d37e)" d="M 49.830192 137.150293 
L 275.04 137.150293 
" style="fill:none;stroke:#b0b0b0;stroke-linecap:square;stroke-opacity:0.3;"/>
     </g>
     <g id="line2d_16"/>
     <g id="text_9">
      <!-- -10 -->
      <g style="fill:#333333;" transform="translate(27.834567 141.313731)scale(0.12 -0.12)">
       <use xlink:href="#Cmr10-45"/>
       <use x="33.300781" xlink:href="#Cmr10-49"/>
       <use x="83.300781" xlink:href="#Cmr10-48"/>
      </g>
     </g>
    </g>
    <g id="ytick_4">
     <g id="line2d_17">
      <path clip-path="url(#pdf7a47d37e)" d="M 49.830192 90.205732 
L 275.04 90.205732 
" style="fill:none;stroke:#b0b0b0;stroke-linecap:square;stroke-opacity:0.3;"/>
     </g>
     <g id="line2d_18"/>
     <g id="text_10">
      <!-- 0 -->
      <g style="fill:#333333;" transform="translate(37.830192 94.369169)scale(0.12 -0.12)">
       <use xlink:href="#Cmr10-48"/>
      </g>
     </g>
    </g>
    <g id="ytick_5">
     <g id="line2d_19">
      <path clip-path="url(#pdf7a47d37e)" d="M 49.830192 43.261171 
L 275.04 43.261171 
" style="fill:none;stroke:#b0b0b0;stroke-linecap:square;stroke-opacity:0.3;"/>
     </g>
     <g id="line2d_20"/>
     <g id="text_11">
      <!-- 10 -->
      <g style="fill:#333333;" transform="translate(31.830192 47.424608)scale(0.12 -0.12)">
       <use xlink:href="#Cmr10-49"/>
       <use x="50" xlink:href="#Cmr10-48"/>
      </g>
     </g>
    </g>
    <g id="text_12">
     <!-- $y$ -->
     <defs>
      <path d="M 8.40625 -14.3125 
Q 10.5 -17.921875 15.71875 -17.921875 
Q 20.453125 -17.921875 23.921875 -14.59375 
Q 27.390625 -11.28125 29.515625 -6.5625 
Q 31.640625 -1.859375 32.8125 3.078125 
Q 28.375 -1.125 23.1875 -1.125 
Q 19.234375 -1.125 16.453125 0.234375 
Q 13.671875 1.609375 12.125 4.3125 
Q 10.59375 7.03125 10.59375 10.890625 
Q 10.59375 14.15625 11.46875 17.59375 
Q 12.359375 21.046875 13.9375 25.265625 
Q 15.53125 29.5 16.703125 32.625 
Q 18.015625 36.28125 18.015625 38.625 
Q 18.015625 41.609375 15.828125 41.609375 
Q 11.859375 41.609375 9.296875 37.53125 
Q 6.734375 33.453125 5.515625 28.421875 
Q 5.328125 27.78125 4.6875 27.78125 
L 3.515625 27.78125 
Q 2.6875 27.78125 2.6875 28.71875 
L 2.6875 29 
Q 4.296875 34.96875 7.609375 39.578125 
Q 10.9375 44.1875 16.015625 44.1875 
Q 19.578125 44.1875 22.046875 41.84375 
Q 24.515625 39.5 24.515625 35.890625 
Q 24.515625 34.03125 23.6875 31.984375 
Q 23.25 30.765625 21.6875 26.65625 
Q 20.125 22.5625 19.28125 19.875 
Q 18.453125 17.1875 17.921875 14.59375 
Q 17.390625 12.015625 17.390625 9.421875 
Q 17.390625 6.109375 18.796875 3.8125 
Q 20.21875 1.515625 23.296875 1.515625 
Q 29.5 1.515625 34.421875 9.078125 
L 42 39.890625 
Q 42.328125 41.21875 43.546875 42.15625 
Q 44.78125 43.109375 46.1875 43.109375 
Q 47.40625 43.109375 48.3125 42.328125 
Q 49.21875 41.546875 49.21875 40.28125 
Q 49.21875 39.703125 49.125 39.5 
L 39.203125 -0.296875 
Q 37.890625 -5.421875 34.375 -10.109375 
Q 30.859375 -14.796875 25.90625 -17.65625 
Q 20.953125 -20.515625 15.578125 -20.515625 
Q 12.984375 -20.515625 10.4375 -19.5 
Q 7.90625 -18.5 6.34375 -16.5 
Q 4.78125 -14.5 4.78125 -11.8125 
Q 4.78125 -9.078125 6.390625 -7.078125 
Q 8.015625 -5.078125 10.6875 -5.078125 
Q 12.3125 -5.078125 13.40625 -6.078125 
Q 14.5 -7.078125 14.5 -8.6875 
Q 14.5 -10.984375 12.78125 -12.6875 
Q 11.078125 -14.40625 8.796875 -14.40625 
Q 8.6875 -14.359375 8.59375 -14.328125 
Q 8.5 -14.3125 8.40625 -14.3125 
z
" id="Cmmi10-121"/>
     </defs>
     <g transform="translate(21.314567 138.487981)rotate(-90)scale(0.12 -0.12)">
      <use transform="translate(0 0.8125)" xlink:href="#Cmmi10-121"/>
     </g>
    </g>
   </g>
   <g id="PolyCollection_1">
    <path clip-path="url(#pdf7a47d37e)" d="M 60.067002 49.964906 
L 60.067002 221.011056 
L 61.228547 212.8993 
L 61.51195 211.014642 
L 62.601577 204.091949 
L 62.818845 202.770645 
L 63.621643 198.049325 
L 64.702815 192.071586 
L 65.329596 188.793781 
L 65.47865 188.033559 
L 65.516333 187.842521 
L 65.76676 186.584712 
L 67.150608 179.985441 
L 68.042124 176.029632 
L 71.942062 161.060231 
L 74.034151 154.348206 
L 74.147788 154.006186 
L 75.286702 150.695279 
L 75.856131 149.116574 
L 76.903564 146.336944 
L 79.483123 140.110122 
L 83.881823 131.155992 
L 84.124924 130.712243 
L 85.139857 128.90955 
L 85.833103 127.721847 
L 86.394533 126.78451 
L 87.617879 124.813492 
L 87.764739 124.583126 
L 88.503379 123.4439 
L 88.521897 123.415749 
L 90.071077 120.365293 
L 90.257378 119.989341 
L 91.316194 117.853777 
L 91.746751 116.985863 
L 92.523709 115.420411 
L 93.271036 113.915518 
L 98.693045 103.022173 
L 100.341228 99.704212 
L 100.642593 99.080038 
L 101.800343 96.685778 
L 102.420614 95.405372 
L 103.21853 93.760598 
L 107.153103 84.673598 
L 109.198354 80.74167 
L 116.210255 74.92396 
L 117.748243 75.095444 
L 120.118319 75.660847 
L 121.104175 76.052828 
L 122.990653 77.196467 
L 123.190269 77.327947 
L 124.481497 78.227581 
L 125.794365 79.32064 
L 125.959041 79.457779 
L 126.206464 79.663838 
L 129.503847 82.869544 
L 130.78987 84.194285 
L 131.361754 84.784951 
L 132.402325 85.859775 
L 132.852185 86.324472 
L 133.270558 86.742044 
L 134.45063 87.969207 
L 134.778369 88.283968 
L 135.313915 88.798311 
L 136.850504 90.27353 
L 137.484928 90.814564 
L 137.726666 91.02156 
L 139.93594 92.767563 
L 141.285066 93.661638 
L 141.608285 93.853466 
L 142.134424 94.159573 
L 142.159444 94.174032 
L 143.515249 94.891779 
L 143.891711 95.087722 
L 144.230202 95.249736 
L 144.618342 95.369522 
L 146.107347 95.829261 
L 146.920424 95.990948 
L 147.012151 96.00383 
L 148.366246 96.096539 
L 149.282608 96.149133 
L 151.278681 95.927577 
L 151.498139 95.879982 
L 151.842485 95.80531 
L 152.306342 95.704742 
L 152.944998 95.546323 
L 153.625348 95.350806 
L 155.624208 94.539728 
L 156.084826 94.322177 
L 156.68085 94.041094 
L 157.326841 93.6885 
L 160.459622 91.606105 
L 162.565184 92.602414 
L 162.613043 92.698089 
L 162.704674 92.90317 
L 162.71458 92.926888 
L 162.81633 93.187191 
L 164.731554 98.935358 
L 165.048835 99.254679 
L 165.522614 99.801788 
L 166.214607 100.766914 
L 166.764785 101.473621 
L 168.614512 101.868102 
L 168.944753 101.775884 
L 169.281558 101.683271 
L 169.970345 101.27469 
L 170.290051 101.050582 
L 173.207457 98.944139 
L 173.754557 98.535474 
L 173.876456 98.46616 
L 174.099799 98.354652 
L 174.89517 97.997432 
L 175.685678 97.487788 
L 175.804531 97.398286 
L 175.859815 97.356743 
L 176.814347 96.648614 
L 177.683089 96.530446 
L 178.500152 98.261517 
L 178.816934 98.932741 
L 179.347048 99.048223 
L 179.475314 99.066111 
L 181.077715 99.252129 
L 181.13953 99.254815 
L 181.44296 99.268405 
L 182.255932 99.30824 
L 183.300731 99.582682 
L 184.5101 100.034071 
L 185.0085 100.221794 
L 185.253121 100.314282 
L 185.77953 100.514091 
L 187.471099 101.414469 
L 188.778099 102.344951 
L 189.77312 102.986387 
L 189.914668 103.074534 
L 193.313748 106.394178 
L 196.41209 110.188285 
L 196.795736 110.685356 
L 199.526588 114.231922 
L 199.763262 114.539997 
L 201.617608 116.957636 
L 202.651399 118.308515 
L 202.946339 118.635778 
L 207.781583 118.454796 
L 209.420568 117.601723 
L 209.87901 117.366319 
L 210.683245 116.956659 
L 212.794986 115.900559 
L 213.384823 115.610503 
L 213.885955 115.365711 
L 214.646632 114.775342 
L 218.049235 106.422069 
L 220.042845 102.033713 
L 220.283771 101.534627 
L 221.81031 98.599687 
L 222.758049 96.899196 
L 223.404276 95.573483 
L 224.107164 94.132515 
L 224.143666 94.057712 
L 224.835848 92.639715 
L 225.253612 91.784349 
L 226.022068 90.211848 
L 226.816899 88.586577 
L 227.434501 87.324529 
L 227.491626 87.207836 
L 227.924907 86.322935 
L 228.067767 86.031229 
L 229.151872 83.888928 
L 230.203009 81.828137 
L 230.393708 81.454277 
L 231.411422 79.459277 
L 232.761081 76.813891 
L 233.181684 75.989562 
L 238.405415 65.754653 
L 239.808185 64.494239 
L 240.341353 64.01911 
L 241.647326 62.855331 
L 244.078067 60.689297 
L 244.553805 60.265391 
L 244.7143 60.122358 
L 245.552532 59.375438 
L 246.84727 58.221756 
L 247.247766 57.86489 
L 248.185872 57.02901 
L 249.243771 57.397245 
L 251.165062 60.686127 
L 251.550596 61.346274 
L 254.163942 66.78251 
L 256.537302 72.86944 
L 256.577266 72.974092 
L 256.987435 74.052725 
L 257.397466 75.13937 
L 258.974382 79.403143 
L 260.147789 82.672132 
L 260.729126 84.325411 
L 261.7567 87.307312 
L 262.082715 88.270287 
L 262.149617 88.468938 
L 262.5056 89.532165 
L 263.588621 92.833792 
L 264.038196 94.235668 
L 264.515746 95.74627 
L 264.803191 96.666591 
L 264.803191 72.832181 
L 264.803191 72.832181 
L 264.515746 72.54328 
L 264.038196 72.0449 
L 263.588621 71.555569 
L 262.5056 70.301118 
L 262.149617 69.866795 
L 262.082715 69.784054 
L 261.7567 69.375515 
L 260.729126 68.034679 
L 260.147789 67.24238 
L 258.974382 65.575111 
L 257.397466 63.205174 
L 256.987435 62.566931 
L 256.577266 61.920023 
L 256.537302 61.85656 
L 254.163942 57.9593 
L 251.550596 53.368009 
L 251.165062 52.675858 
L 249.243771 49.225564 
L 248.185872 48.82225 
L 247.247766 49.671287 
L 246.84727 50.033759 
L 245.552532 51.205561 
L 244.7143 51.964187 
L 244.553805 52.109449 
L 244.078067 52.539998 
L 241.647326 54.739837 
L 240.341353 55.921728 
L 239.808185 56.40423 
L 238.405415 57.683366 
L 233.181684 67.621349 
L 232.761081 68.421297 
L 231.411422 70.987977 
L 230.393708 72.92315 
L 230.203009 73.285745 
L 229.151872 75.284212 
L 228.067767 77.337055 
L 227.924907 77.603014 
L 227.491626 78.409374 
L 227.434501 78.515658 
L 226.816899 79.664385 
L 226.022068 81.141668 
L 225.253612 82.568753 
L 224.835848 83.3441 
L 224.143666 84.627972 
L 224.107164 84.695647 
L 223.404276 85.998327 
L 222.758049 87.195114 
L 221.81031 88.643583 
L 220.283771 90.210347 
L 220.042845 90.427181 
L 218.049235 91.970085 
L 214.646632 93.740539 
L 213.885955 93.759603 
L 213.384823 93.748725 
L 212.794986 93.73399 
L 210.683245 93.663606 
L 209.87901 93.629349 
L 209.420568 93.607927 
L 207.781583 93.519894 
L 202.946339 91.735973 
L 202.651399 91.446707 
L 201.617608 90.439626 
L 199.763262 88.627695 
L 199.526588 88.39593 
L 196.795736 85.713717 
L 196.41209 85.335727 
L 193.313748 82.070841 
L 189.914668 78.914255 
L 189.77312 78.811626 
L 188.778099 78.042215 
L 187.471099 76.836474 
L 185.77953 75.370264 
L 185.253121 74.937559 
L 185.0085 74.736109 
L 184.5101 74.324959 
L 183.300731 73.3232 
L 182.255932 72.506699 
L 181.44296 71.948592 
L 181.13953 71.739005 
L 181.077715 71.696223 
L 179.475314 70.558636 
L 179.347048 70.466341 
L 178.816934 70.09442 
L 178.500152 69.469645 
L 177.683089 67.858007 
L 176.814347 67.135063 
L 175.859815 66.829729 
L 175.804531 66.811516 
L 175.685678 66.772171 
L 174.89517 66.644376 
L 174.099799 66.754497 
L 173.876456 66.794355 
L 173.754557 66.807786 
L 173.207457 66.772026 
L 170.290051 67.893441 
L 169.970345 68.050498 
L 169.281558 68.539748 
L 168.944753 68.939352 
L 168.614512 69.329767 
L 166.764785 72.656134 
L 166.214607 74.365072 
L 165.522614 76.604853 
L 165.048835 78.02466 
L 164.731554 78.928415 
L 162.81633 86.740794 
L 162.71458 87.097344 
L 162.704674 87.130432 
L 162.613043 87.425618 
L 162.565184 87.574337 
L 160.459622 90.985858 
L 157.326841 93.370554 
L 156.68085 93.743896 
L 156.084826 94.04173 
L 155.624208 94.271577 
L 153.625348 95.123555 
L 152.944998 95.325649 
L 152.306342 95.488997 
L 151.842485 95.592618 
L 151.498139 95.669529 
L 151.278681 95.71854 
L 149.282608 95.946317 
L 148.366246 95.895259 
L 147.012151 95.804931 
L 146.920424 95.792267 
L 146.107347 95.62939 
L 144.618342 95.157962 
L 144.230202 95.035019 
L 143.891711 94.872089 
L 143.515249 94.675636 
L 142.159444 93.955258 
L 142.134424 93.940672 
L 141.608285 93.631857 
L 141.285066 93.438338 
L 139.93594 92.536921 
L 137.726666 90.776654 
L 137.484928 90.567341 
L 136.850504 90.020368 
L 135.313915 88.539443 
L 134.778369 88.023091 
L 134.45063 87.707094 
L 133.270558 86.479149 
L 132.852185 86.061045 
L 132.402325 85.593267 
L 131.361754 84.511181 
L 130.78987 83.916439 
L 129.503847 82.582411 
L 126.206464 79.353691 
L 125.959041 79.144501 
L 125.794365 79.005261 
L 124.481497 77.894938 
L 123.190269 76.970949 
L 122.990653 76.835821 
L 121.104175 75.65382 
L 120.118319 75.234326 
L 117.748243 74.525892 
L 116.210255 74.198892 
L 109.198354 74.50885 
L 107.153103 73.21874 
L 103.21853 78.049064 
L 102.420614 79.406171 
L 101.800343 80.459315 
L 100.642593 82.420703 
L 100.341228 82.930312 
L 98.693045 85.852635 
L 93.271036 95.507704 
L 92.523709 96.835044 
L 91.746751 98.214112 
L 91.316194 98.977942 
L 90.257378 100.855066 
L 90.071077 101.18517 
L 88.521897 103.659686 
L 88.503379 103.660125 
L 87.764739 103.661705 
L 87.617879 103.65817 
L 86.394533 103.576573 
L 85.833103 103.506365 
L 85.139857 103.389368 
L 84.124924 103.154196 
L 83.881823 103.085811 
L 79.483123 100.916633 
L 76.903564 98.66876 
L 75.856131 97.504779 
L 75.286702 96.804399 
L 74.147788 95.250296 
L 74.034151 95.083523 
L 71.942062 91.598551 
L 68.042124 82.644782 
L 67.150608 80.064123 
L 65.76676 75.599424 
L 65.516333 74.727888 
L 65.47865 74.594998 
L 65.329596 74.064678 
L 64.702815 71.753677 
L 63.621643 67.443631 
L 62.818845 63.960636 
L 62.601577 62.974461 
L 61.51195 57.732517 
L 61.228547 56.284973 
L 60.067002 49.964906 
z
" style="fill:#1f77b4;fill-opacity:0.6;"/>
   </g>
   <g id="PolyCollection_2">
    <path clip-path="url(#pdf7a47d37e)" d="M 60.067002 37.365516 
L 60.067002 233.610446 
L 61.228547 224.435631 
L 61.51195 222.30552 
L 62.601577 214.486771 
L 62.818845 212.995496 
L 63.621643 207.66984 
L 64.702815 200.934295 
L 65.329596 197.244814 
L 65.47865 196.38953 
L 65.516333 196.174631 
L 65.76676 194.759973 
L 67.150608 187.345721 
L 68.042124 182.908432 
L 71.942062 166.176832 
L 74.034151 158.713688 
L 74.147788 158.334189 
L 75.286702 154.664922 
L 75.856131 152.918338 
L 76.903564 149.848218 
L 79.483123 142.997144 
L 83.881823 133.223663 
L 84.124924 132.74219 
L 85.139857 130.789386 
L 85.833103 129.505578 
L 86.394533 128.494024 
L 87.617879 126.371809 
L 87.764739 126.124214 
L 88.503379 124.901188 
L 88.521897 124.870995 
L 90.071077 121.778115 
L 90.257378 121.398786 
L 91.316194 119.244185 
L 91.746751 118.368605 
L 92.523709 116.789424 
L 93.271036 115.271451 
L 98.693045 104.286894 
L 100.341228 100.93979 
L 100.642593 100.307177 
L 101.800343 97.881032 
L 102.420614 96.583885 
L 103.21853 94.917921 
L 107.153103 85.517371 
L 109.198354 81.200784 
L 116.210255 74.977369 
L 117.748243 75.137398 
L 120.118319 75.692264 
L 121.104175 76.082219 
L 122.990653 77.223032 
L 123.190269 77.354244 
L 124.481497 78.252084 
L 125.794365 79.343871 
L 125.959041 79.480855 
L 126.206464 79.686683 
L 129.503847 82.890695 
L 130.78987 84.214751 
L 131.361754 84.805117 
L 132.402325 85.879406 
L 132.852185 86.343877 
L 133.270558 86.761409 
L 134.45063 87.988515 
L 134.778369 88.303184 
L 135.313915 88.81738 
L 136.850504 90.292178 
L 137.484928 90.832775 
L 137.726666 91.0396 
L 139.93594 92.784552 
L 141.285066 93.678086 
L 141.608285 93.86979 
L 142.134424 94.175698 
L 142.159444 94.190147 
L 143.515249 94.907701 
L 143.891711 95.103606 
L 144.230202 95.265553 
L 144.618342 95.385106 
L 146.107347 95.843984 
L 146.920424 96.005583 
L 147.012151 96.018481 
L 148.366246 96.111365 
L 149.282608 96.164072 
L 151.278681 95.942975 
L 151.498139 95.895484 
L 151.842485 95.820977 
L 152.306342 95.720634 
L 152.944998 95.562578 
L 153.625348 95.367545 
L 155.624208 94.55948 
L 156.084826 94.342835 
L 156.68085 94.062985 
L 157.326841 93.71192 
L 160.459622 91.651793 
L 162.565184 92.972786 
L 162.613043 93.086463 
L 162.704674 93.328394 
L 162.71458 93.356297 
L 162.81633 93.662037 
L 164.731554 100.409085 
L 165.048835 100.818498 
L 165.522614 101.510492 
L 166.214607 102.711693 
L 166.764785 103.59634 
L 168.614512 104.264901 
L 168.944753 104.194648 
L 169.281558 104.124648 
L 169.970345 103.722009 
L 170.290051 103.492963 
L 173.207457 101.313961 
L 173.754557 100.87256 
L 173.876456 100.799129 
L 174.099799 100.682343 
L 174.89517 100.306922 
L 175.685678 99.750323 
L 175.804531 99.651331 
L 175.859815 99.605386 
L 176.814347 98.822605 
L 177.683089 98.64248 
L 178.500152 100.382349 
L 178.816934 101.056994 
L 179.347048 101.153586 
L 179.475314 101.165993 
L 181.077715 101.281918 
L 181.13953 101.281651 
L 181.44296 101.280804 
L 182.255932 101.282462 
L 183.300731 101.516976 
L 184.5101 101.927824 
L 185.0085 102.099089 
L 185.253121 102.183551 
L 185.77953 102.366205 
L 187.471099 103.224903 
L 188.778099 104.13511 
L 189.77312 104.767118 
L 189.914668 104.854198 
L 193.313748 108.185854 
L 196.41209 112.018944 
L 196.795736 112.524785 
L 199.526588 116.135021 
L 199.763262 116.448716 
L 201.617608 118.910973 
L 202.651399 120.287176 
L 202.946339 120.617238 
L 207.781583 120.29152 
L 209.420568 119.369124 
L 209.87901 119.114803 
L 210.683245 118.672443 
L 212.794986 117.533366 
L 213.384823 117.220858 
L 213.885955 116.957234 
L 214.646632 116.324782 
L 218.049235 107.486613 
L 220.042845 102.88866 
L 220.283771 102.368783 
L 221.81031 99.333061 
L 222.758049 97.614007 
L 223.404276 96.278796 
L 224.107164 94.827642 
L 224.143666 94.752314 
L 224.835848 93.324437 
L 225.253612 92.463177 
L 226.022068 90.879965 
L 226.816899 89.243793 
L 227.434501 87.973397 
L 227.491626 87.855937 
L 227.924907 86.965251 
L 228.067767 86.671648 
L 229.151872 84.522757 
L 230.203009 82.457376 
L 230.393708 82.082686 
L 231.411422 80.08328 
L 232.761081 77.432096 
L 233.181684 76.605971 
L 238.405415 66.34919 
L 239.808185 65.090156 
L 240.341353 64.61557 
L 241.647326 63.453124 
L 244.078067 61.289581 
L 244.553805 60.866164 
L 244.7143 60.723296 
L 245.552532 59.977237 
L 246.84727 58.824891 
L 247.247766 58.468437 
L 248.185872 57.633526 
L 249.243771 57.999178 
L 251.165062 61.276169 
L 251.550596 61.933959 
L 254.163942 67.432434 
L 256.537302 73.680657 
L 256.577266 73.788343 
L 256.987435 74.898778 
L 257.397466 76.018452 
L 258.974382 80.421726 
L 260.147789 83.808699 
L 260.729126 85.525399 
L 261.7567 88.628182 
L 262.082715 89.631997 
L 262.149617 89.839186 
L 262.5056 90.948739 
L 263.588621 94.401163 
L 264.038196 95.870257 
L 264.515746 97.45542 
L 264.803191 98.422251 
L 264.803191 71.07652 
L 264.803191 71.07652 
L 264.515746 70.83413 
L 264.038196 70.410311 
L 263.588621 69.988199 
L 262.5056 68.884545 
L 262.149617 68.496547 
L 262.082715 68.422344 
L 261.7567 68.054645 
L 260.729126 66.834691 
L 260.147789 66.105812 
L 258.974382 64.556528 
L 257.397466 62.326092 
L 256.987435 61.720878 
L 256.577266 61.105772 
L 256.537302 61.045343 
L 254.163942 57.309376 
L 251.550596 52.780324 
L 251.165062 52.085815 
L 249.243771 48.623632 
L 248.185872 48.217734 
L 247.247766 49.067739 
L 246.84727 49.430625 
L 245.552532 50.603762 
L 244.7143 51.36325 
L 244.553805 51.508677 
L 244.078067 51.939715 
L 241.647326 54.142044 
L 240.341353 55.325268 
L 239.808185 55.808313 
L 238.405415 57.088829 
L 233.181684 67.00494 
L 232.761081 67.803092 
L 231.411422 70.363975 
L 230.393708 72.294741 
L 230.203009 72.656506 
L 229.151872 74.650382 
L 228.067767 76.696636 
L 227.924907 76.960698 
L 227.491626 77.761273 
L 227.434501 77.86679 
L 226.816899 79.00717 
L 226.022068 80.473551 
L 225.253612 81.889925 
L 224.835848 82.659378 
L 224.143666 83.93337 
L 224.107164 84.00052 
L 223.404276 85.293014 
L 222.758049 86.480304 
L 221.81031 87.910209 
L 220.283771 89.376192 
L 220.042845 89.572235 
L 218.049235 90.905541 
L 214.646632 92.191099 
L 213.885955 92.168081 
L 213.384823 92.13837 
L 212.794986 92.101183 
L 210.683245 91.947821 
L 209.87901 91.880865 
L 209.420568 91.840526 
L 207.781583 91.68317 
L 202.946339 89.754513 
L 202.651399 89.468046 
L 201.617608 88.486289 
L 199.763262 86.718975 
L 199.526588 86.492831 
L 196.795736 83.874288 
L 196.41209 83.505068 
L 193.313748 80.279165 
L 189.914668 77.13459 
L 189.77312 77.030894 
L 188.778099 76.252057 
L 187.471099 75.02604 
L 185.77953 73.518151 
L 185.253121 73.06829 
L 185.0085 72.858814 
L 184.5101 72.431206 
L 183.300731 71.388906 
L 182.255932 70.532477 
L 181.44296 69.936193 
L 181.13953 69.71217 
L 181.077715 69.666434 
L 179.475314 68.458754 
L 179.347048 68.360978 
L 178.816934 67.970167 
L 178.500152 67.348814 
L 177.683089 65.745973 
L 176.814347 64.961072 
L 175.859815 64.581085 
L 175.804531 64.558471 
L 175.685678 64.509636 
L 174.89517 64.334886 
L 174.099799 64.426806 
L 173.876456 64.461386 
L 173.754557 64.4707 
L 173.207457 64.402204 
L 170.290051 65.45106 
L 169.970345 65.603179 
L 169.281558 66.09837 
L 168.944753 66.520587 
L 168.614512 66.932969 
L 166.764785 70.533416 
L 166.214607 72.420293 
L 165.522614 74.896149 
L 165.048835 76.46084 
L 164.731554 77.454688 
L 162.81633 86.265948 
L 162.71458 86.667936 
L 162.704674 86.705207 
L 162.613043 87.037244 
L 162.565184 87.203965 
L 160.459622 90.94017 
L 157.326841 93.347133 
L 156.68085 93.722004 
L 156.084826 94.021072 
L 155.624208 94.251824 
L 153.625348 95.106816 
L 152.944998 95.309394 
L 152.306342 95.473105 
L 151.842485 95.576951 
L 151.498139 95.654027 
L 151.278681 95.703142 
L 149.282608 95.931377 
L 148.366246 95.880432 
L 147.012151 95.790279 
L 146.920424 95.777632 
L 146.107347 95.614667 
L 144.618342 95.142378 
L 144.230202 95.019203 
L 143.891711 94.856205 
L 143.515249 94.659715 
L 142.159444 93.939143 
L 142.134424 93.924547 
L 141.608285 93.615533 
L 141.285066 93.42189 
L 139.93594 92.519932 
L 137.726666 90.758615 
L 137.484928 90.54913 
L 136.850504 90.00172 
L 135.313915 88.520374 
L 134.778369 88.003875 
L 134.45063 87.687787 
L 133.270558 86.459784 
L 132.852185 86.04164 
L 132.402325 85.573636 
L 131.361754 84.491015 
L 130.78987 83.895973 
L 129.503847 82.561261 
L 126.206464 79.330845 
L 125.959041 79.121424 
L 125.794365 78.98203 
L 124.481497 77.870435 
L 123.190269 76.944652 
L 122.990653 76.809255 
L 121.104175 75.624429 
L 120.118319 75.202908 
L 117.748243 74.483939 
L 116.210255 74.145483 
L 109.198354 74.049735 
L 107.153103 72.374966 
L 103.21853 76.89174 
L 102.420614 78.227657 
L 101.800343 79.264062 
L 100.642593 81.193564 
L 100.341228 81.694734 
L 98.693045 84.587914 
L 93.271036 94.151771 
L 92.523709 95.466031 
L 91.746751 96.83137 
L 91.316194 97.587533 
L 90.257378 99.445621 
L 90.071077 99.772347 
L 88.521897 102.204439 
L 88.503379 102.202837 
L 87.764739 102.120618 
L 87.617879 102.099853 
L 86.394533 101.867059 
L 85.833103 101.722634 
L 85.139857 101.509532 
L 84.124924 101.124249 
L 83.881823 101.01814 
L 79.483123 98.02961 
L 76.903564 95.157486 
L 75.856131 93.703015 
L 75.286702 92.834756 
L 74.147788 90.922293 
L 74.034151 90.718041 
L 71.942062 86.481951 
L 68.042124 75.765983 
L 67.150608 72.703843 
L 65.76676 67.424163 
L 65.516333 66.395778 
L 65.47865 66.239027 
L 65.329596 65.613644 
L 64.702815 62.890968 
L 63.621643 57.823116 
L 62.818845 53.735785 
L 62.601577 52.579639 
L 61.51195 46.441638 
L 61.228547 44.748643 
L 60.067002 37.365516 
z
" style="fill:#ff7f0e;fill-opacity:0.4;"/>
   </g>
   <g id="patch_3">
    <path d="M 49.830192 243.422692 
L 49.830192 27.553269 
" style="fill:none;stroke:#777777;stroke-linecap:square;stroke-linejoin:miter;"/>
   </g>
   <g id="patch_4">
    <path d="M 275.04 243.422692 
L 275.04 27.553269 
" style="fill:none;stroke:#777777;stroke-linecap:square;stroke-linejoin:miter;"/>
   </g>
   <g id="patch_5">
    <path d="M 49.830192 243.422692 
L 275.04 243.422692 
" style="fill:none;stroke:#777777;stroke-linecap:square;stroke-linejoin:miter;"/>
   </g>
   <g id="patch_6">
    <path d="M 49.830192 27.553269 
L 275.04 27.553269 
" style="fill:none;stroke:#777777;stroke-linecap:square;stroke-linejoin:miter;"/>
   </g>
   <g id="text_13">
    <!-- 95% Centered Prediction Interval -->
    <defs>
     <path d="M 11.28125 4.203125 
Q 14.015625 0.984375 20.796875 0.984375 
Q 24.609375 0.984375 27.90625 3.5625 
Q 31.203125 6.15625 33.015625 9.90625 
Q 35.109375 14.15625 35.6875 18.96875 
Q 36.28125 23.78125 36.28125 30.90625 
Q 34.578125 26.859375 31.375 24.265625 
Q 28.171875 21.6875 24.03125 21.6875 
Q 18.21875 21.6875 13.640625 24.828125 
Q 9.078125 27.984375 6.640625 33.125 
Q 4.203125 38.28125 4.203125 44.09375 
Q 4.203125 50.09375 6.9375 55.296875 
Q 9.671875 60.5 14.5 63.546875 
Q 19.34375 66.609375 25.484375 66.609375 
Q 31.546875 66.609375 35.625 63.3125 
Q 39.703125 60.015625 41.84375 54.8125 
Q 44 49.609375 44.84375 43.796875 
Q 45.703125 37.984375 45.703125 32.328125 
Q 45.703125 24.609375 42.875 16.578125 
Q 40.046875 8.546875 34.40625 3.171875 
Q 28.765625 -2.203125 20.796875 -2.203125 
Q 14.890625 -2.203125 10.78125 0.578125 
Q 6.6875 3.375 6.6875 8.984375 
Q 6.6875 11.03125 8.078125 12.421875 
Q 9.46875 13.8125 11.53125 13.8125 
Q 13.53125 13.8125 14.921875 12.421875 
Q 16.3125 11.03125 16.3125 8.984375 
Q 16.3125 7.03125 14.890625 5.609375 
Q 13.484375 4.203125 11.53125 4.203125 
z
M 24.421875 24.3125 
Q 28.515625 24.3125 31.125 27.0625 
Q 33.734375 29.828125 34.90625 33.921875 
Q 36.078125 38.03125 36.078125 42.09375 
L 36.078125 44 
L 36.078125 44.390625 
Q 36.078125 51.90625 33.875 57.8125 
Q 31.6875 63.71875 25.484375 63.71875 
Q 21.53125 63.71875 19.0625 61.984375 
Q 16.609375 60.25 15.4375 57.375 
Q 14.265625 54.5 13.9375 51.21875 
Q 13.625 47.953125 13.625 44.09375 
Q 13.625 38.421875 14.15625 34.421875 
Q 14.703125 30.421875 17.09375 27.359375 
Q 19.484375 24.3125 24.421875 24.3125 
z
" id="Cmr10-57"/>
     <path d="M 13.921875 -3.609375 
Q 13.921875 -3.03125 14.203125 -2.59375 
L 59.515625 64.890625 
Q 53.515625 61.53125 46.296875 61.53125 
Q 38.484375 61.53125 31.296875 65.578125 
Q 33.296875 60.796875 33.296875 54.890625 
Q 33.296875 51.65625 32.53125 48.21875 
Q 31.78125 44.78125 30.21875 41.71875 
Q 28.65625 38.671875 26.1875 36.6875 
Q 23.734375 34.71875 20.40625 34.71875 
Q 15.71875 34.71875 12.34375 37.84375 
Q 8.984375 40.96875 7.296875 45.65625 
Q 5.609375 50.34375 5.609375 54.890625 
Q 5.609375 59.328125 7.296875 64.03125 
Q 8.984375 68.75 12.34375 71.875 
Q 15.71875 75 20.40625 75 
Q 24.125 75 27.203125 72.015625 
Q 35.25 64.109375 46.296875 64.109375 
Q 52.203125 64.109375 57.328125 66.71875 
Q 62.453125 69.34375 65.71875 74.21875 
Q 66.21875 75 67.28125 75 
Q 68.171875 75 68.71875 74.453125 
Q 69.28125 73.921875 69.28125 73 
Q 69.28125 72.46875 69 72.015625 
L 17.390625 -4.984375 
Q 16.9375 -5.609375 15.921875 -5.609375 
Q 15.09375 -5.609375 14.5 -4.96875 
Q 13.921875 -4.34375 13.921875 -3.609375 
z
M 20.40625 37.3125 
Q 25.34375 37.3125 27.875 43.1875 
Q 30.421875 49.078125 30.421875 54.890625 
Q 30.421875 58.15625 29.375 62.328125 
Q 28.328125 66.5 26.078125 69.453125 
Q 23.828125 72.40625 20.40625 72.40625 
Q 15.4375 72.40625 13.8125 66.859375 
Q 12.203125 61.328125 12.203125 54.78125 
Q 12.203125 48.484375 13.859375 42.890625 
Q 15.53125 37.3125 20.40625 37.3125 
z
M 64.703125 -5.609375 
Q 60.015625 -5.609375 56.640625 -2.484375 
Q 53.265625 0.640625 51.578125 5.34375 
Q 49.90625 10.0625 49.90625 14.59375 
Q 49.90625 19.046875 51.578125 23.75 
Q 53.265625 28.46875 56.640625 31.59375 
Q 60.015625 34.71875 64.703125 34.71875 
Q 69.046875 34.71875 71.96875 31.421875 
Q 74.90625 28.125 76.25 23.484375 
Q 77.59375 18.84375 77.59375 14.59375 
Q 77.59375 11.375 76.828125 7.953125 
Q 76.078125 4.546875 74.53125 1.4375 
Q 73 -1.65625 70.53125 -3.625 
Q 68.0625 -5.609375 64.703125 -5.609375 
z
M 64.703125 -2.984375 
Q 68.0625 -2.984375 70.359375 0.015625 
Q 72.65625 3.03125 73.671875 7.171875 
Q 74.703125 11.328125 74.703125 14.59375 
Q 74.703125 20.359375 72.15625 26.21875 
Q 69.625 32.078125 64.703125 32.078125 
Q 59.71875 32.078125 58.109375 26.53125 
Q 56.5 21 56.5 14.5 
Q 56.5 8.15625 58.15625 2.578125 
Q 59.8125 -2.984375 64.703125 -2.984375 
z
" id="Cmr10-37"/>
     <path id="Cmr10-32"/>
     <path d="M 22.796875 10.6875 
Q 26.21875 6.34375 31.34375 3.828125 
Q 36.46875 1.3125 42 1.3125 
Q 46.625 1.3125 50.578125 3.140625 
Q 54.546875 4.984375 57.5 8.25 
Q 60.453125 11.53125 62.03125 15.671875 
Q 63.625 19.828125 63.625 24.421875 
Q 63.625 25.203125 64.5 25.203125 
L 65.71875 25.203125 
Q 66.5 25.203125 66.5 24.21875 
Q 66.5 19 64.5 14.140625 
Q 62.5 9.28125 58.828125 5.59375 
Q 55.171875 1.90625 50.40625 -0.140625 
Q 45.65625 -2.203125 40.484375 -2.203125 
Q 33.296875 -2.203125 26.875 0.703125 
Q 20.453125 3.609375 15.6875 8.65625 
Q 10.9375 13.71875 8.265625 20.359375 
Q 5.609375 27 5.609375 34.1875 
Q 5.609375 41.359375 8.265625 48 
Q 10.9375 54.640625 15.6875 59.71875 
Q 20.453125 64.796875 26.875 67.65625 
Q 33.296875 70.515625 40.484375 70.515625 
Q 45.609375 70.515625 50.296875 68.28125 
Q 54.984375 66.0625 58.5 62.015625 
L 64.3125 70.21875 
Q 64.890625 70.515625 64.984375 70.515625 
L 65.71875 70.515625 
Q 66.015625 70.515625 66.25 70.265625 
Q 66.5 70.015625 66.5 69.671875 
L 66.5 42.671875 
Q 66.5 41.796875 65.71875 41.796875 
L 63.921875 41.796875 
Q 62.984375 41.796875 62.984375 42.671875 
Q 62.984375 45.5625 61.828125 49.125 
Q 60.6875 52.6875 58.90625 55.875 
Q 57.125 59.078125 54.78125 61.53125 
Q 49.171875 67 41.890625 67 
Q 36.375 67 31.3125 64.5 
Q 26.265625 62.015625 22.796875 57.625 
Q 19.140625 52.9375 17.71875 46.953125 
Q 16.3125 40.96875 16.3125 34.1875 
Q 16.3125 27.390625 17.71875 21.375 
Q 19.140625 15.375 22.796875 10.6875 
z
" id="Cmr10-67"/>
     <path d="M 24.90625 -1.125 
Q 18.796875 -1.125 13.6875 2.078125 
Q 8.59375 5.28125 5.6875 10.625 
Q 2.78125 15.96875 2.78125 21.921875 
Q 2.78125 27.78125 5.4375 33.046875 
Q 8.109375 38.328125 12.859375 41.578125 
Q 17.625 44.828125 23.484375 44.828125 
Q 28.078125 44.828125 31.46875 43.28125 
Q 34.859375 41.75 37.0625 39.015625 
Q 39.265625 36.28125 40.375 32.5625 
Q 41.5 28.859375 41.5 24.421875 
Q 41.5 23.09375 40.484375 23.09375 
L 11.53125 23.09375 
L 11.53125 22.015625 
Q 11.53125 13.71875 14.875 7.765625 
Q 18.21875 1.8125 25.78125 1.8125 
Q 28.859375 1.8125 31.46875 3.171875 
Q 34.078125 4.546875 36 6.984375 
Q 37.9375 9.421875 38.625 12.203125 
Q 38.71875 12.546875 38.984375 12.8125 
Q 39.265625 13.09375 39.59375 13.09375 
L 40.484375 13.09375 
Q 41.5 13.09375 41.5 11.8125 
Q 40.09375 6.15625 35.40625 2.515625 
Q 30.71875 -1.125 24.90625 -1.125 
z
M 11.625 25.59375 
L 34.421875 25.59375 
Q 34.421875 29.34375 33.375 33.203125 
Q 32.328125 37.0625 29.875 39.625 
Q 27.4375 42.1875 23.484375 42.1875 
Q 17.828125 42.1875 14.71875 36.890625 
Q 11.625 31.59375 11.625 25.59375 
z
" id="Cmr10-101"/>
     <path d="M 2.984375 0 
L 2.984375 3.515625 
Q 6.390625 3.515625 8.59375 4.046875 
Q 10.796875 4.59375 10.796875 6.6875 
L 10.796875 33.984375 
Q 10.796875 36.671875 9.984375 37.859375 
Q 9.1875 39.0625 7.671875 39.328125 
Q 6.15625 39.59375 2.984375 39.59375 
L 2.984375 43.109375 
L 17.484375 44.1875 
L 17.484375 34.421875 
Q 19.484375 38.71875 23.40625 41.453125 
Q 27.34375 44.1875 31.984375 44.1875 
Q 38.921875 44.1875 42.40625 40.859375 
Q 45.90625 37.546875 45.90625 30.71875 
L 45.90625 6.6875 
Q 45.90625 4.59375 48.09375 4.046875 
Q 50.296875 3.515625 53.71875 3.515625 
L 53.71875 0 
L 30.8125 0 
L 30.8125 3.515625 
Q 34.234375 3.515625 36.421875 4.046875 
Q 38.625 4.59375 38.625 6.6875 
L 38.625 30.421875 
Q 38.625 35.296875 37.203125 38.453125 
Q 35.796875 41.609375 31.390625 41.609375 
Q 25.59375 41.609375 21.84375 36.96875 
Q 18.109375 32.328125 18.109375 26.421875 
L 18.109375 6.6875 
Q 18.109375 4.59375 20.3125 4.046875 
Q 22.515625 3.515625 25.875 3.515625 
L 25.875 0 
z
" id="Cmr10-110"/>
     <path d="M 10.203125 12.015625 
L 10.203125 39.59375 
L 1.90625 39.59375 
L 1.90625 42.1875 
Q 8.453125 42.1875 11.515625 48.28125 
Q 14.59375 54.390625 14.59375 61.53125 
L 17.484375 61.53125 
L 17.484375 43.109375 
L 31.59375 43.109375 
L 31.59375 39.59375 
L 17.484375 39.59375 
L 17.484375 12.203125 
Q 17.484375 8.0625 18.875 4.9375 
Q 20.265625 1.8125 23.875 1.8125 
Q 27.296875 1.8125 28.8125 5.109375 
Q 30.328125 8.40625 30.328125 12.203125 
L 30.328125 18.109375 
L 33.203125 18.109375 
L 33.203125 12.015625 
Q 33.203125 8.890625 32.046875 5.828125 
Q 30.90625 2.78125 28.65625 0.828125 
Q 26.421875 -1.125 23.1875 -1.125 
Q 17.1875 -1.125 13.6875 2.46875 
Q 10.203125 6.0625 10.203125 12.015625 
z
" id="Cmr10-116"/>
     <path d="M 2.59375 0 
L 2.59375 3.515625 
Q 6 3.515625 8.203125 4.046875 
Q 10.40625 4.59375 10.40625 6.6875 
L 10.40625 33.984375 
Q 10.40625 36.671875 9.59375 37.859375 
Q 8.796875 39.0625 7.28125 39.328125 
Q 5.765625 39.59375 2.59375 39.59375 
L 2.59375 43.109375 
L 16.890625 44.1875 
L 16.890625 34.421875 
Q 18.5 38.765625 21.484375 41.46875 
Q 24.46875 44.1875 28.71875 44.1875 
Q 31.6875 44.1875 34.03125 42.421875 
Q 36.375 40.671875 36.375 37.796875 
Q 36.375 35.984375 35.078125 34.640625 
Q 33.796875 33.296875 31.890625 33.296875 
Q 30.03125 33.296875 28.703125 34.609375 
Q 27.390625 35.9375 27.390625 37.796875 
Q 27.390625 40.484375 29.296875 41.609375 
L 28.71875 41.609375 
Q 24.65625 41.609375 22.09375 38.671875 
Q 19.53125 35.75 18.453125 31.390625 
Q 17.390625 27.046875 17.390625 23.09375 
L 17.390625 6.6875 
Q 17.390625 3.515625 27.09375 3.515625 
L 27.09375 0 
z
" id="Cmr10-114"/>
     <path d="M 24.421875 -1.125 
Q 18.5 -1.125 13.609375 2.078125 
Q 8.734375 5.28125 6.03125 10.5 
Q 3.328125 15.71875 3.328125 21.578125 
Q 3.328125 27.640625 6.28125 32.828125 
Q 9.234375 38.03125 14.3125 41.109375 
Q 19.390625 44.1875 25.484375 44.1875 
Q 29.15625 44.1875 32.421875 42.640625 
Q 35.6875 41.109375 38.09375 38.375 
L 38.09375 59.1875 
Q 38.09375 61.859375 37.28125 63.0625 
Q 36.46875 64.265625 34.984375 64.53125 
Q 33.5 64.796875 30.328125 64.796875 
L 30.328125 68.3125 
L 45.125 69.390625 
L 45.125 9.078125 
Q 45.125 6.453125 45.921875 5.25 
Q 46.734375 4.046875 48.21875 3.78125 
Q 49.703125 3.515625 52.875 3.515625 
L 52.875 0 
L 37.796875 -1.125 
L 37.796875 5.171875 
Q 35.203125 2.203125 31.640625 0.53125 
Q 28.078125 -1.125 24.421875 -1.125 
z
M 14.203125 8.6875 
Q 15.921875 5.421875 18.765625 3.46875 
Q 21.625 1.515625 25 1.515625 
Q 29.15625 1.515625 32.609375 3.90625 
Q 36.078125 6.296875 37.796875 10.109375 
L 37.796875 34.078125 
Q 36.625 36.28125 34.84375 38.015625 
Q 33.0625 39.75 30.828125 40.671875 
Q 28.609375 41.609375 26.125 41.609375 
Q 20.90625 41.609375 17.71875 38.640625 
Q 14.546875 35.6875 13.28125 31.09375 
Q 12.015625 26.515625 12.015625 21.484375 
Q 12.015625 17.484375 12.421875 14.5 
Q 12.84375 11.53125 14.203125 8.6875 
z
" id="Cmr10-100"/>
     <path d="M 3.328125 0 
L 3.328125 3.515625 
Q 13.625 3.515625 13.625 6.6875 
L 13.625 61.625 
Q 13.625 64.796875 3.328125 64.796875 
L 3.328125 68.3125 
L 38.921875 68.3125 
Q 44.390625 68.3125 49.859375 66.0625 
Q 55.328125 63.8125 58.859375 59.515625 
Q 62.40625 55.21875 62.40625 49.515625 
Q 62.40625 43.953125 58.84375 39.75 
Q 55.28125 35.546875 49.859375 33.375 
Q 44.4375 31.203125 38.921875 31.203125 
L 22.90625 31.203125 
L 22.90625 6.6875 
Q 22.90625 3.515625 33.203125 3.515625 
L 33.203125 0 
z
M 22.609375 34.1875 
L 36.1875 34.1875 
Q 41.703125 34.1875 45.109375 35.765625 
Q 48.53125 37.359375 50.109375 40.703125 
Q 51.703125 44.046875 51.703125 49.515625 
Q 51.703125 57.671875 48.109375 61.234375 
Q 44.53125 64.796875 36.1875 64.796875 
L 27.6875 64.796875 
Q 25.875 64.796875 24.875 64.640625 
Q 23.875 64.5 23.234375 63.796875 
Q 22.609375 63.09375 22.609375 61.625 
z
" id="Cmr10-80"/>
     <path d="M 3.078125 0 
L 3.078125 3.515625 
Q 6.5 3.515625 8.6875 4.046875 
Q 10.890625 4.59375 10.890625 6.6875 
L 10.890625 33.984375 
Q 10.890625 37.84375 9.390625 38.71875 
Q 7.90625 39.59375 3.515625 39.59375 
L 3.515625 43.109375 
L 17.921875 44.1875 
L 17.921875 6.6875 
Q 17.921875 4.59375 19.828125 4.046875 
Q 21.734375 3.515625 24.90625 3.515625 
L 24.90625 0 
z
M 7.328125 61.375 
Q 7.328125 63.578125 8.984375 65.234375 
Q 10.640625 66.890625 12.796875 66.890625 
Q 14.203125 66.890625 15.515625 66.15625 
Q 16.84375 65.4375 17.578125 64.109375 
Q 18.3125 62.796875 18.3125 61.375 
Q 18.3125 59.234375 16.640625 57.5625 
Q 14.984375 55.90625 12.796875 55.90625 
Q 10.640625 55.90625 8.984375 57.5625 
Q 7.328125 59.234375 7.328125 61.375 
z
" id="Cmr10-105"/>
     <path d="M 24.90625 -1.125 
Q 18.84375 -1.125 13.90625 2.015625 
Q 8.984375 5.171875 6.15625 10.421875 
Q 3.328125 15.671875 3.328125 21.578125 
Q 3.328125 27.484375 6.125 32.90625 
Q 8.9375 38.328125 13.890625 41.578125 
Q 18.84375 44.828125 24.90625 44.828125 
Q 30.765625 44.828125 35.5625 42.53125 
Q 40.375 40.234375 40.375 35.015625 
Q 40.375 33.0625 38.984375 31.609375 
Q 37.59375 30.171875 35.59375 30.171875 
Q 33.59375 30.171875 32.203125 31.609375 
Q 30.8125 33.0625 30.8125 35.015625 
Q 30.8125 36.765625 31.9375 38.0625 
Q 33.0625 39.359375 34.71875 39.703125 
Q 31.25 41.890625 25 41.890625 
Q 20.21875 41.890625 17.28125 38.71875 
Q 14.359375 35.546875 13.1875 30.859375 
Q 12.015625 26.171875 12.015625 21.578125 
Q 12.015625 16.75 13.453125 12.234375 
Q 14.890625 7.71875 18.09375 4.765625 
Q 21.296875 1.8125 26.125 1.8125 
Q 30.859375 1.8125 34.171875 4.71875 
Q 37.5 7.625 38.71875 12.3125 
Q 38.71875 12.890625 39.5 12.890625 
L 40.71875 12.890625 
Q 41.015625 12.890625 41.25 12.625 
Q 41.5 12.359375 41.5 12.015625 
L 41.5 11.71875 
Q 39.984375 5.8125 35.484375 2.34375 
Q 31 -1.125 24.90625 -1.125 
z
" id="Cmr10-99"/>
     <path d="M 25 -1.125 
Q 19 -1.125 13.859375 1.921875 
Q 8.734375 4.984375 5.75 10.109375 
Q 2.78125 15.234375 2.78125 21.296875 
Q 2.78125 25.875 4.421875 30.125 
Q 6.0625 34.375 9.109375 37.71875 
Q 12.15625 41.0625 16.203125 42.9375 
Q 20.265625 44.828125 25 44.828125 
Q 31.15625 44.828125 36.203125 41.578125 
Q 41.265625 38.328125 44.1875 32.875 
Q 47.125 27.4375 47.125 21.296875 
Q 47.125 15.28125 44.140625 10.125 
Q 41.15625 4.984375 36.046875 1.921875 
Q 30.953125 -1.125 25 -1.125 
z
M 25 1.8125 
Q 33.015625 1.8125 35.6875 7.609375 
Q 38.375 13.421875 38.375 22.40625 
Q 38.375 27.4375 37.84375 30.734375 
Q 37.3125 34.03125 35.5 36.71875 
Q 34.375 38.375 32.640625 39.625 
Q 30.90625 40.875 28.96875 41.53125 
Q 27.046875 42.1875 25 42.1875 
Q 21.875 42.1875 19.0625 40.765625 
Q 16.265625 39.359375 14.40625 36.71875 
Q 12.546875 33.890625 12.03125 30.484375 
Q 11.53125 27.09375 11.53125 22.40625 
Q 11.53125 16.796875 12.5 12.328125 
Q 13.484375 7.859375 16.4375 4.828125 
Q 19.390625 1.8125 25 1.8125 
z
" id="Cmr10-111"/>
     <path d="M 2.59375 0 
L 2.59375 3.515625 
Q 13.375 3.515625 13.375 6.6875 
L 13.375 61.625 
Q 13.375 64.796875 2.59375 64.796875 
L 2.59375 68.3125 
L 33.5 68.3125 
L 33.5 64.796875 
Q 22.703125 64.796875 22.703125 61.625 
L 22.703125 6.6875 
Q 22.703125 3.515625 33.5 3.515625 
L 33.5 0 
z
" id="Cmr10-73"/>
     <path d="M 24.421875 0 
L 9.8125 36.71875 
Q 8.890625 38.578125 6.953125 39.078125 
Q 5.03125 39.59375 1.90625 39.59375 
L 1.90625 43.109375 
L 22.90625 43.109375 
L 22.90625 39.59375 
Q 17.28125 39.59375 17.28125 37.203125 
Q 17.28125 36.8125 17.390625 36.625 
L 28.609375 8.40625 
L 38.71875 33.890625 
Q 39.015625 34.671875 39.015625 35.5 
Q 39.015625 37.40625 37.578125 38.5 
Q 36.140625 39.59375 34.1875 39.59375 
L 34.1875 43.109375 
L 50.78125 43.109375 
L 50.78125 39.59375 
Q 47.703125 39.59375 45.375 38.171875 
Q 43.0625 36.765625 41.796875 33.984375 
L 28.328125 0 
Q 27.9375 -1.125 26.703125 -1.125 
L 25.984375 -1.125 
Q 24.75 -1.125 24.421875 0 
z
" id="Cmr10-118"/>
     <path d="M 4 9.8125 
Q 4 15.765625 8.6875 19.5 
Q 13.375 23.25 19.9375 24.78125 
Q 26.515625 26.3125 32.421875 26.3125 
L 32.421875 30.421875 
Q 32.421875 33.296875 31.15625 36 
Q 29.890625 38.71875 27.484375 40.453125 
Q 25.09375 42.1875 22.21875 42.1875 
Q 15.578125 42.1875 12.109375 39.203125 
Q 14.015625 39.203125 15.25 37.765625 
Q 16.5 36.328125 16.5 34.421875 
Q 16.5 32.421875 15.078125 31 
Q 13.671875 29.59375 11.71875 29.59375 
Q 9.71875 29.59375 8.296875 31 
Q 6.890625 32.421875 6.890625 34.421875 
Q 6.890625 39.703125 11.671875 42.265625 
Q 16.453125 44.828125 22.21875 44.828125 
Q 26.265625 44.828125 30.359375 43.09375 
Q 34.46875 41.359375 37.078125 38.125 
Q 39.703125 34.90625 39.703125 30.609375 
L 39.703125 8.109375 
Q 39.703125 6.15625 40.53125 4.515625 
Q 41.359375 2.875 43.109375 2.875 
Q 44.78125 2.875 45.578125 4.53125 
Q 46.390625 6.203125 46.390625 8.109375 
L 46.390625 14.5 
L 49.3125 14.5 
L 49.3125 8.109375 
Q 49.3125 5.859375 48.140625 3.828125 
Q 46.96875 1.8125 44.984375 0.609375 
Q 43.015625 -0.59375 40.71875 -0.59375 
Q 37.796875 -0.59375 35.671875 1.671875 
Q 33.546875 3.953125 33.296875 7.078125 
Q 31.453125 3.328125 27.828125 1.09375 
Q 24.21875 -1.125 20.125 -1.125 
Q 16.3125 -1.125 12.625 0 
Q 8.9375 1.125 6.46875 3.53125 
Q 4 5.953125 4 9.8125 
z
M 12.109375 9.8125 
Q 12.109375 6.296875 14.6875 3.90625 
Q 17.28125 1.515625 20.796875 1.515625 
Q 24.03125 1.515625 26.65625 3.125 
Q 29.296875 4.734375 30.859375 7.515625 
Q 32.421875 10.296875 32.421875 13.375 
L 32.421875 23.78125 
Q 27.875 23.78125 23.109375 22.28125 
Q 18.359375 20.796875 15.234375 17.625 
Q 12.109375 14.453125 12.109375 9.8125 
z
" id="Cmr10-97"/>
     <path d="M 3.078125 0 
L 3.078125 3.515625 
Q 6.5 3.515625 8.6875 4.046875 
Q 10.890625 4.59375 10.890625 6.6875 
L 10.890625 59.1875 
Q 10.890625 61.859375 10.078125 63.0625 
Q 9.28125 64.265625 7.765625 64.53125 
Q 6.25 64.796875 3.078125 64.796875 
L 3.078125 68.3125 
L 17.921875 69.390625 
L 17.921875 6.6875 
Q 17.921875 4.59375 20.109375 4.046875 
Q 22.3125 3.515625 25.6875 3.515625 
L 25.6875 0 
z
" id="Cmr10-108"/>
    </defs>
    <g transform="translate(74.058846 21.553269)scale(0.12 -0.12)">
     <use xlink:href="#Cmr10-57"/>
     <use x="50" xlink:href="#Cmr10-53"/>
     <use x="100" xlink:href="#Cmr10-37"/>
     <use x="183.300781" xlink:href="#Cmr10-32"/>
     <use x="216.601562" xlink:href="#Cmr10-67"/>
     <use x="288.818359" xlink:href="#Cmr10-101"/>
     <use x="333.203125" xlink:href="#Cmr10-110"/>
     <use x="388.720703" xlink:href="#Cmr10-116"/>
     <use x="427.539062" xlink:href="#Cmr10-101"/>
     <use x="471.923828" xlink:href="#Cmr10-114"/>
     <use x="511.035156" xlink:href="#Cmr10-101"/>
     <use x="555.419922" xlink:href="#Cmr10-100"/>
     <use x="610.9375" xlink:href="#Cmr10-32"/>
     <use x="644.238281" xlink:href="#Cmr10-80"/>
     <use x="712.255859" xlink:href="#Cmr10-114"/>
     <use x="751.367188" xlink:href="#Cmr10-101"/>
     <use x="795.751953" xlink:href="#Cmr10-100"/>
     <use x="851.269531" xlink:href="#Cmr10-105"/>
     <use x="878.955078" xlink:href="#Cmr10-99"/>
     <use x="923.339844" xlink:href="#Cmr10-116"/>
     <use x="962.158203" xlink:href="#Cmr10-105"/>
     <use x="989.84375" xlink:href="#Cmr10-111"/>
     <use x="1039.84375" xlink:href="#Cmr10-110"/>
     <use x="1095.361328" xlink:href="#Cmr10-32"/>
     <use x="1128.662109" xlink:href="#Cmr10-73"/>
     <use x="1164.746094" xlink:href="#Cmr10-110"/>
     <use x="1220.263672" xlink:href="#Cmr10-116"/>
     <use x="1259.082031" xlink:href="#Cmr10-101"/>
     <use x="1303.466797" xlink:href="#Cmr10-114"/>
     <use x="1342.578125" xlink:href="#Cmr10-118"/>
     <use x="1395.263672" xlink:href="#Cmr10-97"/>
     <use x="1445.263672" xlink:href="#Cmr10-108"/>
    </g>
   </g>
   <g id="legend_1">
    <g id="patch_7">
     <path d="M 180.969831 63.590411 
L 268.0428 63.590411 
Q 270.042 63.590411 270.042 61.591211 
L 270.042 34.550469 
Q 270.042 32.551269 268.0428 32.551269 
L 180.969831 32.551269 
Q 178.970631 32.551269 178.970631 34.550469 
L 178.970631 61.591211 
Q 178.970631 63.590411 180.969831 63.590411 
z
" style="fill:#fdfdfd;opacity:0.8;stroke:#cccccc;stroke-linejoin:miter;"/>
    </g>
    <g id="patch_8">
     <path d="M 182.969031 43.598411 
L 202.961031 43.598411 
L 202.961031 36.601211 
L 182.969031 36.601211 
z
" style="fill:#1f77b4;opacity:0.6;"/>
    </g>
    <g id="text_14">
     <!-- Original -->
     <defs>
      <path d="M 38.921875 -2.203125 
Q 29.390625 -2.203125 21.796875 2.84375 
Q 14.203125 7.90625 9.90625 16.28125 
Q 5.609375 24.65625 5.609375 33.890625 
Q 5.609375 40.71875 8.078125 47.40625 
Q 10.546875 54.109375 14.96875 59.28125 
Q 19.390625 64.453125 25.578125 67.484375 
Q 31.78125 70.515625 38.921875 70.515625 
Q 46 70.515625 52.21875 67.453125 
Q 58.453125 64.40625 62.890625 59.171875 
Q 67.328125 53.953125 69.71875 47.453125 
Q 72.125 40.96875 72.125 33.890625 
Q 72.125 24.65625 67.828125 16.28125 
Q 63.53125 7.90625 55.90625 2.84375 
Q 48.296875 -2.203125 38.921875 -2.203125 
z
M 22.3125 10.796875 
Q 25.25 6.203125 29.546875 3.484375 
Q 33.84375 0.78125 38.921875 0.78125 
Q 42.1875 0.78125 45.328125 2.09375 
Q 48.484375 3.421875 51.046875 5.71875 
Q 53.609375 8.015625 55.421875 10.796875 
Q 61.375 19.78125 61.375 35.5 
Q 61.375 49.90625 55.421875 58.296875 
Q 52.484375 62.5 48.109375 65.03125 
Q 43.75 67.578125 38.921875 67.578125 
Q 34.03125 67.578125 29.640625 65.03125 
Q 25.25 62.5 22.3125 58.296875 
Q 19.96875 55.03125 18.671875 51.34375 
Q 17.390625 47.65625 16.84375 43.703125 
Q 16.3125 39.75 16.3125 35.5 
Q 16.3125 30.953125 16.8125 26.625 
Q 17.328125 22.3125 18.71875 18.15625 
Q 20.125 14.015625 22.3125 10.796875 
z
" id="Cmr10-79"/>
      <path d="M 2.78125 -7.8125 
Q 2.78125 -4.25 5.359375 -1.578125 
Q 7.953125 1.078125 11.53125 2.203125 
Q 9.515625 3.71875 8.46875 6 
Q 7.421875 8.296875 7.421875 10.890625 
Q 7.421875 15.578125 10.40625 19.1875 
Q 5.8125 23.6875 5.8125 29.5 
Q 5.8125 32.625 7.15625 35.359375 
Q 8.5 38.09375 10.890625 40.09375 
Q 13.28125 42.09375 16.203125 43.140625 
Q 19.140625 44.1875 22.21875 44.1875 
Q 28.171875 44.1875 32.90625 40.71875 
Q 34.96875 42.921875 37.765625 44.109375 
Q 40.578125 45.3125 43.609375 45.3125 
Q 45.75 45.3125 47.109375 43.765625 
Q 48.484375 42.234375 48.484375 40.09375 
Q 48.484375 38.875 47.546875 37.9375 
Q 46.625 37.015625 45.40625 37.015625 
Q 44.140625 37.015625 43.203125 37.9375 
Q 42.28125 38.875 42.28125 40.09375 
Q 42.28125 41.9375 43.5 42.671875 
Q 38.328125 42.671875 34.625 39.109375 
Q 36.421875 37.3125 37.515625 34.6875 
Q 38.625 32.078125 38.625 29.5 
Q 38.625 25.25 36.28125 21.84375 
Q 33.9375 18.453125 30.09375 16.578125 
Q 26.265625 14.703125 22.21875 14.703125 
Q 16.75 14.703125 12.203125 17.671875 
Q 10.796875 15.71875 10.796875 13.28125 
Q 10.796875 10.640625 12.53125 8.65625 
Q 14.265625 6.6875 16.890625 6.6875 
L 25.09375 6.6875 
Q 31.0625 6.6875 35.84375 5.609375 
Q 40.625 4.546875 43.875 1.3125 
Q 47.125 -1.90625 47.125 -7.8125 
Q 47.125 -12.203125 43.40625 -15.109375 
Q 39.703125 -18.015625 34.546875 -19.3125 
Q 29.390625 -20.609375 25 -20.609375 
Q 20.5625 -20.609375 15.375 -19.3125 
Q 10.203125 -18.015625 6.484375 -15.109375 
Q 2.78125 -12.203125 2.78125 -7.8125 
z
M 8.40625 -7.8125 
Q 8.40625 -11.1875 11.140625 -13.453125 
Q 13.875 -15.71875 17.71875 -16.8125 
Q 21.578125 -17.921875 25 -17.921875 
Q 28.375 -17.921875 32.21875 -16.8125 
Q 36.078125 -15.71875 38.78125 -13.453125 
Q 41.5 -11.1875 41.5 -7.8125 
Q 41.5 -2.59375 36.71875 -1.046875 
Q 31.9375 0.484375 25.09375 0.484375 
L 16.890625 0.484375 
Q 14.59375 0.484375 12.671875 -0.609375 
Q 10.75 -1.703125 9.578125 -3.6875 
Q 8.40625 -5.671875 8.40625 -7.8125 
z
M 22.21875 17.390625 
Q 30.71875 17.390625 30.71875 29.5 
Q 30.71875 34.71875 28.90625 38.109375 
Q 27.09375 41.5 22.21875 41.5 
Q 17.328125 41.5 15.515625 38.109375 
Q 13.71875 34.71875 13.71875 29.5 
Q 13.71875 26.171875 14.40625 23.484375 
Q 15.09375 20.796875 16.9375 19.09375 
Q 18.796875 17.390625 22.21875 17.390625 
z
" id="Cmr10-103"/>
     </defs>
     <g transform="translate(210.957831 43.598411)scale(0.09996 -0.09996)">
      <use xlink:href="#Cmr10-79"/>
      <use x="77.685547" xlink:href="#Cmr10-114"/>
      <use x="116.796875" xlink:href="#Cmr10-105"/>
      <use x="144.482422" xlink:href="#Cmr10-103"/>
      <use x="194.482422" xlink:href="#Cmr10-105"/>
      <use x="222.167969" xlink:href="#Cmr10-110"/>
      <use x="277.685547" xlink:href="#Cmr10-97"/>
      <use x="327.685547" xlink:href="#Cmr10-108"/>
     </g>
    </g>
    <g id="patch_9">
     <path d="M 182.969031 57.653724 
L 202.961031 57.653724 
L 202.961031 50.656524 
L 182.969031 50.656524 
z
" style="fill:#ff7f0e;opacity:0.4;"/>
    </g>
    <g id="text_15">
     <!-- Recalibrated -->
     <defs>
      <path d="M 3.328125 0 
L 3.328125 3.515625 
Q 13.625 3.515625 13.625 6.6875 
L 13.625 61.625 
Q 13.625 64.796875 3.328125 64.796875 
L 3.328125 68.3125 
L 34.71875 68.3125 
Q 40.328125 68.3125 46.5 66.28125 
Q 52.6875 64.265625 56.828125 60.109375 
Q 60.984375 55.953125 60.984375 50.203125 
Q 60.984375 46 58.46875 42.703125 
Q 55.953125 39.40625 52.015625 37.1875 
Q 48.09375 34.96875 44 33.984375 
Q 48.484375 32.421875 51.84375 29 
Q 55.21875 25.59375 55.90625 21.1875 
L 57.328125 12.3125 
Q 58.296875 6.296875 59.375 3.34375 
Q 60.453125 0.390625 64.109375 0.390625 
Q 67.234375 0.390625 68.765625 3.296875 
Q 70.3125 6.203125 70.3125 9.625 
Q 70.3125 9.96875 70.625 10.234375 
Q 70.953125 10.5 71.296875 10.5 
L 72.21875 10.5 
Q 73.1875 10.5 73.1875 9.1875 
Q 73.1875 6.453125 72.109375 3.828125 
Q 71.046875 1.21875 69.015625 -0.484375 
Q 67 -2.203125 64.203125 -2.203125 
Q 56.984375 -2.203125 51.78125 1.390625 
Q 46.578125 4.984375 46.578125 11.921875 
L 46.578125 20.796875 
Q 46.578125 25.78125 43.109375 29.34375 
Q 39.65625 32.90625 34.625 32.90625 
L 22.609375 32.90625 
L 22.609375 6.6875 
Q 22.609375 3.515625 32.90625 3.515625 
L 32.90625 0 
z
M 22.609375 35.5 
L 33.296875 35.5 
Q 41.609375 35.5 45.953125 38.84375 
Q 50.296875 42.1875 50.296875 50.203125 
Q 50.296875 58.15625 46 61.46875 
Q 41.703125 64.796875 33.296875 64.796875 
L 27.6875 64.796875 
Q 25.875 64.796875 24.875 64.640625 
Q 23.875 64.5 23.234375 63.796875 
Q 22.609375 63.09375 22.609375 61.625 
z
" id="Cmr10-82"/>
      <path d="M 10.40625 0 
L 10.40625 59.1875 
Q 10.40625 61.859375 9.59375 63.0625 
Q 8.796875 64.265625 7.28125 64.53125 
Q 5.765625 64.796875 2.59375 64.796875 
L 2.59375 68.3125 
L 17.390625 69.390625 
L 17.390625 38.09375 
Q 19.046875 39.9375 21.265625 41.328125 
Q 23.484375 42.71875 26.015625 43.453125 
Q 28.5625 44.1875 31.203125 44.1875 
Q 35.6875 44.1875 39.515625 42.375 
Q 43.359375 40.578125 46.1875 37.40625 
Q 49.03125 34.234375 50.609375 30.109375 
Q 52.203125 25.984375 52.203125 21.578125 
Q 52.203125 15.53125 49.25 10.296875 
Q 46.296875 5.078125 41.1875 1.96875 
Q 36.078125 -1.125 29.984375 -1.125 
Q 26.171875 -1.125 22.609375 0.828125 
Q 19.046875 2.78125 16.703125 6 
L 13.28125 0 
z
M 17.671875 9.8125 
Q 19.34375 6.15625 22.46875 3.828125 
Q 25.59375 1.515625 29.390625 1.515625 
Q 34.578125 1.515625 37.765625 4.484375 
Q 40.96875 7.46875 42.234375 12 
Q 43.5 16.546875 43.5 21.578125 
Q 43.5 30.03125 41.3125 34.421875 
Q 40.328125 36.375 38.640625 38.03125 
Q 36.96875 39.703125 34.890625 40.65625 
Q 32.8125 41.609375 30.515625 41.609375 
Q 26.515625 41.609375 23.09375 39.484375 
Q 19.671875 37.359375 17.671875 33.796875 
z
" id="Cmr10-98"/>
     </defs>
     <g transform="translate(210.957831 57.653724)scale(0.09996 -0.09996)">
      <use xlink:href="#Cmr10-82"/>
      <use x="73.583984" xlink:href="#Cmr10-101"/>
      <use x="117.96875" xlink:href="#Cmr10-99"/>
      <use x="162.353516" xlink:href="#Cmr10-97"/>
      <use x="212.353516" xlink:href="#Cmr10-108"/>
      <use x="240.039062" xlink:href="#Cmr10-105"/>
      <use x="267.724609" xlink:href="#Cmr10-98"/>
      <use x="323.242188" xlink:href="#Cmr10-114"/>
      <use x="362.353516" xlink:href="#Cmr10-97"/>
      <use x="412.353516" xlink:href="#Cmr10-116"/>
      <use x="451.171875" xlink:href="#Cmr10-101"/>
      <use x="495.556641" xlink:href="#Cmr10-100"/>
     </g>
    </g>
   </g>
  </g>
 </g>
 <defs>
  <clipPath id="pdf7a47d37e">
   <rect height="215.869423" width="225.209808" x="49.830192" y="27.553269"/>
  </clipPath>
 </defs>
</svg>
