<?xml version="1.0" encoding="utf-8" standalone="no"?>
<!DOCTYPE svg PUBLIC "-//W3C//DTD SVG 1.1//EN"
  "http://www.w3.org/Graphics/SVG/1.1/DTD/svg11.dtd">
<!-- Created with matplotlib (https://matplotlib.org/) -->
<svg height="288pt" version="1.1" viewBox="0 0 288 288" width="288pt" xmlns="http://www.w3.org/2000/svg" xmlns:xlink="http://www.w3.org/1999/xlink">
 <defs>
  <style type="text/css">
*{stroke-linecap:butt;stroke-linejoin:round;}
  </style>
 </defs>
 <g id="figure_1">
  <g id="patch_1">
   <path d="M 0 288 
L 288 288 
L 288 0 
L 0 0 
z
" style="fill:#ffffff;"/>
  </g>
  <g id="axes_1">
   <g id="patch_2">
    <path d="M 36 252 
L 259.2 252 
L 259.2 34.56 
L 36 34.56 
z
" style="fill:#fafafa;"/>
   </g>
   <g id="matplotlib.axis_1">
    <g id="xtick_1">
     <g id="line2d_1">
      <path clip-path="url(#p7241746673)" d="M 43.888707 252 
L 43.888707 34.56 
" style="fill:none;stroke:#b0b0b0;stroke-linecap:square;stroke-opacity:0.3;"/>
     </g>
     <g id="line2d_2"/>
     <g id="text_1">
      <!-- -10 -->
      <defs>
       <path d="M 1.125 18.5 
L 1.125 24.703125 
L 27.59375 24.703125 
L 27.59375 18.5 
z
" id="Cmr10-45"/>
       <path d="M 9.28125 0 
L 9.28125 3.515625 
Q 21.78125 3.515625 21.78125 6.6875 
L 21.78125 59.1875 
Q 16.609375 56.6875 8.6875 56.6875 
L 8.6875 60.203125 
Q 20.953125 60.203125 27.203125 66.609375 
L 28.609375 66.609375 
Q 28.953125 66.609375 29.265625 66.328125 
Q 29.59375 66.0625 29.59375 65.71875 
L 29.59375 6.6875 
Q 29.59375 3.515625 42.09375 3.515625 
L 42.09375 0 
z
" id="Cmr10-49"/>
       <path d="M 25 -2.203125 
Q 12.75 -2.203125 8.328125 7.875 
Q 3.90625 17.96875 3.90625 31.890625 
Q 3.90625 40.578125 5.484375 48.234375 
Q 7.078125 55.90625 11.78125 61.25 
Q 16.5 66.609375 25 66.609375 
Q 31.59375 66.609375 35.78125 63.375 
Q 39.984375 60.15625 42.1875 55.046875 
Q 44.390625 49.953125 45.1875 44.109375 
Q 46 38.28125 46 31.890625 
Q 46 23.296875 44.40625 15.796875 
Q 42.828125 8.296875 38.1875 3.046875 
Q 33.546875 -2.203125 25 -2.203125 
z
M 25 0.390625 
Q 30.5625 0.390625 33.296875 6.09375 
Q 36.03125 11.8125 36.671875 18.75 
Q 37.3125 25.6875 37.3125 33.5 
Q 37.3125 41.015625 36.671875 47.359375 
Q 36.03125 53.71875 33.3125 58.859375 
Q 30.609375 64.015625 25 64.015625 
Q 19.34375 64.015625 16.609375 58.828125 
Q 13.875 53.65625 13.234375 47.328125 
Q 12.59375 41.015625 12.59375 33.5 
Q 12.59375 27.9375 12.859375 23 
Q 13.140625 18.0625 14.3125 12.8125 
Q 15.484375 7.5625 18.09375 3.96875 
Q 20.703125 0.390625 25 0.390625 
z
" id="Cmr10-48"/>
      </defs>
      <g style="fill:#333333;" transform="translate(35.890894 266.326875)scale(0.12 -0.12)">
       <use xlink:href="#Cmr10-45"/>
       <use x="33.300781" xlink:href="#Cmr10-49"/>
       <use x="83.300781" xlink:href="#Cmr10-48"/>
      </g>
     </g>
    </g>
    <g id="xtick_2">
     <g id="line2d_3">
      <path clip-path="url(#p7241746673)" d="M 95.844135 252 
L 95.844135 34.56 
" style="fill:none;stroke:#b0b0b0;stroke-linecap:square;stroke-opacity:0.3;"/>
     </g>
     <g id="line2d_4"/>
     <g id="text_2">
      <!-- -5 -->
      <defs>
       <path d="M 8.6875 11.375 
Q 9.71875 8.453125 11.84375 6.046875 
Q 13.96875 3.65625 16.875 2.3125 
Q 19.78125 0.984375 22.90625 0.984375 
Q 30.125 0.984375 32.859375 6.59375 
Q 35.59375 12.203125 35.59375 20.21875 
Q 35.59375 23.6875 35.46875 26.046875 
Q 35.359375 28.421875 34.8125 30.609375 
Q 33.890625 34.125 31.5625 36.765625 
Q 29.25 39.40625 25.875 39.40625 
Q 22.515625 39.40625 20.09375 38.375 
Q 17.671875 37.359375 16.15625 35.984375 
Q 14.65625 34.625 13.484375 33.109375 
Q 12.3125 31.59375 12.015625 31.5 
L 10.890625 31.5 
Q 10.640625 31.5 10.265625 31.8125 
Q 9.90625 32.125 9.90625 32.421875 
L 9.90625 65.828125 
Q 9.90625 66.0625 10.21875 66.328125 
Q 10.546875 66.609375 10.890625 66.609375 
L 11.1875 66.609375 
Q 17.921875 63.375 25.484375 63.375 
Q 32.90625 63.375 39.796875 66.609375 
L 40.09375 66.609375 
Q 40.4375 66.609375 40.71875 66.359375 
Q 41.015625 66.109375 41.015625 65.828125 
L 41.015625 64.890625 
Q 41.015625 64.40625 40.828125 64.40625 
Q 37.40625 59.859375 32.25 57.3125 
Q 27.09375 54.78125 21.578125 54.78125 
Q 17.578125 54.78125 13.375 55.90625 
L 13.375 37.015625 
Q 16.703125 39.703125 19.3125 40.84375 
Q 21.921875 42 25.984375 42 
Q 31.5 42 35.859375 38.8125 
Q 40.234375 35.640625 42.578125 30.53125 
Q 44.921875 25.4375 44.921875 20.125 
Q 44.921875 14.109375 41.96875 8.984375 
Q 39.015625 3.859375 33.9375 0.828125 
Q 28.859375 -2.203125 22.90625 -2.203125 
Q 17.96875 -2.203125 13.84375 0.328125 
Q 9.71875 2.875 7.34375 7.171875 
Q 4.984375 11.46875 4.984375 16.3125 
Q 4.984375 18.5625 6.4375 19.96875 
Q 7.90625 21.390625 10.109375 21.390625 
Q 12.3125 21.390625 13.796875 19.9375 
Q 15.28125 18.5 15.28125 16.3125 
Q 15.28125 14.15625 13.796875 12.671875 
Q 12.3125 11.1875 10.109375 11.1875 
Q 9.765625 11.1875 9.328125 11.25 
Q 8.890625 11.328125 8.6875 11.375 
z
" id="Cmr10-53"/>
      </defs>
      <g style="fill:#333333;" transform="translate(90.846323 266.326875)scale(0.12 -0.12)">
       <use xlink:href="#Cmr10-45"/>
       <use x="33.300781" xlink:href="#Cmr10-53"/>
      </g>
     </g>
    </g>
    <g id="xtick_3">
     <g id="line2d_5">
      <path clip-path="url(#p7241746673)" d="M 147.799564 252 
L 147.799564 34.56 
" style="fill:none;stroke:#b0b0b0;stroke-linecap:square;stroke-opacity:0.3;"/>
     </g>
     <g id="line2d_6"/>
     <g id="text_3">
      <!-- 0 -->
      <g style="fill:#333333;" transform="translate(144.799564 266.326875)scale(0.12 -0.12)">
       <use xlink:href="#Cmr10-48"/>
      </g>
     </g>
    </g>
    <g id="xtick_4">
     <g id="line2d_7">
      <path clip-path="url(#p7241746673)" d="M 199.754992 252 
L 199.754992 34.56 
" style="fill:none;stroke:#b0b0b0;stroke-linecap:square;stroke-opacity:0.3;"/>
     </g>
     <g id="line2d_8"/>
     <g id="text_4">
      <!-- 5 -->
      <g style="fill:#333333;" transform="translate(196.754992 266.326875)scale(0.12 -0.12)">
       <use xlink:href="#Cmr10-53"/>
      </g>
     </g>
    </g>
    <g id="xtick_5">
     <g id="line2d_9">
      <path clip-path="url(#p7241746673)" d="M 251.710421 252 
L 251.710421 34.56 
" style="fill:none;stroke:#b0b0b0;stroke-linecap:square;stroke-opacity:0.3;"/>
     </g>
     <g id="line2d_10"/>
     <g id="text_5">
      <!-- 10 -->
      <g style="fill:#333333;" transform="translate(245.710421 266.326875)scale(0.12 -0.12)">
       <use xlink:href="#Cmr10-49"/>
       <use x="50" xlink:href="#Cmr10-48"/>
      </g>
     </g>
    </g>
    <g id="text_6">
     <!-- $x$ -->
     <defs>
      <path d="M 7.8125 2.875 
Q 9.578125 1.515625 12.796875 1.515625 
Q 15.921875 1.515625 18.3125 4.515625 
Q 20.703125 7.515625 21.578125 11.078125 
L 26.125 28.8125 
Q 27.203125 33.640625 27.203125 35.40625 
Q 27.203125 37.890625 25.8125 39.75 
Q 24.421875 41.609375 21.921875 41.609375 
Q 18.75 41.609375 15.96875 39.625 
Q 13.1875 37.640625 11.28125 34.59375 
Q 9.375 31.546875 8.59375 28.421875 
Q 8.40625 27.78125 7.8125 27.78125 
L 6.59375 27.78125 
Q 5.8125 27.78125 5.8125 28.71875 
L 5.8125 29 
Q 6.78125 32.71875 9.125 36.25 
Q 11.46875 39.796875 14.859375 41.984375 
Q 18.265625 44.1875 22.125 44.1875 
Q 25.78125 44.1875 28.734375 42.234375 
Q 31.6875 40.28125 32.90625 36.921875 
Q 34.625 39.984375 37.28125 42.078125 
Q 39.9375 44.1875 43.109375 44.1875 
Q 45.265625 44.1875 47.5 43.421875 
Q 49.75 42.671875 51.171875 41.109375 
Q 52.59375 39.546875 52.59375 37.203125 
Q 52.59375 34.671875 50.953125 32.828125 
Q 49.3125 31 46.78125 31 
Q 45.171875 31 44.09375 32.03125 
Q 43.015625 33.0625 43.015625 34.625 
Q 43.015625 36.71875 44.453125 38.296875 
Q 45.90625 39.890625 47.90625 40.1875 
Q 46.09375 41.609375 42.921875 41.609375 
Q 39.703125 41.609375 37.328125 38.625 
Q 34.96875 35.640625 33.984375 31.984375 
L 29.59375 14.3125 
Q 28.515625 10.296875 28.515625 7.71875 
Q 28.515625 5.171875 29.953125 3.34375 
Q 31.390625 1.515625 33.796875 1.515625 
Q 38.484375 1.515625 42.15625 5.640625 
Q 45.84375 9.765625 47.015625 14.703125 
Q 47.21875 15.28125 47.796875 15.28125 
L 49.03125 15.28125 
Q 49.421875 15.28125 49.65625 15.015625 
Q 49.90625 14.75 49.90625 14.40625 
Q 49.90625 14.3125 49.8125 14.109375 
Q 48.390625 8.15625 43.84375 3.515625 
Q 39.3125 -1.125 33.59375 -1.125 
Q 29.9375 -1.125 26.984375 0.84375 
Q 24.03125 2.828125 22.796875 6.203125 
Q 21.234375 3.265625 18.46875 1.0625 
Q 15.71875 -1.125 12.59375 -1.125 
Q 10.453125 -1.125 8.171875 -0.359375 
Q 5.90625 0.390625 4.484375 1.953125 
Q 3.078125 3.515625 3.078125 5.90625 
Q 3.078125 8.25 4.703125 10.171875 
Q 6.34375 12.109375 8.796875 12.109375 
Q 10.453125 12.109375 11.578125 11.109375 
Q 12.703125 10.109375 12.703125 8.5 
Q 12.703125 6.390625 11.296875 4.828125 
Q 9.90625 3.265625 7.8125 2.875 
z
" id="Cmmi10-120"/>
     </defs>
     <g transform="translate(144.12 280.980625)scale(0.12 -0.12)">
      <use transform="translate(0 0.8125)" xlink:href="#Cmmi10-120"/>
     </g>
    </g>
   </g>
   <g id="matplotlib.axis_2">
    <g id="ytick_1">
     <g id="line2d_11">
      <path clip-path="url(#p7241746673)" d="M 36 228.665949 
L 259.2 228.665949 
" style="fill:none;stroke:#b0b0b0;stroke-linecap:square;stroke-opacity:0.3;"/>
     </g>
     <g id="line2d_12"/>
     <g id="text_7">
      <!-- -30 -->
      <defs>
       <path d="M 9.515625 7.71875 
Q 11.859375 4.296875 15.8125 2.640625 
Q 19.78125 0.984375 24.3125 0.984375 
Q 30.125 0.984375 32.5625 5.9375 
Q 35.015625 10.890625 35.015625 17.1875 
Q 35.015625 20.015625 34.5 22.84375 
Q 33.984375 25.6875 32.765625 28.125 
Q 31.546875 30.5625 29.421875 32.03125 
Q 27.296875 33.5 24.21875 33.5 
L 17.578125 33.5 
Q 16.703125 33.5 16.703125 34.421875 
L 16.703125 35.296875 
Q 16.703125 36.078125 17.578125 36.078125 
L 23.09375 36.53125 
Q 26.609375 36.53125 28.921875 39.15625 
Q 31.25 41.796875 32.328125 45.578125 
Q 33.40625 49.359375 33.40625 52.78125 
Q 33.40625 57.5625 31.15625 60.640625 
Q 28.90625 63.71875 24.3125 63.71875 
Q 20.515625 63.71875 17.046875 62.28125 
Q 13.578125 60.84375 11.53125 57.90625 
Q 11.71875 57.953125 11.859375 57.984375 
Q 12.015625 58.015625 12.203125 58.015625 
Q 14.453125 58.015625 15.96875 56.453125 
Q 17.484375 54.890625 17.484375 52.6875 
Q 17.484375 50.53125 15.96875 48.96875 
Q 14.453125 47.40625 12.203125 47.40625 
Q 10.015625 47.40625 8.453125 48.96875 
Q 6.890625 50.53125 6.890625 52.6875 
Q 6.890625 56.984375 9.46875 60.15625 
Q 12.0625 63.328125 16.140625 64.96875 
Q 20.21875 66.609375 24.3125 66.609375 
Q 27.34375 66.609375 30.703125 65.703125 
Q 34.078125 64.796875 36.8125 63.109375 
Q 39.546875 61.421875 41.28125 58.78125 
Q 43.015625 56.15625 43.015625 52.78125 
Q 43.015625 48.578125 41.140625 45.015625 
Q 39.265625 41.453125 35.984375 38.859375 
Q 32.71875 36.28125 28.8125 35.015625 
Q 33.15625 34.1875 37.0625 31.734375 
Q 40.96875 29.296875 43.328125 25.484375 
Q 45.703125 21.6875 45.703125 17.28125 
Q 45.703125 11.765625 42.671875 7.296875 
Q 39.65625 2.828125 34.71875 0.3125 
Q 29.78125 -2.203125 24.3125 -2.203125 
Q 19.625 -2.203125 14.90625 -0.40625 
Q 10.203125 1.375 7.203125 4.9375 
Q 4.203125 8.5 4.203125 13.484375 
Q 4.203125 15.96875 5.859375 17.625 
Q 7.515625 19.28125 10.015625 19.28125 
Q 11.625 19.28125 12.96875 18.53125 
Q 14.3125 17.78125 15.0625 16.40625 
Q 15.828125 15.046875 15.828125 13.484375 
Q 15.828125 11.03125 14.109375 9.375 
Q 12.40625 7.71875 10.015625 7.71875 
z
" id="Cmr10-51"/>
      </defs>
      <g style="fill:#333333;" transform="translate(14.004375 232.829387)scale(0.12 -0.12)">
       <use xlink:href="#Cmr10-45"/>
       <use x="33.300781" xlink:href="#Cmr10-51"/>
       <use x="83.300781" xlink:href="#Cmr10-48"/>
      </g>
     </g>
    </g>
    <g id="ytick_2">
     <g id="line2d_13">
      <path clip-path="url(#p7241746673)" d="M 36 186.715706 
L 259.2 186.715706 
" style="fill:none;stroke:#b0b0b0;stroke-linecap:square;stroke-opacity:0.3;"/>
     </g>
     <g id="line2d_14"/>
     <g id="text_8">
      <!-- -20 -->
      <defs>
       <path d="M 4.984375 0 
L 4.984375 2.6875 
Q 4.984375 2.9375 5.171875 3.21875 
L 20.703125 20.40625 
Q 24.21875 24.21875 26.40625 26.796875 
Q 28.609375 29.390625 30.75 32.765625 
Q 32.90625 36.140625 34.15625 39.625 
Q 35.40625 43.109375 35.40625 47.015625 
Q 35.40625 51.125 33.890625 54.859375 
Q 32.375 58.59375 29.375 60.84375 
Q 26.375 63.09375 22.125 63.09375 
Q 17.78125 63.09375 14.3125 60.46875 
Q 10.84375 57.859375 9.421875 53.71875 
Q 9.8125 53.8125 10.5 53.8125 
Q 12.75 53.8125 14.328125 52.296875 
Q 15.921875 50.78125 15.921875 48.390625 
Q 15.921875 46.09375 14.328125 44.5 
Q 12.75 42.921875 10.5 42.921875 
Q 8.15625 42.921875 6.5625 44.546875 
Q 4.984375 46.1875 4.984375 48.390625 
Q 4.984375 52.15625 6.390625 55.4375 
Q 7.8125 58.734375 10.46875 61.296875 
Q 13.140625 63.875 16.484375 65.234375 
Q 19.828125 66.609375 23.578125 66.609375 
Q 29.296875 66.609375 34.21875 64.1875 
Q 39.15625 61.765625 42.03125 57.34375 
Q 44.921875 52.9375 44.921875 47.015625 
Q 44.921875 42.671875 43.015625 38.765625 
Q 41.109375 34.859375 38.125 31.65625 
Q 35.15625 28.46875 30.515625 24.40625 
Q 25.875 20.359375 24.421875 19 
L 13.09375 8.109375 
L 22.703125 8.109375 
Q 29.78125 8.109375 34.546875 8.21875 
Q 39.3125 8.34375 39.59375 8.59375 
Q 40.765625 9.859375 42 17.828125 
L 44.921875 17.828125 
L 42.09375 0 
z
" id="Cmr10-50"/>
      </defs>
      <g style="fill:#333333;" transform="translate(14.004375 190.879144)scale(0.12 -0.12)">
       <use xlink:href="#Cmr10-45"/>
       <use x="33.300781" xlink:href="#Cmr10-50"/>
       <use x="83.300781" xlink:href="#Cmr10-48"/>
      </g>
     </g>
    </g>
    <g id="ytick_3">
     <g id="line2d_15">
      <path clip-path="url(#p7241746673)" d="M 36 144.765463 
L 259.2 144.765463 
" style="fill:none;stroke:#b0b0b0;stroke-linecap:square;stroke-opacity:0.3;"/>
     </g>
     <g id="line2d_16"/>
     <g id="text_9">
      <!-- -10 -->
      <g style="fill:#333333;" transform="translate(14.004375 148.928901)scale(0.12 -0.12)">
       <use xlink:href="#Cmr10-45"/>
       <use x="33.300781" xlink:href="#Cmr10-49"/>
       <use x="83.300781" xlink:href="#Cmr10-48"/>
      </g>
     </g>
    </g>
    <g id="ytick_4">
     <g id="line2d_17">
      <path clip-path="url(#p7241746673)" d="M 36 102.81522 
L 259.2 102.81522 
" style="fill:none;stroke:#b0b0b0;stroke-linecap:square;stroke-opacity:0.3;"/>
     </g>
     <g id="line2d_18"/>
     <g id="text_10">
      <!-- 0 -->
      <g style="fill:#333333;" transform="translate(24 106.978657)scale(0.12 -0.12)">
       <use xlink:href="#Cmr10-48"/>
      </g>
     </g>
    </g>
    <g id="ytick_5">
     <g id="line2d_19">
      <path clip-path="url(#p7241746673)" d="M 36 60.864977 
L 259.2 60.864977 
" style="fill:none;stroke:#b0b0b0;stroke-linecap:square;stroke-opacity:0.3;"/>
     </g>
     <g id="line2d_20"/>
     <g id="text_11">
      <!-- 10 -->
      <g style="fill:#333333;" transform="translate(18 65.028414)scale(0.12 -0.12)">
       <use xlink:href="#Cmr10-49"/>
       <use x="50" xlink:href="#Cmr10-48"/>
      </g>
     </g>
    </g>
    <g id="text_12">
     <!-- $y$ -->
     <defs>
      <path d="M 8.40625 -14.3125 
Q 10.5 -17.921875 15.71875 -17.921875 
Q 20.453125 -17.921875 23.921875 -14.59375 
Q 27.390625 -11.28125 29.515625 -6.5625 
Q 31.640625 -1.859375 32.8125 3.078125 
Q 28.375 -1.125 23.1875 -1.125 
Q 19.234375 -1.125 16.453125 0.234375 
Q 13.671875 1.609375 12.125 4.3125 
Q 10.59375 7.03125 10.59375 10.890625 
Q 10.59375 14.15625 11.46875 17.59375 
Q 12.359375 21.046875 13.9375 25.265625 
Q 15.53125 29.5 16.703125 32.625 
Q 18.015625 36.28125 18.015625 38.625 
Q 18.015625 41.609375 15.828125 41.609375 
Q 11.859375 41.609375 9.296875 37.53125 
Q 6.734375 33.453125 5.515625 28.421875 
Q 5.328125 27.78125 4.6875 27.78125 
L 3.515625 27.78125 
Q 2.6875 27.78125 2.6875 28.71875 
L 2.6875 29 
Q 4.296875 34.96875 7.609375 39.578125 
Q 10.9375 44.1875 16.015625 44.1875 
Q 19.578125 44.1875 22.046875 41.84375 
Q 24.515625 39.5 24.515625 35.890625 
Q 24.515625 34.03125 23.6875 31.984375 
Q 23.25 30.765625 21.6875 26.65625 
Q 20.125 22.5625 19.28125 19.875 
Q 18.453125 17.1875 17.921875 14.59375 
Q 17.390625 12.015625 17.390625 9.421875 
Q 17.390625 6.109375 18.796875 3.8125 
Q 20.21875 1.515625 23.296875 1.515625 
Q 29.5 1.515625 34.421875 9.078125 
L 42 39.890625 
Q 42.328125 41.21875 43.546875 42.15625 
Q 44.78125 43.109375 46.1875 43.109375 
Q 47.40625 43.109375 48.3125 42.328125 
Q 49.21875 41.546875 49.21875 40.28125 
Q 49.21875 39.703125 49.125 39.5 
L 39.203125 -0.296875 
Q 37.890625 -5.421875 34.375 -10.109375 
Q 30.859375 -14.796875 25.90625 -17.65625 
Q 20.953125 -20.515625 15.578125 -20.515625 
Q 12.984375 -20.515625 10.4375 -19.5 
Q 7.90625 -18.5 6.34375 -16.5 
Q 4.78125 -14.5 4.78125 -11.8125 
Q 4.78125 -9.078125 6.390625 -7.078125 
Q 8.015625 -5.078125 10.6875 -5.078125 
Q 12.3125 -5.078125 13.40625 -6.078125 
Q 14.5 -7.078125 14.5 -8.6875 
Q 14.5 -10.984375 12.78125 -12.6875 
Q 11.078125 -14.40625 8.796875 -14.40625 
Q 8.6875 -14.359375 8.59375 -14.328125 
Q 8.5 -14.3125 8.40625 -14.3125 
z
" id="Cmmi10-121"/>
     </defs>
     <g transform="translate(7.484375 146.28)rotate(-90)scale(0.12 -0.12)">
      <use transform="translate(0 0.8125)" xlink:href="#Cmmi10-121"/>
     </g>
    </g>
   </g>
   <g id="PolyCollection_1">
    <path clip-path="url(#p7241746673)" d="M 46.145455 66.855518 
L 46.145455 219.704482 
L 47.296634 212.455716 
L 47.577508 210.771563 
L 48.657411 204.585358 
L 48.87274 203.404624 
L 49.668374 199.185595 
L 50.739897 193.843813 
L 51.361085 190.914725 
L 51.508808 190.235381 
L 51.546155 190.064668 
L 51.794347 188.940674 
L 53.165845 183.043483 
L 54.049405 179.508523 
L 57.91454 166.131681 
L 59.987959 160.133732 
L 60.100582 159.828098 
L 61.229331 156.869431 
L 61.793679 155.45868 
L 62.831765 152.974768 
L 65.388303 147.410403 
L 69.747748 139.408881 
L 69.98868 139.012342 
L 70.994556 137.401432 
L 71.681615 136.340087 
L 72.238035 135.50247 
L 73.450464 133.741144 
L 73.596013 133.535286 
L 74.328061 132.51726 
L 74.346414 132.492104 
L 75.881769 129.766178 
L 76.066407 129.430223 
L 77.115774 127.521856 
L 77.542489 126.746278 
L 78.312513 125.347371 
L 79.053171 124.002579 
L 84.426793 114.268151 
L 86.060268 111.303179 
L 86.358943 110.74541 
L 87.506361 108.60587 
L 88.121097 107.461683 
L 88.911892 105.991892 
L 92.811352 97.871636 
L 94.838351 94.358016 
L 101.787677 89.159238 
L 103.31194 89.312479 
L 105.660865 89.81773 
L 106.637923 90.168009 
L 108.507565 91.189979 
L 108.7054 91.307472 
L 109.985105 92.111396 
L 111.286256 93.088167 
L 111.449463 93.210715 
L 111.694678 93.394852 
L 114.962635 96.259511 
L 116.237181 97.443316 
L 116.803961 97.971143 
L 117.835246 98.931618 
L 118.281092 99.346878 
L 118.695731 99.720025 
L 119.865272 100.816634 
L 120.190086 101.097908 
L 120.720852 101.557531 
L 122.243729 102.875805 
L 122.872491 103.35928 
L 123.112072 103.544254 
L 125.30163 105.104504 
L 126.638716 105.90346 
L 126.959051 106.074881 
L 127.480494 106.348422 
L 127.505291 106.361342 
L 128.848997 107.00273 
L 129.222099 107.177827 
L 129.557569 107.322605 
L 129.942245 107.429647 
L 131.417963 107.840476 
L 132.223783 107.984961 
L 132.314691 107.996472 
L 133.656703 108.079318 
L 134.564887 108.126317 
L 136.543147 107.928332 
L 136.760646 107.8858 
L 137.101918 107.819072 
L 137.561637 107.729203 
L 138.194593 107.587638 
L 138.868871 107.412922 
L 140.849893 106.688133 
L 141.306401 106.493726 
L 141.897105 106.242547 
L 142.537332 105.927464 
L 145.642155 104.066611 
L 147.728927 104.956925 
L 147.776359 105.042421 
L 147.867172 105.225684 
L 147.876989 105.246879 
L 147.977831 105.479488 
L 149.875963 110.616122 
L 150.190414 110.901471 
L 150.659964 111.390375 
L 151.345782 112.252823 
L 151.89105 112.884346 
L 153.72427 113.236859 
L 154.051564 113.154452 
L 154.385363 113.071691 
L 155.068003 112.706578 
L 155.384856 112.506313 
L 158.276227 110.623969 
L 158.818444 110.258781 
L 158.939255 110.196841 
L 159.160605 110.097196 
L 159.948878 109.77798 
L 160.732331 109.322555 
L 160.850123 109.242576 
L 160.904914 109.205452 
L 161.850928 108.572659 
L 162.711918 108.467063 
L 163.521689 110.01397 
L 163.835644 110.613784 
L 164.361027 110.71698 
L 164.488148 110.732965 
L 166.076249 110.899193 
L 166.137512 110.901593 
L 166.438235 110.913737 
L 167.243952 110.949334 
L 168.279427 111.194579 
L 169.478003 111.597946 
L 169.971955 111.765698 
L 170.214393 111.848346 
L 170.736104 112.026898 
L 172.412577 112.831487 
L 173.707913 113.662977 
L 174.694055 114.236172 
L 174.83434 114.314941 
L 178.203086 117.281417 
L 181.273777 120.671878 
L 181.654 121.116066 
L 184.360481 124.285322 
L 184.595043 124.560621 
L 186.432841 126.721054 
L 187.457407 127.928216 
L 187.749714 128.220662 
L 192.541808 128.058935 
L 194.166167 127.296618 
L 194.620517 127.086258 
L 195.417575 126.72018 
L 197.510471 125.776437 
L 198.095043 125.517239 
L 198.591703 125.29849 
L 199.345592 124.770929 
L 202.717829 117.30634 
L 204.693648 113.384851 
L 204.932424 112.938862 
L 206.44534 110.316162 
L 207.384621 108.796583 
L 208.025082 107.611909 
L 208.721696 106.324242 
L 208.757873 106.257397 
L 209.443878 104.990257 
L 209.857914 104.225892 
L 210.619512 102.820685 
L 211.40725 101.368323 
L 212.01934 100.240541 
L 212.075955 100.136263 
L 212.50537 99.345505 
L 212.646955 99.084832 
L 213.721385 97.170445 
L 214.763142 95.328897 
L 214.952138 94.994811 
L 215.960771 93.212055 
L 217.298384 90.848104 
L 217.715235 90.111474 
L 222.892348 80.965432 
L 224.282599 79.839111 
L 224.81101 79.41453 
L 226.105328 78.374561 
L 228.514376 76.438967 
L 228.985869 76.06016 
L 229.144931 75.932344 
L 229.975683 75.264886 
L 231.258866 74.233942 
L 231.655789 73.915042 
L 232.585522 73.168089 
L 233.633981 73.497149 
L 235.538126 76.436134 
L 235.920219 77.02605 
L 238.510243 81.883938 
L 240.862423 87.323294 
L 240.902031 87.416813 
L 241.308539 88.380693 
L 241.714911 89.351731 
L 243.277755 93.161892 
L 244.440689 96.083101 
L 245.016839 97.560492 
L 246.035242 100.225156 
L 246.358347 101.085682 
L 246.424653 101.263199 
L 246.777459 102.213312 
L 247.850815 105.163687 
L 248.296378 106.416421 
L 248.769666 107.766313 
L 249.054545 108.588724 
L 249.054545 87.289999 
L 249.054545 87.289999 
L 248.769666 87.031834 
L 248.296378 86.586475 
L 247.850815 86.149203 
L 246.777459 85.02821 
L 246.424653 84.640093 
L 246.358347 84.566155 
L 246.035242 84.201079 
L 245.016839 83.002891 
L 244.440689 82.294883 
L 243.277755 80.804991 
L 241.714911 78.687186 
L 241.308539 78.116844 
L 240.902031 77.538759 
L 240.862423 77.482048 
L 238.510243 73.999408 
L 235.920219 69.896573 
L 235.538126 69.278058 
L 233.633981 66.194833 
L 232.585522 65.834426 
L 231.655789 66.593136 
L 231.258866 66.917046 
L 229.975683 67.964183 
L 229.144931 68.6421 
L 228.985869 68.771909 
L 228.514376 69.156652 
L 226.105328 71.122456 
L 224.81101 72.178608 
L 224.282599 72.609778 
L 222.892348 73.75283 
L 217.715235 82.633535 
L 217.298384 83.348378 
L 215.960771 85.641996 
L 214.952138 87.37129 
L 214.763142 87.695309 
L 213.721385 89.481164 
L 212.646955 91.315611 
L 212.50537 91.553275 
L 212.075955 92.273848 
L 212.01934 92.368825 
L 211.40725 93.395342 
L 210.619512 94.71546 
L 209.857914 95.990721 
L 209.443878 96.683581 
L 208.757873 97.830864 
L 208.721696 97.891339 
L 208.025082 99.055431 
L 207.384621 100.124894 
L 206.44534 101.419264 
L 204.932424 102.819344 
L 204.693648 103.01311 
L 202.717829 104.391868 
L 199.345592 105.973967 
L 198.591703 105.991004 
L 198.095043 105.981283 
L 197.510471 105.968115 
L 195.417575 105.905219 
L 194.620517 105.874606 
L 194.166167 105.855464 
L 192.541808 105.776796 
L 187.749714 104.182663 
L 187.457407 103.924171 
L 186.432841 103.024231 
L 184.595043 101.405066 
L 184.360481 101.197959 
L 181.654 98.8011 
L 181.273777 98.463323 
L 178.203086 95.54578 
L 174.83434 92.725016 
L 174.694055 92.633305 
L 173.707913 91.94575 
L 172.412577 90.868285 
L 170.736104 89.558062 
L 170.214393 89.171391 
L 169.971955 88.991372 
L 169.478003 88.623964 
L 168.279427 87.72878 
L 167.243952 86.999144 
L 166.438235 86.500413 
L 166.137512 86.313124 
L 166.076249 86.274893 
L 164.488148 85.258331 
L 164.361027 85.175855 
L 163.835644 84.843502 
L 163.521689 84.285195 
L 162.711918 82.845015 
L 161.850928 82.198983 
L 160.904914 81.926133 
L 160.850123 81.909858 
L 160.732331 81.874699 
L 159.948878 81.760499 
L 159.160605 81.858905 
L 158.939255 81.894523 
L 158.818444 81.906525 
L 158.276227 81.874569 
L 155.384856 82.876679 
L 155.068003 83.017028 
L 154.385363 83.454227 
L 154.051564 83.811318 
L 153.72427 84.160198 
L 151.89105 87.132681 
L 151.345782 88.65981 
L 150.659964 90.661306 
L 150.190414 91.930063 
L 149.875963 92.737669 
L 147.977831 99.718908 
L 147.876989 100.037526 
L 147.867172 100.067093 
L 147.776359 100.330876 
L 147.728927 100.463773 
L 145.642155 103.51235 
L 142.537332 105.643344 
L 141.897105 105.976967 
L 141.306401 106.243116 
L 140.849893 106.448509 
L 138.868871 107.209848 
L 138.194593 107.390441 
L 137.561637 107.536411 
L 137.101918 107.629008 
L 136.760646 107.697737 
L 136.543147 107.741534 
L 134.564887 107.945078 
L 133.656703 107.899452 
L 132.314691 107.818733 
L 132.223783 107.807417 
L 131.417963 107.661868 
L 129.942245 107.240594 
L 129.557569 107.130731 
L 129.222099 106.985134 
L 128.848997 106.809582 
L 127.505291 106.165843 
L 127.480494 106.152808 
L 126.959051 105.876848 
L 126.638716 105.703917 
L 125.30163 104.8984 
L 123.112072 103.325403 
L 122.872491 103.138358 
L 122.243729 102.649577 
L 120.720852 101.326203 
L 120.190086 100.864785 
L 119.865272 100.582406 
L 118.695731 99.485099 
L 118.281092 99.111476 
L 117.835246 98.693464 
L 116.803961 97.726498 
L 116.237181 97.19503 
L 114.962635 96.002926 
L 111.694678 93.117701 
L 111.449463 92.930766 
L 111.286256 92.80634 
L 109.985105 91.814141 
L 108.7054 90.988453 
L 108.507565 90.867701 
L 106.637923 89.81145 
L 105.660865 89.436585 
L 103.31194 88.803521 
L 101.787677 88.511309 
L 94.838351 88.788291 
L 92.811352 87.635433 
L 88.911892 91.95187 
L 88.121097 93.164598 
L 87.506361 94.105701 
L 86.358943 95.858422 
L 86.060268 96.313815 
L 84.426793 98.925239 
L 79.053171 107.553128 
L 78.312513 108.739255 
L 77.542489 109.971608 
L 77.115774 110.654176 
L 76.066407 112.331597 
L 75.881769 112.626582 
L 74.346414 114.83784 
L 74.328061 114.838232 
L 73.596013 114.839645 
L 73.450464 114.836486 
L 72.238035 114.76357 
L 71.681615 114.70083 
L 70.994556 114.596281 
L 69.98868 114.386128 
L 69.747748 114.325018 
L 65.388303 112.386614 
L 62.831765 110.377887 
L 61.793679 109.337739 
L 61.229331 108.711871 
L 60.100582 107.323105 
L 59.987959 107.174075 
L 57.91454 104.059861 
L 54.049405 96.058661 
L 53.165845 93.752552 
L 51.794347 89.762841 
L 51.546155 88.984027 
L 51.508808 88.865274 
L 51.361085 88.391373 
L 50.739897 86.326234 
L 49.668374 82.474724 
L 48.87274 79.362277 
L 48.657411 78.481018 
L 47.577508 73.796751 
L 47.296634 72.503209 
L 46.145455 66.855518 
z
" style="fill:#1f77b4;fill-opacity:0.6;"/>
   </g>
   <g id="PolyCollection_2">
    <path clip-path="url(#p7241746673)" d="M 46.145455 44.443636 
L 46.145455 242.116364 
L 47.296634 232.976621 
L 47.577508 230.855854 
L 48.657411 223.075733 
L 48.87274 221.592654 
L 49.668374 216.298627 
L 50.739897 209.608856 
L 51.361085 205.947482 
L 51.508808 205.099039 
L 51.546155 204.885881 
L 51.794347 203.482881 
L 53.165845 196.135997 
L 54.049405 191.744579 
L 57.91454 175.233121 
L 59.987959 167.89908 
L 60.100582 167.526781 
L 61.229331 163.930659 
L 61.793679 162.221284 
L 62.831765 159.220646 
L 65.388303 152.545857 
L 69.747748 143.086868 
L 69.98868 142.623224 
L 70.994556 140.745297 
L 71.681615 139.512999 
L 72.238035 138.543366 
L 73.450464 136.513089 
L 73.596013 136.276584 
L 74.328061 135.109494 
L 74.346414 135.080706 
L 75.881769 132.279316 
L 76.066407 131.937353 
L 77.115774 129.995125 
L 77.542489 129.205907 
L 78.312513 127.782579 
L 79.053171 126.414523 
L 84.426793 116.517846 
L 86.060268 113.501034 
L 86.358943 112.928253 
L 87.506361 110.731995 
L 88.121097 109.55803 
L 88.911892 108.050547 
L 92.811352 99.372546 
L 94.838351 95.174692 
L 101.787677 89.254243 
L 103.31194 89.387106 
L 105.660865 89.873616 
L 106.637923 90.22029 
L 108.507565 91.237234 
L 108.7054 91.354249 
L 109.985105 92.154982 
L 111.286256 93.12949 
L 111.449463 93.251763 
L 111.694678 93.43549 
L 114.962635 96.297134 
L 116.237181 97.479722 
L 116.803961 98.007015 
L 117.835246 98.966538 
L 118.281092 99.381395 
L 118.695731 99.754472 
L 119.865272 100.850978 
L 120.190086 101.13209 
L 120.720852 101.59145 
L 122.243729 102.908977 
L 122.872491 103.391673 
L 123.112072 103.576343 
L 125.30163 105.134724 
L 126.638716 105.932719 
L 126.959051 106.103918 
L 127.480494 106.377104 
L 127.505291 106.390008 
L 128.848997 107.031051 
L 129.222099 107.206081 
L 129.557569 107.350739 
L 129.942245 107.457367 
L 131.417963 107.866664 
L 132.223783 108.010994 
L 132.314691 108.022534 
L 133.656703 108.105691 
L 134.564887 108.152891 
L 136.543147 107.955722 
L 136.760646 107.913375 
L 137.101918 107.846941 
L 137.561637 107.757472 
L 138.194593 107.616553 
L 138.868871 107.442698 
L 140.849893 106.723268 
L 141.306401 106.530473 
L 141.897105 106.281488 
L 142.537332 105.969124 
L 145.642155 104.14788 
L 147.728927 105.615745 
L 147.776359 105.733264 
L 147.867172 105.982076 
L 147.876989 106.010714 
L 147.977831 106.324148 
L 149.875963 113.237597 
L 150.190414 113.683203 
L 150.659964 114.429829 
L 151.345782 115.712211 
L 151.89105 116.660251 
L 153.72427 117.500299 
L 154.051564 117.456966 
L 154.385363 117.414429 
L 155.068003 117.059885 
L 155.384856 116.850835 
L 158.276227 114.839425 
L 158.818444 114.416005 
L 158.939255 114.346742 
L 159.160605 114.237709 
L 159.948878 113.886116 
L 160.732331 113.347169 
L 160.850123 113.250307 
L 160.904914 113.205354 
L 161.850928 112.439768 
L 162.711918 112.223963 
L 163.521689 113.786518 
L 163.835644 114.392419 
L 164.361027 114.462015 
L 164.488148 114.46825 
L 166.076249 114.509795 
L 166.137512 114.506942 
L 166.438235 114.493405 
L 167.243952 114.461093 
L 168.279427 114.635313 
L 169.478003 114.966565 
L 169.971955 115.105042 
L 170.214393 115.173414 
L 170.736104 115.32145 
L 172.412577 116.051898 
L 173.707913 116.847322 
L 174.694055 117.403748 
L 174.83434 117.48062 
L 178.203086 120.46846 
L 181.273777 123.928265 
L 181.654 124.388056 
L 184.360481 127.670567 
L 184.595043 127.955865 
L 186.432841 130.195662 
L 187.457407 131.447872 
L 187.749714 131.745296 
L 192.541808 131.326112 
L 194.166167 130.440483 
L 194.620517 130.196472 
L 195.417575 129.772228 
L 197.510471 128.680884 
L 198.095043 128.381749 
L 198.591703 128.1295 
L 199.345592 127.527082 
L 202.717829 119.199958 
L 204.693648 114.905635 
L 204.932424 114.422662 
L 206.44534 111.620693 
L 207.384621 110.068092 
L 208.025082 108.866525 
L 208.721696 107.560738 
L 208.757873 107.49296 
L 209.443878 106.208245 
L 209.857914 105.433395 
L 210.619512 104.009135 
L 211.40725 102.537382 
L 212.01934 101.394752 
L 212.075955 101.28911 
L 212.50537 100.488061 
L 212.646955 100.224015 
L 213.721385 98.297906 
L 214.763142 96.448191 
L 214.952138 96.11263 
L 215.960771 94.322034 
L 217.298384 91.947771 
L 217.715235 91.207946 
L 222.892348 82.022999 
L 224.282599 80.899131 
L 224.81101 80.475516 
L 226.105328 79.43792 
L 228.514376 77.506756 
L 228.985869 77.128818 
L 229.144931 77.001295 
L 229.975683 76.335371 
L 231.258866 75.306801 
L 231.655789 74.988635 
L 232.585522 74.243407 
L 233.633981 74.56787 
L 235.538126 77.485705 
L 235.920219 78.071428 
L 238.510243 83.040028 
L 240.862423 88.766292 
L 240.902031 88.865208 
L 241.308539 89.885656 
L 241.714911 90.915448 
L 243.277755 94.973755 
L 244.440689 98.104834 
L 245.016839 99.695039 
L 246.035242 102.574727 
L 246.358347 103.507901 
L 246.424653 103.700606 
L 246.777459 104.733123 
L 247.850815 107.951736 
L 248.296378 109.324039 
L 248.769666 110.80656 
L 249.054545 111.711705 
L 249.054545 84.167018 
L 249.054545 84.167018 
L 248.769666 83.991587 
L 248.296378 83.678857 
L 247.850815 83.361155 
L 246.777459 82.508399 
L 246.424653 82.202687 
L 246.358347 82.143936 
L 246.035242 81.851508 
L 245.016839 80.868345 
L 244.440689 80.27315 
L 243.277755 78.993128 
L 241.714911 77.123469 
L 241.308539 76.61188 
L 240.902031 76.090364 
L 240.862423 76.03905 
L 238.510243 72.843318 
L 235.920219 68.851195 
L 235.538126 68.228487 
L 233.633981 65.124112 
L 232.585522 64.759109 
L 231.655789 65.519543 
L 231.258866 65.844187 
L 229.975683 66.893698 
L 229.144931 67.57315 
L 228.985869 67.70325 
L 228.514376 68.088864 
L 226.105328 70.059097 
L 224.81101 71.117622 
L 224.282599 71.549757 
L 222.892348 72.695263 
L 217.715235 81.537063 
L 217.298384 82.248711 
L 215.960771 84.532016 
L 214.952138 86.253471 
L 214.763142 86.576015 
L 213.721385 88.353703 
L 212.646955 90.176428 
L 212.50537 90.410719 
L 212.075955 91.121001 
L 212.01934 91.214614 
L 211.40725 92.226283 
L 210.619512 93.52701 
L 209.857914 94.783217 
L 209.443878 95.465592 
L 208.757873 96.595302 
L 208.721696 96.654843 
L 208.025082 97.800815 
L 207.384621 98.853386 
L 206.44534 100.114733 
L 204.932424 101.335544 
L 204.693648 101.492326 
L 202.717829 102.49825 
L 199.345592 103.217814 
L 198.591703 103.159993 
L 198.095043 103.116772 
L 197.510471 103.063668 
L 195.417575 102.853171 
L 194.620517 102.764392 
L 194.166167 102.711598 
L 192.541808 102.509619 
L 187.749714 100.658028 
L 187.457407 100.404515 
L 186.432841 99.549622 
L 184.595043 98.009823 
L 184.360481 97.812714 
L 181.654 95.52911 
L 181.273777 95.206935 
L 178.203086 92.358736 
L 174.83434 89.559337 
L 174.694055 89.465729 
L 173.707913 88.761405 
L 172.412577 87.647874 
L 170.736104 86.26351 
L 170.214393 85.846323 
L 169.971955 85.652028 
L 169.478003 85.255344 
L 168.279427 84.288045 
L 167.243952 83.487385 
L 166.438235 82.920745 
L 166.137512 82.707775 
L 166.076249 82.664291 
L 164.488148 81.523046 
L 164.361027 81.43082 
L 163.835644 81.064866 
L 163.521689 80.512647 
L 162.711918 79.088116 
L 161.850928 78.331875 
L 160.904914 77.926232 
L 160.850123 77.902127 
L 160.732331 77.850085 
L 159.948878 77.652363 
L 159.160605 77.718392 
L 158.939255 77.744622 
L 158.818444 77.7493 
L 158.276227 77.659113 
L 155.384856 78.532157 
L 155.068003 78.663721 
L 154.385363 79.111489 
L 154.051564 79.508804 
L 153.72427 79.896758 
L 151.89105 83.356775 
L 151.345782 85.200422 
L 150.659964 87.621852 
L 150.190414 89.14833 
L 149.875963 90.116195 
L 147.977831 98.874248 
L 147.876989 99.273691 
L 147.867172 99.310702 
L 147.776359 99.640033 
L 147.728927 99.804952 
L 145.642155 103.431081 
L 142.537332 105.601684 
L 141.897105 105.938026 
L 141.306401 106.206369 
L 140.849893 106.413374 
L 138.868871 107.180072 
L 138.194593 107.361527 
L 137.561637 107.508142 
L 137.101918 107.60114 
L 136.760646 107.670162 
L 136.543147 107.714144 
L 134.564887 107.918503 
L 133.656703 107.873079 
L 132.314691 107.792672 
L 132.223783 107.781384 
L 131.417963 107.63568 
L 129.942245 107.212874 
L 129.557569 107.102597 
L 129.222099 106.95688 
L 128.848997 106.781261 
L 127.505291 106.137177 
L 127.480494 106.124126 
L 126.959051 105.84781 
L 126.638716 105.674658 
L 125.30163 104.868179 
L 123.112072 103.293314 
L 122.872491 103.105965 
L 122.243729 102.616405 
L 120.720852 101.292284 
L 120.190086 100.830603 
L 119.865272 100.548062 
L 118.695731 99.450652 
L 118.281092 99.076959 
L 117.835246 98.658544 
L 116.803961 97.690627 
L 116.237181 97.158624 
L 114.962635 95.965303 
L 111.694678 93.077063 
L 111.449463 92.889718 
L 111.286256 92.765017 
L 109.985105 91.770555 
L 108.7054 90.941677 
L 108.507565 90.820446 
L 106.637923 89.759169 
L 105.660865 89.380699 
L 103.31194 88.728893 
L 101.787677 88.416304 
L 94.838351 87.971615 
L 92.811352 86.134523 
L 88.911892 89.893216 
L 88.121097 91.068251 
L 87.506361 91.979576 
L 86.358943 93.675578 
L 86.060268 94.11596 
L 84.426793 96.675544 
L 79.053171 105.141184 
L 78.312513 106.304047 
L 77.542489 107.511978 
L 77.115774 108.180908 
L 76.066407 109.824467 
L 75.881769 110.113444 
L 74.346414 112.249238 
L 74.328061 112.245998 
L 73.596013 112.098348 
L 73.450464 112.064541 
L 72.238035 111.722674 
L 71.681615 111.527918 
L 70.994556 111.252416 
L 69.98868 110.775246 
L 69.747748 110.647032 
L 65.388303 107.25116 
L 62.831765 104.132009 
L 61.793679 102.575135 
L 61.229331 101.650643 
L 60.100582 99.624423 
L 59.987959 99.408726 
L 57.91454 94.95842 
L 54.049405 83.822606 
L 53.165845 80.660038 
L 51.794347 75.220634 
L 51.546155 74.162813 
L 51.508808 74.001616 
L 51.361085 73.358616 
L 50.739897 70.561191 
L 49.668374 65.361692 
L 48.87274 61.174247 
L 48.657411 59.990643 
L 47.577508 53.71246 
L 47.296634 51.982304 
L 46.145455 44.443636 
z
" style="fill:#ff7f0e;fill-opacity:0.4;"/>
   </g>
   <g id="patch_3">
    <path d="M 36 252 
L 36 34.56 
" style="fill:none;stroke:#777777;stroke-linecap:square;stroke-linejoin:miter;"/>
   </g>
   <g id="patch_4">
    <path d="M 259.2 252 
L 259.2 34.56 
" style="fill:none;stroke:#777777;stroke-linecap:square;stroke-linejoin:miter;"/>
   </g>
   <g id="patch_5">
    <path d="M 36 252 
L 259.2 252 
" style="fill:none;stroke:#777777;stroke-linecap:square;stroke-linejoin:miter;"/>
   </g>
   <g id="patch_6">
    <path d="M 36 34.56 
L 259.2 34.56 
" style="fill:none;stroke:#777777;stroke-linecap:square;stroke-linejoin:miter;"/>
   </g>
   <g id="text_13">
    <!-- 95% Centered Prediction Interval -->
    <defs>
     <path d="M 11.28125 4.203125 
Q 14.015625 0.984375 20.796875 0.984375 
Q 24.609375 0.984375 27.90625 3.5625 
Q 31.203125 6.15625 33.015625 9.90625 
Q 35.109375 14.15625 35.6875 18.96875 
Q 36.28125 23.78125 36.28125 30.90625 
Q 34.578125 26.859375 31.375 24.265625 
Q 28.171875 21.6875 24.03125 21.6875 
Q 18.21875 21.6875 13.640625 24.828125 
Q 9.078125 27.984375 6.640625 33.125 
Q 4.203125 38.28125 4.203125 44.09375 
Q 4.203125 50.09375 6.9375 55.296875 
Q 9.671875 60.5 14.5 63.546875 
Q 19.34375 66.609375 25.484375 66.609375 
Q 31.546875 66.609375 35.625 63.3125 
Q 39.703125 60.015625 41.84375 54.8125 
Q 44 49.609375 44.84375 43.796875 
Q 45.703125 37.984375 45.703125 32.328125 
Q 45.703125 24.609375 42.875 16.578125 
Q 40.046875 8.546875 34.40625 3.171875 
Q 28.765625 -2.203125 20.796875 -2.203125 
Q 14.890625 -2.203125 10.78125 0.578125 
Q 6.6875 3.375 6.6875 8.984375 
Q 6.6875 11.03125 8.078125 12.421875 
Q 9.46875 13.8125 11.53125 13.8125 
Q 13.53125 13.8125 14.921875 12.421875 
Q 16.3125 11.03125 16.3125 8.984375 
Q 16.3125 7.03125 14.890625 5.609375 
Q 13.484375 4.203125 11.53125 4.203125 
z
M 24.421875 24.3125 
Q 28.515625 24.3125 31.125 27.0625 
Q 33.734375 29.828125 34.90625 33.921875 
Q 36.078125 38.03125 36.078125 42.09375 
L 36.078125 44 
L 36.078125 44.390625 
Q 36.078125 51.90625 33.875 57.8125 
Q 31.6875 63.71875 25.484375 63.71875 
Q 21.53125 63.71875 19.0625 61.984375 
Q 16.609375 60.25 15.4375 57.375 
Q 14.265625 54.5 13.9375 51.21875 
Q 13.625 47.953125 13.625 44.09375 
Q 13.625 38.421875 14.15625 34.421875 
Q 14.703125 30.421875 17.09375 27.359375 
Q 19.484375 24.3125 24.421875 24.3125 
z
" id="Cmr10-57"/>
     <path d="M 13.921875 -3.609375 
Q 13.921875 -3.03125 14.203125 -2.59375 
L 59.515625 64.890625 
Q 53.515625 61.53125 46.296875 61.53125 
Q 38.484375 61.53125 31.296875 65.578125 
Q 33.296875 60.796875 33.296875 54.890625 
Q 33.296875 51.65625 32.53125 48.21875 
Q 31.78125 44.78125 30.21875 41.71875 
Q 28.65625 38.671875 26.1875 36.6875 
Q 23.734375 34.71875 20.40625 34.71875 
Q 15.71875 34.71875 12.34375 37.84375 
Q 8.984375 40.96875 7.296875 45.65625 
Q 5.609375 50.34375 5.609375 54.890625 
Q 5.609375 59.328125 7.296875 64.03125 
Q 8.984375 68.75 12.34375 71.875 
Q 15.71875 75 20.40625 75 
Q 24.125 75 27.203125 72.015625 
Q 35.25 64.109375 46.296875 64.109375 
Q 52.203125 64.109375 57.328125 66.71875 
Q 62.453125 69.34375 65.71875 74.21875 
Q 66.21875 75 67.28125 75 
Q 68.171875 75 68.71875 74.453125 
Q 69.28125 73.921875 69.28125 73 
Q 69.28125 72.46875 69 72.015625 
L 17.390625 -4.984375 
Q 16.9375 -5.609375 15.921875 -5.609375 
Q 15.09375 -5.609375 14.5 -4.96875 
Q 13.921875 -4.34375 13.921875 -3.609375 
z
M 20.40625 37.3125 
Q 25.34375 37.3125 27.875 43.1875 
Q 30.421875 49.078125 30.421875 54.890625 
Q 30.421875 58.15625 29.375 62.328125 
Q 28.328125 66.5 26.078125 69.453125 
Q 23.828125 72.40625 20.40625 72.40625 
Q 15.4375 72.40625 13.8125 66.859375 
Q 12.203125 61.328125 12.203125 54.78125 
Q 12.203125 48.484375 13.859375 42.890625 
Q 15.53125 37.3125 20.40625 37.3125 
z
M 64.703125 -5.609375 
Q 60.015625 -5.609375 56.640625 -2.484375 
Q 53.265625 0.640625 51.578125 5.34375 
Q 49.90625 10.0625 49.90625 14.59375 
Q 49.90625 19.046875 51.578125 23.75 
Q 53.265625 28.46875 56.640625 31.59375 
Q 60.015625 34.71875 64.703125 34.71875 
Q 69.046875 34.71875 71.96875 31.421875 
Q 74.90625 28.125 76.25 23.484375 
Q 77.59375 18.84375 77.59375 14.59375 
Q 77.59375 11.375 76.828125 7.953125 
Q 76.078125 4.546875 74.53125 1.4375 
Q 73 -1.65625 70.53125 -3.625 
Q 68.0625 -5.609375 64.703125 -5.609375 
z
M 64.703125 -2.984375 
Q 68.0625 -2.984375 70.359375 0.015625 
Q 72.65625 3.03125 73.671875 7.171875 
Q 74.703125 11.328125 74.703125 14.59375 
Q 74.703125 20.359375 72.15625 26.21875 
Q 69.625 32.078125 64.703125 32.078125 
Q 59.71875 32.078125 58.109375 26.53125 
Q 56.5 21 56.5 14.5 
Q 56.5 8.15625 58.15625 2.578125 
Q 59.8125 -2.984375 64.703125 -2.984375 
z
" id="Cmr10-37"/>
     <path id="Cmr10-32"/>
     <path d="M 22.796875 10.6875 
Q 26.21875 6.34375 31.34375 3.828125 
Q 36.46875 1.3125 42 1.3125 
Q 46.625 1.3125 50.578125 3.140625 
Q 54.546875 4.984375 57.5 8.25 
Q 60.453125 11.53125 62.03125 15.671875 
Q 63.625 19.828125 63.625 24.421875 
Q 63.625 25.203125 64.5 25.203125 
L 65.71875 25.203125 
Q 66.5 25.203125 66.5 24.21875 
Q 66.5 19 64.5 14.140625 
Q 62.5 9.28125 58.828125 5.59375 
Q 55.171875 1.90625 50.40625 -0.140625 
Q 45.65625 -2.203125 40.484375 -2.203125 
Q 33.296875 -2.203125 26.875 0.703125 
Q 20.453125 3.609375 15.6875 8.65625 
Q 10.9375 13.71875 8.265625 20.359375 
Q 5.609375 27 5.609375 34.1875 
Q 5.609375 41.359375 8.265625 48 
Q 10.9375 54.640625 15.6875 59.71875 
Q 20.453125 64.796875 26.875 67.65625 
Q 33.296875 70.515625 40.484375 70.515625 
Q 45.609375 70.515625 50.296875 68.28125 
Q 54.984375 66.0625 58.5 62.015625 
L 64.3125 70.21875 
Q 64.890625 70.515625 64.984375 70.515625 
L 65.71875 70.515625 
Q 66.015625 70.515625 66.25 70.265625 
Q 66.5 70.015625 66.5 69.671875 
L 66.5 42.671875 
Q 66.5 41.796875 65.71875 41.796875 
L 63.921875 41.796875 
Q 62.984375 41.796875 62.984375 42.671875 
Q 62.984375 45.5625 61.828125 49.125 
Q 60.6875 52.6875 58.90625 55.875 
Q 57.125 59.078125 54.78125 61.53125 
Q 49.171875 67 41.890625 67 
Q 36.375 67 31.3125 64.5 
Q 26.265625 62.015625 22.796875 57.625 
Q 19.140625 52.9375 17.71875 46.953125 
Q 16.3125 40.96875 16.3125 34.1875 
Q 16.3125 27.390625 17.71875 21.375 
Q 19.140625 15.375 22.796875 10.6875 
z
" id="Cmr10-67"/>
     <path d="M 24.90625 -1.125 
Q 18.796875 -1.125 13.6875 2.078125 
Q 8.59375 5.28125 5.6875 10.625 
Q 2.78125 15.96875 2.78125 21.921875 
Q 2.78125 27.78125 5.4375 33.046875 
Q 8.109375 38.328125 12.859375 41.578125 
Q 17.625 44.828125 23.484375 44.828125 
Q 28.078125 44.828125 31.46875 43.28125 
Q 34.859375 41.75 37.0625 39.015625 
Q 39.265625 36.28125 40.375 32.5625 
Q 41.5 28.859375 41.5 24.421875 
Q 41.5 23.09375 40.484375 23.09375 
L 11.53125 23.09375 
L 11.53125 22.015625 
Q 11.53125 13.71875 14.875 7.765625 
Q 18.21875 1.8125 25.78125 1.8125 
Q 28.859375 1.8125 31.46875 3.171875 
Q 34.078125 4.546875 36 6.984375 
Q 37.9375 9.421875 38.625 12.203125 
Q 38.71875 12.546875 38.984375 12.8125 
Q 39.265625 13.09375 39.59375 13.09375 
L 40.484375 13.09375 
Q 41.5 13.09375 41.5 11.8125 
Q 40.09375 6.15625 35.40625 2.515625 
Q 30.71875 -1.125 24.90625 -1.125 
z
M 11.625 25.59375 
L 34.421875 25.59375 
Q 34.421875 29.34375 33.375 33.203125 
Q 32.328125 37.0625 29.875 39.625 
Q 27.4375 42.1875 23.484375 42.1875 
Q 17.828125 42.1875 14.71875 36.890625 
Q 11.625 31.59375 11.625 25.59375 
z
" id="Cmr10-101"/>
     <path d="M 2.984375 0 
L 2.984375 3.515625 
Q 6.390625 3.515625 8.59375 4.046875 
Q 10.796875 4.59375 10.796875 6.6875 
L 10.796875 33.984375 
Q 10.796875 36.671875 9.984375 37.859375 
Q 9.1875 39.0625 7.671875 39.328125 
Q 6.15625 39.59375 2.984375 39.59375 
L 2.984375 43.109375 
L 17.484375 44.1875 
L 17.484375 34.421875 
Q 19.484375 38.71875 23.40625 41.453125 
Q 27.34375 44.1875 31.984375 44.1875 
Q 38.921875 44.1875 42.40625 40.859375 
Q 45.90625 37.546875 45.90625 30.71875 
L 45.90625 6.6875 
Q 45.90625 4.59375 48.09375 4.046875 
Q 50.296875 3.515625 53.71875 3.515625 
L 53.71875 0 
L 30.8125 0 
L 30.8125 3.515625 
Q 34.234375 3.515625 36.421875 4.046875 
Q 38.625 4.59375 38.625 6.6875 
L 38.625 30.421875 
Q 38.625 35.296875 37.203125 38.453125 
Q 35.796875 41.609375 31.390625 41.609375 
Q 25.59375 41.609375 21.84375 36.96875 
Q 18.109375 32.328125 18.109375 26.421875 
L 18.109375 6.6875 
Q 18.109375 4.59375 20.3125 4.046875 
Q 22.515625 3.515625 25.875 3.515625 
L 25.875 0 
z
" id="Cmr10-110"/>
     <path d="M 10.203125 12.015625 
L 10.203125 39.59375 
L 1.90625 39.59375 
L 1.90625 42.1875 
Q 8.453125 42.1875 11.515625 48.28125 
Q 14.59375 54.390625 14.59375 61.53125 
L 17.484375 61.53125 
L 17.484375 43.109375 
L 31.59375 43.109375 
L 31.59375 39.59375 
L 17.484375 39.59375 
L 17.484375 12.203125 
Q 17.484375 8.0625 18.875 4.9375 
Q 20.265625 1.8125 23.875 1.8125 
Q 27.296875 1.8125 28.8125 5.109375 
Q 30.328125 8.40625 30.328125 12.203125 
L 30.328125 18.109375 
L 33.203125 18.109375 
L 33.203125 12.015625 
Q 33.203125 8.890625 32.046875 5.828125 
Q 30.90625 2.78125 28.65625 0.828125 
Q 26.421875 -1.125 23.1875 -1.125 
Q 17.1875 -1.125 13.6875 2.46875 
Q 10.203125 6.0625 10.203125 12.015625 
z
" id="Cmr10-116"/>
     <path d="M 2.59375 0 
L 2.59375 3.515625 
Q 6 3.515625 8.203125 4.046875 
Q 10.40625 4.59375 10.40625 6.6875 
L 10.40625 33.984375 
Q 10.40625 36.671875 9.59375 37.859375 
Q 8.796875 39.0625 7.28125 39.328125 
Q 5.765625 39.59375 2.59375 39.59375 
L 2.59375 43.109375 
L 16.890625 44.1875 
L 16.890625 34.421875 
Q 18.5 38.765625 21.484375 41.46875 
Q 24.46875 44.1875 28.71875 44.1875 
Q 31.6875 44.1875 34.03125 42.421875 
Q 36.375 40.671875 36.375 37.796875 
Q 36.375 35.984375 35.078125 34.640625 
Q 33.796875 33.296875 31.890625 33.296875 
Q 30.03125 33.296875 28.703125 34.609375 
Q 27.390625 35.9375 27.390625 37.796875 
Q 27.390625 40.484375 29.296875 41.609375 
L 28.71875 41.609375 
Q 24.65625 41.609375 22.09375 38.671875 
Q 19.53125 35.75 18.453125 31.390625 
Q 17.390625 27.046875 17.390625 23.09375 
L 17.390625 6.6875 
Q 17.390625 3.515625 27.09375 3.515625 
L 27.09375 0 
z
" id="Cmr10-114"/>
     <path d="M 24.421875 -1.125 
Q 18.5 -1.125 13.609375 2.078125 
Q 8.734375 5.28125 6.03125 10.5 
Q 3.328125 15.71875 3.328125 21.578125 
Q 3.328125 27.640625 6.28125 32.828125 
Q 9.234375 38.03125 14.3125 41.109375 
Q 19.390625 44.1875 25.484375 44.1875 
Q 29.15625 44.1875 32.421875 42.640625 
Q 35.6875 41.109375 38.09375 38.375 
L 38.09375 59.1875 
Q 38.09375 61.859375 37.28125 63.0625 
Q 36.46875 64.265625 34.984375 64.53125 
Q 33.5 64.796875 30.328125 64.796875 
L 30.328125 68.3125 
L 45.125 69.390625 
L 45.125 9.078125 
Q 45.125 6.453125 45.921875 5.25 
Q 46.734375 4.046875 48.21875 3.78125 
Q 49.703125 3.515625 52.875 3.515625 
L 52.875 0 
L 37.796875 -1.125 
L 37.796875 5.171875 
Q 35.203125 2.203125 31.640625 0.53125 
Q 28.078125 -1.125 24.421875 -1.125 
z
M 14.203125 8.6875 
Q 15.921875 5.421875 18.765625 3.46875 
Q 21.625 1.515625 25 1.515625 
Q 29.15625 1.515625 32.609375 3.90625 
Q 36.078125 6.296875 37.796875 10.109375 
L 37.796875 34.078125 
Q 36.625 36.28125 34.84375 38.015625 
Q 33.0625 39.75 30.828125 40.671875 
Q 28.609375 41.609375 26.125 41.609375 
Q 20.90625 41.609375 17.71875 38.640625 
Q 14.546875 35.6875 13.28125 31.09375 
Q 12.015625 26.515625 12.015625 21.484375 
Q 12.015625 17.484375 12.421875 14.5 
Q 12.84375 11.53125 14.203125 8.6875 
z
" id="Cmr10-100"/>
     <path d="M 3.328125 0 
L 3.328125 3.515625 
Q 13.625 3.515625 13.625 6.6875 
L 13.625 61.625 
Q 13.625 64.796875 3.328125 64.796875 
L 3.328125 68.3125 
L 38.921875 68.3125 
Q 44.390625 68.3125 49.859375 66.0625 
Q 55.328125 63.8125 58.859375 59.515625 
Q 62.40625 55.21875 62.40625 49.515625 
Q 62.40625 43.953125 58.84375 39.75 
Q 55.28125 35.546875 49.859375 33.375 
Q 44.4375 31.203125 38.921875 31.203125 
L 22.90625 31.203125 
L 22.90625 6.6875 
Q 22.90625 3.515625 33.203125 3.515625 
L 33.203125 0 
z
M 22.609375 34.1875 
L 36.1875 34.1875 
Q 41.703125 34.1875 45.109375 35.765625 
Q 48.53125 37.359375 50.109375 40.703125 
Q 51.703125 44.046875 51.703125 49.515625 
Q 51.703125 57.671875 48.109375 61.234375 
Q 44.53125 64.796875 36.1875 64.796875 
L 27.6875 64.796875 
Q 25.875 64.796875 24.875 64.640625 
Q 23.875 64.5 23.234375 63.796875 
Q 22.609375 63.09375 22.609375 61.625 
z
" id="Cmr10-80"/>
     <path d="M 3.078125 0 
L 3.078125 3.515625 
Q 6.5 3.515625 8.6875 4.046875 
Q 10.890625 4.59375 10.890625 6.6875 
L 10.890625 33.984375 
Q 10.890625 37.84375 9.390625 38.71875 
Q 7.90625 39.59375 3.515625 39.59375 
L 3.515625 43.109375 
L 17.921875 44.1875 
L 17.921875 6.6875 
Q 17.921875 4.59375 19.828125 4.046875 
Q 21.734375 3.515625 24.90625 3.515625 
L 24.90625 0 
z
M 7.328125 61.375 
Q 7.328125 63.578125 8.984375 65.234375 
Q 10.640625 66.890625 12.796875 66.890625 
Q 14.203125 66.890625 15.515625 66.15625 
Q 16.84375 65.4375 17.578125 64.109375 
Q 18.3125 62.796875 18.3125 61.375 
Q 18.3125 59.234375 16.640625 57.5625 
Q 14.984375 55.90625 12.796875 55.90625 
Q 10.640625 55.90625 8.984375 57.5625 
Q 7.328125 59.234375 7.328125 61.375 
z
" id="Cmr10-105"/>
     <path d="M 24.90625 -1.125 
Q 18.84375 -1.125 13.90625 2.015625 
Q 8.984375 5.171875 6.15625 10.421875 
Q 3.328125 15.671875 3.328125 21.578125 
Q 3.328125 27.484375 6.125 32.90625 
Q 8.9375 38.328125 13.890625 41.578125 
Q 18.84375 44.828125 24.90625 44.828125 
Q 30.765625 44.828125 35.5625 42.53125 
Q 40.375 40.234375 40.375 35.015625 
Q 40.375 33.0625 38.984375 31.609375 
Q 37.59375 30.171875 35.59375 30.171875 
Q 33.59375 30.171875 32.203125 31.609375 
Q 30.8125 33.0625 30.8125 35.015625 
Q 30.8125 36.765625 31.9375 38.0625 
Q 33.0625 39.359375 34.71875 39.703125 
Q 31.25 41.890625 25 41.890625 
Q 20.21875 41.890625 17.28125 38.71875 
Q 14.359375 35.546875 13.1875 30.859375 
Q 12.015625 26.171875 12.015625 21.578125 
Q 12.015625 16.75 13.453125 12.234375 
Q 14.890625 7.71875 18.09375 4.765625 
Q 21.296875 1.8125 26.125 1.8125 
Q 30.859375 1.8125 34.171875 4.71875 
Q 37.5 7.625 38.71875 12.3125 
Q 38.71875 12.890625 39.5 12.890625 
L 40.71875 12.890625 
Q 41.015625 12.890625 41.25 12.625 
Q 41.5 12.359375 41.5 12.015625 
L 41.5 11.71875 
Q 39.984375 5.8125 35.484375 2.34375 
Q 31 -1.125 24.90625 -1.125 
z
" id="Cmr10-99"/>
     <path d="M 25 -1.125 
Q 19 -1.125 13.859375 1.921875 
Q 8.734375 4.984375 5.75 10.109375 
Q 2.78125 15.234375 2.78125 21.296875 
Q 2.78125 25.875 4.421875 30.125 
Q 6.0625 34.375 9.109375 37.71875 
Q 12.15625 41.0625 16.203125 42.9375 
Q 20.265625 44.828125 25 44.828125 
Q 31.15625 44.828125 36.203125 41.578125 
Q 41.265625 38.328125 44.1875 32.875 
Q 47.125 27.4375 47.125 21.296875 
Q 47.125 15.28125 44.140625 10.125 
Q 41.15625 4.984375 36.046875 1.921875 
Q 30.953125 -1.125 25 -1.125 
z
M 25 1.8125 
Q 33.015625 1.8125 35.6875 7.609375 
Q 38.375 13.421875 38.375 22.40625 
Q 38.375 27.4375 37.84375 30.734375 
Q 37.3125 34.03125 35.5 36.71875 
Q 34.375 38.375 32.640625 39.625 
Q 30.90625 40.875 28.96875 41.53125 
Q 27.046875 42.1875 25 42.1875 
Q 21.875 42.1875 19.0625 40.765625 
Q 16.265625 39.359375 14.40625 36.71875 
Q 12.546875 33.890625 12.03125 30.484375 
Q 11.53125 27.09375 11.53125 22.40625 
Q 11.53125 16.796875 12.5 12.328125 
Q 13.484375 7.859375 16.4375 4.828125 
Q 19.390625 1.8125 25 1.8125 
z
" id="Cmr10-111"/>
     <path d="M 2.59375 0 
L 2.59375 3.515625 
Q 13.375 3.515625 13.375 6.6875 
L 13.375 61.625 
Q 13.375 64.796875 2.59375 64.796875 
L 2.59375 68.3125 
L 33.5 68.3125 
L 33.5 64.796875 
Q 22.703125 64.796875 22.703125 61.625 
L 22.703125 6.6875 
Q 22.703125 3.515625 33.5 3.515625 
L 33.5 0 
z
" id="Cmr10-73"/>
     <path d="M 24.421875 0 
L 9.8125 36.71875 
Q 8.890625 38.578125 6.953125 39.078125 
Q 5.03125 39.59375 1.90625 39.59375 
L 1.90625 43.109375 
L 22.90625 43.109375 
L 22.90625 39.59375 
Q 17.28125 39.59375 17.28125 37.203125 
Q 17.28125 36.8125 17.390625 36.625 
L 28.609375 8.40625 
L 38.71875 33.890625 
Q 39.015625 34.671875 39.015625 35.5 
Q 39.015625 37.40625 37.578125 38.5 
Q 36.140625 39.59375 34.1875 39.59375 
L 34.1875 43.109375 
L 50.78125 43.109375 
L 50.78125 39.59375 
Q 47.703125 39.59375 45.375 38.171875 
Q 43.0625 36.765625 41.796875 33.984375 
L 28.328125 0 
Q 27.9375 -1.125 26.703125 -1.125 
L 25.984375 -1.125 
Q 24.75 -1.125 24.421875 0 
z
" id="Cmr10-118"/>
     <path d="M 4 9.8125 
Q 4 15.765625 8.6875 19.5 
Q 13.375 23.25 19.9375 24.78125 
Q 26.515625 26.3125 32.421875 26.3125 
L 32.421875 30.421875 
Q 32.421875 33.296875 31.15625 36 
Q 29.890625 38.71875 27.484375 40.453125 
Q 25.09375 42.1875 22.21875 42.1875 
Q 15.578125 42.1875 12.109375 39.203125 
Q 14.015625 39.203125 15.25 37.765625 
Q 16.5 36.328125 16.5 34.421875 
Q 16.5 32.421875 15.078125 31 
Q 13.671875 29.59375 11.71875 29.59375 
Q 9.71875 29.59375 8.296875 31 
Q 6.890625 32.421875 6.890625 34.421875 
Q 6.890625 39.703125 11.671875 42.265625 
Q 16.453125 44.828125 22.21875 44.828125 
Q 26.265625 44.828125 30.359375 43.09375 
Q 34.46875 41.359375 37.078125 38.125 
Q 39.703125 34.90625 39.703125 30.609375 
L 39.703125 8.109375 
Q 39.703125 6.15625 40.53125 4.515625 
Q 41.359375 2.875 43.109375 2.875 
Q 44.78125 2.875 45.578125 4.53125 
Q 46.390625 6.203125 46.390625 8.109375 
L 46.390625 14.5 
L 49.3125 14.5 
L 49.3125 8.109375 
Q 49.3125 5.859375 48.140625 3.828125 
Q 46.96875 1.8125 44.984375 0.609375 
Q 43.015625 -0.59375 40.71875 -0.59375 
Q 37.796875 -0.59375 35.671875 1.671875 
Q 33.546875 3.953125 33.296875 7.078125 
Q 31.453125 3.328125 27.828125 1.09375 
Q 24.21875 -1.125 20.125 -1.125 
Q 16.3125 -1.125 12.625 0 
Q 8.9375 1.125 6.46875 3.53125 
Q 4 5.953125 4 9.8125 
z
M 12.109375 9.8125 
Q 12.109375 6.296875 14.6875 3.90625 
Q 17.28125 1.515625 20.796875 1.515625 
Q 24.03125 1.515625 26.65625 3.125 
Q 29.296875 4.734375 30.859375 7.515625 
Q 32.421875 10.296875 32.421875 13.375 
L 32.421875 23.78125 
Q 27.875 23.78125 23.109375 22.28125 
Q 18.359375 20.796875 15.234375 17.625 
Q 12.109375 14.453125 12.109375 9.8125 
z
" id="Cmr10-97"/>
     <path d="M 3.078125 0 
L 3.078125 3.515625 
Q 6.5 3.515625 8.6875 4.046875 
Q 10.890625 4.59375 10.890625 6.6875 
L 10.890625 59.1875 
Q 10.890625 61.859375 10.078125 63.0625 
Q 9.28125 64.265625 7.765625 64.53125 
Q 6.25 64.796875 3.078125 64.796875 
L 3.078125 68.3125 
L 17.921875 69.390625 
L 17.921875 6.6875 
Q 17.921875 4.59375 20.109375 4.046875 
Q 22.3125 3.515625 25.6875 3.515625 
L 25.6875 0 
z
" id="Cmr10-108"/>
    </defs>
    <g transform="translate(59.22375 28.56)scale(0.12 -0.12)">
     <use xlink:href="#Cmr10-57"/>
     <use x="50" xlink:href="#Cmr10-53"/>
     <use x="100" xlink:href="#Cmr10-37"/>
     <use x="183.300781" xlink:href="#Cmr10-32"/>
     <use x="216.601562" xlink:href="#Cmr10-67"/>
     <use x="288.818359" xlink:href="#Cmr10-101"/>
     <use x="333.203125" xlink:href="#Cmr10-110"/>
     <use x="388.720703" xlink:href="#Cmr10-116"/>
     <use x="427.539062" xlink:href="#Cmr10-101"/>
     <use x="471.923828" xlink:href="#Cmr10-114"/>
     <use x="511.035156" xlink:href="#Cmr10-101"/>
     <use x="555.419922" xlink:href="#Cmr10-100"/>
     <use x="610.9375" xlink:href="#Cmr10-32"/>
     <use x="644.238281" xlink:href="#Cmr10-80"/>
     <use x="712.255859" xlink:href="#Cmr10-114"/>
     <use x="751.367188" xlink:href="#Cmr10-101"/>
     <use x="795.751953" xlink:href="#Cmr10-100"/>
     <use x="851.269531" xlink:href="#Cmr10-105"/>
     <use x="878.955078" xlink:href="#Cmr10-99"/>
     <use x="923.339844" xlink:href="#Cmr10-116"/>
     <use x="962.158203" xlink:href="#Cmr10-105"/>
     <use x="989.84375" xlink:href="#Cmr10-111"/>
     <use x="1039.84375" xlink:href="#Cmr10-110"/>
     <use x="1095.361328" xlink:href="#Cmr10-32"/>
     <use x="1128.662109" xlink:href="#Cmr10-73"/>
     <use x="1164.746094" xlink:href="#Cmr10-110"/>
     <use x="1220.263672" xlink:href="#Cmr10-116"/>
     <use x="1259.082031" xlink:href="#Cmr10-101"/>
     <use x="1303.466797" xlink:href="#Cmr10-114"/>
     <use x="1342.578125" xlink:href="#Cmr10-118"/>
     <use x="1395.263672" xlink:href="#Cmr10-97"/>
     <use x="1445.263672" xlink:href="#Cmr10-108"/>
    </g>
   </g>
   <g id="legend_1">
    <g id="patch_7">
     <path d="M 165.129831 70.597142 
L 252.2028 70.597142 
Q 254.202 70.597142 254.202 68.597942 
L 254.202 41.5572 
Q 254.202 39.558 252.2028 39.558 
L 165.129831 39.558 
Q 163.130631 39.558 163.130631 41.5572 
L 163.130631 68.597942 
Q 163.130631 70.597142 165.129831 70.597142 
z
" style="fill:#fdfdfd;opacity:0.8;stroke:#cccccc;stroke-linejoin:miter;"/>
    </g>
    <g id="patch_8">
     <path d="M 167.129031 50.605142 
L 187.121031 50.605142 
L 187.121031 43.607942 
L 167.129031 43.607942 
z
" style="fill:#1f77b4;opacity:0.6;"/>
    </g>
    <g id="text_14">
     <!-- Original -->
     <defs>
      <path d="M 38.921875 -2.203125 
Q 29.390625 -2.203125 21.796875 2.84375 
Q 14.203125 7.90625 9.90625 16.28125 
Q 5.609375 24.65625 5.609375 33.890625 
Q 5.609375 40.71875 8.078125 47.40625 
Q 10.546875 54.109375 14.96875 59.28125 
Q 19.390625 64.453125 25.578125 67.484375 
Q 31.78125 70.515625 38.921875 70.515625 
Q 46 70.515625 52.21875 67.453125 
Q 58.453125 64.40625 62.890625 59.171875 
Q 67.328125 53.953125 69.71875 47.453125 
Q 72.125 40.96875 72.125 33.890625 
Q 72.125 24.65625 67.828125 16.28125 
Q 63.53125 7.90625 55.90625 2.84375 
Q 48.296875 -2.203125 38.921875 -2.203125 
z
M 22.3125 10.796875 
Q 25.25 6.203125 29.546875 3.484375 
Q 33.84375 0.78125 38.921875 0.78125 
Q 42.1875 0.78125 45.328125 2.09375 
Q 48.484375 3.421875 51.046875 5.71875 
Q 53.609375 8.015625 55.421875 10.796875 
Q 61.375 19.78125 61.375 35.5 
Q 61.375 49.90625 55.421875 58.296875 
Q 52.484375 62.5 48.109375 65.03125 
Q 43.75 67.578125 38.921875 67.578125 
Q 34.03125 67.578125 29.640625 65.03125 
Q 25.25 62.5 22.3125 58.296875 
Q 19.96875 55.03125 18.671875 51.34375 
Q 17.390625 47.65625 16.84375 43.703125 
Q 16.3125 39.75 16.3125 35.5 
Q 16.3125 30.953125 16.8125 26.625 
Q 17.328125 22.3125 18.71875 18.15625 
Q 20.125 14.015625 22.3125 10.796875 
z
" id="Cmr10-79"/>
      <path d="M 2.78125 -7.8125 
Q 2.78125 -4.25 5.359375 -1.578125 
Q 7.953125 1.078125 11.53125 2.203125 
Q 9.515625 3.71875 8.46875 6 
Q 7.421875 8.296875 7.421875 10.890625 
Q 7.421875 15.578125 10.40625 19.1875 
Q 5.8125 23.6875 5.8125 29.5 
Q 5.8125 32.625 7.15625 35.359375 
Q 8.5 38.09375 10.890625 40.09375 
Q 13.28125 42.09375 16.203125 43.140625 
Q 19.140625 44.1875 22.21875 44.1875 
Q 28.171875 44.1875 32.90625 40.71875 
Q 34.96875 42.921875 37.765625 44.109375 
Q 40.578125 45.3125 43.609375 45.3125 
Q 45.75 45.3125 47.109375 43.765625 
Q 48.484375 42.234375 48.484375 40.09375 
Q 48.484375 38.875 47.546875 37.9375 
Q 46.625 37.015625 45.40625 37.015625 
Q 44.140625 37.015625 43.203125 37.9375 
Q 42.28125 38.875 42.28125 40.09375 
Q 42.28125 41.9375 43.5 42.671875 
Q 38.328125 42.671875 34.625 39.109375 
Q 36.421875 37.3125 37.515625 34.6875 
Q 38.625 32.078125 38.625 29.5 
Q 38.625 25.25 36.28125 21.84375 
Q 33.9375 18.453125 30.09375 16.578125 
Q 26.265625 14.703125 22.21875 14.703125 
Q 16.75 14.703125 12.203125 17.671875 
Q 10.796875 15.71875 10.796875 13.28125 
Q 10.796875 10.640625 12.53125 8.65625 
Q 14.265625 6.6875 16.890625 6.6875 
L 25.09375 6.6875 
Q 31.0625 6.6875 35.84375 5.609375 
Q 40.625 4.546875 43.875 1.3125 
Q 47.125 -1.90625 47.125 -7.8125 
Q 47.125 -12.203125 43.40625 -15.109375 
Q 39.703125 -18.015625 34.546875 -19.3125 
Q 29.390625 -20.609375 25 -20.609375 
Q 20.5625 -20.609375 15.375 -19.3125 
Q 10.203125 -18.015625 6.484375 -15.109375 
Q 2.78125 -12.203125 2.78125 -7.8125 
z
M 8.40625 -7.8125 
Q 8.40625 -11.1875 11.140625 -13.453125 
Q 13.875 -15.71875 17.71875 -16.8125 
Q 21.578125 -17.921875 25 -17.921875 
Q 28.375 -17.921875 32.21875 -16.8125 
Q 36.078125 -15.71875 38.78125 -13.453125 
Q 41.5 -11.1875 41.5 -7.8125 
Q 41.5 -2.59375 36.71875 -1.046875 
Q 31.9375 0.484375 25.09375 0.484375 
L 16.890625 0.484375 
Q 14.59375 0.484375 12.671875 -0.609375 
Q 10.75 -1.703125 9.578125 -3.6875 
Q 8.40625 -5.671875 8.40625 -7.8125 
z
M 22.21875 17.390625 
Q 30.71875 17.390625 30.71875 29.5 
Q 30.71875 34.71875 28.90625 38.109375 
Q 27.09375 41.5 22.21875 41.5 
Q 17.328125 41.5 15.515625 38.109375 
Q 13.71875 34.71875 13.71875 29.5 
Q 13.71875 26.171875 14.40625 23.484375 
Q 15.09375 20.796875 16.9375 19.09375 
Q 18.796875 17.390625 22.21875 17.390625 
z
" id="Cmr10-103"/>
     </defs>
     <g transform="translate(195.117831 50.605142)scale(0.09996 -0.09996)">
      <use xlink:href="#Cmr10-79"/>
      <use x="77.685547" xlink:href="#Cmr10-114"/>
      <use x="116.796875" xlink:href="#Cmr10-105"/>
      <use x="144.482422" xlink:href="#Cmr10-103"/>
      <use x="194.482422" xlink:href="#Cmr10-105"/>
      <use x="222.167969" xlink:href="#Cmr10-110"/>
      <use x="277.685547" xlink:href="#Cmr10-97"/>
      <use x="327.685547" xlink:href="#Cmr10-108"/>
     </g>
    </g>
    <g id="patch_9">
     <path d="M 167.129031 64.660455 
L 187.121031 64.660455 
L 187.121031 57.663255 
L 167.129031 57.663255 
z
" style="fill:#ff7f0e;opacity:0.4;"/>
    </g>
    <g id="text_15">
     <!-- Recalibrated -->
     <defs>
      <path d="M 3.328125 0 
L 3.328125 3.515625 
Q 13.625 3.515625 13.625 6.6875 
L 13.625 61.625 
Q 13.625 64.796875 3.328125 64.796875 
L 3.328125 68.3125 
L 34.71875 68.3125 
Q 40.328125 68.3125 46.5 66.28125 
Q 52.6875 64.265625 56.828125 60.109375 
Q 60.984375 55.953125 60.984375 50.203125 
Q 60.984375 46 58.46875 42.703125 
Q 55.953125 39.40625 52.015625 37.1875 
Q 48.09375 34.96875 44 33.984375 
Q 48.484375 32.421875 51.84375 29 
Q 55.21875 25.59375 55.90625 21.1875 
L 57.328125 12.3125 
Q 58.296875 6.296875 59.375 3.34375 
Q 60.453125 0.390625 64.109375 0.390625 
Q 67.234375 0.390625 68.765625 3.296875 
Q 70.3125 6.203125 70.3125 9.625 
Q 70.3125 9.96875 70.625 10.234375 
Q 70.953125 10.5 71.296875 10.5 
L 72.21875 10.5 
Q 73.1875 10.5 73.1875 9.1875 
Q 73.1875 6.453125 72.109375 3.828125 
Q 71.046875 1.21875 69.015625 -0.484375 
Q 67 -2.203125 64.203125 -2.203125 
Q 56.984375 -2.203125 51.78125 1.390625 
Q 46.578125 4.984375 46.578125 11.921875 
L 46.578125 20.796875 
Q 46.578125 25.78125 43.109375 29.34375 
Q 39.65625 32.90625 34.625 32.90625 
L 22.609375 32.90625 
L 22.609375 6.6875 
Q 22.609375 3.515625 32.90625 3.515625 
L 32.90625 0 
z
M 22.609375 35.5 
L 33.296875 35.5 
Q 41.609375 35.5 45.953125 38.84375 
Q 50.296875 42.1875 50.296875 50.203125 
Q 50.296875 58.15625 46 61.46875 
Q 41.703125 64.796875 33.296875 64.796875 
L 27.6875 64.796875 
Q 25.875 64.796875 24.875 64.640625 
Q 23.875 64.5 23.234375 63.796875 
Q 22.609375 63.09375 22.609375 61.625 
z
" id="Cmr10-82"/>
      <path d="M 10.40625 0 
L 10.40625 59.1875 
Q 10.40625 61.859375 9.59375 63.0625 
Q 8.796875 64.265625 7.28125 64.53125 
Q 5.765625 64.796875 2.59375 64.796875 
L 2.59375 68.3125 
L 17.390625 69.390625 
L 17.390625 38.09375 
Q 19.046875 39.9375 21.265625 41.328125 
Q 23.484375 42.71875 26.015625 43.453125 
Q 28.5625 44.1875 31.203125 44.1875 
Q 35.6875 44.1875 39.515625 42.375 
Q 43.359375 40.578125 46.1875 37.40625 
Q 49.03125 34.234375 50.609375 30.109375 
Q 52.203125 25.984375 52.203125 21.578125 
Q 52.203125 15.53125 49.25 10.296875 
Q 46.296875 5.078125 41.1875 1.96875 
Q 36.078125 -1.125 29.984375 -1.125 
Q 26.171875 -1.125 22.609375 0.828125 
Q 19.046875 2.78125 16.703125 6 
L 13.28125 0 
z
M 17.671875 9.8125 
Q 19.34375 6.15625 22.46875 3.828125 
Q 25.59375 1.515625 29.390625 1.515625 
Q 34.578125 1.515625 37.765625 4.484375 
Q 40.96875 7.46875 42.234375 12 
Q 43.5 16.546875 43.5 21.578125 
Q 43.5 30.03125 41.3125 34.421875 
Q 40.328125 36.375 38.640625 38.03125 
Q 36.96875 39.703125 34.890625 40.65625 
Q 32.8125 41.609375 30.515625 41.609375 
Q 26.515625 41.609375 23.09375 39.484375 
Q 19.671875 37.359375 17.671875 33.796875 
z
" id="Cmr10-98"/>
     </defs>
     <g transform="translate(195.117831 64.660455)scale(0.09996 -0.09996)">
      <use xlink:href="#Cmr10-82"/>
      <use x="73.583984" xlink:href="#Cmr10-101"/>
      <use x="117.96875" xlink:href="#Cmr10-99"/>
      <use x="162.353516" xlink:href="#Cmr10-97"/>
      <use x="212.353516" xlink:href="#Cmr10-108"/>
      <use x="240.039062" xlink:href="#Cmr10-105"/>
      <use x="267.724609" xlink:href="#Cmr10-98"/>
      <use x="323.242188" xlink:href="#Cmr10-114"/>
      <use x="362.353516" xlink:href="#Cmr10-97"/>
      <use x="412.353516" xlink:href="#Cmr10-116"/>
      <use x="451.171875" xlink:href="#Cmr10-101"/>
      <use x="495.556641" xlink:href="#Cmr10-100"/>
     </g>
    </g>
   </g>
  </g>
 </g>
 <defs>
  <clipPath id="p7241746673">
   <rect height="217.44" width="223.2" x="36" y="34.56"/>
  </clipPath>
 </defs>
</svg>
