<?xml version="1.0" encoding="utf-8" standalone="no"?>
<!DOCTYPE svg PUBLIC "-//W3C//DTD SVG 1.1//EN"
  "http://www.w3.org/Graphics/SVG/1.1/DTD/svg11.dtd">
<!-- Created with matplotlib (https://matplotlib.org/) -->
<svg height="288pt" version="1.1" viewBox="0 0 288 288" width="288pt" xmlns="http://www.w3.org/2000/svg" xmlns:xlink="http://www.w3.org/1999/xlink">
 <defs>
  <style type="text/css">
*{stroke-linecap:butt;stroke-linejoin:round;}
  </style>
 </defs>
 <g id="figure_1">
  <g id="patch_1">
   <path d="M 0 288 
L 288 288 
L 288 0 
L 0 0 
z
" style="fill:#ffffff;"/>
  </g>
  <g id="axes_1">
   <g id="patch_2">
    <path d="M 51.377805 243.422692 
L 267.247229 243.422692 
L 267.247229 27.553269 
L 51.377805 27.553269 
z
" style="fill:#fafafa;"/>
   </g>
   <g id="matplotlib.axis_1">
    <g id="xtick_1">
     <g id="line2d_1">
      <path clip-path="url(#p94a20afc88)" d="M 53.494172 243.422692 
L 53.494172 27.553269 
" style="fill:none;stroke:#b0b0b0;stroke-linecap:square;stroke-opacity:0.3;"/>
     </g>
     <g id="line2d_2"/>
     <g id="text_1">
      <!-- 0.00 -->
      <defs>
       <path d="M 25 -2.203125 
Q 12.75 -2.203125 8.328125 7.875 
Q 3.90625 17.96875 3.90625 31.890625 
Q 3.90625 40.578125 5.484375 48.234375 
Q 7.078125 55.90625 11.78125 61.25 
Q 16.5 66.609375 25 66.609375 
Q 31.59375 66.609375 35.78125 63.375 
Q 39.984375 60.15625 42.1875 55.046875 
Q 44.390625 49.953125 45.1875 44.109375 
Q 46 38.28125 46 31.890625 
Q 46 23.296875 44.40625 15.796875 
Q 42.828125 8.296875 38.1875 3.046875 
Q 33.546875 -2.203125 25 -2.203125 
z
M 25 0.390625 
Q 30.5625 0.390625 33.296875 6.09375 
Q 36.03125 11.8125 36.671875 18.75 
Q 37.3125 25.6875 37.3125 33.5 
Q 37.3125 41.015625 36.671875 47.359375 
Q 36.03125 53.71875 33.3125 58.859375 
Q 30.609375 64.015625 25 64.015625 
Q 19.34375 64.015625 16.609375 58.828125 
Q 13.875 53.65625 13.234375 47.328125 
Q 12.59375 41.015625 12.59375 33.5 
Q 12.59375 27.9375 12.859375 23 
Q 13.140625 18.0625 14.3125 12.8125 
Q 15.484375 7.5625 18.09375 3.96875 
Q 20.703125 0.390625 25 0.390625 
z
" id="Cmr10-48"/>
       <path d="M 8.40625 5.515625 
Q 8.40625 7.765625 10.0625 9.375 
Q 11.71875 10.984375 13.921875 10.984375 
Q 15.28125 10.984375 16.59375 10.25 
Q 17.921875 9.515625 18.65625 8.203125 
Q 19.390625 6.890625 19.390625 5.515625 
Q 19.390625 3.328125 17.765625 1.65625 
Q 16.15625 0 13.921875 0 
Q 11.71875 0 10.0625 1.65625 
Q 8.40625 3.328125 8.40625 5.515625 
z
" id="Cmr10-46"/>
      </defs>
      <g style="fill:#333333;" transform="translate(42.832922 257.749567)scale(0.12 -0.12)">
       <use xlink:href="#Cmr10-48"/>
       <use x="50" xlink:href="#Cmr10-46"/>
       <use x="77.685547" xlink:href="#Cmr10-48"/>
       <use x="127.685547" xlink:href="#Cmr10-48"/>
      </g>
     </g>
    </g>
    <g id="xtick_2">
     <g id="line2d_3">
      <path clip-path="url(#p94a20afc88)" d="M 106.403345 243.422692 
L 106.403345 27.553269 
" style="fill:none;stroke:#b0b0b0;stroke-linecap:square;stroke-opacity:0.3;"/>
     </g>
     <g id="line2d_4"/>
     <g id="text_2">
      <!-- 0.25 -->
      <defs>
       <path d="M 4.984375 0 
L 4.984375 2.6875 
Q 4.984375 2.9375 5.171875 3.21875 
L 20.703125 20.40625 
Q 24.21875 24.21875 26.40625 26.796875 
Q 28.609375 29.390625 30.75 32.765625 
Q 32.90625 36.140625 34.15625 39.625 
Q 35.40625 43.109375 35.40625 47.015625 
Q 35.40625 51.125 33.890625 54.859375 
Q 32.375 58.59375 29.375 60.84375 
Q 26.375 63.09375 22.125 63.09375 
Q 17.78125 63.09375 14.3125 60.46875 
Q 10.84375 57.859375 9.421875 53.71875 
Q 9.8125 53.8125 10.5 53.8125 
Q 12.75 53.8125 14.328125 52.296875 
Q 15.921875 50.78125 15.921875 48.390625 
Q 15.921875 46.09375 14.328125 44.5 
Q 12.75 42.921875 10.5 42.921875 
Q 8.15625 42.921875 6.5625 44.546875 
Q 4.984375 46.1875 4.984375 48.390625 
Q 4.984375 52.15625 6.390625 55.4375 
Q 7.8125 58.734375 10.46875 61.296875 
Q 13.140625 63.875 16.484375 65.234375 
Q 19.828125 66.609375 23.578125 66.609375 
Q 29.296875 66.609375 34.21875 64.1875 
Q 39.15625 61.765625 42.03125 57.34375 
Q 44.921875 52.9375 44.921875 47.015625 
Q 44.921875 42.671875 43.015625 38.765625 
Q 41.109375 34.859375 38.125 31.65625 
Q 35.15625 28.46875 30.515625 24.40625 
Q 25.875 20.359375 24.421875 19 
L 13.09375 8.109375 
L 22.703125 8.109375 
Q 29.78125 8.109375 34.546875 8.21875 
Q 39.3125 8.34375 39.59375 8.59375 
Q 40.765625 9.859375 42 17.828125 
L 44.921875 17.828125 
L 42.09375 0 
z
" id="Cmr10-50"/>
       <path d="M 8.6875 11.375 
Q 9.71875 8.453125 11.84375 6.046875 
Q 13.96875 3.65625 16.875 2.3125 
Q 19.78125 0.984375 22.90625 0.984375 
Q 30.125 0.984375 32.859375 6.59375 
Q 35.59375 12.203125 35.59375 20.21875 
Q 35.59375 23.6875 35.46875 26.046875 
Q 35.359375 28.421875 34.8125 30.609375 
Q 33.890625 34.125 31.5625 36.765625 
Q 29.25 39.40625 25.875 39.40625 
Q 22.515625 39.40625 20.09375 38.375 
Q 17.671875 37.359375 16.15625 35.984375 
Q 14.65625 34.625 13.484375 33.109375 
Q 12.3125 31.59375 12.015625 31.5 
L 10.890625 31.5 
Q 10.640625 31.5 10.265625 31.8125 
Q 9.90625 32.125 9.90625 32.421875 
L 9.90625 65.828125 
Q 9.90625 66.0625 10.21875 66.328125 
Q 10.546875 66.609375 10.890625 66.609375 
L 11.1875 66.609375 
Q 17.921875 63.375 25.484375 63.375 
Q 32.90625 63.375 39.796875 66.609375 
L 40.09375 66.609375 
Q 40.4375 66.609375 40.71875 66.359375 
Q 41.015625 66.109375 41.015625 65.828125 
L 41.015625 64.890625 
Q 41.015625 64.40625 40.828125 64.40625 
Q 37.40625 59.859375 32.25 57.3125 
Q 27.09375 54.78125 21.578125 54.78125 
Q 17.578125 54.78125 13.375 55.90625 
L 13.375 37.015625 
Q 16.703125 39.703125 19.3125 40.84375 
Q 21.921875 42 25.984375 42 
Q 31.5 42 35.859375 38.8125 
Q 40.234375 35.640625 42.578125 30.53125 
Q 44.921875 25.4375 44.921875 20.125 
Q 44.921875 14.109375 41.96875 8.984375 
Q 39.015625 3.859375 33.9375 0.828125 
Q 28.859375 -2.203125 22.90625 -2.203125 
Q 17.96875 -2.203125 13.84375 0.328125 
Q 9.71875 2.875 7.34375 7.171875 
Q 4.984375 11.46875 4.984375 16.3125 
Q 4.984375 18.5625 6.4375 19.96875 
Q 7.90625 21.390625 10.109375 21.390625 
Q 12.3125 21.390625 13.796875 19.9375 
Q 15.28125 18.5 15.28125 16.3125 
Q 15.28125 14.15625 13.796875 12.671875 
Q 12.3125 11.1875 10.109375 11.1875 
Q 9.765625 11.1875 9.328125 11.25 
Q 8.890625 11.328125 8.6875 11.375 
z
" id="Cmr10-53"/>
      </defs>
      <g style="fill:#333333;" transform="translate(95.742095 257.749567)scale(0.12 -0.12)">
       <use xlink:href="#Cmr10-48"/>
       <use x="50" xlink:href="#Cmr10-46"/>
       <use x="77.685547" xlink:href="#Cmr10-50"/>
       <use x="127.685547" xlink:href="#Cmr10-53"/>
      </g>
     </g>
    </g>
    <g id="xtick_3">
     <g id="line2d_5">
      <path clip-path="url(#p94a20afc88)" d="M 159.312517 243.422692 
L 159.312517 27.553269 
" style="fill:none;stroke:#b0b0b0;stroke-linecap:square;stroke-opacity:0.3;"/>
     </g>
     <g id="line2d_6"/>
     <g id="text_3">
      <!-- 0.50 -->
      <g style="fill:#333333;" transform="translate(148.651267 257.749567)scale(0.12 -0.12)">
       <use xlink:href="#Cmr10-48"/>
       <use x="50" xlink:href="#Cmr10-46"/>
       <use x="77.685547" xlink:href="#Cmr10-53"/>
       <use x="127.685547" xlink:href="#Cmr10-48"/>
      </g>
     </g>
    </g>
    <g id="xtick_4">
     <g id="line2d_7">
      <path clip-path="url(#p94a20afc88)" d="M 212.221689 243.422692 
L 212.221689 27.553269 
" style="fill:none;stroke:#b0b0b0;stroke-linecap:square;stroke-opacity:0.3;"/>
     </g>
     <g id="line2d_8"/>
     <g id="text_4">
      <!-- 0.75 -->
      <defs>
       <path d="M 17.390625 2.59375 
Q 17.390625 8.15625 18.359375 13.46875 
Q 19.34375 18.796875 21.21875 24 
Q 23.09375 29.203125 25.75 34.203125 
Q 28.421875 39.203125 31.59375 43.609375 
L 40.71875 56.296875 
L 29.296875 56.296875 
Q 11.53125 56.296875 10.984375 55.8125 
Q 9.671875 54.203125 8.5 46.578125 
L 5.609375 46.578125 
L 8.890625 67.578125 
L 11.8125 67.578125 
L 11.8125 67.28125 
Q 11.8125 65.484375 17.921875 64.9375 
Q 24.03125 64.40625 29.890625 64.40625 
L 48.484375 64.40625 
L 48.484375 61.8125 
Q 48.484375 61.71875 48.453125 61.671875 
Q 48.4375 61.625 48.390625 61.53125 
L 34.625 42.1875 
Q 29.546875 34.671875 28.265625 25.484375 
Q 27 16.3125 27 2.59375 
Q 27 0.640625 25.578125 -0.78125 
Q 24.171875 -2.203125 22.21875 -2.203125 
Q 20.21875 -2.203125 18.796875 -0.78125 
Q 17.390625 0.640625 17.390625 2.59375 
z
" id="Cmr10-55"/>
      </defs>
      <g style="fill:#333333;" transform="translate(201.560439 257.749567)scale(0.12 -0.12)">
       <use xlink:href="#Cmr10-48"/>
       <use x="50" xlink:href="#Cmr10-46"/>
       <use x="77.685547" xlink:href="#Cmr10-55"/>
       <use x="127.685547" xlink:href="#Cmr10-53"/>
      </g>
     </g>
    </g>
    <g id="xtick_5">
     <g id="line2d_9">
      <path clip-path="url(#p94a20afc88)" d="M 265.130862 243.422692 
L 265.130862 27.553269 
" style="fill:none;stroke:#b0b0b0;stroke-linecap:square;stroke-opacity:0.3;"/>
     </g>
     <g id="line2d_10"/>
     <g id="text_5">
      <!-- 1.00 -->
      <defs>
       <path d="M 9.28125 0 
L 9.28125 3.515625 
Q 21.78125 3.515625 21.78125 6.6875 
L 21.78125 59.1875 
Q 16.609375 56.6875 8.6875 56.6875 
L 8.6875 60.203125 
Q 20.953125 60.203125 27.203125 66.609375 
L 28.609375 66.609375 
Q 28.953125 66.609375 29.265625 66.328125 
Q 29.59375 66.0625 29.59375 65.71875 
L 29.59375 6.6875 
Q 29.59375 3.515625 42.09375 3.515625 
L 42.09375 0 
z
" id="Cmr10-49"/>
      </defs>
      <g style="fill:#333333;" transform="translate(254.469612 257.749567)scale(0.12 -0.12)">
       <use xlink:href="#Cmr10-49"/>
       <use x="50" xlink:href="#Cmr10-46"/>
       <use x="77.685547" xlink:href="#Cmr10-48"/>
       <use x="127.685547" xlink:href="#Cmr10-48"/>
      </g>
     </g>
    </g>
    <g id="text_6">
     <!-- Predicted Proportion in Interval -->
     <defs>
      <path d="M 3.328125 0 
L 3.328125 3.515625 
Q 13.625 3.515625 13.625 6.6875 
L 13.625 61.625 
Q 13.625 64.796875 3.328125 64.796875 
L 3.328125 68.3125 
L 38.921875 68.3125 
Q 44.390625 68.3125 49.859375 66.0625 
Q 55.328125 63.8125 58.859375 59.515625 
Q 62.40625 55.21875 62.40625 49.515625 
Q 62.40625 43.953125 58.84375 39.75 
Q 55.28125 35.546875 49.859375 33.375 
Q 44.4375 31.203125 38.921875 31.203125 
L 22.90625 31.203125 
L 22.90625 6.6875 
Q 22.90625 3.515625 33.203125 3.515625 
L 33.203125 0 
z
M 22.609375 34.1875 
L 36.1875 34.1875 
Q 41.703125 34.1875 45.109375 35.765625 
Q 48.53125 37.359375 50.109375 40.703125 
Q 51.703125 44.046875 51.703125 49.515625 
Q 51.703125 57.671875 48.109375 61.234375 
Q 44.53125 64.796875 36.1875 64.796875 
L 27.6875 64.796875 
Q 25.875 64.796875 24.875 64.640625 
Q 23.875 64.5 23.234375 63.796875 
Q 22.609375 63.09375 22.609375 61.625 
z
" id="Cmr10-80"/>
      <path d="M 2.59375 0 
L 2.59375 3.515625 
Q 6 3.515625 8.203125 4.046875 
Q 10.40625 4.59375 10.40625 6.6875 
L 10.40625 33.984375 
Q 10.40625 36.671875 9.59375 37.859375 
Q 8.796875 39.0625 7.28125 39.328125 
Q 5.765625 39.59375 2.59375 39.59375 
L 2.59375 43.109375 
L 16.890625 44.1875 
L 16.890625 34.421875 
Q 18.5 38.765625 21.484375 41.46875 
Q 24.46875 44.1875 28.71875 44.1875 
Q 31.6875 44.1875 34.03125 42.421875 
Q 36.375 40.671875 36.375 37.796875 
Q 36.375 35.984375 35.078125 34.640625 
Q 33.796875 33.296875 31.890625 33.296875 
Q 30.03125 33.296875 28.703125 34.609375 
Q 27.390625 35.9375 27.390625 37.796875 
Q 27.390625 40.484375 29.296875 41.609375 
L 28.71875 41.609375 
Q 24.65625 41.609375 22.09375 38.671875 
Q 19.53125 35.75 18.453125 31.390625 
Q 17.390625 27.046875 17.390625 23.09375 
L 17.390625 6.6875 
Q 17.390625 3.515625 27.09375 3.515625 
L 27.09375 0 
z
" id="Cmr10-114"/>
      <path d="M 24.90625 -1.125 
Q 18.796875 -1.125 13.6875 2.078125 
Q 8.59375 5.28125 5.6875 10.625 
Q 2.78125 15.96875 2.78125 21.921875 
Q 2.78125 27.78125 5.4375 33.046875 
Q 8.109375 38.328125 12.859375 41.578125 
Q 17.625 44.828125 23.484375 44.828125 
Q 28.078125 44.828125 31.46875 43.28125 
Q 34.859375 41.75 37.0625 39.015625 
Q 39.265625 36.28125 40.375 32.5625 
Q 41.5 28.859375 41.5 24.421875 
Q 41.5 23.09375 40.484375 23.09375 
L 11.53125 23.09375 
L 11.53125 22.015625 
Q 11.53125 13.71875 14.875 7.765625 
Q 18.21875 1.8125 25.78125 1.8125 
Q 28.859375 1.8125 31.46875 3.171875 
Q 34.078125 4.546875 36 6.984375 
Q 37.9375 9.421875 38.625 12.203125 
Q 38.71875 12.546875 38.984375 12.8125 
Q 39.265625 13.09375 39.59375 13.09375 
L 40.484375 13.09375 
Q 41.5 13.09375 41.5 11.8125 
Q 40.09375 6.15625 35.40625 2.515625 
Q 30.71875 -1.125 24.90625 -1.125 
z
M 11.625 25.59375 
L 34.421875 25.59375 
Q 34.421875 29.34375 33.375 33.203125 
Q 32.328125 37.0625 29.875 39.625 
Q 27.4375 42.1875 23.484375 42.1875 
Q 17.828125 42.1875 14.71875 36.890625 
Q 11.625 31.59375 11.625 25.59375 
z
" id="Cmr10-101"/>
      <path d="M 24.421875 -1.125 
Q 18.5 -1.125 13.609375 2.078125 
Q 8.734375 5.28125 6.03125 10.5 
Q 3.328125 15.71875 3.328125 21.578125 
Q 3.328125 27.640625 6.28125 32.828125 
Q 9.234375 38.03125 14.3125 41.109375 
Q 19.390625 44.1875 25.484375 44.1875 
Q 29.15625 44.1875 32.421875 42.640625 
Q 35.6875 41.109375 38.09375 38.375 
L 38.09375 59.1875 
Q 38.09375 61.859375 37.28125 63.0625 
Q 36.46875 64.265625 34.984375 64.53125 
Q 33.5 64.796875 30.328125 64.796875 
L 30.328125 68.3125 
L 45.125 69.390625 
L 45.125 9.078125 
Q 45.125 6.453125 45.921875 5.25 
Q 46.734375 4.046875 48.21875 3.78125 
Q 49.703125 3.515625 52.875 3.515625 
L 52.875 0 
L 37.796875 -1.125 
L 37.796875 5.171875 
Q 35.203125 2.203125 31.640625 0.53125 
Q 28.078125 -1.125 24.421875 -1.125 
z
M 14.203125 8.6875 
Q 15.921875 5.421875 18.765625 3.46875 
Q 21.625 1.515625 25 1.515625 
Q 29.15625 1.515625 32.609375 3.90625 
Q 36.078125 6.296875 37.796875 10.109375 
L 37.796875 34.078125 
Q 36.625 36.28125 34.84375 38.015625 
Q 33.0625 39.75 30.828125 40.671875 
Q 28.609375 41.609375 26.125 41.609375 
Q 20.90625 41.609375 17.71875 38.640625 
Q 14.546875 35.6875 13.28125 31.09375 
Q 12.015625 26.515625 12.015625 21.484375 
Q 12.015625 17.484375 12.421875 14.5 
Q 12.84375 11.53125 14.203125 8.6875 
z
" id="Cmr10-100"/>
      <path d="M 3.078125 0 
L 3.078125 3.515625 
Q 6.5 3.515625 8.6875 4.046875 
Q 10.890625 4.59375 10.890625 6.6875 
L 10.890625 33.984375 
Q 10.890625 37.84375 9.390625 38.71875 
Q 7.90625 39.59375 3.515625 39.59375 
L 3.515625 43.109375 
L 17.921875 44.1875 
L 17.921875 6.6875 
Q 17.921875 4.59375 19.828125 4.046875 
Q 21.734375 3.515625 24.90625 3.515625 
L 24.90625 0 
z
M 7.328125 61.375 
Q 7.328125 63.578125 8.984375 65.234375 
Q 10.640625 66.890625 12.796875 66.890625 
Q 14.203125 66.890625 15.515625 66.15625 
Q 16.84375 65.4375 17.578125 64.109375 
Q 18.3125 62.796875 18.3125 61.375 
Q 18.3125 59.234375 16.640625 57.5625 
Q 14.984375 55.90625 12.796875 55.90625 
Q 10.640625 55.90625 8.984375 57.5625 
Q 7.328125 59.234375 7.328125 61.375 
z
" id="Cmr10-105"/>
      <path d="M 24.90625 -1.125 
Q 18.84375 -1.125 13.90625 2.015625 
Q 8.984375 5.171875 6.15625 10.421875 
Q 3.328125 15.671875 3.328125 21.578125 
Q 3.328125 27.484375 6.125 32.90625 
Q 8.9375 38.328125 13.890625 41.578125 
Q 18.84375 44.828125 24.90625 44.828125 
Q 30.765625 44.828125 35.5625 42.53125 
Q 40.375 40.234375 40.375 35.015625 
Q 40.375 33.0625 38.984375 31.609375 
Q 37.59375 30.171875 35.59375 30.171875 
Q 33.59375 30.171875 32.203125 31.609375 
Q 30.8125 33.0625 30.8125 35.015625 
Q 30.8125 36.765625 31.9375 38.0625 
Q 33.0625 39.359375 34.71875 39.703125 
Q 31.25 41.890625 25 41.890625 
Q 20.21875 41.890625 17.28125 38.71875 
Q 14.359375 35.546875 13.1875 30.859375 
Q 12.015625 26.171875 12.015625 21.578125 
Q 12.015625 16.75 13.453125 12.234375 
Q 14.890625 7.71875 18.09375 4.765625 
Q 21.296875 1.8125 26.125 1.8125 
Q 30.859375 1.8125 34.171875 4.71875 
Q 37.5 7.625 38.71875 12.3125 
Q 38.71875 12.890625 39.5 12.890625 
L 40.71875 12.890625 
Q 41.015625 12.890625 41.25 12.625 
Q 41.5 12.359375 41.5 12.015625 
L 41.5 11.71875 
Q 39.984375 5.8125 35.484375 2.34375 
Q 31 -1.125 24.90625 -1.125 
z
" id="Cmr10-99"/>
      <path d="M 10.203125 12.015625 
L 10.203125 39.59375 
L 1.90625 39.59375 
L 1.90625 42.1875 
Q 8.453125 42.1875 11.515625 48.28125 
Q 14.59375 54.390625 14.59375 61.53125 
L 17.484375 61.53125 
L 17.484375 43.109375 
L 31.59375 43.109375 
L 31.59375 39.59375 
L 17.484375 39.59375 
L 17.484375 12.203125 
Q 17.484375 8.0625 18.875 4.9375 
Q 20.265625 1.8125 23.875 1.8125 
Q 27.296875 1.8125 28.8125 5.109375 
Q 30.328125 8.40625 30.328125 12.203125 
L 30.328125 18.109375 
L 33.203125 18.109375 
L 33.203125 12.015625 
Q 33.203125 8.890625 32.046875 5.828125 
Q 30.90625 2.78125 28.65625 0.828125 
Q 26.421875 -1.125 23.1875 -1.125 
Q 17.1875 -1.125 13.6875 2.46875 
Q 10.203125 6.0625 10.203125 12.015625 
z
" id="Cmr10-116"/>
      <path id="Cmr10-32"/>
      <path d="M 25 -1.125 
Q 19 -1.125 13.859375 1.921875 
Q 8.734375 4.984375 5.75 10.109375 
Q 2.78125 15.234375 2.78125 21.296875 
Q 2.78125 25.875 4.421875 30.125 
Q 6.0625 34.375 9.109375 37.71875 
Q 12.15625 41.0625 16.203125 42.9375 
Q 20.265625 44.828125 25 44.828125 
Q 31.15625 44.828125 36.203125 41.578125 
Q 41.265625 38.328125 44.1875 32.875 
Q 47.125 27.4375 47.125 21.296875 
Q 47.125 15.28125 44.140625 10.125 
Q 41.15625 4.984375 36.046875 1.921875 
Q 30.953125 -1.125 25 -1.125 
z
M 25 1.8125 
Q 33.015625 1.8125 35.6875 7.609375 
Q 38.375 13.421875 38.375 22.40625 
Q 38.375 27.4375 37.84375 30.734375 
Q 37.3125 34.03125 35.5 36.71875 
Q 34.375 38.375 32.640625 39.625 
Q 30.90625 40.875 28.96875 41.53125 
Q 27.046875 42.1875 25 42.1875 
Q 21.875 42.1875 19.0625 40.765625 
Q 16.265625 39.359375 14.40625 36.71875 
Q 12.546875 33.890625 12.03125 30.484375 
Q 11.53125 27.09375 11.53125 22.40625 
Q 11.53125 16.796875 12.5 12.328125 
Q 13.484375 7.859375 16.4375 4.828125 
Q 19.390625 1.8125 25 1.8125 
z
" id="Cmr10-111"/>
      <path d="M 2.59375 -19.390625 
L 2.59375 -15.921875 
Q 6 -15.921875 8.203125 -15.328125 
Q 10.40625 -14.75 10.40625 -12.703125 
L 10.40625 35.5 
Q 10.40625 38.234375 8.453125 38.90625 
Q 6.5 39.59375 2.59375 39.59375 
L 2.59375 43.109375 
L 17.390625 44.1875 
L 17.390625 37.984375 
Q 20.125 41.015625 23.75 42.59375 
Q 27.390625 44.1875 31.5 44.1875 
Q 37.40625 44.1875 42.140625 40.984375 
Q 46.875 37.796875 49.53125 32.59375 
Q 52.203125 27.390625 52.203125 21.578125 
Q 52.203125 15.53125 49.25 10.296875 
Q 46.296875 5.078125 41.1875 1.96875 
Q 36.078125 -1.125 29.984375 -1.125 
Q 22.703125 -1.125 17.671875 4.78125 
L 17.671875 -12.703125 
Q 17.671875 -14.75 19.890625 -15.328125 
Q 22.125 -15.921875 25.484375 -15.921875 
L 25.484375 -19.390625 
z
M 17.671875 9.71875 
Q 19.4375 6.15625 22.5625 3.828125 
Q 25.6875 1.515625 29.390625 1.515625 
Q 32.859375 1.515625 35.515625 3.359375 
Q 38.1875 5.21875 39.984375 8.34375 
Q 41.796875 11.46875 42.640625 14.90625 
Q 43.5 18.359375 43.5 21.578125 
Q 43.5 25.59375 42.0625 30.25 
Q 40.625 34.90625 37.671875 38.109375 
Q 34.71875 41.3125 30.515625 41.3125 
Q 26.46875 41.3125 23.0625 39.234375 
Q 19.671875 37.15625 17.671875 33.59375 
z
" id="Cmr10-112"/>
      <path d="M 2.984375 0 
L 2.984375 3.515625 
Q 6.390625 3.515625 8.59375 4.046875 
Q 10.796875 4.59375 10.796875 6.6875 
L 10.796875 33.984375 
Q 10.796875 36.671875 9.984375 37.859375 
Q 9.1875 39.0625 7.671875 39.328125 
Q 6.15625 39.59375 2.984375 39.59375 
L 2.984375 43.109375 
L 17.484375 44.1875 
L 17.484375 34.421875 
Q 19.484375 38.71875 23.40625 41.453125 
Q 27.34375 44.1875 31.984375 44.1875 
Q 38.921875 44.1875 42.40625 40.859375 
Q 45.90625 37.546875 45.90625 30.71875 
L 45.90625 6.6875 
Q 45.90625 4.59375 48.09375 4.046875 
Q 50.296875 3.515625 53.71875 3.515625 
L 53.71875 0 
L 30.8125 0 
L 30.8125 3.515625 
Q 34.234375 3.515625 36.421875 4.046875 
Q 38.625 4.59375 38.625 6.6875 
L 38.625 30.421875 
Q 38.625 35.296875 37.203125 38.453125 
Q 35.796875 41.609375 31.390625 41.609375 
Q 25.59375 41.609375 21.84375 36.96875 
Q 18.109375 32.328125 18.109375 26.421875 
L 18.109375 6.6875 
Q 18.109375 4.59375 20.3125 4.046875 
Q 22.515625 3.515625 25.875 3.515625 
L 25.875 0 
z
" id="Cmr10-110"/>
      <path d="M 2.59375 0 
L 2.59375 3.515625 
Q 13.375 3.515625 13.375 6.6875 
L 13.375 61.625 
Q 13.375 64.796875 2.59375 64.796875 
L 2.59375 68.3125 
L 33.5 68.3125 
L 33.5 64.796875 
Q 22.703125 64.796875 22.703125 61.625 
L 22.703125 6.6875 
Q 22.703125 3.515625 33.5 3.515625 
L 33.5 0 
z
" id="Cmr10-73"/>
      <path d="M 24.421875 0 
L 9.8125 36.71875 
Q 8.890625 38.578125 6.953125 39.078125 
Q 5.03125 39.59375 1.90625 39.59375 
L 1.90625 43.109375 
L 22.90625 43.109375 
L 22.90625 39.59375 
Q 17.28125 39.59375 17.28125 37.203125 
Q 17.28125 36.8125 17.390625 36.625 
L 28.609375 8.40625 
L 38.71875 33.890625 
Q 39.015625 34.671875 39.015625 35.5 
Q 39.015625 37.40625 37.578125 38.5 
Q 36.140625 39.59375 34.1875 39.59375 
L 34.1875 43.109375 
L 50.78125 43.109375 
L 50.78125 39.59375 
Q 47.703125 39.59375 45.375 38.171875 
Q 43.0625 36.765625 41.796875 33.984375 
L 28.328125 0 
Q 27.9375 -1.125 26.703125 -1.125 
L 25.984375 -1.125 
Q 24.75 -1.125 24.421875 0 
z
" id="Cmr10-118"/>
      <path d="M 4 9.8125 
Q 4 15.765625 8.6875 19.5 
Q 13.375 23.25 19.9375 24.78125 
Q 26.515625 26.3125 32.421875 26.3125 
L 32.421875 30.421875 
Q 32.421875 33.296875 31.15625 36 
Q 29.890625 38.71875 27.484375 40.453125 
Q 25.09375 42.1875 22.21875 42.1875 
Q 15.578125 42.1875 12.109375 39.203125 
Q 14.015625 39.203125 15.25 37.765625 
Q 16.5 36.328125 16.5 34.421875 
Q 16.5 32.421875 15.078125 31 
Q 13.671875 29.59375 11.71875 29.59375 
Q 9.71875 29.59375 8.296875 31 
Q 6.890625 32.421875 6.890625 34.421875 
Q 6.890625 39.703125 11.671875 42.265625 
Q 16.453125 44.828125 22.21875 44.828125 
Q 26.265625 44.828125 30.359375 43.09375 
Q 34.46875 41.359375 37.078125 38.125 
Q 39.703125 34.90625 39.703125 30.609375 
L 39.703125 8.109375 
Q 39.703125 6.15625 40.53125 4.515625 
Q 41.359375 2.875 43.109375 2.875 
Q 44.78125 2.875 45.578125 4.53125 
Q 46.390625 6.203125 46.390625 8.109375 
L 46.390625 14.5 
L 49.3125 14.5 
L 49.3125 8.109375 
Q 49.3125 5.859375 48.140625 3.828125 
Q 46.96875 1.8125 44.984375 0.609375 
Q 43.015625 -0.59375 40.71875 -0.59375 
Q 37.796875 -0.59375 35.671875 1.671875 
Q 33.546875 3.953125 33.296875 7.078125 
Q 31.453125 3.328125 27.828125 1.09375 
Q 24.21875 -1.125 20.125 -1.125 
Q 16.3125 -1.125 12.625 0 
Q 8.9375 1.125 6.46875 3.53125 
Q 4 5.953125 4 9.8125 
z
M 12.109375 9.8125 
Q 12.109375 6.296875 14.6875 3.90625 
Q 17.28125 1.515625 20.796875 1.515625 
Q 24.03125 1.515625 26.65625 3.125 
Q 29.296875 4.734375 30.859375 7.515625 
Q 32.421875 10.296875 32.421875 13.375 
L 32.421875 23.78125 
Q 27.875 23.78125 23.109375 22.28125 
Q 18.359375 20.796875 15.234375 17.625 
Q 12.109375 14.453125 12.109375 9.8125 
z
" id="Cmr10-97"/>
      <path d="M 3.078125 0 
L 3.078125 3.515625 
Q 6.5 3.515625 8.6875 4.046875 
Q 10.890625 4.59375 10.890625 6.6875 
L 10.890625 59.1875 
Q 10.890625 61.859375 10.078125 63.0625 
Q 9.28125 64.265625 7.765625 64.53125 
Q 6.25 64.796875 3.078125 64.796875 
L 3.078125 68.3125 
L 17.921875 69.390625 
L 17.921875 6.6875 
Q 17.921875 4.59375 20.109375 4.046875 
Q 22.3125 3.515625 25.6875 3.515625 
L 25.6875 0 
z
" id="Cmr10-108"/>
     </defs>
     <g transform="translate(74.174392 272.403317)scale(0.12 -0.12)">
      <use xlink:href="#Cmr10-80"/>
      <use x="68.017578" xlink:href="#Cmr10-114"/>
      <use x="107.128906" xlink:href="#Cmr10-101"/>
      <use x="151.513672" xlink:href="#Cmr10-100"/>
      <use x="207.03125" xlink:href="#Cmr10-105"/>
      <use x="234.716797" xlink:href="#Cmr10-99"/>
      <use x="279.101562" xlink:href="#Cmr10-116"/>
      <use x="317.919922" xlink:href="#Cmr10-101"/>
      <use x="362.304688" xlink:href="#Cmr10-100"/>
      <use x="417.822266" xlink:href="#Cmr10-32"/>
      <use x="451.123047" xlink:href="#Cmr10-80"/>
      <use x="519.140625" xlink:href="#Cmr10-114"/>
      <use x="558.251953" xlink:href="#Cmr10-111"/>
      <use x="608.251953" xlink:href="#Cmr10-112"/>
      <use x="663.769531" xlink:href="#Cmr10-111"/>
      <use x="713.769531" xlink:href="#Cmr10-114"/>
      <use x="752.880859" xlink:href="#Cmr10-116"/>
      <use x="791.699219" xlink:href="#Cmr10-105"/>
      <use x="819.384766" xlink:href="#Cmr10-111"/>
      <use x="869.384766" xlink:href="#Cmr10-110"/>
      <use x="924.902344" xlink:href="#Cmr10-32"/>
      <use x="958.203125" xlink:href="#Cmr10-105"/>
      <use x="985.888672" xlink:href="#Cmr10-110"/>
      <use x="1041.40625" xlink:href="#Cmr10-32"/>
      <use x="1074.707031" xlink:href="#Cmr10-73"/>
      <use x="1110.791016" xlink:href="#Cmr10-110"/>
      <use x="1166.308594" xlink:href="#Cmr10-116"/>
      <use x="1205.126953" xlink:href="#Cmr10-101"/>
      <use x="1249.511719" xlink:href="#Cmr10-114"/>
      <use x="1288.623047" xlink:href="#Cmr10-118"/>
      <use x="1341.308594" xlink:href="#Cmr10-97"/>
      <use x="1391.308594" xlink:href="#Cmr10-108"/>
     </g>
    </g>
   </g>
   <g id="matplotlib.axis_2">
    <g id="ytick_1">
     <g id="line2d_11">
      <path clip-path="url(#p94a20afc88)" d="M 51.377805 241.306325 
L 267.247229 241.306325 
" style="fill:none;stroke:#b0b0b0;stroke-linecap:square;stroke-opacity:0.3;"/>
     </g>
     <g id="line2d_12"/>
     <g id="text_7">
      <!-- 0.0 -->
      <g style="fill:#333333;" transform="translate(30.055305 245.469763)scale(0.12 -0.12)">
       <use xlink:href="#Cmr10-48"/>
       <use x="50" xlink:href="#Cmr10-46"/>
       <use x="77.685547" xlink:href="#Cmr10-48"/>
      </g>
     </g>
    </g>
    <g id="ytick_2">
     <g id="line2d_13">
      <path clip-path="url(#p94a20afc88)" d="M 51.377805 198.978988 
L 267.247229 198.978988 
" style="fill:none;stroke:#b0b0b0;stroke-linecap:square;stroke-opacity:0.3;"/>
     </g>
     <g id="line2d_14"/>
     <g id="text_8">
      <!-- 0.2 -->
      <g style="fill:#333333;" transform="translate(30.055305 203.142425)scale(0.12 -0.12)">
       <use xlink:href="#Cmr10-48"/>
       <use x="50" xlink:href="#Cmr10-46"/>
       <use x="77.685547" xlink:href="#Cmr10-50"/>
      </g>
     </g>
    </g>
    <g id="ytick_3">
     <g id="line2d_15">
      <path clip-path="url(#p94a20afc88)" d="M 51.377805 156.65165 
L 267.247229 156.65165 
" style="fill:none;stroke:#b0b0b0;stroke-linecap:square;stroke-opacity:0.3;"/>
     </g>
     <g id="line2d_16"/>
     <g id="text_9">
      <!-- 0.4 -->
      <defs>
       <path d="M 2.78125 16.5 
L 2.78125 20.015625 
L 33.6875 66.109375 
Q 34.03125 66.609375 34.71875 66.609375 
L 36.1875 66.609375 
Q 37.3125 66.609375 37.3125 65.484375 
L 37.3125 20.015625 
L 47.125 20.015625 
L 47.125 16.5 
L 37.3125 16.5 
L 37.3125 6.6875 
Q 37.3125 4.640625 40.234375 4.078125 
Q 43.171875 3.515625 47.015625 3.515625 
L 47.015625 0 
L 19.484375 0 
L 19.484375 3.515625 
Q 23.34375 3.515625 26.265625 4.078125 
Q 29.203125 4.640625 29.203125 6.6875 
L 29.203125 16.5 
z
M 6.109375 20.015625 
L 29.78125 20.015625 
L 29.78125 55.421875 
z
" id="Cmr10-52"/>
      </defs>
      <g style="fill:#333333;" transform="translate(30.055305 160.815087)scale(0.12 -0.12)">
       <use xlink:href="#Cmr10-48"/>
       <use x="50" xlink:href="#Cmr10-46"/>
       <use x="77.685547" xlink:href="#Cmr10-52"/>
      </g>
     </g>
    </g>
    <g id="ytick_4">
     <g id="line2d_17">
      <path clip-path="url(#p94a20afc88)" d="M 51.377805 114.324312 
L 267.247229 114.324312 
" style="fill:none;stroke:#b0b0b0;stroke-linecap:square;stroke-opacity:0.3;"/>
     </g>
     <g id="line2d_18"/>
     <g id="text_10">
      <!-- 0.6 -->
      <defs>
       <path d="M 25 -2.203125 
Q 18.796875 -2.203125 14.640625 1.09375 
Q 10.5 4.390625 8.21875 9.640625 
Q 5.953125 14.890625 5.078125 20.65625 
Q 4.203125 26.421875 4.203125 32.328125 
Q 4.203125 40.234375 7.28125 48.1875 
Q 10.359375 56.15625 16.328125 61.375 
Q 22.3125 66.609375 30.515625 66.609375 
Q 33.9375 66.609375 36.890625 65.3125 
Q 39.84375 64.015625 41.53125 61.5 
Q 43.21875 58.984375 43.21875 55.421875 
Q 43.21875 53.375 41.828125 51.984375 
Q 40.4375 50.59375 38.375 50.59375 
Q 36.421875 50.59375 35 52 
Q 33.59375 53.421875 33.59375 55.421875 
Q 33.59375 57.375 35 58.78125 
Q 36.421875 60.203125 38.375 60.203125 
L 38.921875 60.203125 
Q 37.640625 62.015625 35.328125 62.859375 
Q 33.015625 63.71875 30.515625 63.71875 
Q 27.484375 63.71875 24.921875 62.390625 
Q 22.359375 61.078125 20.3125 58.828125 
Q 18.265625 56.59375 16.890625 53.875 
Q 15.53125 51.171875 14.765625 47.703125 
Q 14.015625 44.234375 13.8125 41.203125 
Q 13.625 38.1875 13.625 33.59375 
Q 15.375 37.703125 18.59375 40.3125 
Q 21.828125 42.921875 25.875 42.921875 
Q 30.328125 42.921875 33.984375 41.109375 
Q 37.640625 39.3125 40.28125 36.109375 
Q 42.921875 32.90625 44.3125 28.796875 
Q 45.703125 24.703125 45.703125 20.515625 
Q 45.703125 14.65625 43.09375 9.34375 
Q 40.484375 4.046875 35.734375 0.921875 
Q 31 -2.203125 25 -2.203125 
z
M 25 0.984375 
Q 28.859375 0.984375 31.203125 2.734375 
Q 33.546875 4.5 34.640625 7.390625 
Q 35.75 10.296875 36.015625 13.25 
Q 36.28125 16.21875 36.28125 20.515625 
Q 36.28125 26.171875 35.734375 30.171875 
Q 35.203125 34.1875 32.8125 37.234375 
Q 30.421875 40.28125 25.484375 40.28125 
Q 21.4375 40.28125 18.828125 37.546875 
Q 16.21875 34.8125 15.015625 30.640625 
Q 13.8125 26.46875 13.8125 22.609375 
Q 13.8125 21.296875 13.921875 20.609375 
Q 13.921875 20.453125 13.890625 20.359375 
Q 13.875 20.265625 13.8125 20.125 
Q 13.8125 15.828125 14.6875 11.421875 
Q 15.578125 7.03125 18.0625 4 
Q 20.5625 0.984375 25 0.984375 
z
" id="Cmr10-54"/>
      </defs>
      <g style="fill:#333333;" transform="translate(30.055305 118.487749)scale(0.12 -0.12)">
       <use xlink:href="#Cmr10-48"/>
       <use x="50" xlink:href="#Cmr10-46"/>
       <use x="77.685547" xlink:href="#Cmr10-54"/>
      </g>
     </g>
    </g>
    <g id="ytick_5">
     <g id="line2d_19">
      <path clip-path="url(#p94a20afc88)" d="M 51.377805 71.996974 
L 267.247229 71.996974 
" style="fill:none;stroke:#b0b0b0;stroke-linecap:square;stroke-opacity:0.3;"/>
     </g>
     <g id="line2d_20"/>
     <g id="text_11">
      <!-- 0.8 -->
      <defs>
       <path d="M 4.203125 15.1875 
Q 4.203125 21.1875 8.15625 25.796875 
Q 12.109375 30.421875 18.3125 33.5 
L 14.59375 35.890625 
Q 11.1875 38.140625 9.03125 41.875 
Q 6.890625 45.609375 6.890625 49.703125 
Q 6.890625 54.5 9.40625 58.34375 
Q 11.921875 62.203125 16.09375 64.40625 
Q 20.265625 66.609375 25 66.609375 
Q 29.4375 66.609375 33.5625 64.796875 
Q 37.703125 62.984375 40.359375 59.609375 
Q 43.015625 56.25 43.015625 51.609375 
Q 43.015625 48.25 41.421875 45.359375 
Q 39.84375 42.484375 37.078125 40.1875 
Q 34.328125 37.890625 31.203125 36.28125 
L 36.921875 32.625 
Q 40.875 30.03125 43.28125 25.828125 
Q 45.703125 21.625 45.703125 17 
Q 45.703125 11.578125 42.796875 7.125 
Q 39.890625 2.6875 35.109375 0.234375 
Q 30.328125 -2.203125 25 -2.203125 
Q 19.828125 -2.203125 15.015625 -0.09375 
Q 10.203125 2 7.203125 5.984375 
Q 4.203125 9.96875 4.203125 15.1875 
z
M 9.625 15.1875 
Q 9.625 11.234375 11.796875 7.953125 
Q 13.96875 4.6875 17.53125 2.828125 
Q 21.09375 0.984375 25 0.984375 
Q 30.8125 0.984375 35.546875 4.375 
Q 40.28125 7.765625 40.28125 13.375 
Q 40.28125 15.28125 39.515625 17.15625 
Q 38.765625 19.046875 37.421875 20.578125 
Q 36.078125 22.125 34.421875 23.09375 
L 21 31.78125 
Q 17.875 30.125 15.25 27.578125 
Q 12.640625 25.046875 11.125 21.875 
Q 9.625 18.703125 9.625 15.1875 
z
M 16.5 45.703125 
L 28.609375 37.890625 
Q 32.8125 40.328125 35.5 43.796875 
Q 38.1875 47.265625 38.1875 51.609375 
Q 38.1875 54.984375 36.296875 57.78125 
Q 34.421875 60.59375 31.390625 62.15625 
Q 28.375 63.71875 24.90625 63.71875 
Q 21.875 63.71875 18.796875 62.546875 
Q 15.71875 61.375 13.71875 59.046875 
Q 11.71875 56.734375 11.71875 53.609375 
Q 11.71875 48.921875 16.5 45.703125 
z
" id="Cmr10-56"/>
      </defs>
      <g style="fill:#333333;" transform="translate(30.055305 76.160411)scale(0.12 -0.12)">
       <use xlink:href="#Cmr10-48"/>
       <use x="50" xlink:href="#Cmr10-46"/>
       <use x="77.685547" xlink:href="#Cmr10-56"/>
      </g>
     </g>
    </g>
    <g id="ytick_6">
     <g id="line2d_21">
      <path clip-path="url(#p94a20afc88)" d="M 51.377805 29.669636 
L 267.247229 29.669636 
" style="fill:none;stroke:#b0b0b0;stroke-linecap:square;stroke-opacity:0.3;"/>
     </g>
     <g id="line2d_22"/>
     <g id="text_12">
      <!-- 1.0 -->
      <g style="fill:#333333;" transform="translate(30.055305 33.833074)scale(0.12 -0.12)">
       <use xlink:href="#Cmr10-49"/>
       <use x="50" xlink:href="#Cmr10-46"/>
       <use x="77.685547" xlink:href="#Cmr10-48"/>
      </g>
     </g>
    </g>
    <g id="text_13">
     <!-- Observed Proportion in Interval -->
     <defs>
      <path d="M 38.921875 -2.203125 
Q 29.390625 -2.203125 21.796875 2.84375 
Q 14.203125 7.90625 9.90625 16.28125 
Q 5.609375 24.65625 5.609375 33.890625 
Q 5.609375 40.71875 8.078125 47.40625 
Q 10.546875 54.109375 14.96875 59.28125 
Q 19.390625 64.453125 25.578125 67.484375 
Q 31.78125 70.515625 38.921875 70.515625 
Q 46 70.515625 52.21875 67.453125 
Q 58.453125 64.40625 62.890625 59.171875 
Q 67.328125 53.953125 69.71875 47.453125 
Q 72.125 40.96875 72.125 33.890625 
Q 72.125 24.65625 67.828125 16.28125 
Q 63.53125 7.90625 55.90625 2.84375 
Q 48.296875 -2.203125 38.921875 -2.203125 
z
M 22.3125 10.796875 
Q 25.25 6.203125 29.546875 3.484375 
Q 33.84375 0.78125 38.921875 0.78125 
Q 42.1875 0.78125 45.328125 2.09375 
Q 48.484375 3.421875 51.046875 5.71875 
Q 53.609375 8.015625 55.421875 10.796875 
Q 61.375 19.78125 61.375 35.5 
Q 61.375 49.90625 55.421875 58.296875 
Q 52.484375 62.5 48.109375 65.03125 
Q 43.75 67.578125 38.921875 67.578125 
Q 34.03125 67.578125 29.640625 65.03125 
Q 25.25 62.5 22.3125 58.296875 
Q 19.96875 55.03125 18.671875 51.34375 
Q 17.390625 47.65625 16.84375 43.703125 
Q 16.3125 39.75 16.3125 35.5 
Q 16.3125 30.953125 16.8125 26.625 
Q 17.328125 22.3125 18.71875 18.15625 
Q 20.125 14.015625 22.3125 10.796875 
z
" id="Cmr10-79"/>
      <path d="M 10.40625 0 
L 10.40625 59.1875 
Q 10.40625 61.859375 9.59375 63.0625 
Q 8.796875 64.265625 7.28125 64.53125 
Q 5.765625 64.796875 2.59375 64.796875 
L 2.59375 68.3125 
L 17.390625 69.390625 
L 17.390625 38.09375 
Q 19.046875 39.9375 21.265625 41.328125 
Q 23.484375 42.71875 26.015625 43.453125 
Q 28.5625 44.1875 31.203125 44.1875 
Q 35.6875 44.1875 39.515625 42.375 
Q 43.359375 40.578125 46.1875 37.40625 
Q 49.03125 34.234375 50.609375 30.109375 
Q 52.203125 25.984375 52.203125 21.578125 
Q 52.203125 15.53125 49.25 10.296875 
Q 46.296875 5.078125 41.1875 1.96875 
Q 36.078125 -1.125 29.984375 -1.125 
Q 26.171875 -1.125 22.609375 0.828125 
Q 19.046875 2.78125 16.703125 6 
L 13.28125 0 
z
M 17.671875 9.8125 
Q 19.34375 6.15625 22.46875 3.828125 
Q 25.59375 1.515625 29.390625 1.515625 
Q 34.578125 1.515625 37.765625 4.484375 
Q 40.96875 7.46875 42.234375 12 
Q 43.5 16.546875 43.5 21.578125 
Q 43.5 30.03125 41.3125 34.421875 
Q 40.328125 36.375 38.640625 38.03125 
Q 36.96875 39.703125 34.890625 40.65625 
Q 32.8125 41.609375 30.515625 41.609375 
Q 26.515625 41.609375 23.09375 39.484375 
Q 19.671875 37.359375 17.671875 33.796875 
z
" id="Cmr10-98"/>
      <path d="M 3.328125 -0.296875 
L 3.328125 16.015625 
Q 3.328125 16.796875 4.203125 16.796875 
L 5.421875 16.796875 
Q 6 16.796875 6.203125 16.015625 
Q 8.984375 1.515625 19.671875 1.515625 
Q 24.421875 1.515625 27.609375 3.65625 
Q 30.8125 5.8125 30.8125 10.296875 
Q 30.8125 13.53125 28.3125 15.796875 
Q 25.828125 18.0625 22.40625 18.890625 
L 15.71875 20.21875 
Q 12.359375 20.953125 9.59375 22.453125 
Q 6.84375 23.96875 5.078125 26.484375 
Q 3.328125 29 3.328125 32.328125 
Q 3.328125 36.71875 5.640625 39.515625 
Q 7.953125 42.328125 11.65625 43.578125 
Q 15.375 44.828125 19.671875 44.828125 
Q 24.8125 44.828125 28.609375 42.09375 
L 31.5 44.578125 
Q 31.5 44.828125 31.984375 44.828125 
L 32.71875 44.828125 
Q 33.015625 44.828125 33.25 44.546875 
Q 33.5 44.28125 33.5 44 
L 33.5 30.90625 
Q 33.5 29.984375 32.71875 29.984375 
L 31.5 29.984375 
Q 30.609375 29.984375 30.609375 30.90625 
Q 30.609375 36.140625 27.703125 39.3125 
Q 24.8125 42.484375 19.578125 42.484375 
Q 15.09375 42.484375 11.796875 40.8125 
Q 8.5 39.15625 8.5 35.109375 
Q 8.5 32.328125 10.859375 30.546875 
Q 13.234375 28.765625 16.40625 27.984375 
L 23.1875 26.703125 
Q 26.609375 25.921875 29.5625 24.0625 
Q 32.515625 22.21875 34.25 19.375 
Q 35.984375 16.546875 35.984375 12.984375 
Q 35.984375 9.375 34.734375 6.703125 
Q 33.5 4.046875 31.265625 2.28125 
Q 29.046875 0.53125 26.015625 -0.296875 
Q 23 -1.125 19.671875 -1.125 
Q 13.421875 -1.125 8.984375 3.078125 
L 5.328125 -0.875 
Q 5.328125 -1.125 4.78125 -1.125 
L 4.203125 -1.125 
Q 3.328125 -1.125 3.328125 -0.296875 
z
" id="Cmr10-115"/>
     </defs>
     <g transform="translate(23.72843 220.078606)rotate(-90)scale(0.12 -0.12)">
      <use xlink:href="#Cmr10-79"/>
      <use x="77.685547" xlink:href="#Cmr10-98"/>
      <use x="133.203125" xlink:href="#Cmr10-115"/>
      <use x="172.607422" xlink:href="#Cmr10-101"/>
      <use x="216.992188" xlink:href="#Cmr10-114"/>
      <use x="256.103516" xlink:href="#Cmr10-118"/>
      <use x="308.789062" xlink:href="#Cmr10-101"/>
      <use x="353.173828" xlink:href="#Cmr10-100"/>
      <use x="408.691406" xlink:href="#Cmr10-32"/>
      <use x="441.992188" xlink:href="#Cmr10-80"/>
      <use x="510.009766" xlink:href="#Cmr10-114"/>
      <use x="549.121094" xlink:href="#Cmr10-111"/>
      <use x="599.121094" xlink:href="#Cmr10-112"/>
      <use x="654.638672" xlink:href="#Cmr10-111"/>
      <use x="704.638672" xlink:href="#Cmr10-114"/>
      <use x="743.75" xlink:href="#Cmr10-116"/>
      <use x="782.568359" xlink:href="#Cmr10-105"/>
      <use x="810.253906" xlink:href="#Cmr10-111"/>
      <use x="860.253906" xlink:href="#Cmr10-110"/>
      <use x="915.771484" xlink:href="#Cmr10-32"/>
      <use x="949.072266" xlink:href="#Cmr10-105"/>
      <use x="976.757812" xlink:href="#Cmr10-110"/>
      <use x="1032.275391" xlink:href="#Cmr10-32"/>
      <use x="1065.576172" xlink:href="#Cmr10-73"/>
      <use x="1101.660156" xlink:href="#Cmr10-110"/>
      <use x="1157.177734" xlink:href="#Cmr10-116"/>
      <use x="1195.996094" xlink:href="#Cmr10-101"/>
      <use x="1240.380859" xlink:href="#Cmr10-114"/>
      <use x="1279.492188" xlink:href="#Cmr10-118"/>
      <use x="1332.177734" xlink:href="#Cmr10-97"/>
      <use x="1382.177734" xlink:href="#Cmr10-108"/>
     </g>
    </g>
   </g>
   <g id="PolyCollection_1">
    <path clip-path="url(#p94a20afc88)" d="M 53.494172 241.306325 
L 53.494172 241.306325 
L 55.631917 239.168581 
L 57.769661 237.030837 
L 59.907405 234.893092 
L 62.04515 232.755348 
L 64.182894 230.617604 
L 66.320638 228.479859 
L 68.458383 226.342115 
L 70.596127 224.204371 
L 72.733871 222.066626 
L 74.871616 219.928882 
L 77.00936 217.791138 
L 79.147104 215.653393 
L 81.284849 213.515649 
L 83.422593 211.377905 
L 85.560337 209.24016 
L 87.698082 207.102416 
L 89.835826 204.964672 
L 91.97357 202.826927 
L 94.111315 200.689183 
L 96.249059 198.551439 
L 98.386803 196.413694 
L 100.524548 194.27595 
L 102.662292 192.138206 
L 104.800036 190.000461 
L 106.937781 187.862717 
L 109.075525 185.724973 
L 111.213269 183.587228 
L 113.351014 181.449484 
L 115.488758 179.31174 
L 117.626502 177.173995 
L 119.764247 175.036251 
L 121.901991 172.898507 
L 124.039735 170.760762 
L 126.17748 168.623018 
L 128.315224 166.485274 
L 130.452968 164.347529 
L 132.590713 162.209785 
L 134.728457 160.072041 
L 136.866201 157.934296 
L 139.003946 155.796552 
L 141.14169 153.658808 
L 143.279434 151.521063 
L 145.417179 149.383319 
L 147.554923 147.245575 
L 149.692667 145.10783 
L 151.830412 142.970086 
L 153.968156 140.832342 
L 156.1059 138.694597 
L 158.243645 136.556853 
L 160.381389 134.419109 
L 162.519133 132.281364 
L 164.656878 130.14362 
L 166.794622 128.005876 
L 168.932366 125.868131 
L 171.070111 123.730387 
L 173.207855 121.592643 
L 175.345599 119.454898 
L 177.483344 117.317154 
L 179.621088 115.17941 
L 181.758832 113.041665 
L 183.896577 110.903921 
L 186.034321 108.766177 
L 188.172066 106.628432 
L 190.30981 104.490688 
L 192.447554 102.352944 
L 194.585299 100.215199 
L 196.723043 98.077455 
L 198.860787 95.939711 
L 200.998532 93.801966 
L 203.136276 91.664222 
L 205.27402 89.526478 
L 207.411765 87.388733 
L 209.549509 85.250989 
L 211.687253 83.113245 
L 213.824998 80.9755 
L 215.962742 78.837756 
L 218.100486 76.700012 
L 220.238231 74.562267 
L 222.375975 72.424523 
L 224.513719 70.286779 
L 226.651464 68.149034 
L 228.789208 66.01129 
L 230.926952 63.873546 
L 233.064697 61.735801 
L 235.202441 59.598057 
L 237.340185 57.460312 
L 239.47793 55.322568 
L 241.615674 53.184824 
L 243.753418 51.047079 
L 245.891163 48.909335 
L 248.028907 46.771591 
L 250.166651 44.633846 
L 252.304396 42.496102 
L 254.44214 40.358358 
L 256.579884 38.220613 
L 258.717629 36.082869 
L 260.855373 33.945125 
L 262.993117 31.80738 
L 265.130862 29.669636 
L 265.130862 29.669636 
L 265.130862 29.669636 
L 262.993117 34.960553 
L 260.855373 39.193287 
L 258.717629 40.251471 
L 256.579884 41.309654 
L 254.44214 42.367837 
L 252.304396 42.367837 
L 250.166651 43.426021 
L 248.028907 44.484204 
L 245.891163 46.600571 
L 243.753418 46.600571 
L 241.615674 47.658755 
L 239.47793 48.716938 
L 237.340185 49.775122 
L 235.202441 49.775122 
L 233.064697 51.891488 
L 230.926952 55.066039 
L 228.789208 58.240589 
L 226.651464 60.356956 
L 224.513719 60.356956 
L 222.375975 64.58969 
L 220.238231 66.706057 
L 218.100486 71.996974 
L 215.962742 73.055157 
L 213.824998 75.171524 
L 211.687253 75.171524 
L 209.549509 77.287891 
L 207.411765 78.346075 
L 205.27402 79.404258 
L 203.136276 80.462442 
L 200.998532 80.462442 
L 198.860787 85.753359 
L 196.723043 87.869726 
L 194.585299 92.102459 
L 192.447554 95.27701 
L 190.30981 95.27701 
L 188.172066 98.45156 
L 186.034321 101.62611 
L 183.896577 103.742477 
L 181.758832 103.742477 
L 179.621088 105.858844 
L 177.483344 110.091578 
L 175.345599 115.382495 
L 173.207855 120.673413 
L 171.070111 121.731596 
L 168.932366 125.96433 
L 166.794622 128.080697 
L 164.656878 129.13888 
L 162.519133 133.371614 
L 160.381389 137.604348 
L 158.243645 139.720715 
L 156.1059 140.778898 
L 153.968156 145.011632 
L 151.830412 149.244366 
L 149.692667 152.418916 
L 147.554923 154.535283 
L 145.417179 159.8262 
L 143.279434 163.00075 
L 141.14169 165.117117 
L 139.003946 168.291668 
L 136.866201 172.524401 
L 134.728457 173.582585 
L 132.590713 176.757135 
L 130.452968 178.873502 
L 128.315224 179.931686 
L 126.17748 179.931686 
L 124.039735 179.931686 
L 121.901991 183.106236 
L 119.764247 187.33897 
L 117.626502 188.397153 
L 115.488758 188.397153 
L 113.351014 191.571703 
L 111.213269 194.746254 
L 109.075525 195.804437 
L 106.937781 198.978988 
L 104.800036 202.153538 
L 102.662292 204.269905 
L 100.524548 207.444455 
L 98.386803 209.560822 
L 96.249059 211.677189 
L 94.111315 213.793556 
L 91.97357 214.851739 
L 89.835826 218.02629 
L 87.698082 220.142656 
L 85.560337 220.142656 
L 83.422593 222.259023 
L 81.284849 223.317207 
L 79.147104 224.37539 
L 77.00936 224.37539 
L 74.871616 226.491757 
L 72.733871 227.549941 
L 70.596127 230.724491 
L 68.458383 231.782674 
L 66.320638 233.899041 
L 64.182894 236.015408 
L 62.04515 238.131775 
L 59.907405 238.131775 
L 57.769661 239.189959 
L 55.631917 241.306325 
L 53.494172 241.306325 
z
" style="fill:#1f77b4;fill-opacity:0.2;"/>
   </g>
   <g id="line2d_23">
    <path clip-path="url(#p94a20afc88)" d="M 53.494172 241.306325 
L 265.130862 29.669636 
" style="fill:none;stroke:#ff7f0e;stroke-dasharray:7.4,3.2;stroke-dashoffset:0;stroke-width:2;"/>
   </g>
   <g id="line2d_24">
    <path clip-path="url(#p94a20afc88)" d="M 53.494172 241.306325 
L 55.631917 241.306325 
L 57.769661 239.189959 
L 59.907405 238.131775 
L 62.04515 238.131775 
L 64.182894 236.015408 
L 66.320638 233.899041 
L 68.458383 231.782674 
L 70.596127 230.724491 
L 72.733871 227.549941 
L 74.871616 226.491757 
L 77.00936 224.37539 
L 79.147104 224.37539 
L 81.284849 223.317207 
L 83.422593 222.259023 
L 85.560337 220.142656 
L 87.698082 220.142656 
L 89.835826 218.02629 
L 91.97357 214.851739 
L 94.111315 213.793556 
L 96.249059 211.677189 
L 98.386803 209.560822 
L 100.524548 207.444455 
L 102.662292 204.269905 
L 104.800036 202.153538 
L 106.937781 198.978988 
L 109.075525 195.804437 
L 111.213269 194.746254 
L 113.351014 191.571703 
L 115.488758 188.397153 
L 117.626502 188.397153 
L 119.764247 187.33897 
L 121.901991 183.106236 
L 124.039735 179.931686 
L 126.17748 179.931686 
L 128.315224 179.931686 
L 130.452968 178.873502 
L 132.590713 176.757135 
L 134.728457 173.582585 
L 136.866201 172.524401 
L 139.003946 168.291668 
L 141.14169 165.117117 
L 143.279434 163.00075 
L 145.417179 159.8262 
L 147.554923 154.535283 
L 149.692667 152.418916 
L 151.830412 149.244366 
L 153.968156 145.011632 
L 156.1059 140.778898 
L 158.243645 139.720715 
L 160.381389 137.604348 
L 162.519133 133.371614 
L 164.656878 129.13888 
L 166.794622 128.080697 
L 168.932366 125.96433 
L 171.070111 121.731596 
L 173.207855 120.673413 
L 175.345599 115.382495 
L 177.483344 110.091578 
L 179.621088 105.858844 
L 181.758832 103.742477 
L 183.896577 103.742477 
L 186.034321 101.62611 
L 188.172066 98.45156 
L 190.30981 95.27701 
L 192.447554 95.27701 
L 194.585299 92.102459 
L 196.723043 87.869726 
L 198.860787 85.753359 
L 200.998532 80.462442 
L 203.136276 80.462442 
L 205.27402 79.404258 
L 207.411765 78.346075 
L 209.549509 77.287891 
L 211.687253 75.171524 
L 213.824998 75.171524 
L 215.962742 73.055157 
L 218.100486 71.996974 
L 220.238231 66.706057 
L 222.375975 64.58969 
L 224.513719 60.356956 
L 226.651464 60.356956 
L 228.789208 58.240589 
L 230.926952 55.066039 
L 233.064697 51.891488 
L 235.202441 49.775122 
L 237.340185 49.775122 
L 239.47793 48.716938 
L 241.615674 47.658755 
L 243.753418 46.600571 
L 245.891163 46.600571 
L 248.028907 44.484204 
L 250.166651 43.426021 
L 252.304396 42.367837 
L 254.44214 42.367837 
L 256.579884 41.309654 
L 258.717629 40.251471 
L 260.855373 39.193287 
L 262.993117 34.960553 
L 265.130862 29.669636 
" style="fill:none;stroke:#1f77b4;stroke-linecap:square;stroke-width:2;"/>
   </g>
   <g id="patch_3">
    <path d="M 51.377805 243.422692 
L 51.377805 27.553269 
" style="fill:none;stroke:#777777;stroke-linecap:square;stroke-linejoin:miter;"/>
   </g>
   <g id="patch_4">
    <path d="M 267.247229 243.422692 
L 267.247229 27.553269 
" style="fill:none;stroke:#777777;stroke-linecap:square;stroke-linejoin:miter;"/>
   </g>
   <g id="patch_5">
    <path d="M 51.377805 243.422692 
L 267.247229 243.422692 
" style="fill:none;stroke:#777777;stroke-linecap:square;stroke-linejoin:miter;"/>
   </g>
   <g id="patch_6">
    <path d="M 51.377805 27.553269 
L 267.247229 27.553269 
" style="fill:none;stroke:#777777;stroke-linecap:square;stroke-linejoin:miter;"/>
   </g>
   <g id="text_14">
    <!-- Miscalibration area = 0.04 -->
    <defs>
     <path d="M 3.515625 0 
L 3.515625 3.515625 
Q 13.8125 3.515625 13.8125 9.421875 
L 13.8125 61.625 
Q 13.8125 64.796875 3.515625 64.796875 
L 3.515625 68.3125 
L 22.40625 68.3125 
Q 23.640625 68.3125 24.03125 67.1875 
L 45.796875 10.59375 
L 67.578125 67.1875 
Q 67.96875 68.3125 69.1875 68.3125 
L 88.09375 68.3125 
L 88.09375 64.796875 
Q 77.78125 64.796875 77.78125 61.625 
L 77.78125 6.6875 
Q 77.78125 3.515625 88.09375 3.515625 
L 88.09375 0 
L 58.984375 0 
L 58.984375 3.515625 
Q 69.28125 3.515625 69.28125 6.6875 
L 69.28125 64.890625 
L 44.671875 1.125 
Q 44.234375 0 43.015625 0 
Q 41.75 0 41.3125 1.125 
L 17 64.109375 
L 17 9.421875 
Q 17 3.515625 27.296875 3.515625 
L 27.296875 0 
z
" id="Cmr10-77"/>
     <path d="M 7.515625 13.28125 
Q 6.6875 13.28125 6.140625 13.90625 
Q 5.609375 14.546875 5.609375 15.28125 
Q 5.609375 16.109375 6.140625 16.6875 
Q 6.6875 17.28125 7.515625 17.28125 
L 70.3125 17.28125 
Q 71.046875 17.28125 71.578125 16.6875 
Q 72.125 16.109375 72.125 15.28125 
Q 72.125 14.546875 71.578125 13.90625 
Q 71.046875 13.28125 70.3125 13.28125 
z
M 7.515625 32.71875 
Q 6.6875 32.71875 6.140625 33.296875 
Q 5.609375 33.890625 5.609375 34.71875 
Q 5.609375 35.453125 6.140625 36.078125 
Q 6.6875 36.71875 7.515625 36.71875 
L 70.3125 36.71875 
Q 71.046875 36.71875 71.578125 36.078125 
Q 72.125 35.453125 72.125 34.71875 
Q 72.125 33.890625 71.578125 33.296875 
Q 71.046875 32.71875 70.3125 32.71875 
z
" id="Cmr10-61"/>
    </defs>
    <g transform="translate(138.208082 228.786204)scale(0.09996 -0.09996)">
     <use xlink:href="#Cmr10-77"/>
     <use x="91.601562" xlink:href="#Cmr10-105"/>
     <use x="119.287109" xlink:href="#Cmr10-115"/>
     <use x="158.691406" xlink:href="#Cmr10-99"/>
     <use x="203.076172" xlink:href="#Cmr10-97"/>
     <use x="253.076172" xlink:href="#Cmr10-108"/>
     <use x="280.761719" xlink:href="#Cmr10-105"/>
     <use x="308.447266" xlink:href="#Cmr10-98"/>
     <use x="363.964844" xlink:href="#Cmr10-114"/>
     <use x="403.076172" xlink:href="#Cmr10-97"/>
     <use x="453.076172" xlink:href="#Cmr10-116"/>
     <use x="491.894531" xlink:href="#Cmr10-105"/>
     <use x="519.580078" xlink:href="#Cmr10-111"/>
     <use x="569.580078" xlink:href="#Cmr10-110"/>
     <use x="625.097656" xlink:href="#Cmr10-32"/>
     <use x="658.398438" xlink:href="#Cmr10-97"/>
     <use x="708.398438" xlink:href="#Cmr10-114"/>
     <use x="747.509766" xlink:href="#Cmr10-101"/>
     <use x="791.894531" xlink:href="#Cmr10-97"/>
     <use x="841.894531" xlink:href="#Cmr10-32"/>
     <use x="875.195312" xlink:href="#Cmr10-61"/>
     <use x="952.880859" xlink:href="#Cmr10-32"/>
     <use x="986.181641" xlink:href="#Cmr10-48"/>
     <use x="1036.181641" xlink:href="#Cmr10-46"/>
     <use x="1063.867188" xlink:href="#Cmr10-48"/>
     <use x="1113.867188" xlink:href="#Cmr10-52"/>
    </g>
   </g>
   <g id="text_15">
    <!-- Average Calibration -->
    <defs>
     <path d="M 3.21875 0 
L 3.21875 3.515625 
Q 12.15625 3.515625 14.203125 9.421875 
L 35.203125 70.515625 
Q 35.5 71.578125 36.8125 71.578125 
L 38.09375 71.578125 
Q 39.40625 71.578125 39.703125 70.515625 
L 61.625 6.6875 
Q 62.546875 4.59375 65.15625 4.046875 
Q 67.78125 3.515625 71.6875 3.515625 
L 71.6875 0 
L 43.796875 0 
L 43.796875 3.515625 
Q 52.09375 3.515625 52.09375 6.203125 
L 52.09375 6.6875 
L 46.6875 22.3125 
L 22.40625 22.3125 
L 17.921875 9.421875 
Q 17.828125 9.078125 17.828125 8.40625 
Q 17.828125 5.90625 20.1875 4.703125 
Q 22.5625 3.515625 25.296875 3.515625 
L 25.296875 0 
z
M 23.578125 25.78125 
L 45.515625 25.78125 
L 34.515625 57.71875 
z
" id="Cmr10-65"/>
     <path d="M 2.78125 -7.8125 
Q 2.78125 -4.25 5.359375 -1.578125 
Q 7.953125 1.078125 11.53125 2.203125 
Q 9.515625 3.71875 8.46875 6 
Q 7.421875 8.296875 7.421875 10.890625 
Q 7.421875 15.578125 10.40625 19.1875 
Q 5.8125 23.6875 5.8125 29.5 
Q 5.8125 32.625 7.15625 35.359375 
Q 8.5 38.09375 10.890625 40.09375 
Q 13.28125 42.09375 16.203125 43.140625 
Q 19.140625 44.1875 22.21875 44.1875 
Q 28.171875 44.1875 32.90625 40.71875 
Q 34.96875 42.921875 37.765625 44.109375 
Q 40.578125 45.3125 43.609375 45.3125 
Q 45.75 45.3125 47.109375 43.765625 
Q 48.484375 42.234375 48.484375 40.09375 
Q 48.484375 38.875 47.546875 37.9375 
Q 46.625 37.015625 45.40625 37.015625 
Q 44.140625 37.015625 43.203125 37.9375 
Q 42.28125 38.875 42.28125 40.09375 
Q 42.28125 41.9375 43.5 42.671875 
Q 38.328125 42.671875 34.625 39.109375 
Q 36.421875 37.3125 37.515625 34.6875 
Q 38.625 32.078125 38.625 29.5 
Q 38.625 25.25 36.28125 21.84375 
Q 33.9375 18.453125 30.09375 16.578125 
Q 26.265625 14.703125 22.21875 14.703125 
Q 16.75 14.703125 12.203125 17.671875 
Q 10.796875 15.71875 10.796875 13.28125 
Q 10.796875 10.640625 12.53125 8.65625 
Q 14.265625 6.6875 16.890625 6.6875 
L 25.09375 6.6875 
Q 31.0625 6.6875 35.84375 5.609375 
Q 40.625 4.546875 43.875 1.3125 
Q 47.125 -1.90625 47.125 -7.8125 
Q 47.125 -12.203125 43.40625 -15.109375 
Q 39.703125 -18.015625 34.546875 -19.3125 
Q 29.390625 -20.609375 25 -20.609375 
Q 20.5625 -20.609375 15.375 -19.3125 
Q 10.203125 -18.015625 6.484375 -15.109375 
Q 2.78125 -12.203125 2.78125 -7.8125 
z
M 8.40625 -7.8125 
Q 8.40625 -11.1875 11.140625 -13.453125 
Q 13.875 -15.71875 17.71875 -16.8125 
Q 21.578125 -17.921875 25 -17.921875 
Q 28.375 -17.921875 32.21875 -16.8125 
Q 36.078125 -15.71875 38.78125 -13.453125 
Q 41.5 -11.1875 41.5 -7.8125 
Q 41.5 -2.59375 36.71875 -1.046875 
Q 31.9375 0.484375 25.09375 0.484375 
L 16.890625 0.484375 
Q 14.59375 0.484375 12.671875 -0.609375 
Q 10.75 -1.703125 9.578125 -3.6875 
Q 8.40625 -5.671875 8.40625 -7.8125 
z
M 22.21875 17.390625 
Q 30.71875 17.390625 30.71875 29.5 
Q 30.71875 34.71875 28.90625 38.109375 
Q 27.09375 41.5 22.21875 41.5 
Q 17.328125 41.5 15.515625 38.109375 
Q 13.71875 34.71875 13.71875 29.5 
Q 13.71875 26.171875 14.40625 23.484375 
Q 15.09375 20.796875 16.9375 19.09375 
Q 18.796875 17.390625 22.21875 17.390625 
z
" id="Cmr10-103"/>
     <path d="M 22.796875 10.6875 
Q 26.21875 6.34375 31.34375 3.828125 
Q 36.46875 1.3125 42 1.3125 
Q 46.625 1.3125 50.578125 3.140625 
Q 54.546875 4.984375 57.5 8.25 
Q 60.453125 11.53125 62.03125 15.671875 
Q 63.625 19.828125 63.625 24.421875 
Q 63.625 25.203125 64.5 25.203125 
L 65.71875 25.203125 
Q 66.5 25.203125 66.5 24.21875 
Q 66.5 19 64.5 14.140625 
Q 62.5 9.28125 58.828125 5.59375 
Q 55.171875 1.90625 50.40625 -0.140625 
Q 45.65625 -2.203125 40.484375 -2.203125 
Q 33.296875 -2.203125 26.875 0.703125 
Q 20.453125 3.609375 15.6875 8.65625 
Q 10.9375 13.71875 8.265625 20.359375 
Q 5.609375 27 5.609375 34.1875 
Q 5.609375 41.359375 8.265625 48 
Q 10.9375 54.640625 15.6875 59.71875 
Q 20.453125 64.796875 26.875 67.65625 
Q 33.296875 70.515625 40.484375 70.515625 
Q 45.609375 70.515625 50.296875 68.28125 
Q 54.984375 66.0625 58.5 62.015625 
L 64.3125 70.21875 
Q 64.890625 70.515625 64.984375 70.515625 
L 65.71875 70.515625 
Q 66.015625 70.515625 66.25 70.265625 
Q 66.5 70.015625 66.5 69.671875 
L 66.5 42.671875 
Q 66.5 41.796875 65.71875 41.796875 
L 63.921875 41.796875 
Q 62.984375 41.796875 62.984375 42.671875 
Q 62.984375 45.5625 61.828125 49.125 
Q 60.6875 52.6875 58.90625 55.875 
Q 57.125 59.078125 54.78125 61.53125 
Q 49.171875 67 41.890625 67 
Q 36.375 67 31.3125 64.5 
Q 26.265625 62.015625 22.796875 57.625 
Q 19.140625 52.9375 17.71875 46.953125 
Q 16.3125 40.96875 16.3125 34.1875 
Q 16.3125 27.390625 17.71875 21.375 
Q 19.140625 15.375 22.796875 10.6875 
z
" id="Cmr10-67"/>
    </defs>
    <g transform="translate(106.325954 21.553269)scale(0.12 -0.12)">
     <use xlink:href="#Cmr10-65"/>
     <use x="75" xlink:href="#Cmr10-118"/>
     <use x="127.685547" xlink:href="#Cmr10-101"/>
     <use x="172.070312" xlink:href="#Cmr10-114"/>
     <use x="211.181641" xlink:href="#Cmr10-97"/>
     <use x="261.181641" xlink:href="#Cmr10-103"/>
     <use x="311.181641" xlink:href="#Cmr10-101"/>
     <use x="355.566406" xlink:href="#Cmr10-32"/>
     <use x="388.867188" xlink:href="#Cmr10-67"/>
     <use x="461.083984" xlink:href="#Cmr10-97"/>
     <use x="511.083984" xlink:href="#Cmr10-108"/>
     <use x="538.769531" xlink:href="#Cmr10-105"/>
     <use x="566.455078" xlink:href="#Cmr10-98"/>
     <use x="621.972656" xlink:href="#Cmr10-114"/>
     <use x="661.083984" xlink:href="#Cmr10-97"/>
     <use x="711.083984" xlink:href="#Cmr10-116"/>
     <use x="749.902344" xlink:href="#Cmr10-105"/>
     <use x="777.587891" xlink:href="#Cmr10-111"/>
     <use x="827.587891" xlink:href="#Cmr10-110"/>
    </g>
   </g>
  </g>
 </g>
 <defs>
  <clipPath id="p94a20afc88">
   <rect height="215.869423" width="215.869423" x="51.377805" y="27.553269"/>
  </clipPath>
 </defs>
</svg>
