<?xml version="1.0" encoding="utf-8" standalone="no"?>
<!DOCTYPE svg PUBLIC "-//W3C//DTD SVG 1.1//EN"
  "http://www.w3.org/Graphics/SVG/1.1/DTD/svg11.dtd">
<!-- Created with matplotlib (https://matplotlib.org/) -->
<svg height="216pt" version="1.1" viewBox="0 0 360 216" width="360pt" xmlns="http://www.w3.org/2000/svg" xmlns:xlink="http://www.w3.org/1999/xlink">
 <defs>
  <style type="text/css">
*{stroke-linecap:butt;stroke-linejoin:round;}
  </style>
 </defs>
 <g id="figure_1">
  <g id="patch_1">
   <path d="M 0 216 
L 360 216 
L 360 0 
L 0 0 
z
" style="fill:#ffffff;"/>
  </g>
  <g id="axes_1">
   <g id="patch_2">
    <path d="M 43.807115 171.422692 
L 347.04 171.422692 
L 347.04 27.553269 
L 43.807115 27.553269 
z
" style="fill:#fafafa;"/>
   </g>
   <g id="matplotlib.axis_1">
    <g id="xtick_1">
     <g id="line2d_1">
      <path clip-path="url(#pfe03cd3b06)" d="M 57.590428 171.422692 
L 57.590428 27.553269 
" style="fill:none;stroke:#b0b0b0;stroke-linecap:square;stroke-opacity:0.3;"/>
     </g>
     <g id="line2d_2"/>
     <g id="text_1">
      <!-- -10 -->
      <defs>
       <path d="M 1.125 18.5 
L 1.125 24.703125 
L 27.59375 24.703125 
L 27.59375 18.5 
z
" id="Cmr10-45"/>
       <path d="M 9.28125 0 
L 9.28125 3.515625 
Q 21.78125 3.515625 21.78125 6.6875 
L 21.78125 59.1875 
Q 16.609375 56.6875 8.6875 56.6875 
L 8.6875 60.203125 
Q 20.953125 60.203125 27.203125 66.609375 
L 28.609375 66.609375 
Q 28.953125 66.609375 29.265625 66.328125 
Q 29.59375 66.0625 29.59375 65.71875 
L 29.59375 6.6875 
Q 29.59375 3.515625 42.09375 3.515625 
L 42.09375 0 
z
" id="Cmr10-49"/>
       <path d="M 25 -2.203125 
Q 12.75 -2.203125 8.328125 7.875 
Q 3.90625 17.96875 3.90625 31.890625 
Q 3.90625 40.578125 5.484375 48.234375 
Q 7.078125 55.90625 11.78125 61.25 
Q 16.5 66.609375 25 66.609375 
Q 31.59375 66.609375 35.78125 63.375 
Q 39.984375 60.15625 42.1875 55.046875 
Q 44.390625 49.953125 45.1875 44.109375 
Q 46 38.28125 46 31.890625 
Q 46 23.296875 44.40625 15.796875 
Q 42.828125 8.296875 38.1875 3.046875 
Q 33.546875 -2.203125 25 -2.203125 
z
M 25 0.390625 
Q 30.5625 0.390625 33.296875 6.09375 
Q 36.03125 11.8125 36.671875 18.75 
Q 37.3125 25.6875 37.3125 33.5 
Q 37.3125 41.015625 36.671875 47.359375 
Q 36.03125 53.71875 33.3125 58.859375 
Q 30.609375 64.015625 25 64.015625 
Q 19.34375 64.015625 16.609375 58.828125 
Q 13.875 53.65625 13.234375 47.328125 
Q 12.59375 41.015625 12.59375 33.5 
Q 12.59375 27.9375 12.859375 23 
Q 13.140625 18.0625 14.3125 12.8125 
Q 15.484375 7.5625 18.09375 3.96875 
Q 20.703125 0.390625 25 0.390625 
z
" id="Cmr10-48"/>
      </defs>
      <g style="fill:#333333;" transform="translate(49.592616 185.749567)scale(0.12 -0.12)">
       <use xlink:href="#Cmr10-45"/>
       <use x="33.300781" xlink:href="#Cmr10-49"/>
       <use x="83.300781" xlink:href="#Cmr10-48"/>
      </g>
     </g>
    </g>
    <g id="xtick_2">
     <g id="line2d_3">
      <path clip-path="url(#pfe03cd3b06)" d="M 126.506993 171.422692 
L 126.506993 27.553269 
" style="fill:none;stroke:#b0b0b0;stroke-linecap:square;stroke-opacity:0.3;"/>
     </g>
     <g id="line2d_4"/>
     <g id="text_2">
      <!-- -5 -->
      <defs>
       <path d="M 8.6875 11.375 
Q 9.71875 8.453125 11.84375 6.046875 
Q 13.96875 3.65625 16.875 2.3125 
Q 19.78125 0.984375 22.90625 0.984375 
Q 30.125 0.984375 32.859375 6.59375 
Q 35.59375 12.203125 35.59375 20.21875 
Q 35.59375 23.6875 35.46875 26.046875 
Q 35.359375 28.421875 34.8125 30.609375 
Q 33.890625 34.125 31.5625 36.765625 
Q 29.25 39.40625 25.875 39.40625 
Q 22.515625 39.40625 20.09375 38.375 
Q 17.671875 37.359375 16.15625 35.984375 
Q 14.65625 34.625 13.484375 33.109375 
Q 12.3125 31.59375 12.015625 31.5 
L 10.890625 31.5 
Q 10.640625 31.5 10.265625 31.8125 
Q 9.90625 32.125 9.90625 32.421875 
L 9.90625 65.828125 
Q 9.90625 66.0625 10.21875 66.328125 
Q 10.546875 66.609375 10.890625 66.609375 
L 11.1875 66.609375 
Q 17.921875 63.375 25.484375 63.375 
Q 32.90625 63.375 39.796875 66.609375 
L 40.09375 66.609375 
Q 40.4375 66.609375 40.71875 66.359375 
Q 41.015625 66.109375 41.015625 65.828125 
L 41.015625 64.890625 
Q 41.015625 64.40625 40.828125 64.40625 
Q 37.40625 59.859375 32.25 57.3125 
Q 27.09375 54.78125 21.578125 54.78125 
Q 17.578125 54.78125 13.375 55.90625 
L 13.375 37.015625 
Q 16.703125 39.703125 19.3125 40.84375 
Q 21.921875 42 25.984375 42 
Q 31.5 42 35.859375 38.8125 
Q 40.234375 35.640625 42.578125 30.53125 
Q 44.921875 25.4375 44.921875 20.125 
Q 44.921875 14.109375 41.96875 8.984375 
Q 39.015625 3.859375 33.9375 0.828125 
Q 28.859375 -2.203125 22.90625 -2.203125 
Q 17.96875 -2.203125 13.84375 0.328125 
Q 9.71875 2.875 7.34375 7.171875 
Q 4.984375 11.46875 4.984375 16.3125 
Q 4.984375 18.5625 6.4375 19.96875 
Q 7.90625 21.390625 10.109375 21.390625 
Q 12.3125 21.390625 13.796875 19.9375 
Q 15.28125 18.5 15.28125 16.3125 
Q 15.28125 14.15625 13.796875 12.671875 
Q 12.3125 11.1875 10.109375 11.1875 
Q 9.765625 11.1875 9.328125 11.25 
Q 8.890625 11.328125 8.6875 11.375 
z
" id="Cmr10-53"/>
      </defs>
      <g style="fill:#333333;" transform="translate(121.509181 185.749567)scale(0.12 -0.12)">
       <use xlink:href="#Cmr10-45"/>
       <use x="33.300781" xlink:href="#Cmr10-53"/>
      </g>
     </g>
    </g>
    <g id="xtick_3">
     <g id="line2d_5">
      <path clip-path="url(#pfe03cd3b06)" d="M 195.423558 171.422692 
L 195.423558 27.553269 
" style="fill:none;stroke:#b0b0b0;stroke-linecap:square;stroke-opacity:0.3;"/>
     </g>
     <g id="line2d_6"/>
     <g id="text_3">
      <!-- 0 -->
      <g style="fill:#333333;" transform="translate(192.423558 185.749567)scale(0.12 -0.12)">
       <use xlink:href="#Cmr10-48"/>
      </g>
     </g>
    </g>
    <g id="xtick_4">
     <g id="line2d_7">
      <path clip-path="url(#pfe03cd3b06)" d="M 264.340122 171.422692 
L 264.340122 27.553269 
" style="fill:none;stroke:#b0b0b0;stroke-linecap:square;stroke-opacity:0.3;"/>
     </g>
     <g id="line2d_8"/>
     <g id="text_4">
      <!-- 5 -->
      <g style="fill:#333333;" transform="translate(261.340122 185.749567)scale(0.12 -0.12)">
       <use xlink:href="#Cmr10-53"/>
      </g>
     </g>
    </g>
    <g id="xtick_5">
     <g id="line2d_9">
      <path clip-path="url(#pfe03cd3b06)" d="M 333.256687 171.422692 
L 333.256687 27.553269 
" style="fill:none;stroke:#b0b0b0;stroke-linecap:square;stroke-opacity:0.3;"/>
     </g>
     <g id="line2d_10"/>
     <g id="text_5">
      <!-- 10 -->
      <g style="fill:#333333;" transform="translate(327.256687 185.749567)scale(0.12 -0.12)">
       <use xlink:href="#Cmr10-49"/>
       <use x="50" xlink:href="#Cmr10-48"/>
      </g>
     </g>
    </g>
    <g id="text_6">
     <!-- $x$ -->
     <defs>
      <path d="M 7.8125 2.875 
Q 9.578125 1.515625 12.796875 1.515625 
Q 15.921875 1.515625 18.3125 4.515625 
Q 20.703125 7.515625 21.578125 11.078125 
L 26.125 28.8125 
Q 27.203125 33.640625 27.203125 35.40625 
Q 27.203125 37.890625 25.8125 39.75 
Q 24.421875 41.609375 21.921875 41.609375 
Q 18.75 41.609375 15.96875 39.625 
Q 13.1875 37.640625 11.28125 34.59375 
Q 9.375 31.546875 8.59375 28.421875 
Q 8.40625 27.78125 7.8125 27.78125 
L 6.59375 27.78125 
Q 5.8125 27.78125 5.8125 28.71875 
L 5.8125 29 
Q 6.78125 32.71875 9.125 36.25 
Q 11.46875 39.796875 14.859375 41.984375 
Q 18.265625 44.1875 22.125 44.1875 
Q 25.78125 44.1875 28.734375 42.234375 
Q 31.6875 40.28125 32.90625 36.921875 
Q 34.625 39.984375 37.28125 42.078125 
Q 39.9375 44.1875 43.109375 44.1875 
Q 45.265625 44.1875 47.5 43.421875 
Q 49.75 42.671875 51.171875 41.109375 
Q 52.59375 39.546875 52.59375 37.203125 
Q 52.59375 34.671875 50.953125 32.828125 
Q 49.3125 31 46.78125 31 
Q 45.171875 31 44.09375 32.03125 
Q 43.015625 33.0625 43.015625 34.625 
Q 43.015625 36.71875 44.453125 38.296875 
Q 45.90625 39.890625 47.90625 40.1875 
Q 46.09375 41.609375 42.921875 41.609375 
Q 39.703125 41.609375 37.328125 38.625 
Q 34.96875 35.640625 33.984375 31.984375 
L 29.59375 14.3125 
Q 28.515625 10.296875 28.515625 7.71875 
Q 28.515625 5.171875 29.953125 3.34375 
Q 31.390625 1.515625 33.796875 1.515625 
Q 38.484375 1.515625 42.15625 5.640625 
Q 45.84375 9.765625 47.015625 14.703125 
Q 47.21875 15.28125 47.796875 15.28125 
L 49.03125 15.28125 
Q 49.421875 15.28125 49.65625 15.015625 
Q 49.90625 14.75 49.90625 14.40625 
Q 49.90625 14.3125 49.8125 14.109375 
Q 48.390625 8.15625 43.84375 3.515625 
Q 39.3125 -1.125 33.59375 -1.125 
Q 29.9375 -1.125 26.984375 0.84375 
Q 24.03125 2.828125 22.796875 6.203125 
Q 21.234375 3.265625 18.46875 1.0625 
Q 15.71875 -1.125 12.59375 -1.125 
Q 10.453125 -1.125 8.171875 -0.359375 
Q 5.90625 0.390625 4.484375 1.953125 
Q 3.078125 3.515625 3.078125 5.90625 
Q 3.078125 8.25 4.703125 10.171875 
Q 6.34375 12.109375 8.796875 12.109375 
Q 10.453125 12.109375 11.578125 11.109375 
Q 12.703125 10.109375 12.703125 8.5 
Q 12.703125 6.390625 11.296875 4.828125 
Q 9.90625 3.265625 7.8125 2.875 
z
" id="Cmmi10-120"/>
     </defs>
     <g transform="translate(191.943558 200.403317)scale(0.12 -0.12)">
      <use transform="translate(0 0.8125)" xlink:href="#Cmmi10-120"/>
     </g>
    </g>
   </g>
   <g id="matplotlib.axis_2">
    <g id="ytick_1">
     <g id="line2d_11">
      <path clip-path="url(#pfe03cd3b06)" d="M 43.807115 144.448306 
L 347.04 144.448306 
" style="fill:none;stroke:#b0b0b0;stroke-linecap:square;stroke-opacity:0.3;"/>
     </g>
     <g id="line2d_12"/>
     <g id="text_7">
      <!-- -5 -->
      <g style="fill:#333333;" transform="translate(27.81149 148.611744)scale(0.12 -0.12)">
       <use xlink:href="#Cmr10-45"/>
       <use x="33.300781" xlink:href="#Cmr10-53"/>
      </g>
     </g>
    </g>
    <g id="ytick_2">
     <g id="line2d_13">
      <path clip-path="url(#pfe03cd3b06)" d="M 43.807115 99.849748 
L 347.04 99.849748 
" style="fill:none;stroke:#b0b0b0;stroke-linecap:square;stroke-opacity:0.3;"/>
     </g>
     <g id="line2d_14"/>
     <g id="text_8">
      <!-- 0 -->
      <g style="fill:#333333;" transform="translate(31.807115 104.013186)scale(0.12 -0.12)">
       <use xlink:href="#Cmr10-48"/>
      </g>
     </g>
    </g>
    <g id="ytick_3">
     <g id="line2d_15">
      <path clip-path="url(#pfe03cd3b06)" d="M 43.807115 55.25119 
L 347.04 55.25119 
" style="fill:none;stroke:#b0b0b0;stroke-linecap:square;stroke-opacity:0.3;"/>
     </g>
     <g id="line2d_16"/>
     <g id="text_9">
      <!-- 5 -->
      <g style="fill:#333333;" transform="translate(31.807115 59.414627)scale(0.12 -0.12)">
       <use xlink:href="#Cmr10-53"/>
      </g>
     </g>
    </g>
    <g id="text_10">
     <!-- $y$ -->
     <defs>
      <path d="M 8.40625 -14.3125 
Q 10.5 -17.921875 15.71875 -17.921875 
Q 20.453125 -17.921875 23.921875 -14.59375 
Q 27.390625 -11.28125 29.515625 -6.5625 
Q 31.640625 -1.859375 32.8125 3.078125 
Q 28.375 -1.125 23.1875 -1.125 
Q 19.234375 -1.125 16.453125 0.234375 
Q 13.671875 1.609375 12.125 4.3125 
Q 10.59375 7.03125 10.59375 10.890625 
Q 10.59375 14.15625 11.46875 17.59375 
Q 12.359375 21.046875 13.9375 25.265625 
Q 15.53125 29.5 16.703125 32.625 
Q 18.015625 36.28125 18.015625 38.625 
Q 18.015625 41.609375 15.828125 41.609375 
Q 11.859375 41.609375 9.296875 37.53125 
Q 6.734375 33.453125 5.515625 28.421875 
Q 5.328125 27.78125 4.6875 27.78125 
L 3.515625 27.78125 
Q 2.6875 27.78125 2.6875 28.71875 
L 2.6875 29 
Q 4.296875 34.96875 7.609375 39.578125 
Q 10.9375 44.1875 16.015625 44.1875 
Q 19.578125 44.1875 22.046875 41.84375 
Q 24.515625 39.5 24.515625 35.890625 
Q 24.515625 34.03125 23.6875 31.984375 
Q 23.25 30.765625 21.6875 26.65625 
Q 20.125 22.5625 19.28125 19.875 
Q 18.453125 17.1875 17.921875 14.59375 
Q 17.390625 12.015625 17.390625 9.421875 
Q 17.390625 6.109375 18.796875 3.8125 
Q 20.21875 1.515625 23.296875 1.515625 
Q 29.5 1.515625 34.421875 9.078125 
L 42 39.890625 
Q 42.328125 41.21875 43.546875 42.15625 
Q 44.78125 43.109375 46.1875 43.109375 
Q 47.40625 43.109375 48.3125 42.328125 
Q 49.21875 41.546875 49.21875 40.28125 
Q 49.21875 39.703125 49.125 39.5 
L 39.203125 -0.296875 
Q 37.890625 -5.421875 34.375 -10.109375 
Q 30.859375 -14.796875 25.90625 -17.65625 
Q 20.953125 -20.515625 15.578125 -20.515625 
Q 12.984375 -20.515625 10.4375 -19.5 
Q 7.90625 -18.5 6.34375 -16.5 
Q 4.78125 -14.5 4.78125 -11.8125 
Q 4.78125 -9.078125 6.390625 -7.078125 
Q 8.015625 -5.078125 10.6875 -5.078125 
Q 12.3125 -5.078125 13.40625 -6.078125 
Q 14.5 -7.078125 14.5 -8.6875 
Q 14.5 -10.984375 12.78125 -12.6875 
Q 11.078125 -14.40625 8.796875 -14.40625 
Q 8.6875 -14.359375 8.59375 -14.328125 
Q 8.5 -14.3125 8.40625 -14.3125 
z
" id="Cmmi10-121"/>
     </defs>
     <g transform="translate(21.29149 102.487981)rotate(-90)scale(0.12 -0.12)">
      <use transform="translate(0 0.8125)" xlink:href="#Cmmi10-121"/>
     </g>
    </g>
   </g>
   <g id="PathCollection_1">
    <defs>
     <path d="M 0 3 
C 0.795609 3 1.55874 2.683901 2.12132 2.12132 
C 2.683901 1.55874 3 0.795609 3 0 
C 3 -0.795609 2.683901 -1.55874 2.12132 -2.12132 
C 1.55874 -2.683901 0.795609 -3 0 -3 
C -0.795609 -3 -1.55874 -2.683901 -2.12132 -2.12132 
C -2.683901 -1.55874 -3 -0.795609 -3 0 
C -3 0.795609 -2.683901 1.55874 -2.12132 2.12132 
C -1.55874 2.683901 -0.795609 3 0 3 
z
" id="m48a94b2b01" style="stroke:#1f77b4;stroke-opacity:0.7;"/>
    </defs>
    <g clip-path="url(#pfe03cd3b06)">
     <use style="fill:#1f77b4;fill-opacity:0.7;stroke:#1f77b4;stroke-opacity:0.7;" x="57.837158" xlink:href="#m48a94b2b01" y="73.723405"/>
     <use style="fill:#1f77b4;fill-opacity:0.7;stroke:#1f77b4;stroke-opacity:0.7;" x="60.401543" xlink:href="#m48a94b2b01" y="94.210165"/>
     <use style="fill:#1f77b4;fill-opacity:0.7;stroke:#1f77b4;stroke-opacity:0.7;" x="62.104632" xlink:href="#m48a94b2b01" y="107.765124"/>
     <use style="fill:#1f77b4;fill-opacity:0.7;stroke:#1f77b4;stroke-opacity:0.7;" x="65.287249" xlink:href="#m48a94b2b01" y="130.853902"/>
     <use style="fill:#1f77b4;fill-opacity:0.7;stroke:#1f77b4;stroke-opacity:0.7;" x="67.37782" xlink:href="#m48a94b2b01" y="135.720142"/>
     <use style="fill:#1f77b4;fill-opacity:0.7;stroke:#1f77b4;stroke-opacity:0.7;" x="72.87961" xlink:href="#m48a94b2b01" y="142.571605"/>
     <use style="fill:#1f77b4;fill-opacity:0.7;stroke:#1f77b4;stroke-opacity:0.7;" x="74.035936" xlink:href="#m48a94b2b01" y="141.925227"/>
     <use style="fill:#1f77b4;fill-opacity:0.7;stroke:#1f77b4;stroke-opacity:0.7;" x="75.502944" xlink:href="#m48a94b2b01" y="149.945504"/>
     <use style="fill:#1f77b4;fill-opacity:0.7;stroke:#1f77b4;stroke-opacity:0.7;" x="81.907066" xlink:href="#m48a94b2b01" y="164.035399"/>
     <use style="fill:#1f77b4;fill-opacity:0.7;stroke:#1f77b4;stroke-opacity:0.7;" x="83.821967" xlink:href="#m48a94b2b01" y="164.883173"/>
     <use style="fill:#1f77b4;fill-opacity:0.7;stroke:#1f77b4;stroke-opacity:0.7;" x="84.145991" xlink:href="#m48a94b2b01" y="159.351047"/>
     <use style="fill:#1f77b4;fill-opacity:0.7;stroke:#1f77b4;stroke-opacity:0.7;" x="96.214729" xlink:href="#m48a94b2b01" y="144.057771"/>
     <use style="fill:#1f77b4;fill-opacity:0.7;stroke:#1f77b4;stroke-opacity:0.7;" x="96.679834" xlink:href="#m48a94b2b01" y="164.358698"/>
     <use style="fill:#1f77b4;fill-opacity:0.7;stroke:#1f77b4;stroke-opacity:0.7;" x="99.00137" xlink:href="#m48a94b2b01" y="134.456704"/>
     <use style="fill:#1f77b4;fill-opacity:0.7;stroke:#1f77b4;stroke-opacity:0.7;" x="99.059275" xlink:href="#m48a94b2b01" y="129.789539"/>
     <use style="fill:#1f77b4;fill-opacity:0.7;stroke:#1f77b4;stroke-opacity:0.7;" x="102.997103" xlink:href="#m48a94b2b01" y="144.395654"/>
     <use style="fill:#1f77b4;fill-opacity:0.7;stroke:#1f77b4;stroke-opacity:0.7;" x="105.93725" xlink:href="#m48a94b2b01" y="136.233683"/>
     <use style="fill:#1f77b4;fill-opacity:0.7;stroke:#1f77b4;stroke-opacity:0.7;" x="106.683917" xlink:href="#m48a94b2b01" y="112.272772"/>
     <use style="fill:#1f77b4;fill-opacity:0.7;stroke:#1f77b4;stroke-opacity:0.7;" x="109.718056" xlink:href="#m48a94b2b01" y="125.174939"/>
     <use style="fill:#1f77b4;fill-opacity:0.7;stroke:#1f77b4;stroke-opacity:0.7;" x="114.451371" xlink:href="#m48a94b2b01" y="98.544858"/>
     <use style="fill:#1f77b4;fill-opacity:0.7;stroke:#1f77b4;stroke-opacity:0.7;" x="115.066884" xlink:href="#m48a94b2b01" y="93.483422"/>
     <use style="fill:#1f77b4;fill-opacity:0.7;stroke:#1f77b4;stroke-opacity:0.7;" x="115.563865" xlink:href="#m48a94b2b01" y="94.470916"/>
     <use style="fill:#1f77b4;fill-opacity:0.7;stroke:#1f77b4;stroke-opacity:0.7;" x="119.723023" xlink:href="#m48a94b2b01" y="97.982145"/>
     <use style="fill:#1f77b4;fill-opacity:0.7;stroke:#1f77b4;stroke-opacity:0.7;" x="124.887515" xlink:href="#m48a94b2b01" y="93.304562"/>
     <use style="fill:#1f77b4;fill-opacity:0.7;stroke:#1f77b4;stroke-opacity:0.7;" x="126.744401" xlink:href="#m48a94b2b01" y="75.705127"/>
     <use style="fill:#1f77b4;fill-opacity:0.7;stroke:#1f77b4;stroke-opacity:0.7;" x="126.980483" xlink:href="#m48a94b2b01" y="75.356741"/>
     <use style="fill:#1f77b4;fill-opacity:0.7;stroke:#1f77b4;stroke-opacity:0.7;" x="127.727224" xlink:href="#m48a94b2b01" y="74.699338"/>
     <use style="fill:#1f77b4;fill-opacity:0.7;stroke:#1f77b4;stroke-opacity:0.7;" x="129.762255" xlink:href="#m48a94b2b01" y="72.808447"/>
     <use style="fill:#1f77b4;fill-opacity:0.7;stroke:#1f77b4;stroke-opacity:0.7;" x="129.830926" xlink:href="#m48a94b2b01" y="72.739535"/>
     <use style="fill:#1f77b4;fill-opacity:0.7;stroke:#1f77b4;stroke-opacity:0.7;" x="129.850309" xlink:href="#m48a94b2b01" y="72.708213"/>
     <use style="fill:#1f77b4;fill-opacity:0.7;stroke:#1f77b4;stroke-opacity:0.7;" x="132.909947" xlink:href="#m48a94b2b01" y="71.010919"/>
     <use style="fill:#1f77b4;fill-opacity:0.7;stroke:#1f77b4;stroke-opacity:0.7;" x="139.948855" xlink:href="#m48a94b2b01" y="72.190469"/>
     <use style="fill:#1f77b4;fill-opacity:0.7;stroke:#1f77b4;stroke-opacity:0.7;" x="140.238442" xlink:href="#m48a94b2b01" y="72.292654"/>
     <use style="fill:#1f77b4;fill-opacity:0.7;stroke:#1f77b4;stroke-opacity:0.7;" x="140.244919" xlink:href="#m48a94b2b01" y="72.360282"/>
     <use style="fill:#1f77b4;fill-opacity:0.7;stroke:#1f77b4;stroke-opacity:0.7;" x="142.730708" xlink:href="#m48a94b2b01" y="74.175533"/>
     <use style="fill:#1f77b4;fill-opacity:0.7;stroke:#1f77b4;stroke-opacity:0.7;" x="143.123594" xlink:href="#m48a94b2b01" y="74.531922"/>
     <use style="fill:#1f77b4;fill-opacity:0.7;stroke:#1f77b4;stroke-opacity:0.7;" x="143.206284" xlink:href="#m48a94b2b01" y="74.721544"/>
     <use style="fill:#1f77b4;fill-opacity:0.7;stroke:#1f77b4;stroke-opacity:0.7;" x="146.510798" xlink:href="#m48a94b2b01" y="78.314775"/>
     <use style="fill:#1f77b4;fill-opacity:0.7;stroke:#1f77b4;stroke-opacity:0.7;" x="152.895821" xlink:href="#m48a94b2b01" y="87.338706"/>
     <use style="fill:#1f77b4;fill-opacity:0.7;stroke:#1f77b4;stroke-opacity:0.7;" x="153.21065" xlink:href="#m48a94b2b01" y="87.771597"/>
     <use style="fill:#1f77b4;fill-opacity:0.7;stroke:#1f77b4;stroke-opacity:0.7;" x="154.325458" xlink:href="#m48a94b2b01" y="89.279258"/>
     <use style="fill:#1f77b4;fill-opacity:0.7;stroke:#1f77b4;stroke-opacity:0.7;" x="158.458262" xlink:href="#m48a94b2b01" y="95.53913"/>
     <use style="fill:#1f77b4;fill-opacity:0.7;stroke:#1f77b4;stroke-opacity:0.7;" x="165.961271" xlink:href="#m48a94b2b01" y="105.036854"/>
     <use style="fill:#1f77b4;fill-opacity:0.7;stroke:#1f77b4;stroke-opacity:0.7;" x="168.615253" xlink:href="#m48a94b2b01" y="107.338862"/>
     <use style="fill:#1f77b4;fill-opacity:0.7;stroke:#1f77b4;stroke-opacity:0.7;" x="171.232919" xlink:href="#m48a94b2b01" y="109.204602"/>
     <use style="fill:#1f77b4;fill-opacity:0.7;stroke:#1f77b4;stroke-opacity:0.7;" x="177.696759" xlink:href="#m48a94b2b01" y="110.975851"/>
     <use style="fill:#1f77b4;fill-opacity:0.7;stroke:#1f77b4;stroke-opacity:0.7;" x="186.736733" xlink:href="#m48a94b2b01" y="107.486043"/>
     <use style="fill:#1f77b4;fill-opacity:0.7;stroke:#1f77b4;stroke-opacity:0.7;" x="189.458194" xlink:href="#m48a94b2b01" y="105.458088"/>
     <use style="fill:#1f77b4;fill-opacity:0.7;stroke:#1f77b4;stroke-opacity:0.7;" x="190.214403" xlink:href="#m48a94b2b01" y="104.761131"/>
     <use style="fill:#1f77b4;fill-opacity:0.7;stroke:#1f77b4;stroke-opacity:0.7;" x="202.007976" xlink:href="#m48a94b2b01" y="83.646913"/>
     <use style="fill:#1f77b4;fill-opacity:0.7;stroke:#1f77b4;stroke-opacity:0.7;" x="204.261327" xlink:href="#m48a94b2b01" y="89.102269"/>
     <use style="fill:#1f77b4;fill-opacity:0.7;stroke:#1f77b4;stroke-opacity:0.7;" x="205.440101" xlink:href="#m48a94b2b01" y="77.225904"/>
     <use style="fill:#1f77b4;fill-opacity:0.7;stroke:#1f77b4;stroke-opacity:0.7;" x="211.694978" xlink:href="#m48a94b2b01" y="88.783673"/>
     <use style="fill:#1f77b4;fill-opacity:0.7;stroke:#1f77b4;stroke-opacity:0.7;" x="211.750361" xlink:href="#m48a94b2b01" y="99.892613"/>
     <use style="fill:#1f77b4;fill-opacity:0.7;stroke:#1f77b4;stroke-opacity:0.7;" x="212.846147" xlink:href="#m48a94b2b01" y="101.111042"/>
     <use style="fill:#1f77b4;fill-opacity:0.7;stroke:#1f77b4;stroke-opacity:0.7;" x="212.907974" xlink:href="#m48a94b2b01" y="71.778269"/>
     <use style="fill:#1f77b4;fill-opacity:0.7;stroke:#1f77b4;stroke-opacity:0.7;" x="214.076048" xlink:href="#m48a94b2b01" y="81.629321"/>
     <use style="fill:#1f77b4;fill-opacity:0.7;stroke:#1f77b4;stroke-opacity:0.7;" x="215.227733" xlink:href="#m48a94b2b01" y="69.117471"/>
     <use style="fill:#1f77b4;fill-opacity:0.7;stroke:#1f77b4;stroke-opacity:0.7;" x="218.101572" xlink:href="#m48a94b2b01" y="95.580525"/>
     <use style="fill:#1f77b4;fill-opacity:0.7;stroke:#1f77b4;stroke-opacity:0.7;" x="218.307402" xlink:href="#m48a94b2b01" y="91.820915"/>
     <use style="fill:#1f77b4;fill-opacity:0.7;stroke:#1f77b4;stroke-opacity:0.7;" x="218.934536" xlink:href="#m48a94b2b01" y="90.815317"/>
     <use style="fill:#1f77b4;fill-opacity:0.7;stroke:#1f77b4;stroke-opacity:0.7;" x="219.143543" xlink:href="#m48a94b2b01" y="111.052395"/>
     <use style="fill:#1f77b4;fill-opacity:0.7;stroke:#1f77b4;stroke-opacity:0.7;" x="228.155689" xlink:href="#m48a94b2b01" y="120.297438"/>
     <use style="fill:#1f77b4;fill-opacity:0.7;stroke:#1f77b4;stroke-opacity:0.7;" x="229.287798" xlink:href="#m48a94b2b01" y="90.198218"/>
     <use style="fill:#1f77b4;fill-opacity:0.7;stroke:#1f77b4;stroke-opacity:0.7;" x="233.393657" xlink:href="#m48a94b2b01" y="101.440703"/>
     <use style="fill:#1f77b4;fill-opacity:0.7;stroke:#1f77b4;stroke-opacity:0.7;" x="234.743414" xlink:href="#m48a94b2b01" y="106.367396"/>
     <use style="fill:#1f77b4;fill-opacity:0.7;stroke:#1f77b4;stroke-opacity:0.7;" x="235.00085" xlink:href="#m48a94b2b01" y="102.611547"/>
     <use style="fill:#1f77b4;fill-opacity:0.7;stroke:#1f77b4;stroke-opacity:0.7;" x="251.803413" xlink:href="#m48a94b2b01" y="112.928389"/>
     <use style="fill:#1f77b4;fill-opacity:0.7;stroke:#1f77b4;stroke-opacity:0.7;" x="251.956674" xlink:href="#m48a94b2b01" y="129.713847"/>
     <use style="fill:#1f77b4;fill-opacity:0.7;stroke:#1f77b4;stroke-opacity:0.7;" x="254.801375" xlink:href="#m48a94b2b01" y="146.868651"/>
     <use style="fill:#1f77b4;fill-opacity:0.7;stroke:#1f77b4;stroke-opacity:0.7;" x="257.25693" xlink:href="#m48a94b2b01" y="121.288289"/>
     <use style="fill:#1f77b4;fill-opacity:0.7;stroke:#1f77b4;stroke-opacity:0.7;" x="258.090116" xlink:href="#m48a94b2b01" y="147.259287"/>
     <use style="fill:#1f77b4;fill-opacity:0.7;stroke:#1f77b4;stroke-opacity:0.7;" x="258.947481" xlink:href="#m48a94b2b01" y="116.928352"/>
     <use style="fill:#1f77b4;fill-opacity:0.7;stroke:#1f77b4;stroke-opacity:0.7;" x="264.283334" xlink:href="#m48a94b2b01" y="134.434581"/>
     <use style="fill:#1f77b4;fill-opacity:0.7;stroke:#1f77b4;stroke-opacity:0.7;" x="268.254852" xlink:href="#m48a94b2b01" y="123.700996"/>
     <use style="fill:#1f77b4;fill-opacity:0.7;stroke:#1f77b4;stroke-opacity:0.7;" x="268.64209" xlink:href="#m48a94b2b01" y="114.696251"/>
     <use style="fill:#1f77b4;fill-opacity:0.7;stroke:#1f77b4;stroke-opacity:0.7;" x="269.352303" xlink:href="#m48a94b2b01" y="115.558677"/>
     <use style="fill:#1f77b4;fill-opacity:0.7;stroke:#1f77b4;stroke-opacity:0.7;" x="269.865596" xlink:href="#m48a94b2b01" y="108.312261"/>
     <use style="fill:#1f77b4;fill-opacity:0.7;stroke:#1f77b4;stroke-opacity:0.7;" x="270.420531" xlink:href="#m48a94b2b01" y="116.194701"/>
     <use style="fill:#1f77b4;fill-opacity:0.7;stroke:#1f77b4;stroke-opacity:0.7;" x="270.471582" xlink:href="#m48a94b2b01" y="116.785442"/>
     <use style="fill:#1f77b4;fill-opacity:0.7;stroke:#1f77b4;stroke-opacity:0.7;" x="270.715753" xlink:href="#m48a94b2b01" y="105.450883"/>
     <use style="fill:#1f77b4;fill-opacity:0.7;stroke:#1f77b4;stroke-opacity:0.7;" x="282.904354" xlink:href="#m48a94b2b01" y="86.268631"/>
     <use style="fill:#1f77b4;fill-opacity:0.7;stroke:#1f77b4;stroke-opacity:0.7;" x="284.969025" xlink:href="#m48a94b2b01" y="77.429785"/>
     <use style="fill:#1f77b4;fill-opacity:0.7;stroke:#1f77b4;stroke-opacity:0.7;" x="291.418092" xlink:href="#m48a94b2b01" y="62.650539"/>
     <use style="fill:#1f77b4;fill-opacity:0.7;stroke:#1f77b4;stroke-opacity:0.7;" x="297.684579" xlink:href="#m48a94b2b01" y="38.081427"/>
     <use style="fill:#1f77b4;fill-opacity:0.7;stroke:#1f77b4;stroke-opacity:0.7;" x="298.381873" xlink:href="#m48a94b2b01" y="47.54629"/>
     <use style="fill:#1f77b4;fill-opacity:0.7;stroke:#1f77b4;stroke-opacity:0.7;" x="299.900419" xlink:href="#m48a94b2b01" y="44.494884"/>
     <use style="fill:#1f77b4;fill-opacity:0.7;stroke:#1f77b4;stroke-opacity:0.7;" x="300.410308" xlink:href="#m48a94b2b01" y="43.293283"/>
     <use style="fill:#1f77b4;fill-opacity:0.7;stroke:#1f77b4;stroke-opacity:0.7;" x="302.670464" xlink:href="#m48a94b2b01" y="36.92696"/>
     <use style="fill:#1f77b4;fill-opacity:0.7;stroke:#1f77b4;stroke-opacity:0.7;" x="310.367173" xlink:href="#m48a94b2b01" y="44.435316"/>
     <use style="fill:#1f77b4;fill-opacity:0.7;stroke:#1f77b4;stroke-opacity:0.7;" x="310.689145" xlink:href="#m48a94b2b01" y="34.092788"/>
     <use style="fill:#1f77b4;fill-opacity:0.7;stroke:#1f77b4;stroke-opacity:0.7;" x="312.445216" xlink:href="#m48a94b2b01" y="36.490709"/>
     <use style="fill:#1f77b4;fill-opacity:0.7;stroke:#1f77b4;stroke-opacity:0.7;" x="316.855439" xlink:href="#m48a94b2b01" y="51.940028"/>
     <use style="fill:#1f77b4;fill-opacity:0.7;stroke:#1f77b4;stroke-opacity:0.7;" x="317.399244" xlink:href="#m48a94b2b01" y="60.196865"/>
     <use style="fill:#1f77b4;fill-opacity:0.7;stroke:#1f77b4;stroke-opacity:0.7;" x="319.23618" xlink:href="#m48a94b2b01" y="63.135031"/>
     <use style="fill:#1f77b4;fill-opacity:0.7;stroke:#1f77b4;stroke-opacity:0.7;" x="319.951868" xlink:href="#m48a94b2b01" y="57.781898"/>
     <use style="fill:#1f77b4;fill-opacity:0.7;stroke:#1f77b4;stroke-opacity:0.7;" x="320.133809" xlink:href="#m48a94b2b01" y="68.824202"/>
     <use style="fill:#1f77b4;fill-opacity:0.7;stroke:#1f77b4;stroke-opacity:0.7;" x="320.989011" xlink:href="#m48a94b2b01" y="67.715673"/>
     <use style="fill:#1f77b4;fill-opacity:0.7;stroke:#1f77b4;stroke-opacity:0.7;" x="322.34228" xlink:href="#m48a94b2b01" y="63.510494"/>
     <use style="fill:#1f77b4;fill-opacity:0.7;stroke:#1f77b4;stroke-opacity:0.7;" x="324.9839" xlink:href="#m48a94b2b01" y="76.491332"/>
    </g>
   </g>
   <g id="line2d_17">
    <path clip-path="url(#pfe03cd3b06)" d="M 57.590428 78.318237 
L 61.746201 99.235481 
L 64.516716 112.386145 
L 67.287231 124.517884 
L 70.057747 135.348308 
L 71.443004 140.200407 
L 72.828262 144.643563 
L 74.213519 148.656929 
L 75.598777 152.223208 
L 76.984034 155.328713 
L 78.369292 157.963393 
L 79.75455 160.120841 
L 81.139807 161.798266 
L 82.525065 162.996445 
L 83.910322 163.719643 
L 85.29558 163.975517 
L 86.680838 163.774985 
L 88.066095 163.132083 
L 89.451353 162.063796 
L 90.83661 160.589868 
L 92.221868 158.7326 
L 93.607125 156.516626 
L 94.992383 153.968679 
L 96.377641 151.117343 
L 99.148156 144.626556 
L 101.918671 137.300036 
L 106.074444 125.331506 
L 113.000732 105.009298 
L 115.771247 97.479473 
L 118.541762 90.617611 
L 121.312277 84.59863 
L 122.697535 81.949965 
L 124.082792 79.560856 
L 125.46805 77.442396 
L 126.853307 75.6031 
L 128.238565 74.048891 
L 129.623823 72.783102 
L 131.00908 71.80651 
L 132.394338 71.117373 
L 133.779595 70.711512 
L 135.164853 70.582385 
L 136.55011 70.721202 
L 137.935368 71.117047 
L 139.320626 71.757011 
L 140.705883 72.626355 
L 142.091141 73.708668 
L 143.476398 74.986052 
L 146.246914 78.048139 
L 149.017429 81.647015 
L 153.173201 87.664066 
L 158.714232 95.899639 
L 161.484747 99.726242 
L 164.255262 103.159133 
L 167.025777 106.075495 
L 168.411035 107.308739 
L 169.796292 108.37895 
L 171.18155 109.278695 
L 172.566808 110.002496 
L 173.952065 110.546862 
L 175.337323 110.9103 
L 176.72258 111.093303 
L 178.107838 111.098329 
L 179.493096 110.92975 
L 180.878353 110.593797 
L 182.263611 110.098472 
L 183.648868 109.453461 
L 186.419383 107.760845 
L 189.189899 105.622491 
L 191.960414 103.163381 
L 201.657217 94.077005 
L 204.427732 91.938651 
L 207.198247 90.246035 
L 208.583505 89.601024 
L 209.968762 89.1057 
L 211.35402 88.769746 
L 212.739277 88.601168 
L 214.124535 88.606193 
L 215.509793 88.789197 
L 216.89505 89.152634 
L 218.280308 89.697 
L 219.665565 90.420801 
L 221.050823 91.320546 
L 222.436081 92.390757 
L 223.821338 93.624001 
L 226.591853 96.540363 
L 229.362368 99.973254 
L 232.132884 103.799857 
L 237.673914 112.035431 
L 241.829687 118.052482 
L 244.600202 121.651357 
L 247.370717 124.713444 
L 248.755975 125.990829 
L 250.141232 127.073142 
L 251.52649 127.942485 
L 252.911747 128.582449 
L 254.297005 128.978294 
L 255.682262 129.117112 
L 257.06752 128.987985 
L 258.452778 128.582123 
L 259.838035 127.892987 
L 261.223293 126.916394 
L 262.60855 125.650606 
L 263.993808 124.096396 
L 265.379066 122.2571 
L 266.764323 120.13864 
L 268.149581 117.749531 
L 269.534838 115.100866 
L 272.305353 109.081885 
L 275.075869 102.220023 
L 277.846384 94.690198 
L 282.002157 82.603931 
L 287.543187 66.292517 
L 290.313702 58.648313 
L 293.084217 51.706697 
L 295.854732 45.730818 
L 297.23999 43.18287 
L 298.625248 40.966896 
L 300.010505 39.109628 
L 301.395763 37.6357 
L 302.78102 36.567413 
L 304.166278 35.924511 
L 305.551535 35.723979 
L 306.936793 35.979853 
L 308.322051 36.703051 
L 309.707308 37.90123 
L 311.092566 39.578655 
L 312.477823 41.736103 
L 313.863081 44.370784 
L 315.248339 47.476288 
L 316.633596 51.042568 
L 318.018854 55.055934 
L 319.404111 59.499089 
L 322.174626 69.587917 
L 324.945142 81.101397 
L 327.715657 93.780695 
L 331.871429 114.309181 
L 333.256687 121.38126 
L 333.256687 121.38126 
" style="fill:none;stroke:#000000;stroke-dasharray:7.4,3.2;stroke-dashoffset:0;stroke-width:2;"/>
   </g>
   <g id="patch_3">
    <path d="M 43.807115 171.422692 
L 43.807115 27.553269 
" style="fill:none;stroke:#777777;stroke-linecap:square;stroke-linejoin:miter;"/>
   </g>
   <g id="patch_4">
    <path d="M 347.04 171.422692 
L 347.04 27.553269 
" style="fill:none;stroke:#777777;stroke-linecap:square;stroke-linejoin:miter;"/>
   </g>
   <g id="patch_5">
    <path d="M 43.807115 171.422692 
L 347.04 171.422692 
" style="fill:none;stroke:#777777;stroke-linecap:square;stroke-linejoin:miter;"/>
   </g>
   <g id="patch_6">
    <path d="M 43.807115 27.553269 
L 347.04 27.553269 
" style="fill:none;stroke:#777777;stroke-linecap:square;stroke-linejoin:miter;"/>
   </g>
   <g id="text_11">
    <!-- Noisy Function Data -->
    <defs>
     <path d="M 3.078125 0 
L 3.078125 3.515625 
Q 13.375 3.515625 13.375 9.421875 
L 13.375 64.203125 
Q 10.109375 64.796875 3.078125 64.796875 
L 3.078125 68.3125 
L 22.21875 68.3125 
Q 22.703125 68.3125 22.90625 67.921875 
L 58.296875 15.828125 
L 58.296875 58.890625 
Q 58.296875 64.796875 48 64.796875 
L 48 68.3125 
L 71.78125 68.3125 
L 71.78125 64.796875 
Q 61.53125 64.796875 61.53125 58.890625 
L 61.53125 0.875 
Q 61.53125 0.59375 61.140625 0.296875 
Q 60.75 0 60.5 0 
L 59.28125 0 
Q 58.796875 0 58.59375 0.390625 
L 16.609375 62.203125 
L 16.609375 9.421875 
Q 16.609375 3.515625 26.90625 3.515625 
L 26.90625 0 
z
" id="Cmr10-78"/>
     <path d="M 25 -1.125 
Q 19 -1.125 13.859375 1.921875 
Q 8.734375 4.984375 5.75 10.109375 
Q 2.78125 15.234375 2.78125 21.296875 
Q 2.78125 25.875 4.421875 30.125 
Q 6.0625 34.375 9.109375 37.71875 
Q 12.15625 41.0625 16.203125 42.9375 
Q 20.265625 44.828125 25 44.828125 
Q 31.15625 44.828125 36.203125 41.578125 
Q 41.265625 38.328125 44.1875 32.875 
Q 47.125 27.4375 47.125 21.296875 
Q 47.125 15.28125 44.140625 10.125 
Q 41.15625 4.984375 36.046875 1.921875 
Q 30.953125 -1.125 25 -1.125 
z
M 25 1.8125 
Q 33.015625 1.8125 35.6875 7.609375 
Q 38.375 13.421875 38.375 22.40625 
Q 38.375 27.4375 37.84375 30.734375 
Q 37.3125 34.03125 35.5 36.71875 
Q 34.375 38.375 32.640625 39.625 
Q 30.90625 40.875 28.96875 41.53125 
Q 27.046875 42.1875 25 42.1875 
Q 21.875 42.1875 19.0625 40.765625 
Q 16.265625 39.359375 14.40625 36.71875 
Q 12.546875 33.890625 12.03125 30.484375 
Q 11.53125 27.09375 11.53125 22.40625 
Q 11.53125 16.796875 12.5 12.328125 
Q 13.484375 7.859375 16.4375 4.828125 
Q 19.390625 1.8125 25 1.8125 
z
" id="Cmr10-111"/>
     <path d="M 3.078125 0 
L 3.078125 3.515625 
Q 6.5 3.515625 8.6875 4.046875 
Q 10.890625 4.59375 10.890625 6.6875 
L 10.890625 33.984375 
Q 10.890625 37.84375 9.390625 38.71875 
Q 7.90625 39.59375 3.515625 39.59375 
L 3.515625 43.109375 
L 17.921875 44.1875 
L 17.921875 6.6875 
Q 17.921875 4.59375 19.828125 4.046875 
Q 21.734375 3.515625 24.90625 3.515625 
L 24.90625 0 
z
M 7.328125 61.375 
Q 7.328125 63.578125 8.984375 65.234375 
Q 10.640625 66.890625 12.796875 66.890625 
Q 14.203125 66.890625 15.515625 66.15625 
Q 16.84375 65.4375 17.578125 64.109375 
Q 18.3125 62.796875 18.3125 61.375 
Q 18.3125 59.234375 16.640625 57.5625 
Q 14.984375 55.90625 12.796875 55.90625 
Q 10.640625 55.90625 8.984375 57.5625 
Q 7.328125 59.234375 7.328125 61.375 
z
" id="Cmr10-105"/>
     <path d="M 3.328125 -0.296875 
L 3.328125 16.015625 
Q 3.328125 16.796875 4.203125 16.796875 
L 5.421875 16.796875 
Q 6 16.796875 6.203125 16.015625 
Q 8.984375 1.515625 19.671875 1.515625 
Q 24.421875 1.515625 27.609375 3.65625 
Q 30.8125 5.8125 30.8125 10.296875 
Q 30.8125 13.53125 28.3125 15.796875 
Q 25.828125 18.0625 22.40625 18.890625 
L 15.71875 20.21875 
Q 12.359375 20.953125 9.59375 22.453125 
Q 6.84375 23.96875 5.078125 26.484375 
Q 3.328125 29 3.328125 32.328125 
Q 3.328125 36.71875 5.640625 39.515625 
Q 7.953125 42.328125 11.65625 43.578125 
Q 15.375 44.828125 19.671875 44.828125 
Q 24.8125 44.828125 28.609375 42.09375 
L 31.5 44.578125 
Q 31.5 44.828125 31.984375 44.828125 
L 32.71875 44.828125 
Q 33.015625 44.828125 33.25 44.546875 
Q 33.5 44.28125 33.5 44 
L 33.5 30.90625 
Q 33.5 29.984375 32.71875 29.984375 
L 31.5 29.984375 
Q 30.609375 29.984375 30.609375 30.90625 
Q 30.609375 36.140625 27.703125 39.3125 
Q 24.8125 42.484375 19.578125 42.484375 
Q 15.09375 42.484375 11.796875 40.8125 
Q 8.5 39.15625 8.5 35.109375 
Q 8.5 32.328125 10.859375 30.546875 
Q 13.234375 28.765625 16.40625 27.984375 
L 23.1875 26.703125 
Q 26.609375 25.921875 29.5625 24.0625 
Q 32.515625 22.21875 34.25 19.375 
Q 35.984375 16.546875 35.984375 12.984375 
Q 35.984375 9.375 34.734375 6.703125 
Q 33.5 4.046875 31.265625 2.28125 
Q 29.046875 0.53125 26.015625 -0.296875 
Q 23 -1.125 19.671875 -1.125 
Q 13.421875 -1.125 8.984375 3.078125 
L 5.328125 -0.875 
Q 5.328125 -1.125 4.78125 -1.125 
L 4.203125 -1.125 
Q 3.328125 -1.125 3.328125 -0.296875 
z
" id="Cmr10-115"/>
     <path d="M 6.890625 -16.40625 
Q 8.796875 -17.921875 11.078125 -17.921875 
Q 17.390625 -17.921875 21.390625 -8.40625 
L 24.8125 0 
L 9.8125 36.71875 
Q 8.890625 38.578125 6.984375 39.078125 
Q 5.078125 39.59375 1.90625 39.59375 
L 1.90625 43.109375 
L 22.90625 43.109375 
L 22.90625 39.59375 
Q 17.390625 39.59375 17.390625 37.203125 
Q 17.390625 36.8125 17.484375 36.625 
L 28.609375 9.28125 
L 38.625 33.890625 
Q 38.921875 34.671875 38.921875 35.59375 
Q 38.921875 36.8125 38.25 37.71875 
Q 37.59375 38.625 36.546875 39.109375 
Q 35.5 39.59375 34.1875 39.59375 
L 34.1875 43.109375 
L 50.78125 43.109375 
L 50.78125 39.59375 
Q 47.703125 39.59375 45.375 38.171875 
Q 43.0625 36.765625 41.796875 33.984375 
L 24.515625 -8.40625 
Q 23.140625 -11.625 21.3125 -14.328125 
Q 19.484375 -17.046875 16.84375 -18.78125 
Q 14.203125 -20.515625 11.078125 -20.515625 
Q 7.421875 -20.515625 4.65625 -18.09375 
Q 1.90625 -15.671875 1.90625 -12.109375 
Q 1.90625 -10.25 3.171875 -8.984375 
Q 4.4375 -7.71875 6.296875 -7.71875 
Q 7.5625 -7.71875 8.5625 -8.28125 
Q 9.578125 -8.84375 10.125 -9.8125 
Q 10.6875 -10.796875 10.6875 -12.109375 
Q 10.6875 -13.71875 9.609375 -14.984375 
Q 8.546875 -16.265625 6.890625 -16.40625 
z
" id="Cmr10-121"/>
     <path id="Cmr10-32"/>
     <path d="M 3.078125 0 
L 3.078125 3.515625 
Q 13.375 3.515625 13.375 6.6875 
L 13.375 61.625 
Q 13.375 64.796875 3.078125 64.796875 
L 3.078125 68.3125 
L 58.203125 68.3125 
L 60.984375 45.40625 
L 58.109375 45.40625 
Q 57.421875 51.703125 56.265625 55.34375 
Q 55.125 58.984375 52.921875 61.0625 
Q 50.734375 63.140625 47.046875 63.96875 
Q 43.359375 64.796875 36.921875 64.796875 
L 27.78125 64.796875 
Q 25.984375 64.796875 24.96875 64.640625 
Q 23.96875 64.5 23.328125 63.796875 
Q 22.703125 63.09375 22.703125 61.625 
L 22.703125 35.890625 
L 29.78125 35.890625 
Q 34.90625 35.890625 37.296875 36.796875 
Q 39.703125 37.703125 40.59375 40.09375 
Q 41.5 42.484375 41.5 47.609375 
L 44.390625 47.609375 
L 44.390625 20.703125 
L 41.5 20.703125 
Q 41.5 25.828125 40.59375 28.21875 
Q 39.703125 30.609375 37.296875 31.515625 
Q 34.90625 32.421875 29.78125 32.421875 
L 22.703125 32.421875 
L 22.703125 6.6875 
Q 22.703125 3.515625 35.5 3.515625 
L 35.5 0 
z
" id="Cmr10-70"/>
     <path d="M 10.796875 11.921875 
L 10.796875 33.984375 
Q 10.796875 36.671875 9.984375 37.859375 
Q 9.1875 39.0625 7.671875 39.328125 
Q 6.15625 39.59375 2.984375 39.59375 
L 2.984375 43.109375 
L 18.109375 44.1875 
L 18.109375 11.921875 
Q 18.109375 8.015625 18.671875 5.828125 
Q 19.234375 3.65625 21.0625 2.578125 
Q 22.90625 1.515625 26.90625 1.515625 
Q 32.28125 1.515625 35.453125 6 
Q 38.625 10.5 38.625 16.21875 
L 38.625 33.984375 
Q 38.625 36.671875 37.796875 37.859375 
Q 36.96875 39.0625 35.46875 39.328125 
Q 33.984375 39.59375 30.8125 39.59375 
L 30.8125 43.109375 
L 45.90625 44.1875 
L 45.90625 9.078125 
Q 45.90625 6.453125 46.703125 5.25 
Q 47.515625 4.046875 49.015625 3.78125 
Q 50.53125 3.515625 53.71875 3.515625 
L 53.71875 0 
L 38.921875 -1.125 
L 38.921875 7.328125 
Q 37.0625 3.5625 33.734375 1.21875 
Q 30.421875 -1.125 26.421875 -1.125 
Q 19.234375 -1.125 15.015625 1.921875 
Q 10.796875 4.984375 10.796875 11.921875 
z
" id="Cmr10-117"/>
     <path d="M 2.984375 0 
L 2.984375 3.515625 
Q 6.390625 3.515625 8.59375 4.046875 
Q 10.796875 4.59375 10.796875 6.6875 
L 10.796875 33.984375 
Q 10.796875 36.671875 9.984375 37.859375 
Q 9.1875 39.0625 7.671875 39.328125 
Q 6.15625 39.59375 2.984375 39.59375 
L 2.984375 43.109375 
L 17.484375 44.1875 
L 17.484375 34.421875 
Q 19.484375 38.71875 23.40625 41.453125 
Q 27.34375 44.1875 31.984375 44.1875 
Q 38.921875 44.1875 42.40625 40.859375 
Q 45.90625 37.546875 45.90625 30.71875 
L 45.90625 6.6875 
Q 45.90625 4.59375 48.09375 4.046875 
Q 50.296875 3.515625 53.71875 3.515625 
L 53.71875 0 
L 30.8125 0 
L 30.8125 3.515625 
Q 34.234375 3.515625 36.421875 4.046875 
Q 38.625 4.59375 38.625 6.6875 
L 38.625 30.421875 
Q 38.625 35.296875 37.203125 38.453125 
Q 35.796875 41.609375 31.390625 41.609375 
Q 25.59375 41.609375 21.84375 36.96875 
Q 18.109375 32.328125 18.109375 26.421875 
L 18.109375 6.6875 
Q 18.109375 4.59375 20.3125 4.046875 
Q 22.515625 3.515625 25.875 3.515625 
L 25.875 0 
z
" id="Cmr10-110"/>
     <path d="M 24.90625 -1.125 
Q 18.84375 -1.125 13.90625 2.015625 
Q 8.984375 5.171875 6.15625 10.421875 
Q 3.328125 15.671875 3.328125 21.578125 
Q 3.328125 27.484375 6.125 32.90625 
Q 8.9375 38.328125 13.890625 41.578125 
Q 18.84375 44.828125 24.90625 44.828125 
Q 30.765625 44.828125 35.5625 42.53125 
Q 40.375 40.234375 40.375 35.015625 
Q 40.375 33.0625 38.984375 31.609375 
Q 37.59375 30.171875 35.59375 30.171875 
Q 33.59375 30.171875 32.203125 31.609375 
Q 30.8125 33.0625 30.8125 35.015625 
Q 30.8125 36.765625 31.9375 38.0625 
Q 33.0625 39.359375 34.71875 39.703125 
Q 31.25 41.890625 25 41.890625 
Q 20.21875 41.890625 17.28125 38.71875 
Q 14.359375 35.546875 13.1875 30.859375 
Q 12.015625 26.171875 12.015625 21.578125 
Q 12.015625 16.75 13.453125 12.234375 
Q 14.890625 7.71875 18.09375 4.765625 
Q 21.296875 1.8125 26.125 1.8125 
Q 30.859375 1.8125 34.171875 4.71875 
Q 37.5 7.625 38.71875 12.3125 
Q 38.71875 12.890625 39.5 12.890625 
L 40.71875 12.890625 
Q 41.015625 12.890625 41.25 12.625 
Q 41.5 12.359375 41.5 12.015625 
L 41.5 11.71875 
Q 39.984375 5.8125 35.484375 2.34375 
Q 31 -1.125 24.90625 -1.125 
z
" id="Cmr10-99"/>
     <path d="M 10.203125 12.015625 
L 10.203125 39.59375 
L 1.90625 39.59375 
L 1.90625 42.1875 
Q 8.453125 42.1875 11.515625 48.28125 
Q 14.59375 54.390625 14.59375 61.53125 
L 17.484375 61.53125 
L 17.484375 43.109375 
L 31.59375 43.109375 
L 31.59375 39.59375 
L 17.484375 39.59375 
L 17.484375 12.203125 
Q 17.484375 8.0625 18.875 4.9375 
Q 20.265625 1.8125 23.875 1.8125 
Q 27.296875 1.8125 28.8125 5.109375 
Q 30.328125 8.40625 30.328125 12.203125 
L 30.328125 18.109375 
L 33.203125 18.109375 
L 33.203125 12.015625 
Q 33.203125 8.890625 32.046875 5.828125 
Q 30.90625 2.78125 28.65625 0.828125 
Q 26.421875 -1.125 23.1875 -1.125 
Q 17.1875 -1.125 13.6875 2.46875 
Q 10.203125 6.0625 10.203125 12.015625 
z
" id="Cmr10-116"/>
     <path d="M 3.328125 0 
L 3.328125 3.515625 
Q 13.625 3.515625 13.625 6.6875 
L 13.625 61.625 
Q 13.625 64.796875 3.328125 64.796875 
L 3.328125 68.3125 
L 40.1875 68.3125 
Q 47.015625 68.3125 52.671875 65.359375 
Q 58.34375 62.40625 62.34375 57.46875 
Q 66.359375 52.546875 68.53125 46.296875 
Q 70.703125 40.046875 70.703125 33.5 
Q 70.703125 27.15625 68.5 21.171875 
Q 66.3125 15.1875 62.1875 10.375 
Q 58.0625 5.5625 52.421875 2.78125 
Q 46.78125 0 40.1875 0 
z
M 22.609375 6.6875 
Q 22.609375 4.546875 23.828125 4.03125 
Q 25.046875 3.515625 27.6875 3.515625 
L 37.59375 3.515625 
Q 42.71875 3.515625 47.328125 5.734375 
Q 51.953125 7.953125 54.984375 11.921875 
Q 58.15625 16.109375 59.21875 21.3125 
Q 60.296875 26.515625 60.296875 33.5 
Q 60.296875 40.765625 59.21875 46.234375 
Q 58.15625 51.703125 54.984375 56 
Q 52 60.25 47.40625 62.515625 
Q 42.828125 64.796875 37.59375 64.796875 
L 27.6875 64.796875 
Q 25.875 64.796875 24.875 64.640625 
Q 23.875 64.5 23.234375 63.796875 
Q 22.609375 63.09375 22.609375 61.625 
z
" id="Cmr10-68"/>
     <path d="M 4 9.8125 
Q 4 15.765625 8.6875 19.5 
Q 13.375 23.25 19.9375 24.78125 
Q 26.515625 26.3125 32.421875 26.3125 
L 32.421875 30.421875 
Q 32.421875 33.296875 31.15625 36 
Q 29.890625 38.71875 27.484375 40.453125 
Q 25.09375 42.1875 22.21875 42.1875 
Q 15.578125 42.1875 12.109375 39.203125 
Q 14.015625 39.203125 15.25 37.765625 
Q 16.5 36.328125 16.5 34.421875 
Q 16.5 32.421875 15.078125 31 
Q 13.671875 29.59375 11.71875 29.59375 
Q 9.71875 29.59375 8.296875 31 
Q 6.890625 32.421875 6.890625 34.421875 
Q 6.890625 39.703125 11.671875 42.265625 
Q 16.453125 44.828125 22.21875 44.828125 
Q 26.265625 44.828125 30.359375 43.09375 
Q 34.46875 41.359375 37.078125 38.125 
Q 39.703125 34.90625 39.703125 30.609375 
L 39.703125 8.109375 
Q 39.703125 6.15625 40.53125 4.515625 
Q 41.359375 2.875 43.109375 2.875 
Q 44.78125 2.875 45.578125 4.53125 
Q 46.390625 6.203125 46.390625 8.109375 
L 46.390625 14.5 
L 49.3125 14.5 
L 49.3125 8.109375 
Q 49.3125 5.859375 48.140625 3.828125 
Q 46.96875 1.8125 44.984375 0.609375 
Q 43.015625 -0.59375 40.71875 -0.59375 
Q 37.796875 -0.59375 35.671875 1.671875 
Q 33.546875 3.953125 33.296875 7.078125 
Q 31.453125 3.328125 27.828125 1.09375 
Q 24.21875 -1.125 20.125 -1.125 
Q 16.3125 -1.125 12.625 0 
Q 8.9375 1.125 6.46875 3.53125 
Q 4 5.953125 4 9.8125 
z
M 12.109375 9.8125 
Q 12.109375 6.296875 14.6875 3.90625 
Q 17.28125 1.515625 20.796875 1.515625 
Q 24.03125 1.515625 26.65625 3.125 
Q 29.296875 4.734375 30.859375 7.515625 
Q 32.421875 10.296875 32.421875 13.375 
L 32.421875 23.78125 
Q 27.875 23.78125 23.109375 22.28125 
Q 18.359375 20.796875 15.234375 17.625 
Q 12.109375 14.453125 12.109375 9.8125 
z
" id="Cmr10-97"/>
    </defs>
    <g transform="translate(140.276058 21.553269)scale(0.12 -0.12)">
     <use xlink:href="#Cmr10-78"/>
     <use x="75" xlink:href="#Cmr10-111"/>
     <use x="125" xlink:href="#Cmr10-105"/>
     <use x="152.685547" xlink:href="#Cmr10-115"/>
     <use x="192.089844" xlink:href="#Cmr10-121"/>
     <use x="244.775391" xlink:href="#Cmr10-32"/>
     <use x="278.076172" xlink:href="#Cmr10-70"/>
     <use x="343.261719" xlink:href="#Cmr10-117"/>
     <use x="398.779297" xlink:href="#Cmr10-110"/>
     <use x="454.296875" xlink:href="#Cmr10-99"/>
     <use x="498.681641" xlink:href="#Cmr10-116"/>
     <use x="537.5" xlink:href="#Cmr10-105"/>
     <use x="565.185547" xlink:href="#Cmr10-111"/>
     <use x="615.185547" xlink:href="#Cmr10-110"/>
     <use x="670.703125" xlink:href="#Cmr10-32"/>
     <use x="704.003906" xlink:href="#Cmr10-68"/>
     <use x="780.322266" xlink:href="#Cmr10-97"/>
     <use x="830.322266" xlink:href="#Cmr10-116"/>
     <use x="869.140625" xlink:href="#Cmr10-97"/>
    </g>
   </g>
   <g id="legend_1">
    <g id="patch_7">
     <path d="M 50.804315 63.417043 
L 153.396075 63.417043 
Q 155.395275 63.417043 155.395275 61.417843 
L 155.395275 34.550469 
Q 155.395275 32.551269 153.396075 32.551269 
L 50.804315 32.551269 
Q 48.805115 32.551269 48.805115 34.550469 
L 48.805115 61.417843 
Q 48.805115 63.417043 50.804315 63.417043 
z
" style="fill:#fdfdfd;opacity:0.8;stroke:#cccccc;stroke-linejoin:miter;"/>
    </g>
    <g id="line2d_18">
     <path d="M 52.803515 40.048269 
L 72.795515 40.048269 
" style="fill:none;stroke:#000000;stroke-dasharray:7.4,3.2;stroke-dashoffset:0;stroke-width:2;"/>
    </g>
    <g id="line2d_19"/>
    <g id="text_12">
     <!-- Mean Function -->
     <defs>
      <path d="M 3.515625 0 
L 3.515625 3.515625 
Q 13.8125 3.515625 13.8125 9.421875 
L 13.8125 61.625 
Q 13.8125 64.796875 3.515625 64.796875 
L 3.515625 68.3125 
L 22.40625 68.3125 
Q 23.640625 68.3125 24.03125 67.1875 
L 45.796875 10.59375 
L 67.578125 67.1875 
Q 67.96875 68.3125 69.1875 68.3125 
L 88.09375 68.3125 
L 88.09375 64.796875 
Q 77.78125 64.796875 77.78125 61.625 
L 77.78125 6.6875 
Q 77.78125 3.515625 88.09375 3.515625 
L 88.09375 0 
L 58.984375 0 
L 58.984375 3.515625 
Q 69.28125 3.515625 69.28125 6.6875 
L 69.28125 64.890625 
L 44.671875 1.125 
Q 44.234375 0 43.015625 0 
Q 41.75 0 41.3125 1.125 
L 17 64.109375 
L 17 9.421875 
Q 17 3.515625 27.296875 3.515625 
L 27.296875 0 
z
" id="Cmr10-77"/>
      <path d="M 24.90625 -1.125 
Q 18.796875 -1.125 13.6875 2.078125 
Q 8.59375 5.28125 5.6875 10.625 
Q 2.78125 15.96875 2.78125 21.921875 
Q 2.78125 27.78125 5.4375 33.046875 
Q 8.109375 38.328125 12.859375 41.578125 
Q 17.625 44.828125 23.484375 44.828125 
Q 28.078125 44.828125 31.46875 43.28125 
Q 34.859375 41.75 37.0625 39.015625 
Q 39.265625 36.28125 40.375 32.5625 
Q 41.5 28.859375 41.5 24.421875 
Q 41.5 23.09375 40.484375 23.09375 
L 11.53125 23.09375 
L 11.53125 22.015625 
Q 11.53125 13.71875 14.875 7.765625 
Q 18.21875 1.8125 25.78125 1.8125 
Q 28.859375 1.8125 31.46875 3.171875 
Q 34.078125 4.546875 36 6.984375 
Q 37.9375 9.421875 38.625 12.203125 
Q 38.71875 12.546875 38.984375 12.8125 
Q 39.265625 13.09375 39.59375 13.09375 
L 40.484375 13.09375 
Q 41.5 13.09375 41.5 11.8125 
Q 40.09375 6.15625 35.40625 2.515625 
Q 30.71875 -1.125 24.90625 -1.125 
z
M 11.625 25.59375 
L 34.421875 25.59375 
Q 34.421875 29.34375 33.375 33.203125 
Q 32.328125 37.0625 29.875 39.625 
Q 27.4375 42.1875 23.484375 42.1875 
Q 17.828125 42.1875 14.71875 36.890625 
Q 11.625 31.59375 11.625 25.59375 
z
" id="Cmr10-101"/>
     </defs>
     <g transform="translate(80.792315 43.546869)scale(0.09996 -0.09996)">
      <use xlink:href="#Cmr10-77"/>
      <use x="91.601562" xlink:href="#Cmr10-101"/>
      <use x="135.986328" xlink:href="#Cmr10-97"/>
      <use x="185.986328" xlink:href="#Cmr10-110"/>
      <use x="241.503906" xlink:href="#Cmr10-32"/>
      <use x="274.804688" xlink:href="#Cmr10-70"/>
      <use x="339.990234" xlink:href="#Cmr10-117"/>
      <use x="395.507812" xlink:href="#Cmr10-110"/>
      <use x="451.025391" xlink:href="#Cmr10-99"/>
      <use x="495.410156" xlink:href="#Cmr10-116"/>
      <use x="534.228516" xlink:href="#Cmr10-105"/>
      <use x="561.914062" xlink:href="#Cmr10-111"/>
      <use x="611.914062" xlink:href="#Cmr10-110"/>
     </g>
    </g>
    <g id="PathCollection_2">
     <g>
      <use style="fill:#1f77b4;fill-opacity:0.7;stroke:#1f77b4;stroke-opacity:0.7;" x="62.799515" xlink:href="#m48a94b2b01" y="54.856406"/>
     </g>
    </g>
    <g id="text_13">
     <!-- Validation Data -->
     <defs>
      <path d="M 35.203125 -1.125 
L 11.625 61.625 
Q 10.75 63.71875 8.25 64.25 
Q 5.765625 64.796875 1.90625 64.796875 
L 1.90625 68.3125 
L 29.390625 68.3125 
L 29.390625 64.796875 
Q 21.09375 64.796875 21.09375 62.203125 
Q 21.140625 62.0625 21.15625 61.9375 
Q 21.1875 61.8125 21.1875 61.625 
L 40.375 10.59375 
L 58.5 58.890625 
Q 58.6875 59.28125 58.6875 60.109375 
Q 58.6875 62.546875 56.4375 63.671875 
Q 54.203125 64.796875 51.421875 64.796875 
L 51.421875 68.3125 
L 73 68.3125 
L 73 64.796875 
Q 69.234375 64.796875 66.375 63.40625 
Q 63.53125 62.015625 62.3125 58.890625 
L 39.703125 -1.125 
Q 39.40625 -2.203125 38.09375 -2.203125 
L 36.8125 -2.203125 
Q 35.5 -2.203125 35.203125 -1.125 
z
" id="Cmr10-86"/>
      <path d="M 3.078125 0 
L 3.078125 3.515625 
Q 6.5 3.515625 8.6875 4.046875 
Q 10.890625 4.59375 10.890625 6.6875 
L 10.890625 59.1875 
Q 10.890625 61.859375 10.078125 63.0625 
Q 9.28125 64.265625 7.765625 64.53125 
Q 6.25 64.796875 3.078125 64.796875 
L 3.078125 68.3125 
L 17.921875 69.390625 
L 17.921875 6.6875 
Q 17.921875 4.59375 20.109375 4.046875 
Q 22.3125 3.515625 25.6875 3.515625 
L 25.6875 0 
z
" id="Cmr10-108"/>
      <path d="M 24.421875 -1.125 
Q 18.5 -1.125 13.609375 2.078125 
Q 8.734375 5.28125 6.03125 10.5 
Q 3.328125 15.71875 3.328125 21.578125 
Q 3.328125 27.640625 6.28125 32.828125 
Q 9.234375 38.03125 14.3125 41.109375 
Q 19.390625 44.1875 25.484375 44.1875 
Q 29.15625 44.1875 32.421875 42.640625 
Q 35.6875 41.109375 38.09375 38.375 
L 38.09375 59.1875 
Q 38.09375 61.859375 37.28125 63.0625 
Q 36.46875 64.265625 34.984375 64.53125 
Q 33.5 64.796875 30.328125 64.796875 
L 30.328125 68.3125 
L 45.125 69.390625 
L 45.125 9.078125 
Q 45.125 6.453125 45.921875 5.25 
Q 46.734375 4.046875 48.21875 3.78125 
Q 49.703125 3.515625 52.875 3.515625 
L 52.875 0 
L 37.796875 -1.125 
L 37.796875 5.171875 
Q 35.203125 2.203125 31.640625 0.53125 
Q 28.078125 -1.125 24.421875 -1.125 
z
M 14.203125 8.6875 
Q 15.921875 5.421875 18.765625 3.46875 
Q 21.625 1.515625 25 1.515625 
Q 29.15625 1.515625 32.609375 3.90625 
Q 36.078125 6.296875 37.796875 10.109375 
L 37.796875 34.078125 
Q 36.625 36.28125 34.84375 38.015625 
Q 33.0625 39.75 30.828125 40.671875 
Q 28.609375 41.609375 26.125 41.609375 
Q 20.90625 41.609375 17.71875 38.640625 
Q 14.546875 35.6875 13.28125 31.09375 
Q 12.015625 26.515625 12.015625 21.484375 
Q 12.015625 17.484375 12.421875 14.5 
Q 12.84375 11.53125 14.203125 8.6875 
z
" id="Cmr10-100"/>
     </defs>
     <g transform="translate(80.792315 57.480356)scale(0.09996 -0.09996)">
      <use xlink:href="#Cmr10-86"/>
      <use x="75" xlink:href="#Cmr10-97"/>
      <use x="125" xlink:href="#Cmr10-108"/>
      <use x="152.685547" xlink:href="#Cmr10-105"/>
      <use x="180.371094" xlink:href="#Cmr10-100"/>
      <use x="235.888672" xlink:href="#Cmr10-97"/>
      <use x="285.888672" xlink:href="#Cmr10-116"/>
      <use x="324.707031" xlink:href="#Cmr10-105"/>
      <use x="352.392578" xlink:href="#Cmr10-111"/>
      <use x="402.392578" xlink:href="#Cmr10-110"/>
      <use x="457.910156" xlink:href="#Cmr10-32"/>
      <use x="491.210938" xlink:href="#Cmr10-68"/>
      <use x="567.529297" xlink:href="#Cmr10-97"/>
      <use x="617.529297" xlink:href="#Cmr10-116"/>
      <use x="656.347656" xlink:href="#Cmr10-97"/>
     </g>
    </g>
   </g>
  </g>
 </g>
 <defs>
  <clipPath id="pfe03cd3b06">
   <rect height="143.869423" width="303.232885" x="43.807115" y="27.553269"/>
  </clipPath>
 </defs>
</svg>
